0
SECTION
2
ENTITIES
0
LINE
8
0
10
-256.0
20
-59.951782
30
-173.20508
11
-254.0
21
-58.099365
31
-173.20508
0
LINE
8
0
10
-256.0
20
40.048218
30
-173.20508
11
-254.0
21
41.900635
31
-173.20508
0
LINE
8
0
10
-254.0
20
-58.099365
30
-173.20508
11
-252.0
21
-55.152893
31
-173.20508
0
LINE
8
0
10
-254.0
20
41.900635
30
-173.20508
11
-252.0
21
44.847107
31
-173.20508
0
LINE
8
0
10
-252.0
20
-55.152893
30
-173.20508
11
-250.0
21
-51.35956
31
-173.20508
0
LINE
8
0
10
-252.0
20
44.847107
30
-173.20508
11
-250.0
21
48.64044
31
-173.20508
0
LINE
8
0
10
-250.0
20
-51.35956
30
-173.20508
11
-248.0
21
-47.21222
31
-173.20508
0
LINE
8
0
10
-250.0
20
48.64044
30
-173.20508
11
-248.0
21
52.78778
31
-173.20508
0
LINE
8
0
10
-248.0
20
-47.21222
30
-173.20508
11
-246.0
21
-43.302917
31
-173.20508
0
LINE
8
0
10
-248.0
20
52.78778
30
-173.20508
11
-246.0
21
56.697083
31
-173.20508
0
LINE
8
0
10
-246.0
20
-43.302917
30
-173.20508
11
-244.0
21
-40.35492
31
-173.20508
0
LINE
8
0
10
-246.0
20
56.697083
30
-173.20508
11
-244.0
21
59.64508
31
-173.20508
0
LINE
8
0
10
-244.0
20
-40.35492
30
-173.20508
11
-242.0
21
-39.031982
31
-173.20508
0
LINE
8
0
10
-244.0
20
59.64508
30
-173.20508
11
-242.0
21
60.968018
31
-173.20508
0
LINE
8
0
10
-242.0
20
-39.031982
30
-173.20508
11
-240.0
21
-39.437866
31
-173.20508
0
LINE
8
0
10
-242.0
20
60.968018
30
-173.20508
11
-240.0
21
60.562134
31
-173.20508
0
LINE
8
0
10
-240.0
20
-39.437866
30
-173.20508
11
-238.0
21
-41.305542
31
-173.20508
0
LINE
8
0
10
-240.0
20
60.562134
30
-173.20508
11
-238.0
21
58.694458
31
-173.20508
0
LINE
8
0
10
-238.0
20
-41.305542
30
-173.20508
11
-236.0
21
-44.247437
31
-173.20508
0
LINE
8
0
10
-238.0
20
58.694458
30
-173.20508
11
-236.0
21
55.752563
31
-173.20508
0
LINE
8
0
10
-236.0
20
-44.247437
30
-173.20508
11
-234.0
21
-47.87445
31
-173.20508
0
LINE
8
0
10
-236.0
20
55.752563
30
-173.20508
11
-234.0
21
52.12555
31
-173.20508
0
LINE
8
0
10
-234.0
20
-47.87445
30
-173.20508
11
-232.0
21
-51.608276
31
-173.20508
0
LINE
8
0
10
-234.0
20
52.12555
30
-173.20508
11
-232.0
21
48.391724
31
-173.20508
0
LINE
8
0
10
-232.0
20
-51.608276
30
-173.20508
11
-230.0
21
-55.244446
31
-173.20508
0
LINE
8
0
10
-232.0
20
48.391724
30
-173.20508
11
-230.0
21
44.755554
31
-173.20508
0
LINE
8
0
10
-230.0
20
-55.244446
30
-173.20508
11
-228.0
21
-58.163452
31
-173.20508
0
LINE
8
0
10
-230.0
20
44.755554
30
-173.20508
11
-228.0
21
41.836548
31
-173.20508
0
LINE
8
0
10
-228.0
20
-58.163452
30
-173.20508
11
-226.0
21
-59.88922
31
-173.20508
0
LINE
8
0
10
-228.0
20
41.836548
30
-173.20508
11
-226.0
21
40.11078
31
-173.20508
0
LINE
8
0
10
-226.0
20
-59.88922
30
-173.20508
11
-224.0
21
-60.35919
31
-173.20508
0
LINE
8
0
10
-226.0
20
40.11078
30
-173.20508
11
-224.0
21
39.64081
31
-173.20508
0
LINE
8
0
10
-224.0
20
-60.35919
30
-173.20508
11
-222.0
21
-59.61151
31
-173.20508
0
LINE
8
0
10
-224.0
20
39.64081
30
-173.20508
11
-222.0
21
40.38849
31
-173.20508
0
LINE
8
0
10
-222.0
20
-59.61151
30
-173.20508
11
-220.0
21
-57.528687
31
-173.20508
0
LINE
8
0
10
-222.0
20
40.38849
30
-173.20508
11
-220.0
21
42.471313
31
-173.20508
0
LINE
8
0
10
-220.0
20
-57.528687
30
-173.20508
11
-218.0
21
-54.12445
31
-173.20508
0
LINE
8
0
10
-220.0
20
42.471313
30
-173.20508
11
-218.0
21
45.87555
31
-173.20508
0
LINE
8
0
10
-218.0
20
-54.12445
30
-173.20508
11
-216.0
21
-50.086975
31
-173.20508
0
LINE
8
0
10
-218.0
20
45.87555
30
-173.20508
11
-216.0
21
49.913025
31
-173.20508
0
LINE
8
0
10
-216.0
20
-50.086975
30
-173.20508
11
-214.0
21
-46.125793
31
-173.20508
0
LINE
8
0
10
-216.0
20
49.913025
30
-173.20508
11
-214.0
21
53.874207
31
-173.20508
0
LINE
8
0
10
-214.0
20
-46.125793
30
-173.20508
11
-212.0
21
-42.68036
31
-173.20508
0
LINE
8
0
10
-214.0
20
53.874207
30
-173.20508
11
-212.0
21
57.31964
31
-173.20508
0
LINE
8
0
10
-212.0
20
-42.68036
30
-173.20508
11
-210.0
21
-40.11841
31
-173.20508
0
LINE
8
0
10
-212.0
20
57.31964
30
-173.20508
11
-210.0
21
59.88159
31
-173.20508
0
LINE
8
0
10
-210.0
20
-40.11841
30
-173.20508
11
-208.0
21
-39.222717
31
-173.20508
0
LINE
8
0
10
-210.0
20
59.88159
30
-173.20508
11
-208.0
21
60.777283
31
-173.20508
0
LINE
8
0
10
-208.0
20
-39.222717
30
-173.20508
11
-206.0
21
-39.970398
31
-173.20508
0
LINE
8
0
10
-208.0
20
60.777283
30
-173.20508
11
-206.0
21
60.029602
31
-173.20508
0
LINE
8
0
10
-206.0
20
-39.970398
30
-173.20508
11
-204.0
21
-42.077637
31
-173.20508
0
LINE
8
0
10
-206.0
20
60.029602
30
-173.20508
11
-204.0
21
57.922363
31
-173.20508
0
LINE
8
0
10
-204.0
20
-42.077637
30
-173.20508
11
-202.0
21
-45.12024
31
-173.20508
0
LINE
8
0
10
-204.0
20
57.922363
30
-173.20508
11
-202.0
21
54.87976
31
-173.20508
0
LINE
8
0
10
-202.0
20
-45.12024
30
-173.20508
11
-200.0
21
-48.7442
31
-173.20508
0
LINE
8
0
10
-202.0
20
54.87976
30
-173.20508
11
-200.0
21
51.2558
31
-173.20508
0
LINE
8
0
10
-200.0
20
-48.7442
30
-173.20508
11
-198.0
21
-52.615356
31
-173.20508
0
LINE
8
0
10
-200.0
20
51.2558
30
-173.20508
11
-198.0
21
47.384644
31
-173.20508
0
LINE
8
0
10
-198.0
20
-52.615356
30
-173.20508
11
-196.0
21
-55.9494
31
-173.20508
0
LINE
8
0
10
-198.0
20
47.384644
30
-173.20508
11
-196.0
21
44.0506
31
-173.20508
0
LINE
8
0
10
-196.0
20
-55.9494
30
-173.20508
11
-194.0
21
-58.529663
31
-173.20508
0
LINE
8
0
10
-196.0
20
44.0506
30
-173.20508
11
-194.0
21
41.470337
31
-173.20508
0
LINE
8
0
10
-194.0
20
-58.529663
30
-173.20508
11
-192.0
21
-60.06012
31
-173.20508
0
LINE
8
0
10
-194.0
20
41.470337
30
-173.20508
11
-192.0
21
39.93988
31
-173.20508
0
LINE
8
0
10
-192.0
20
-60.06012
30
-173.20508
11
-190.0
21
-60.375977
31
-173.20508
0
LINE
8
0
10
-192.0
20
39.93988
30
-173.20508
11
-190.0
21
39.624023
31
-173.20508
0
LINE
8
0
10
-190.0
20
-60.375977
30
-173.20508
11
-188.0
21
-59.088135
31
-173.20508
0
LINE
8
0
10
-190.0
20
39.624023
30
-173.20508
11
-188.0
21
40.911865
31
-173.20508
0
LINE
8
0
10
-188.0
20
-59.088135
30
-173.20508
11
-186.0
21
-56.547546
31
-173.20508
0
LINE
8
0
10
-188.0
20
40.911865
30
-173.20508
11
-186.0
21
43.452454
31
-173.20508
0
LINE
8
0
10
-186.0
20
-56.547546
30
-173.20508
11
-184.0
21
-52.941895
31
-173.20508
0
LINE
8
0
10
-186.0
20
43.452454
30
-173.20508
11
-184.0
21
47.058105
31
-173.20508
0
LINE
8
0
10
-184.0
20
-52.941895
30
-173.20508
11
-182.0
21
-49.16382
31
-173.20508
0
LINE
8
0
10
-184.0
20
47.058105
30
-173.20508
11
-182.0
21
50.83618
31
-173.20508
0
LINE
8
0
10
-182.0
20
-49.16382
30
-173.20508
11
-180.0
21
-45.228577
31
-173.20508
0
LINE
8
0
10
-182.0
20
50.83618
30
-173.20508
11
-180.0
21
54.771423
31
-173.20508
0
LINE
8
0
10
-180.0
20
-45.228577
30
-173.20508
11
-178.0
21
-41.86859
31
-173.20508
0
LINE
8
0
10
-180.0
20
54.771423
30
-173.20508
11
-178.0
21
58.13141
31
-173.20508
0
LINE
8
0
10
-178.0
20
-41.86859
30
-173.20508
11
-176.0
21
-39.653015
31
-173.20508
0
LINE
8
0
10
-178.0
20
58.13141
30
-173.20508
11
-176.0
21
60.346985
31
-173.20508
0
LINE
8
0
10
-176.0
20
-39.653015
30
-173.20508
11
-174.0
21
-39.093018
31
-173.20508
0
LINE
8
0
10
-176.0
20
60.346985
30
-173.20508
11
-174.0
21
60.906982
31
-173.20508
0
LINE
8
0
10
-174.0
20
-39.093018
30
-173.20508
11
-172.0
21
-39.700317
31
-173.20508
0
LINE
8
0
10
-174.0
20
60.906982
30
-173.20508
11
-172.0
21
60.299683
31
-173.20508
0
LINE
8
0
10
-172.0
20
-39.700317
30
-173.20508
11
-170.0
21
-42.596436
31
-173.20508
0
LINE
8
0
10
-172.0
20
60.299683
30
-173.20508
11
-170.0
21
57.403564
31
-173.20508
0
LINE
8
0
10
-170.0
20
-42.596436
30
-173.20508
11
-168.0
21
-46.784973
31
-173.20508
0
LINE
8
0
10
-170.0
20
57.403564
30
-173.20508
11
-168.0
21
53.215027
31
-173.20508
0
LINE
8
0
10
-168.0
20
-46.784973
30
-173.20508
11
-166.0
21
-49.85962
31
-173.20508
0
LINE
8
0
10
-168.0
20
53.215027
30
-173.20508
11
-166.0
21
50.14038
31
-173.20508
0
LINE
8
0
10
-166.0
20
-49.85962
30
-173.20508
11
-164.0
21
-53.404236
31
-173.20508
0
LINE
8
0
10
-166.0
20
50.14038
30
-173.20508
11
-164.0
21
46.595764
31
-173.20508
0
LINE
8
0
10
-164.0
20
-53.404236
30
-173.20508
11
-162.0
21
-56.428528
31
-173.20508
0
LINE
8
0
10
-164.0
20
46.595764
30
-173.20508
11
-162.0
21
43.571472
31
-173.20508
0
LINE
8
0
10
-162.0
20
-56.428528
30
-173.20508
11
-160.0
21
-59.46808
31
-173.20508
0
LINE
8
0
10
-162.0
20
43.571472
30
-173.20508
11
-160.0
21
40.53192
31
-173.20508
0
LINE
8
0
10
-160.0
20
-59.46808
30
-173.20508
11
-158.0
21
-60.38513
31
-173.20508
0
LINE
8
0
10
-160.0
20
40.53192
30
-173.20508
11
-158.0
21
39.61487
31
-173.20508
0
LINE
8
0
10
-158.0
20
-60.38513
30
-173.20508
11
-156.0
21
-59.51233
31
-173.20508
0
LINE
8
0
10
-158.0
20
39.61487
30
-173.20508
11
-156.0
21
40.48767
31
-173.20508
0
LINE
8
0
10
-156.0
20
-59.51233
30
-173.20508
11
-154.0
21
-58.580017
31
-173.20508
0
LINE
8
0
10
-156.0
20
40.48767
30
-173.20508
11
-154.0
21
41.419983
31
-173.20508
0
LINE
8
0
10
-154.0
20
-58.580017
30
-173.20508
11
-152.0
21
-56.274414
31
-173.20508
0
LINE
8
0
10
-154.0
20
41.419983
30
-173.20508
11
-152.0
21
43.725586
31
-173.20508
0
LINE
8
0
10
-152.0
20
-56.274414
30
-173.20508
11
-150.0
21
-51.416016
31
-173.20508
0
LINE
8
0
10
-152.0
20
43.725586
30
-173.20508
11
-150.0
21
48.583984
31
-173.20508
0
LINE
8
0
10
-150.0
20
-51.416016
30
-173.20508
11
-148.0
21
-47.894287
31
-173.20508
0
LINE
8
0
10
-150.0
20
48.583984
30
-173.20508
11
-148.0
21
52.105713
31
-173.20508
0
LINE
8
0
10
-148.0
20
-47.894287
30
-173.20508
11
-146.0
21
-44.070435
31
-173.20508
0
LINE
8
0
10
-148.0
20
52.105713
30
-173.20508
11
-146.0
21
55.929565
31
-173.20508
0
LINE
8
0
10
-146.0
20
-44.070435
30
-173.20508
11
-144.0
21
-41.192627
31
-173.20508
0
LINE
8
0
10
-146.0
20
55.929565
30
-173.20508
11
-144.0
21
58.807373
31
-173.20508
0
LINE
8
0
10
-144.0
20
-41.192627
30
-173.20508
11
-142.0
21
-40.020752
31
-173.20508
0
LINE
8
0
10
-144.0
20
58.807373
30
-173.20508
11
-142.0
21
59.979248
31
-173.20508
0
LINE
8
0
10
-142.0
20
-40.020752
30
-173.20508
11
-140.0
21
-40.048218
31
-173.20508
0
LINE
8
0
10
-142.0
20
59.979248
30
-173.20508
11
-140.0
21
59.951782
31
-173.20508
0
LINE
8
0
10
-140.0
20
-40.048218
30
-173.20508
11
-138.0
21
-41.14685
31
-173.20508
0
LINE
8
0
10
-140.0
20
59.951782
30
-173.20508
11
-138.0
21
58.85315
31
-173.20508
0
LINE
8
0
10
-138.0
20
-41.14685
30
-173.20508
11
-136.0
21
-43.492126
31
-173.20508
0
LINE
8
0
10
-138.0
20
58.85315
30
-173.20508
11
-136.0
21
56.507874
31
-173.20508
0
LINE
8
0
10
-136.0
20
-43.492126
30
-173.20508
11
-134.0
21
-47.70508
31
-173.20508
0
LINE
8
0
10
-136.0
20
56.507874
30
-173.20508
11
-134.0
21
52.29492
31
-173.20508
0
LINE
8
0
10
-134.0
20
-47.70508
30
-173.20508
11
-132.0
21
-50.135803
31
-173.20508
0
LINE
8
0
10
-134.0
20
52.29492
30
-173.20508
11
-132.0
21
49.864197
31
-173.20508
0
LINE
8
0
10
-132.0
20
-50.135803
30
-173.20508
11
-130.0
21
-54.29535
31
-173.20508
0
LINE
8
0
10
-132.0
20
49.864197
30
-173.20508
11
-130.0
21
45.70465
31
-173.20508
0
LINE
8
0
10
-130.0
20
-54.29535
30
-173.20508
11
-128.0
21
-57.71637
31
-173.20508
0
LINE
8
0
10
-130.0
20
45.70465
30
-173.20508
11
-128.0
21
42.28363
31
-173.20508
0
LINE
8
0
10
-128.0
20
-57.71637
30
-173.20508
11
-126.0
21
-59.23004
31
-173.20508
0
LINE
8
0
10
-128.0
20
42.28363
30
-173.20508
11
-126.0
21
40.76996
31
-173.20508
0
LINE
8
0
10
-126.0
20
-59.23004
30
-173.20508
11
-124.0
21
-58.103943
31
-173.20508
0
LINE
8
0
10
-126.0
20
40.76996
30
-173.20508
11
-124.0
21
41.896057
31
-173.20508
0
LINE
8
0
10
-124.0
20
-58.103943
30
-173.20508
11
-122.0
21
-59.26361
31
-173.20508
0
LINE
8
0
10
-124.0
20
41.896057
30
-173.20508
11
-122.0
21
40.73639
31
-173.20508
0
LINE
8
0
10
-122.0
20
-59.26361
30
-173.20508
11
-120.0
21
-58.163452
31
-173.20508
0
LINE
8
0
10
-122.0
20
40.73639
30
-173.20508
11
-120.0
21
41.836548
31
-173.20508
0
LINE
8
0
10
-120.0
20
-58.163452
30
-173.20508
11
-118.0
21
-53.95813
31
-173.20508
0
LINE
8
0
10
-120.0
20
41.836548
30
-173.20508
11
-118.0
21
46.04187
31
-173.20508
0
LINE
8
0
10
-118.0
20
-53.95813
30
-173.20508
11
-116.0
21
-49.61853
31
-173.20508
0
LINE
8
0
10
-118.0
20
46.04187
30
-173.20508
11
-116.0
21
50.38147
31
-173.20508
0
LINE
8
0
10
-116.0
20
-49.61853
30
-173.20508
11
-114.0
21
-47.203064
31
-173.20508
0
LINE
8
0
10
-116.0
20
50.38147
30
-173.20508
11
-114.0
21
52.796936
31
-173.20508
0
LINE
8
0
10
-114.0
20
-47.203064
30
-173.20508
11
-112.0
21
-45.710754
31
-173.20508
0
LINE
8
0
10
-114.0
20
52.796936
30
-173.20508
11
-112.0
21
54.289246
31
-173.20508
0
LINE
8
0
10
-112.0
20
-45.710754
30
-173.20508
11
-110.0
21
-42.03186
31
-173.20508
0
LINE
8
0
10
-112.0
20
54.289246
30
-173.20508
11
-110.0
21
57.96814
31
-173.20508
0
LINE
8
0
10
-110.0
20
-42.03186
30
-173.20508
11
-108.0
21
-39.341736
31
-173.20508
0
LINE
8
0
10
-110.0
20
57.96814
30
-173.20508
11
-108.0
21
60.658264
31
-173.20508
0
LINE
8
0
10
-108.0
20
-39.341736
30
-173.20508
11
-106.0
21
-41.038513
31
-173.20508
0
LINE
8
0
10
-108.0
20
60.658264
30
-173.20508
11
-106.0
21
58.961487
31
-173.20508
0
LINE
8
0
10
-106.0
20
-41.038513
30
-173.20508
11
-104.0
21
-42.590332
31
-173.20508
0
LINE
8
0
10
-106.0
20
58.961487
30
-173.20508
11
-104.0
21
57.409668
31
-173.20508
0
LINE
8
0
10
-104.0
20
-42.590332
30
-173.20508
11
-102.0
21
-43.815613
31
-173.20508
0
LINE
8
0
10
-104.0
20
57.409668
30
-173.20508
11
-102.0
21
56.184387
31
-173.20508
0
LINE
8
0
10
-102.0
20
-43.815613
30
-173.20508
11
-100.0
21
-48.62976
31
-173.20508
0
LINE
8
0
10
-102.0
20
56.184387
30
-173.20508
11
-100.0
21
51.37024
31
-173.20508
0
LINE
8
0
10
-100.0
20
-48.62976
30
-173.20508
11
-98.0
21
-52.494812
31
-173.20508
0
LINE
8
0
10
-100.0
20
51.37024
30
-173.20508
11
-98.0
21
47.505188
31
-173.20508
0
LINE
8
0
10
-98.0
20
-52.494812
30
-173.20508
11
-96.0
21
-53.051758
31
-173.20508
0
LINE
8
0
10
-98.0
20
47.505188
30
-173.20508
11
-96.0
21
46.948242
31
-173.20508
0
LINE
8
0
10
-96.0
20
-53.051758
30
-173.20508
11
-94.0
21
-58.540344
31
-173.20508
0
LINE
8
0
10
-96.0
20
46.948242
30
-173.20508
11
-94.0
21
41.459656
31
-173.20508
0
LINE
8
0
10
-94.0
20
-58.540344
30
-173.20508
11
-92.0
21
-59.643555
31
-173.20508
0
LINE
8
0
10
-94.0
20
41.459656
30
-173.20508
11
-92.0
21
40.356445
31
-173.20508
0
LINE
8
0
10
-92.0
20
-59.643555
30
-173.20508
11
-90.0
21
-57.724
31
-173.20508
0
LINE
8
0
10
-92.0
20
40.356445
30
-173.20508
11
-90.0
21
42.276
31
-173.20508
0
LINE
8
0
10
-90.0
20
-57.724
30
-173.20508
11
-88.0
21
-59.046936
31
-173.20508
0
LINE
8
0
10
-90.0
20
42.276
30
-173.20508
11
-88.0
21
40.953064
31
-173.20508
0
LINE
8
0
10
-88.0
20
-59.046936
30
-173.20508
11
-86.0
21
-58.328247
31
-173.20508
0
LINE
8
0
10
-88.0
20
40.953064
30
-173.20508
11
-86.0
21
41.671753
31
-173.20508
0
LINE
8
0
10
-86.0
20
-58.328247
30
-173.20508
11
-84.0
21
-55.28717
31
-173.20508
0
LINE
8
0
10
-86.0
20
41.671753
30
-173.20508
11
-84.0
21
44.71283
31
-173.20508
0
LINE
8
0
10
-84.0
20
-55.28717
30
-173.20508
11
-82.0
21
-50.349426
31
-173.20508
0
LINE
8
0
10
-84.0
20
44.71283
30
-173.20508
11
-82.0
21
49.650574
31
-173.20508
0
LINE
8
0
10
-82.0
20
-50.349426
30
-173.20508
11
-80.0
21
-46.45233
31
-173.20508
0
LINE
8
0
10
-82.0
20
49.650574
30
-173.20508
11
-80.0
21
53.54767
31
-173.20508
0
LINE
8
0
10
-80.0
20
-46.45233
30
-173.20508
11
-78.0
21
-41.12549
31
-173.20508
0
LINE
8
0
10
-80.0
20
53.54767
30
-173.20508
11
-78.0
21
58.87451
31
-173.20508
0
LINE
8
0
10
-78.0
20
-41.12549
30
-173.20508
11
-76.0
21
-38.52539
31
-173.20508
0
LINE
8
0
10
-78.0
20
58.87451
30
-173.20508
11
-76.0
21
61.47461
31
-173.20508
0
LINE
8
0
10
-76.0
20
-38.52539
30
-173.20508
11
-74.0
21
-39.508057
31
-173.20508
0
LINE
8
0
10
-76.0
20
61.47461
30
-173.20508
11
-74.0
21
60.491943
31
-173.20508
0
LINE
8
0
10
-74.0
20
-39.508057
30
-173.20508
11
-72.0
21
-41.305542
31
-173.20508
0
LINE
8
0
10
-74.0
20
60.491943
30
-173.20508
11
-72.0
21
58.694458
31
-173.20508
0
LINE
8
0
10
-72.0
20
-41.305542
30
-173.20508
11
-70.0
21
-43.537903
31
-173.20508
0
LINE
8
0
10
-72.0
20
58.694458
30
-173.20508
11
-70.0
21
56.462097
31
-173.20508
0
LINE
8
0
10
-70.0
20
-43.537903
30
-173.20508
11
-68.0
21
-44.589233
31
-173.20508
0
LINE
8
0
10
-70.0
20
56.462097
30
-173.20508
11
-68.0
21
55.410767
31
-173.20508
0
LINE
8
0
10
-68.0
20
-44.589233
30
-173.20508
11
-66.0
21
-48.63434
31
-173.20508
0
LINE
8
0
10
-68.0
20
55.410767
30
-173.20508
11
-66.0
21
51.36566
31
-173.20508
0
LINE
8
0
10
-66.0
20
-48.63434
30
-173.20508
11
-64.0
21
-53.5614
31
-173.20508
0
LINE
8
0
10
-66.0
20
51.36566
30
-173.20508
11
-64.0
21
46.4386
31
-173.20508
0
LINE
8
0
10
-64.0
20
-53.5614
30
-173.20508
11
-62.0
21
-56.723022
31
-173.20508
0
LINE
8
0
10
-64.0
20
46.4386
30
-173.20508
11
-62.0
21
43.276978
31
-173.20508
0
LINE
8
0
10
-62.0
20
-56.723022
30
-173.20508
11
-60.0
21
-57.510376
31
-173.20508
0
LINE
8
0
10
-62.0
20
43.276978
30
-173.20508
11
-60.0
21
42.489624
31
-173.20508
0
LINE
8
0
10
-60.0
20
-57.510376
30
-173.20508
11
-58.0
21
-59.99298
31
-173.20508
0
LINE
8
0
10
-60.0
20
42.489624
30
-173.20508
11
-58.0
21
40.00702
31
-173.20508
0
LINE
8
0
10
-58.0
20
-59.99298
30
-173.20508
11
-56.0
21
-59.300232
31
-173.20508
0
LINE
8
0
10
-58.0
20
40.00702
30
-173.20508
11
-56.0
21
40.699768
31
-173.20508
0
LINE
8
0
10
-56.0
20
-59.300232
30
-173.20508
11
-54.0
21
-57.730103
31
-173.20508
0
LINE
8
0
10
-56.0
20
40.699768
30
-173.20508
11
-54.0
21
42.269897
31
-173.20508
0
LINE
8
0
10
-54.0
20
-57.730103
30
-173.20508
11
-52.0
21
-57.05719
31
-173.20508
0
LINE
8
0
10
-54.0
20
42.269897
30
-173.20508
11
-52.0
21
42.94281
31
-173.20508
0
LINE
8
0
10
-52.0
20
-57.05719
30
-173.20508
11
-50.0
21
-53.752136
31
-173.20508
0
LINE
8
0
10
-52.0
20
42.94281
30
-173.20508
11
-50.0
21
46.247864
31
-173.20508
0
LINE
8
0
10
-50.0
20
-53.752136
30
-173.20508
11
-48.0
21
-47.790527
31
-173.20508
0
LINE
8
0
10
-50.0
20
46.247864
30
-173.20508
11
-48.0
21
52.209473
31
-173.20508
0
LINE
8
0
10
-48.0
20
-47.790527
30
-173.20508
11
-46.0
21
-43.632507
31
-173.20508
0
LINE
8
0
10
-48.0
20
52.209473
30
-173.20508
11
-46.0
21
56.367493
31
-173.20508
0
LINE
8
0
10
-46.0
20
-43.632507
30
-173.20508
11
-44.0
21
-42.279053
31
-173.20508
0
LINE
8
0
10
-46.0
20
56.367493
30
-173.20508
11
-44.0
21
57.720947
31
-173.20508
0
LINE
8
0
10
-44.0
20
-42.279053
30
-173.20508
11
-42.0
21
-39.935303
31
-173.20508
0
LINE
8
0
10
-44.0
20
57.720947
30
-173.20508
11
-42.0
21
60.064697
31
-173.20508
0
LINE
8
0
10
-42.0
20
-39.935303
30
-173.20508
11
-40.0
21
-39.457703
31
-173.20508
0
LINE
8
0
10
-42.0
20
60.064697
30
-173.20508
11
-40.0
21
60.542297
31
-173.20508
0
LINE
8
0
10
-40.0
20
-39.457703
30
-173.20508
11
-38.0
21
-42.611694
31
-173.20508
0
LINE
8
0
10
-40.0
20
60.542297
30
-173.20508
11
-38.0
21
57.388306
31
-173.20508
0
LINE
8
0
10
-38.0
20
-42.611694
30
-173.20508
11
-36.0
21
-45.480347
31
-173.20508
0
LINE
8
0
10
-38.0
20
57.388306
30
-173.20508
11
-36.0
21
54.519653
31
-173.20508
0
LINE
8
0
10
-36.0
20
-45.480347
30
-173.20508
11
-34.0
21
-47.122192
31
-173.20508
0
LINE
8
0
10
-36.0
20
54.519653
30
-173.20508
11
-34.0
21
52.877808
31
-173.20508
0
LINE
8
0
10
-34.0
20
-47.122192
30
-173.20508
11
-32.0
21
-50.331116
31
-173.20508
0
LINE
8
0
10
-34.0
20
52.877808
30
-173.20508
11
-32.0
21
49.668884
31
-173.20508
0
LINE
8
0
10
-32.0
20
-50.331116
30
-173.20508
11
-30.0
21
-53.736877
31
-173.20508
0
LINE
8
0
10
-32.0
20
49.668884
30
-173.20508
11
-30.0
21
46.263123
31
-173.20508
0
LINE
8
0
10
-30.0
20
-53.736877
30
-173.20508
11
-28.0
21
-55.552673
31
-173.20508
0
LINE
8
0
10
-30.0
20
46.263123
30
-173.20508
11
-28.0
21
44.447327
31
-173.20508
0
LINE
8
0
10
-28.0
20
-55.552673
30
-173.20508
11
-26.0
21
-57.408142
31
-173.20508
0
LINE
8
0
10
-28.0
20
44.447327
30
-173.20508
11
-26.0
21
42.591858
31
-173.20508
0
LINE
8
0
10
-26.0
20
-57.408142
30
-173.20508
11
-24.0
21
-60.868835
31
-173.20508
0
LINE
8
0
10
-26.0
20
42.591858
30
-173.20508
11
-24.0
21
39.131165
31
-173.20508
0
LINE
8
0
10
-24.0
20
-60.868835
30
-173.20508
11
-22.0
21
-61.305237
31
-173.20508
0
LINE
8
0
10
-24.0
20
39.131165
30
-173.20508
11
-22.0
21
38.694763
31
-173.20508
0
LINE
8
0
10
-22.0
20
-61.305237
30
-173.20508
11
-20.0
21
-57.833862
31
-173.20508
0
LINE
8
0
10
-22.0
20
38.694763
30
-173.20508
11
-20.0
21
42.166138
31
-173.20508
0
LINE
8
0
10
-20.0
20
-57.833862
30
-173.20508
11
-18.0
21
-52.65808
31
-173.20508
0
LINE
8
0
10
-20.0
20
42.166138
30
-173.20508
11
-18.0
21
47.34192
31
-173.20508
0
LINE
8
0
10
-18.0
20
-52.65808
30
-173.20508
11
-16.0
21
-48.35663
31
-173.20508
0
LINE
8
0
10
-18.0
20
47.34192
30
-173.20508
11
-16.0
21
51.64337
31
-173.20508
0
LINE
8
0
10
-16.0
20
-48.35663
30
-173.20508
11
-14.0
21
-45.983887
31
-173.20508
0
LINE
8
0
10
-16.0
20
51.64337
30
-173.20508
11
-14.0
21
54.016113
31
-173.20508
0
LINE
8
0
10
-14.0
20
-45.983887
30
-173.20508
11
-12.0
21
-42.36908
31
-173.20508
0
LINE
8
0
10
-14.0
20
54.016113
30
-173.20508
11
-12.0
21
57.63092
31
-173.20508
0
LINE
8
0
10
-12.0
20
-42.36908
30
-173.20508
11
-10.0
21
-40.911865
31
-173.20508
0
LINE
8
0
10
-12.0
20
57.63092
30
-173.20508
11
-10.0
21
59.088135
31
-173.20508
0
LINE
8
0
10
-10.0
20
-40.911865
30
-173.20508
11
-8.0
21
-42.892456
31
-173.20508
0
LINE
8
0
10
-10.0
20
59.088135
30
-173.20508
11
-8.0
21
57.107544
31
-173.20508
0
LINE
8
0
10
-8.0
20
-42.892456
30
-173.20508
11
-6.0
21
-41.841125
31
-173.20508
0
LINE
8
0
10
-8.0
20
57.107544
30
-173.20508
11
-6.0
21
58.158875
31
-173.20508
0
LINE
8
0
10
-6.0
20
-41.841125
30
-173.20508
11
-4.0
21
-40.65399
31
-173.20508
0
LINE
8
0
10
-6.0
20
58.158875
30
-173.20508
11
-4.0
21
59.34601
31
-173.20508
0
LINE
8
0
10
-4.0
20
-40.65399
30
-173.20508
11
-2.0
21
-44.21692
31
-173.20508
0
LINE
8
0
10
-4.0
20
59.34601
30
-173.20508
11
-2.0
21
55.78308
31
-173.20508
0
LINE
8
0
10
-2.0
20
-44.21692
30
-173.20508
11
0.0
21
-48.413086
31
-173.20508
0
LINE
8
0
10
-2.0
20
55.78308
30
-173.20508
11
0.0
21
51.586914
31
-173.20508
0
LINE
8
0
10
0.0
20
-48.413086
30
-173.20508
11
2.0
21
-51.661682
31
-173.20508
0
LINE
8
0
10
0.0
20
51.586914
30
-173.20508
11
2.0
21
48.338318
31
-173.20508
0
LINE
8
0
10
2.0
20
-51.661682
30
-173.20508
11
4.0
21
-54.663086
31
-173.20508
0
LINE
8
0
10
2.0
20
48.338318
30
-173.20508
11
4.0
21
45.336914
31
-173.20508
0
LINE
8
0
10
4.0
20
-54.663086
30
-173.20508
11
6.0
21
-57.591248
31
-173.20508
0
LINE
8
0
10
4.0
20
45.336914
30
-173.20508
11
6.0
21
42.408752
31
-173.20508
0
LINE
8
0
10
6.0
20
-57.591248
30
-173.20508
11
8.0
21
-59.422302
31
-173.20508
0
LINE
8
0
10
6.0
20
42.408752
30
-173.20508
11
8.0
21
40.577698
31
-173.20508
0
LINE
8
0
10
8.0
20
-59.422302
30
-173.20508
11
10.0
21
-60.809326
31
-173.20508
0
LINE
8
0
10
8.0
20
40.577698
30
-173.20508
11
10.0
21
39.190674
31
-173.20508
0
LINE
8
0
10
10.0
20
-60.809326
30
-173.20508
11
12.0
21
-59.913635
31
-173.20508
0
LINE
8
0
10
10.0
20
39.190674
30
-173.20508
11
12.0
21
40.086365
31
-173.20508
0
LINE
8
0
10
12.0
20
-59.913635
30
-173.20508
11
14.0
21
-55.706787
31
-173.20508
0
LINE
8
0
10
12.0
20
40.086365
30
-173.20508
11
14.0
21
44.293213
31
-173.20508
0
LINE
8
0
10
14.0
20
-55.706787
30
-173.20508
11
16.0
21
-53.834534
31
-173.20508
0
LINE
8
0
10
14.0
20
44.293213
30
-173.20508
11
16.0
21
46.165466
31
-173.20508
0
LINE
8
0
10
16.0
20
-53.834534
30
-173.20508
11
18.0
21
-50.787354
31
-173.20508
0
LINE
8
0
10
16.0
20
46.165466
30
-173.20508
11
18.0
21
49.212646
31
-173.20508
0
LINE
8
0
10
18.0
20
-50.787354
30
-173.20508
11
20.0
21
-45.767212
31
-173.20508
0
LINE
8
0
10
18.0
20
49.212646
30
-173.20508
11
20.0
21
54.232788
31
-173.20508
0
LINE
8
0
10
20.0
20
-45.767212
30
-173.20508
11
22.0
21
-42.123413
31
-173.20508
0
LINE
8
0
10
20.0
20
54.232788
30
-173.20508
11
22.0
21
57.876587
31
-173.20508
0
LINE
8
0
10
22.0
20
-42.123413
30
-173.20508
11
24.0
21
-41.519165
31
-173.20508
0
LINE
8
0
10
22.0
20
57.876587
30
-173.20508
11
24.0
21
58.480835
31
-173.20508
0
LINE
8
0
10
24.0
20
-41.519165
30
-173.20508
11
26.0
21
-40.89203
31
-173.20508
0
LINE
8
0
10
24.0
20
58.480835
30
-173.20508
11
26.0
21
59.10797
31
-173.20508
0
LINE
8
0
10
26.0
20
-40.89203
30
-173.20508
11
28.0
21
-39.041138
31
-173.20508
0
LINE
8
0
10
26.0
20
59.10797
30
-173.20508
11
28.0
21
60.958862
31
-173.20508
0
LINE
8
0
10
28.0
20
-39.041138
30
-173.20508
11
30.0
21
-40.66162
31
-173.20508
0
LINE
8
0
10
28.0
20
60.958862
30
-173.20508
11
30.0
21
59.33838
31
-173.20508
0
LINE
8
0
10
30.0
20
-40.66162
30
-173.20508
11
32.0
21
-46.141052
31
-173.20508
0
LINE
8
0
10
30.0
20
59.33838
30
-173.20508
11
32.0
21
53.858948
31
-173.20508
0
LINE
8
0
10
32.0
20
-46.141052
30
-173.20508
11
34.0
21
-50.338745
31
-173.20508
0
LINE
8
0
10
32.0
20
53.858948
30
-173.20508
11
34.0
21
49.661255
31
-173.20508
0
LINE
8
0
10
34.0
20
-50.338745
30
-173.20508
11
36.0
21
-53.507996
31
-173.20508
0
LINE
8
0
10
34.0
20
49.661255
30
-173.20508
11
36.0
21
46.492004
31
-173.20508
0
LINE
8
0
10
36.0
20
-53.507996
30
-173.20508
11
38.0
21
-55.833435
31
-173.20508
0
LINE
8
0
10
36.0
20
46.492004
30
-173.20508
11
38.0
21
44.166565
31
-173.20508
0
LINE
8
0
10
38.0
20
-55.833435
30
-173.20508
11
40.0
21
-59.318542
31
-173.20508
0
LINE
8
0
10
38.0
20
44.166565
30
-173.20508
11
40.0
21
40.681458
31
-173.20508
0
LINE
8
0
10
40.0
20
-59.318542
30
-173.20508
11
42.0
21
-60.401917
31
-173.20508
0
LINE
8
0
10
40.0
20
40.681458
30
-173.20508
11
42.0
21
39.598083
31
-173.20508
0
LINE
8
0
10
42.0
20
-60.401917
30
-173.20508
11
44.0
21
-59.62372
31
-173.20508
0
LINE
8
0
10
42.0
20
39.598083
30
-173.20508
11
44.0
21
40.37628
31
-173.20508
0
LINE
8
0
10
44.0
20
-59.62372
30
-173.20508
11
46.0
21
-57.28302
31
-173.20508
0
LINE
8
0
10
44.0
20
40.37628
30
-173.20508
11
46.0
21
42.71698
31
-173.20508
0
LINE
8
0
10
46.0
20
-57.28302
30
-173.20508
11
48.0
21
-54.28772
31
-173.20508
0
LINE
8
0
10
46.0
20
42.71698
30
-173.20508
11
48.0
21
45.71228
31
-173.20508
0
LINE
8
0
10
48.0
20
-54.28772
30
-173.20508
11
50.0
21
-50.149536
31
-173.20508
0
LINE
8
0
10
48.0
20
45.71228
30
-173.20508
11
50.0
21
49.850464
31
-173.20508
0
LINE
8
0
10
50.0
20
-50.149536
30
-173.20508
11
52.0
21
-46.47827
31
-173.20508
0
LINE
8
0
10
50.0
20
49.850464
30
-173.20508
11
52.0
21
53.52173
31
-173.20508
0
LINE
8
0
10
52.0
20
-46.47827
30
-173.20508
11
54.0
21
-43.325806
31
-173.20508
0
LINE
8
0
10
52.0
20
53.52173
30
-173.20508
11
54.0
21
56.674194
31
-173.20508
0
LINE
8
0
10
54.0
20
-43.325806
30
-173.20508
11
56.0
21
-40.99884
31
-173.20508
0
LINE
8
0
10
54.0
20
56.674194
30
-173.20508
11
56.0
21
59.00116
31
-173.20508
0
LINE
8
0
10
56.0
20
-40.99884
30
-173.20508
11
58.0
21
-39.811707
31
-173.20508
0
LINE
8
0
10
56.0
20
59.00116
30
-173.20508
11
58.0
21
60.188293
31
-173.20508
0
LINE
8
0
10
58.0
20
-39.811707
30
-173.20508
11
60.0
21
-40.02838
31
-173.20508
0
LINE
8
0
10
58.0
20
60.188293
30
-173.20508
11
60.0
21
59.97162
31
-173.20508
0
LINE
8
0
10
60.0
20
-40.02838
30
-173.20508
11
62.0
21
-41.18347
31
-173.20508
0
LINE
8
0
10
60.0
20
59.97162
30
-173.20508
11
62.0
21
58.81653
31
-173.20508
0
LINE
8
0
10
62.0
20
-41.18347
30
-173.20508
11
64.0
21
-45.30182
31
-173.20508
0
LINE
8
0
10
62.0
20
58.81653
30
-173.20508
11
64.0
21
54.69818
31
-173.20508
0
LINE
8
0
10
64.0
20
-45.30182
30
-173.20508
11
66.0
21
-50.193787
31
-173.20508
0
LINE
8
0
10
64.0
20
54.69818
30
-173.20508
11
66.0
21
49.806213
31
-173.20508
0
LINE
8
0
10
66.0
20
-50.193787
30
-173.20508
11
68.0
21
-53.981018
31
-173.20508
0
LINE
8
0
10
66.0
20
49.806213
30
-173.20508
11
68.0
21
46.018982
31
-173.20508
0
LINE
8
0
10
68.0
20
-53.981018
30
-173.20508
11
70.0
21
-57.052612
31
-173.20508
0
LINE
8
0
10
68.0
20
46.018982
30
-173.20508
11
70.0
21
42.947388
31
-173.20508
0
LINE
8
0
10
70.0
20
-57.052612
30
-173.20508
11
72.0
21
-59.472656
31
-173.20508
0
LINE
8
0
10
70.0
20
42.947388
30
-173.20508
11
72.0
21
40.527344
31
-173.20508
0
LINE
8
0
10
72.0
20
-59.472656
30
-173.20508
11
74.0
21
-60.54077
31
-173.20508
0
LINE
8
0
10
72.0
20
40.527344
30
-173.20508
11
74.0
21
39.45923
31
-173.20508
0
LINE
8
0
10
74.0
20
-60.54077
30
-173.20508
11
76.0
21
-61.105347
31
-173.20508
0
LINE
8
0
10
74.0
20
39.45923
30
-173.20508
11
76.0
21
38.894653
31
-173.20508
0
LINE
8
0
10
76.0
20
-61.105347
30
-173.20508
11
78.0
21
-59.814453
31
-173.20508
0
LINE
8
0
10
76.0
20
38.894653
30
-173.20508
11
78.0
21
40.185547
31
-173.20508
0
LINE
8
0
10
78.0
20
-59.814453
30
-173.20508
11
80.0
21
-56.974792
31
-173.20508
0
LINE
8
0
10
78.0
20
40.185547
30
-173.20508
11
80.0
21
43.025208
31
-173.20508
0
LINE
8
0
10
80.0
20
-56.974792
30
-173.20508
11
82.0
21
-54.763794
31
-173.20508
0
LINE
8
0
10
80.0
20
43.025208
30
-173.20508
11
82.0
21
45.236206
31
-173.20508
0
LINE
8
0
10
82.0
20
-54.763794
30
-173.20508
11
84.0
21
-50.12207
31
-173.20508
0
LINE
8
0
10
82.0
20
45.236206
30
-173.20508
11
84.0
21
49.87793
31
-173.20508
0
LINE
8
0
10
84.0
20
-50.12207
30
-173.20508
11
86.0
21
-44.42444
31
-173.20508
0
LINE
8
0
10
84.0
20
49.87793
30
-173.20508
11
86.0
21
55.57556
31
-173.20508
0
LINE
8
0
10
86.0
20
-44.42444
30
-173.20508
11
88.0
21
-41.311646
31
-173.20508
0
LINE
8
0
10
86.0
20
55.57556
30
-173.20508
11
88.0
21
58.688354
31
-173.20508
0
LINE
8
0
10
88.0
20
-41.311646
30
-173.20508
11
90.0
21
-39.987183
31
-173.20508
0
LINE
8
0
10
88.0
20
58.688354
30
-173.20508
11
90.0
21
60.012817
31
-173.20508
0
LINE
8
0
10
90.0
20
-39.987183
30
-173.20508
11
92.0
21
-39.112854
31
-173.20508
0
LINE
8
0
10
90.0
20
60.012817
30
-173.20508
11
92.0
21
60.887146
31
-173.20508
0
LINE
8
0
10
92.0
20
-39.112854
30
-173.20508
11
94.0
21
-40.213013
31
-173.20508
0
LINE
8
0
10
92.0
20
60.887146
30
-173.20508
11
94.0
21
59.786987
31
-173.20508
0
LINE
8
0
10
94.0
20
-40.213013
30
-173.20508
11
96.0
21
-42.451477
31
-173.20508
0
LINE
8
0
10
94.0
20
59.786987
30
-173.20508
11
96.0
21
57.548523
31
-173.20508
0
LINE
8
0
10
96.0
20
-42.451477
30
-173.20508
11
98.0
21
-45.20874
31
-173.20508
0
LINE
8
0
10
96.0
20
57.548523
30
-173.20508
11
98.0
21
54.79126
31
-173.20508
0
LINE
8
0
10
98.0
20
-45.20874
30
-173.20508
11
100.0
21
-47.813416
31
-173.20508
0
LINE
8
0
10
98.0
20
54.79126
30
-173.20508
11
100.0
21
52.186584
31
-173.20508
0
LINE
8
0
10
100.0
20
-47.813416
30
-173.20508
11
102.0
21
-51.464844
31
-173.20508
0
LINE
8
0
10
100.0
20
52.186584
30
-173.20508
11
102.0
21
48.535156
31
-173.20508
0
LINE
8
0
10
102.0
20
-51.464844
30
-173.20508
11
104.0
21
-56.43158
31
-173.20508
0
LINE
8
0
10
102.0
20
48.535156
30
-173.20508
11
104.0
21
43.56842
31
-173.20508
0
LINE
8
0
10
104.0
20
-56.43158
30
-173.20508
11
106.0
21
-60.31494
31
-173.20508
0
LINE
8
0
10
104.0
20
43.56842
30
-173.20508
11
106.0
21
39.68506
31
-173.20508
0
LINE
8
0
10
106.0
20
-60.31494
30
-173.20508
11
108.0
21
-61.01532
31
-173.20508
0
LINE
8
0
10
106.0
20
39.68506
30
-173.20508
11
108.0
21
38.98468
31
-173.20508
0
LINE
8
0
10
108.0
20
-61.01532
30
-173.20508
11
110.0
21
-60.650635
31
-173.20508
0
LINE
8
0
10
108.0
20
38.98468
30
-173.20508
11
110.0
21
39.349365
31
-173.20508
0
LINE
8
0
10
110.0
20
-60.650635
30
-173.20508
11
112.0
21
-58.688354
31
-173.20508
0
LINE
8
0
10
110.0
20
39.349365
30
-173.20508
11
112.0
21
41.311646
31
-173.20508
0
LINE
8
0
10
112.0
20
-58.688354
30
-173.20508
11
114.0
21
-56.50177
31
-173.20508
0
LINE
8
0
10
112.0
20
41.311646
30
-173.20508
11
114.0
21
43.49823
31
-173.20508
0
LINE
8
0
10
114.0
20
-56.50177
30
-173.20508
11
116.0
21
-53.167725
31
-173.20508
0
LINE
8
0
10
114.0
20
43.49823
30
-173.20508
11
116.0
21
46.832275
31
-173.20508
0
LINE
8
0
10
116.0
20
-53.167725
30
-173.20508
11
118.0
21
-48.94867
31
-173.20508
0
LINE
8
0
10
116.0
20
46.832275
30
-173.20508
11
118.0
21
51.05133
31
-173.20508
0
LINE
8
0
10
118.0
20
-48.94867
30
-173.20508
11
120.0
21
-46.124268
31
-173.20508
0
LINE
8
0
10
118.0
20
51.05133
30
-173.20508
11
120.0
21
53.875732
31
-173.20508
0
LINE
8
0
10
120.0
20
-46.124268
30
-173.20508
11
122.0
21
-44.10553
31
-173.20508
0
LINE
8
0
10
120.0
20
53.875732
30
-173.20508
11
122.0
21
55.89447
31
-173.20508
0
LINE
8
0
10
122.0
20
-44.10553
30
-173.20508
11
124.0
21
-40.542603
31
-173.20508
0
LINE
8
0
10
122.0
20
55.89447
30
-173.20508
11
124.0
21
59.457397
31
-173.20508
0
LINE
8
0
10
124.0
20
-40.542603
30
-173.20508
11
126.0
21
-39.60724
31
-173.20508
0
LINE
8
0
10
124.0
20
59.457397
30
-173.20508
11
126.0
21
60.39276
31
-173.20508
0
LINE
8
0
10
126.0
20
-39.60724
30
-173.20508
11
128.0
21
-41.384888
31
-173.20508
0
LINE
8
0
10
126.0
20
60.39276
30
-173.20508
11
128.0
21
58.615112
31
-173.20508
0
LINE
8
0
10
128.0
20
-41.384888
30
-173.20508
11
130.0
21
-42.596436
31
-173.20508
0
LINE
8
0
10
128.0
20
58.615112
30
-173.20508
11
130.0
21
57.403564
31
-173.20508
0
LINE
8
0
10
130.0
20
-42.596436
30
-173.20508
11
132.0
21
-45.768738
31
-173.20508
0
LINE
8
0
10
130.0
20
57.403564
30
-173.20508
11
132.0
21
54.231262
31
-173.20508
0
LINE
8
0
10
132.0
20
-45.768738
30
-173.20508
11
134.0
21
-51.57776
31
-173.20508
0
LINE
8
0
10
132.0
20
54.231262
30
-173.20508
11
134.0
21
48.42224
31
-173.20508
0
LINE
8
0
10
134.0
20
-51.57776
30
-173.20508
11
136.0
21
-55.300903
31
-173.20508
0
LINE
8
0
10
134.0
20
48.42224
30
-173.20508
11
136.0
21
44.699097
31
-173.20508
0
LINE
8
0
10
136.0
20
-55.300903
30
-173.20508
11
138.0
21
-56.26526
31
-173.20508
0
LINE
8
0
10
136.0
20
44.699097
30
-173.20508
11
138.0
21
43.73474
31
-173.20508
0
LINE
8
0
10
138.0
20
-56.26526
30
-173.20508
11
140.0
21
-58.958435
31
-173.20508
0
LINE
8
0
10
138.0
20
43.73474
30
-173.20508
11
140.0
21
41.041565
31
-173.20508
0
LINE
8
0
10
140.0
20
-58.958435
30
-173.20508
11
142.0
21
-61.102295
31
-173.20508
0
LINE
8
0
10
140.0
20
41.041565
30
-173.20508
11
142.0
21
38.897705
31
-173.20508
0
LINE
8
0
10
142.0
20
-61.102295
30
-173.20508
11
144.0
21
-60.360718
31
-173.20508
0
LINE
8
0
10
142.0
20
38.897705
30
-173.20508
11
144.0
21
39.639282
31
-173.20508
0
LINE
8
0
10
144.0
20
-60.360718
30
-173.20508
11
146.0
21
-57.85675
31
-173.20508
0
LINE
8
0
10
144.0
20
39.639282
30
-173.20508
11
146.0
21
42.14325
31
-173.20508
0
LINE
8
0
10
146.0
20
-57.85675
30
-173.20508
11
148.0
21
-53.131104
31
-173.20508
0
LINE
8
0
10
146.0
20
42.14325
30
-173.20508
11
148.0
21
46.868896
31
-173.20508
0
LINE
8
0
10
148.0
20
-53.131104
30
-173.20508
11
150.0
21
-48.641968
31
-173.20508
0
LINE
8
0
10
148.0
20
46.868896
30
-173.20508
11
150.0
21
51.358032
31
-173.20508
0
LINE
8
0
10
150.0
20
-48.641968
30
-173.20508
11
152.0
21
-45.310974
31
-173.20508
0
LINE
8
0
10
150.0
20
51.358032
30
-173.20508
11
152.0
21
54.689026
31
-173.20508
0
LINE
8
0
10
152.0
20
-45.310974
30
-173.20508
11
154.0
21
-42.767334
31
-173.20508
0
LINE
8
0
10
152.0
20
54.689026
30
-173.20508
11
154.0
21
57.232666
31
-173.20508
0
LINE
8
0
10
154.0
20
-42.767334
30
-173.20508
11
156.0
21
-40.74707
31
-173.20508
0
LINE
8
0
10
154.0
20
57.232666
30
-173.20508
11
156.0
21
59.25293
31
-173.20508
0
LINE
8
0
10
156.0
20
-40.74707
30
-173.20508
11
158.0
21
-38.853455
31
-173.20508
0
LINE
8
0
10
156.0
20
59.25293
30
-173.20508
11
158.0
21
61.146545
31
-173.20508
0
LINE
8
0
10
158.0
20
-38.853455
30
-173.20508
11
160.0
21
-39.198303
31
-173.20508
0
LINE
8
0
10
158.0
20
61.146545
30
-173.20508
11
160.0
21
60.801697
31
-173.20508
0
LINE
8
0
10
160.0
20
-39.198303
30
-173.20508
11
162.0
21
-42.01355
31
-173.20508
0
LINE
8
0
10
160.0
20
60.801697
30
-173.20508
11
162.0
21
57.98645
31
-173.20508
0
LINE
8
0
10
162.0
20
-42.01355
30
-173.20508
11
164.0
21
-45.69702
31
-173.20508
0
LINE
8
0
10
162.0
20
57.98645
30
-173.20508
11
164.0
21
54.30298
31
-173.20508
0
LINE
8
0
10
164.0
20
-45.69702
30
-173.20508
11
166.0
21
-50.091553
31
-173.20508
0
LINE
8
0
10
164.0
20
54.30298
30
-173.20508
11
166.0
21
49.908447
31
-173.20508
0
LINE
8
0
10
166.0
20
-50.091553
30
-173.20508
11
168.0
21
-54.73633
31
-173.20508
0
LINE
8
0
10
166.0
20
49.908447
30
-173.20508
11
168.0
21
45.26367
31
-173.20508
0
LINE
8
0
10
168.0
20
-54.73633
30
-173.20508
11
170.0
21
-58.428955
31
-173.20508
0
LINE
8
0
10
168.0
20
45.26367
30
-173.20508
11
170.0
21
41.571045
31
-173.20508
0
LINE
8
0
10
170.0
20
-58.428955
30
-173.20508
11
172.0
21
-59.573364
31
-173.20508
0
LINE
8
0
10
170.0
20
41.571045
30
-173.20508
11
172.0
21
40.426636
31
-173.20508
0
LINE
8
0
10
172.0
20
-59.573364
30
-173.20508
11
174.0
21
-59.96704
31
-173.20508
0
LINE
8
0
10
172.0
20
40.426636
30
-173.20508
11
174.0
21
40.03296
31
-173.20508
0
LINE
8
0
10
174.0
20
-59.96704
30
-173.20508
11
176.0
21
-60.62317
31
-173.20508
0
LINE
8
0
10
174.0
20
40.03296
30
-173.20508
11
176.0
21
39.37683
31
-173.20508
0
LINE
8
0
10
176.0
20
-60.62317
30
-173.20508
11
178.0
21
-59.1568
31
-173.20508
0
LINE
8
0
10
176.0
20
39.37683
30
-173.20508
11
178.0
21
40.8432
31
-173.20508
0
LINE
8
0
10
178.0
20
-59.1568
30
-173.20508
11
180.0
21
-57.237244
31
-173.20508
0
LINE
8
0
10
178.0
20
40.8432
30
-173.20508
11
180.0
21
42.762756
31
-173.20508
0
LINE
8
0
10
180.0
20
-57.237244
30
-173.20508
11
182.0
21
-53.822327
31
-173.20508
0
LINE
8
0
10
180.0
20
42.762756
30
-173.20508
11
182.0
21
46.177673
31
-173.20508
0
LINE
8
0
10
182.0
20
-53.822327
30
-173.20508
11
184.0
21
-49.969482
31
-173.20508
0
LINE
8
0
10
182.0
20
46.177673
30
-173.20508
11
184.0
21
50.030518
31
-173.20508
0
LINE
8
0
10
184.0
20
-49.969482
30
-173.20508
11
186.0
21
-46.16394
31
-173.20508
0
LINE
8
0
10
184.0
20
50.030518
30
-173.20508
11
186.0
21
53.83606
31
-173.20508
0
LINE
8
0
10
186.0
20
-46.16394
30
-173.20508
11
188.0
21
-42.770386
31
-173.20508
0
LINE
8
0
10
186.0
20
53.83606
30
-173.20508
11
188.0
21
57.229614
31
-173.20508
0
LINE
8
0
10
188.0
20
-42.770386
30
-173.20508
11
190.0
21
-40.57007
31
-173.20508
0
LINE
8
0
10
188.0
20
57.229614
30
-173.20508
11
190.0
21
59.42993
31
-173.20508
0
LINE
8
0
10
190.0
20
-40.57007
30
-173.20508
11
192.0
21
-39.379883
31
-173.20508
0
LINE
8
0
10
190.0
20
59.42993
30
-173.20508
11
192.0
21
60.620117
31
-173.20508
0
LINE
8
0
10
192.0
20
-39.379883
30
-173.20508
11
194.0
21
-39.768982
31
-173.20508
0
LINE
8
0
10
192.0
20
60.620117
30
-173.20508
11
194.0
21
60.231018
31
-173.20508
0
LINE
8
0
10
194.0
20
-39.768982
30
-173.20508
11
196.0
21
-41.140747
31
-173.20508
0
LINE
8
0
10
194.0
20
60.231018
30
-173.20508
11
196.0
21
58.859253
31
-173.20508
0
LINE
8
0
10
196.0
20
-41.140747
30
-173.20508
11
198.0
21
-44.148254
31
-173.20508
0
LINE
8
0
10
196.0
20
58.859253
30
-173.20508
11
198.0
21
55.851746
31
-173.20508
0
LINE
8
0
10
198.0
20
-44.148254
30
-173.20508
11
200.0
21
-47.85614
31
-173.20508
0
LINE
8
0
10
198.0
20
55.851746
30
-173.20508
11
200.0
21
52.14386
31
-173.20508
0
LINE
8
0
10
200.0
20
-47.85614
30
-173.20508
11
202.0
21
-50.933838
31
-173.20508
0
LINE
8
0
10
200.0
20
52.14386
30
-173.20508
11
202.0
21
49.066162
31
-173.20508
0
LINE
8
0
10
202.0
20
-50.933838
30
-173.20508
11
204.0
21
-54.644775
31
-173.20508
0
LINE
8
0
10
202.0
20
49.066162
30
-173.20508
11
204.0
21
45.355225
31
-173.20508
0
LINE
8
0
10
204.0
20
-54.644775
30
-173.20508
11
206.0
21
-57.0343
31
-173.20508
0
LINE
8
0
10
204.0
20
45.355225
30
-173.20508
11
206.0
21
42.9657
31
-173.20508
0
LINE
8
0
10
206.0
20
-57.0343
30
-173.20508
11
208.0
21
-57.04193
31
-173.20508
0
LINE
8
0
10
206.0
20
42.9657
30
-173.20508
11
208.0
21
42.95807
31
-173.20508
0
LINE
8
0
10
208.0
20
-57.04193
30
-173.20508
11
210.0
21
-57.263184
31
-173.20508
0
LINE
8
0
10
208.0
20
42.95807
30
-173.20508
11
210.0
21
42.736816
31
-173.20508
0
LINE
8
0
10
210.0
20
-57.263184
30
-173.20508
11
212.0
21
-56.611633
31
-173.20508
0
LINE
8
0
10
210.0
20
42.736816
30
-173.20508
11
212.0
21
43.388367
31
-173.20508
0
LINE
8
0
10
212.0
20
-56.611633
30
-173.20508
11
214.0
21
-54.222107
31
-173.20508
0
LINE
8
0
10
212.0
20
43.388367
30
-173.20508
11
214.0
21
45.777893
31
-173.20508
0
LINE
8
0
10
214.0
20
-54.222107
30
-173.20508
11
216.0
21
-50.186157
31
-173.20508
0
LINE
8
0
10
214.0
20
45.777893
30
-173.20508
11
216.0
21
49.813843
31
-173.20508
0
LINE
8
0
10
216.0
20
-50.186157
30
-173.20508
11
218.0
21
-46.447754
31
-173.20508
0
LINE
8
0
10
216.0
20
49.813843
30
-173.20508
11
218.0
21
53.552246
31
-173.20508
0
LINE
8
0
10
218.0
20
-46.447754
30
-173.20508
11
220.0
21
-42.4057
31
-173.20508
0
LINE
8
0
10
218.0
20
53.552246
30
-173.20508
11
220.0
21
57.5943
31
-173.20508
0
LINE
8
0
10
220.0
20
-42.4057
30
-173.20508
11
222.0
21
-38.80768
31
-173.20508
0
LINE
8
0
10
220.0
20
57.5943
30
-173.20508
11
222.0
21
61.19232
31
-173.20508
0
LINE
8
0
10
222.0
20
-38.80768
30
-173.20508
11
224.0
21
-37.139893
31
-173.20508
0
LINE
8
0
10
222.0
20
61.19232
30
-173.20508
11
224.0
21
62.860107
31
-173.20508
0
LINE
8
0
10
224.0
20
-37.139893
30
-173.20508
11
226.0
21
-37.008667
31
-173.20508
0
LINE
8
0
10
224.0
20
62.860107
30
-173.20508
11
226.0
21
62.991333
31
-173.20508
0
LINE
8
0
10
226.0
20
-37.008667
30
-173.20508
11
228.0
21
-38.871765
31
-173.20508
0
LINE
8
0
10
226.0
20
62.991333
30
-173.20508
11
228.0
21
61.128235
31
-173.20508
0
LINE
8
0
10
228.0
20
-38.871765
30
-173.20508
11
230.0
21
-42.67273
31
-173.20508
0
LINE
8
0
10
228.0
20
61.128235
30
-173.20508
11
230.0
21
57.32727
31
-173.20508
0
LINE
8
0
10
230.0
20
-42.67273
30
-173.20508
11
232.0
21
-46.195984
31
-173.20508
0
LINE
8
0
10
230.0
20
57.32727
30
-173.20508
11
232.0
21
53.804016
31
-173.20508
0
LINE
8
0
10
232.0
20
-46.195984
30
-173.20508
11
234.0
21
-49.154663
31
-173.20508
0
LINE
8
0
10
232.0
20
53.804016
30
-173.20508
11
234.0
21
50.845337
31
-173.20508
0
LINE
8
0
10
234.0
20
-49.154663
30
-173.20508
11
236.0
21
-53.474426
31
-173.20508
0
LINE
8
0
10
234.0
20
50.845337
30
-173.20508
11
236.0
21
46.525574
31
-173.20508
0
LINE
8
0
10
236.0
20
-53.474426
30
-173.20508
11
238.0
21
-57.144165
31
-173.20508
0
LINE
8
0
10
236.0
20
46.525574
30
-173.20508
11
238.0
21
42.855835
31
-173.20508
0
LINE
8
0
10
238.0
20
-57.144165
30
-173.20508
11
240.0
21
-59.194946
31
-173.20508
0
LINE
8
0
10
238.0
20
42.855835
30
-173.20508
11
240.0
21
40.805054
31
-173.20508
0
LINE
8
0
10
240.0
20
-59.194946
30
-173.20508
11
242.0
21
-59.710693
31
-173.20508
0
LINE
8
0
10
240.0
20
40.805054
30
-173.20508
11
242.0
21
40.289307
31
-173.20508
0
LINE
8
0
10
242.0
20
-59.710693
30
-173.20508
11
244.0
21
-59.483337
31
-173.20508
0
LINE
8
0
10
242.0
20
40.289307
30
-173.20508
11
244.0
21
40.516663
31
-173.20508
0
LINE
8
0
10
244.0
20
-59.483337
30
-173.20508
11
246.0
21
-57.92694
31
-173.20508
0
LINE
8
0
10
244.0
20
40.516663
30
-173.20508
11
246.0
21
42.07306
31
-173.20508
0
LINE
8
0
10
246.0
20
-57.92694
30
-173.20508
11
248.0
21
-54.808044
31
-173.20508
0
LINE
8
0
10
246.0
20
42.07306
30
-173.20508
11
248.0
21
45.191956
31
-173.20508
0
LINE
8
0
10
248.0
20
-54.808044
30
-173.20508
11
250.0
21
-50.6073
31
-173.20508
0
LINE
8
0
10
248.0
20
45.191956
30
-173.20508
11
250.0
21
49.3927
31
-173.20508
0
LINE
8
0
10
250.0
20
-50.6073
30
-173.20508
11
252.0
21
-46.34552
31
-173.20508
0
LINE
8
0
10
250.0
20
49.3927
30
-173.20508
11
252.0
21
53.65448
31
-173.20508
0
LINE
8
0
10
252.0
20
-46.34552
30
-173.20508
11
254.0
21
-42.567444
31
-173.20508
0
LINE
8
0
10
252.0
20
53.65448
30
-173.20508
11
254.0
21
57.432556
31
-173.20508
0
ENDSEC
0
EOF
