0
SECTION
2
ENTITIES
0
LINE
8
0
10
-256.0
20
-47.470093
30
-173.20508
11
-254.0
21
-48.42224
31
-173.20508
0
LINE
8
0
10
-256.0
20
52.529907
30
-173.20508
11
-254.0
21
51.57776
31
-173.20508
0
LINE
8
0
10
-254.0
20
-48.42224
30
-173.20508
11
-252.0
21
-49.572754
31
-173.20508
0
LINE
8
0
10
-254.0
20
51.57776
30
-173.20508
11
-252.0
21
50.427246
31
-173.20508
0
LINE
8
0
10
-252.0
20
-49.572754
30
-173.20508
11
-250.0
21
-50.798035
31
-173.20508
0
LINE
8
0
10
-252.0
20
50.427246
30
-173.20508
11
-250.0
21
49.201965
31
-173.20508
0
LINE
8
0
10
-250.0
20
-50.798035
30
-173.20508
11
-248.0
21
-51.846313
31
-173.20508
0
LINE
8
0
10
-250.0
20
49.201965
30
-173.20508
11
-248.0
21
48.153687
31
-173.20508
0
LINE
8
0
10
-248.0
20
-51.846313
30
-173.20508
11
-246.0
21
-52.5589
31
-173.20508
0
LINE
8
0
10
-248.0
20
48.153687
30
-173.20508
11
-246.0
21
47.4411
31
-173.20508
0
LINE
8
0
10
-246.0
20
-52.5589
30
-173.20508
11
-244.0
21
-52.825928
31
-173.20508
0
LINE
8
0
10
-246.0
20
47.4411
30
-173.20508
11
-244.0
21
47.174072
31
-173.20508
0
LINE
8
0
10
-244.0
20
-52.825928
30
-173.20508
11
-242.0
21
-52.56653
31
-173.20508
0
LINE
8
0
10
-244.0
20
47.174072
30
-173.20508
11
-242.0
21
47.43347
31
-173.20508
0
LINE
8
0
10
-242.0
20
-52.56653
30
-173.20508
11
-240.0
21
-51.860046
31
-173.20508
0
LINE
8
0
10
-242.0
20
47.43347
30
-173.20508
11
-240.0
21
48.139954
31
-173.20508
0
LINE
8
0
10
-240.0
20
-51.860046
30
-173.20508
11
-238.0
21
-50.84839
31
-173.20508
0
LINE
8
0
10
-240.0
20
48.139954
30
-173.20508
11
-238.0
21
49.15161
31
-173.20508
0
LINE
8
0
10
-238.0
20
-50.84839
30
-173.20508
11
-236.0
21
-49.650574
31
-173.20508
0
LINE
8
0
10
-238.0
20
49.15161
30
-173.20508
11
-236.0
21
50.349426
31
-173.20508
0
LINE
8
0
10
-236.0
20
-49.650574
30
-173.20508
11
-234.0
21
-48.521423
31
-173.20508
0
LINE
8
0
10
-236.0
20
50.349426
30
-173.20508
11
-234.0
21
51.478577
31
-173.20508
0
LINE
8
0
10
-234.0
20
-48.521423
30
-173.20508
11
-232.0
21
-47.698975
31
-173.20508
0
LINE
8
0
10
-234.0
20
51.478577
30
-173.20508
11
-232.0
21
52.301025
31
-173.20508
0
LINE
8
0
10
-232.0
20
-47.698975
30
-173.20508
11
-230.0
21
-47.229004
31
-173.20508
0
LINE
8
0
10
-232.0
20
52.301025
30
-173.20508
11
-230.0
21
52.770996
31
-173.20508
0
LINE
8
0
10
-230.0
20
-47.229004
30
-173.20508
11
-228.0
21
-47.20459
31
-173.20508
0
LINE
8
0
10
-230.0
20
52.770996
30
-173.20508
11
-228.0
21
52.79541
31
-173.20508
0
LINE
8
0
10
-228.0
20
-47.20459
30
-173.20508
11
-226.0
21
-47.683716
31
-173.20508
0
LINE
8
0
10
-228.0
20
52.79541
30
-173.20508
11
-226.0
21
52.316284
31
-173.20508
0
LINE
8
0
10
-226.0
20
-47.683716
30
-173.20508
11
-224.0
21
-48.547363
31
-173.20508
0
LINE
8
0
10
-226.0
20
52.316284
30
-173.20508
11
-224.0
21
51.452637
31
-173.20508
0
LINE
8
0
10
-224.0
20
-48.547363
30
-173.20508
11
-222.0
21
-49.71466
31
-173.20508
0
LINE
8
0
10
-224.0
20
51.452637
30
-173.20508
11
-222.0
21
50.28534
31
-173.20508
0
LINE
8
0
10
-222.0
20
-49.71466
30
-173.20508
11
-220.0
21
-50.89264
31
-173.20508
0
LINE
8
0
10
-222.0
20
50.28534
30
-173.20508
11
-220.0
21
49.10736
31
-173.20508
0
LINE
8
0
10
-220.0
20
-50.89264
30
-173.20508
11
-218.0
21
-51.93329
31
-173.20508
0
LINE
8
0
10
-220.0
20
49.10736
30
-173.20508
11
-218.0
21
48.06671
31
-173.20508
0
LINE
8
0
10
-218.0
20
-51.93329
30
-173.20508
11
-216.0
21
-52.726746
31
-173.20508
0
LINE
8
0
10
-218.0
20
48.06671
30
-173.20508
11
-216.0
21
47.273254
31
-173.20508
0
LINE
8
0
10
-216.0
20
-52.726746
30
-173.20508
11
-214.0
21
-52.967834
31
-173.20508
0
LINE
8
0
10
-216.0
20
47.273254
30
-173.20508
11
-214.0
21
47.032166
31
-173.20508
0
LINE
8
0
10
-214.0
20
-52.967834
30
-173.20508
11
-212.0
21
-52.74353
31
-173.20508
0
LINE
8
0
10
-214.0
20
47.032166
30
-173.20508
11
-212.0
21
47.25647
31
-173.20508
0
LINE
8
0
10
-212.0
20
-52.74353
30
-173.20508
11
-210.0
21
-51.979065
31
-173.20508
0
LINE
8
0
10
-212.0
20
47.25647
30
-173.20508
11
-210.0
21
48.020935
31
-173.20508
0
LINE
8
0
10
-210.0
20
-51.979065
30
-173.20508
11
-208.0
21
-50.846863
31
-173.20508
0
LINE
8
0
10
-210.0
20
48.020935
30
-173.20508
11
-208.0
21
49.153137
31
-173.20508
0
LINE
8
0
10
-208.0
20
-50.846863
30
-173.20508
11
-206.0
21
-49.624634
31
-173.20508
0
LINE
8
0
10
-208.0
20
49.153137
30
-173.20508
11
-206.0
21
50.375366
31
-173.20508
0
LINE
8
0
10
-206.0
20
-49.624634
30
-173.20508
11
-204.0
21
-48.431396
31
-173.20508
0
LINE
8
0
10
-206.0
20
50.375366
30
-173.20508
11
-204.0
21
51.568604
31
-173.20508
0
LINE
8
0
10
-204.0
20
-48.431396
30
-173.20508
11
-202.0
21
-47.51892
31
-173.20508
0
LINE
8
0
10
-204.0
20
51.568604
30
-173.20508
11
-202.0
21
52.48108
31
-173.20508
0
LINE
8
0
10
-202.0
20
-47.51892
30
-173.20508
11
-200.0
21
-47.079468
31
-173.20508
0
LINE
8
0
10
-202.0
20
52.48108
30
-173.20508
11
-200.0
21
52.920532
31
-173.20508
0
LINE
8
0
10
-200.0
20
-47.079468
30
-173.20508
11
-198.0
21
-47.164917
31
-173.20508
0
LINE
8
0
10
-200.0
20
52.920532
30
-173.20508
11
-198.0
21
52.835083
31
-173.20508
0
LINE
8
0
10
-198.0
20
-47.164917
30
-173.20508
11
-196.0
21
-47.79663
31
-173.20508
0
LINE
8
0
10
-198.0
20
52.835083
30
-173.20508
11
-196.0
21
52.20337
31
-173.20508
0
LINE
8
0
10
-196.0
20
-47.79663
30
-173.20508
11
-194.0
21
-48.812866
31
-173.20508
0
LINE
8
0
10
-196.0
20
52.20337
30
-173.20508
11
-194.0
21
51.187134
31
-173.20508
0
LINE
8
0
10
-194.0
20
-48.812866
30
-173.20508
11
-192.0
21
-50.0412
31
-173.20508
0
LINE
8
0
10
-194.0
20
51.187134
30
-173.20508
11
-192.0
21
49.9588
31
-173.20508
0
LINE
8
0
10
-192.0
20
-50.0412
30
-173.20508
11
-190.0
21
-51.272583
31
-173.20508
0
LINE
8
0
10
-192.0
20
49.9588
30
-173.20508
11
-190.0
21
48.727417
31
-173.20508
0
LINE
8
0
10
-190.0
20
-51.272583
30
-173.20508
11
-188.0
21
-52.3468
31
-173.20508
0
LINE
8
0
10
-190.0
20
48.727417
30
-173.20508
11
-188.0
21
47.6532
31
-173.20508
0
LINE
8
0
10
-188.0
20
-52.3468
30
-173.20508
11
-186.0
21
-53.022766
31
-173.20508
0
LINE
8
0
10
-188.0
20
47.6532
30
-173.20508
11
-186.0
21
46.977234
31
-173.20508
0
LINE
8
0
10
-186.0
20
-53.022766
30
-173.20508
11
-184.0
21
-53.12195
31
-173.20508
0
LINE
8
0
10
-186.0
20
46.977234
30
-173.20508
11
-184.0
21
46.87805
31
-173.20508
0
LINE
8
0
10
-184.0
20
-53.12195
30
-173.20508
11
-182.0
21
-52.661133
31
-173.20508
0
LINE
8
0
10
-184.0
20
46.87805
30
-173.20508
11
-182.0
21
47.338867
31
-173.20508
0
LINE
8
0
10
-182.0
20
-52.661133
30
-173.20508
11
-180.0
21
-51.776123
31
-173.20508
0
LINE
8
0
10
-182.0
20
47.338867
30
-173.20508
11
-180.0
21
48.223877
31
-173.20508
0
LINE
8
0
10
-180.0
20
-51.776123
30
-173.20508
11
-178.0
21
-50.546265
31
-173.20508
0
LINE
8
0
10
-180.0
20
48.223877
30
-173.20508
11
-178.0
21
49.453735
31
-173.20508
0
LINE
8
0
10
-178.0
20
-50.546265
30
-173.20508
11
-176.0
21
-49.250793
31
-173.20508
0
LINE
8
0
10
-178.0
20
49.453735
30
-173.20508
11
-176.0
21
50.749207
31
-173.20508
0
LINE
8
0
10
-176.0
20
-49.250793
30
-173.20508
11
-174.0
21
-48.04535
31
-173.20508
0
LINE
8
0
10
-176.0
20
50.749207
30
-173.20508
11
-174.0
21
51.95465
31
-173.20508
0
LINE
8
0
10
-174.0
20
-48.04535
30
-173.20508
11
-172.0
21
-47.216797
31
-173.20508
0
LINE
8
0
10
-174.0
20
51.95465
30
-173.20508
11
-172.0
21
52.783203
31
-173.20508
0
LINE
8
0
10
-172.0
20
-47.216797
30
-173.20508
11
-170.0
21
-46.891785
31
-173.20508
0
LINE
8
0
10
-172.0
20
52.783203
30
-173.20508
11
-170.0
21
53.108215
31
-173.20508
0
LINE
8
0
10
-170.0
20
-46.891785
30
-173.20508
11
-168.0
21
-47.08252
31
-173.20508
0
LINE
8
0
10
-170.0
20
53.108215
30
-173.20508
11
-168.0
21
52.91748
31
-173.20508
0
LINE
8
0
10
-168.0
20
-47.08252
30
-173.20508
11
-166.0
21
-47.750854
31
-173.20508
0
LINE
8
0
10
-168.0
20
52.91748
30
-173.20508
11
-166.0
21
52.249146
31
-173.20508
0
LINE
8
0
10
-166.0
20
-47.750854
30
-173.20508
11
-164.0
21
-48.799133
31
-173.20508
0
LINE
8
0
10
-166.0
20
52.249146
30
-173.20508
11
-164.0
21
51.200867
31
-173.20508
0
LINE
8
0
10
-164.0
20
-48.799133
30
-173.20508
11
-162.0
21
-50.11902
31
-173.20508
0
LINE
8
0
10
-164.0
20
51.200867
30
-173.20508
11
-162.0
21
49.88098
31
-173.20508
0
LINE
8
0
10
-162.0
20
-50.11902
30
-173.20508
11
-160.0
21
-51.374817
31
-173.20508
0
LINE
8
0
10
-162.0
20
49.88098
30
-173.20508
11
-160.0
21
48.625183
31
-173.20508
0
LINE
8
0
10
-160.0
20
-51.374817
30
-173.20508
11
-158.0
21
-52.389526
31
-173.20508
0
LINE
8
0
10
-160.0
20
48.625183
30
-173.20508
11
-158.0
21
47.610474
31
-173.20508
0
LINE
8
0
10
-158.0
20
-52.389526
30
-173.20508
11
-156.0
21
-52.85492
31
-173.20508
0
LINE
8
0
10
-158.0
20
47.610474
30
-173.20508
11
-156.0
21
47.14508
31
-173.20508
0
LINE
8
0
10
-156.0
20
-52.85492
30
-173.20508
11
-154.0
21
-52.893066
31
-173.20508
0
LINE
8
0
10
-156.0
20
47.14508
30
-173.20508
11
-154.0
21
47.106934
31
-173.20508
0
LINE
8
0
10
-154.0
20
-52.893066
30
-173.20508
11
-152.0
21
-52.416992
31
-173.20508
0
LINE
8
0
10
-154.0
20
47.106934
30
-173.20508
11
-152.0
21
47.583008
31
-173.20508
0
LINE
8
0
10
-152.0
20
-52.416992
30
-173.20508
11
-150.0
21
-51.501465
31
-173.20508
0
LINE
8
0
10
-152.0
20
47.583008
30
-173.20508
11
-150.0
21
48.498535
31
-173.20508
0
LINE
8
0
10
-150.0
20
-51.501465
30
-173.20508
11
-148.0
21
-50.315857
31
-173.20508
0
LINE
8
0
10
-150.0
20
48.498535
30
-173.20508
11
-148.0
21
49.684143
31
-173.20508
0
LINE
8
0
10
-148.0
20
-50.315857
30
-173.20508
11
-146.0
21
-49.041748
31
-173.20508
0
LINE
8
0
10
-148.0
20
49.684143
30
-173.20508
11
-146.0
21
50.958252
31
-173.20508
0
LINE
8
0
10
-146.0
20
-49.041748
30
-173.20508
11
-144.0
21
-47.95685
31
-173.20508
0
LINE
8
0
10
-146.0
20
50.958252
30
-173.20508
11
-144.0
21
52.04315
31
-173.20508
0
LINE
8
0
10
-144.0
20
-47.95685
30
-173.20508
11
-142.0
21
-47.239685
31
-173.20508
0
LINE
8
0
10
-144.0
20
52.04315
30
-173.20508
11
-142.0
21
52.760315
31
-173.20508
0
LINE
8
0
10
-142.0
20
-47.239685
30
-173.20508
11
-140.0
21
-47.05963
31
-173.20508
0
LINE
8
0
10
-142.0
20
52.760315
30
-173.20508
11
-140.0
21
52.94037
31
-173.20508
0
LINE
8
0
10
-140.0
20
-47.05963
30
-173.20508
11
-138.0
21
-47.38617
31
-173.20508
0
LINE
8
0
10
-140.0
20
52.94037
30
-173.20508
11
-138.0
21
52.61383
31
-173.20508
0
LINE
8
0
10
-138.0
20
-47.38617
30
-173.20508
11
-136.0
21
-48.184204
31
-173.20508
0
LINE
8
0
10
-138.0
20
52.61383
30
-173.20508
11
-136.0
21
51.815796
31
-173.20508
0
LINE
8
0
10
-136.0
20
-48.184204
30
-173.20508
11
-134.0
21
-49.243164
31
-173.20508
0
LINE
8
0
10
-136.0
20
51.815796
30
-173.20508
11
-134.0
21
50.756836
31
-173.20508
0
LINE
8
0
10
-134.0
20
-49.243164
30
-173.20508
11
-132.0
21
-50.47455
31
-173.20508
0
LINE
8
0
10
-134.0
20
50.756836
30
-173.20508
11
-132.0
21
49.52545
31
-173.20508
0
LINE
8
0
10
-132.0
20
-50.47455
30
-173.20508
11
-130.0
21
-51.589966
31
-173.20508
0
LINE
8
0
10
-132.0
20
49.52545
30
-173.20508
11
-130.0
21
48.410034
31
-173.20508
0
LINE
8
0
10
-130.0
20
-51.589966
30
-173.20508
11
-128.0
21
-52.39868
31
-173.20508
0
LINE
8
0
10
-130.0
20
48.410034
30
-173.20508
11
-128.0
21
47.60132
31
-173.20508
0
LINE
8
0
10
-128.0
20
-52.39868
30
-173.20508
11
-126.0
21
-52.729797
31
-173.20508
0
LINE
8
0
10
-128.0
20
47.60132
30
-173.20508
11
-126.0
21
47.270203
31
-173.20508
0
LINE
8
0
10
-126.0
20
-52.729797
30
-173.20508
11
-124.0
21
-52.54364
31
-173.20508
0
LINE
8
0
10
-126.0
20
47.270203
30
-173.20508
11
-124.0
21
47.45636
31
-173.20508
0
LINE
8
0
10
-124.0
20
-52.54364
30
-173.20508
11
-122.0
21
-51.870728
31
-173.20508
0
LINE
8
0
10
-124.0
20
47.45636
30
-173.20508
11
-122.0
21
48.129272
31
-173.20508
0
LINE
8
0
10
-122.0
20
-51.870728
30
-173.20508
11
-120.0
21
-50.85907
31
-173.20508
0
LINE
8
0
10
-122.0
20
48.129272
30
-173.20508
11
-120.0
21
49.14093
31
-173.20508
0
LINE
8
0
10
-120.0
20
-50.85907
30
-173.20508
11
-118.0
21
-49.726868
31
-173.20508
0
LINE
8
0
10
-120.0
20
49.14093
30
-173.20508
11
-118.0
21
50.273132
31
-173.20508
0
LINE
8
0
10
-118.0
20
-49.726868
30
-173.20508
11
-116.0
21
-48.690796
31
-173.20508
0
LINE
8
0
10
-118.0
20
50.273132
30
-173.20508
11
-116.0
21
51.309204
31
-173.20508
0
LINE
8
0
10
-116.0
20
-48.690796
30
-173.20508
11
-114.0
21
-47.955322
31
-173.20508
0
LINE
8
0
10
-116.0
20
51.309204
30
-173.20508
11
-114.0
21
52.044678
31
-173.20508
0
LINE
8
0
10
-114.0
20
-47.955322
30
-173.20508
11
-112.0
21
-47.57843
31
-173.20508
0
LINE
8
0
10
-114.0
20
52.044678
30
-173.20508
11
-112.0
21
52.42157
31
-173.20508
0
LINE
8
0
10
-112.0
20
-47.57843
30
-173.20508
11
-110.0
21
-47.6593
31
-173.20508
0
LINE
8
0
10
-112.0
20
52.42157
30
-173.20508
11
-110.0
21
52.3407
31
-173.20508
0
LINE
8
0
10
-110.0
20
-47.6593
30
-173.20508
11
-108.0
21
-48.127747
31
-173.20508
0
LINE
8
0
10
-110.0
20
52.3407
30
-173.20508
11
-108.0
21
51.872253
31
-173.20508
0
LINE
8
0
10
-108.0
20
-48.127747
30
-173.20508
11
-106.0
21
-48.976135
31
-173.20508
0
LINE
8
0
10
-108.0
20
51.872253
30
-173.20508
11
-106.0
21
51.023865
31
-173.20508
0
LINE
8
0
10
-106.0
20
-48.976135
30
-173.20508
11
-104.0
21
-49.96338
31
-173.20508
0
LINE
8
0
10
-106.0
20
51.023865
30
-173.20508
11
-104.0
21
50.03662
31
-173.20508
0
LINE
8
0
10
-104.0
20
-49.96338
30
-173.20508
11
-102.0
21
-50.889587
31
-173.20508
0
LINE
8
0
10
-104.0
20
50.03662
30
-173.20508
11
-102.0
21
49.110413
31
-173.20508
0
LINE
8
0
10
-102.0
20
-50.889587
30
-173.20508
11
-100.0
21
-51.641846
31
-173.20508
0
LINE
8
0
10
-102.0
20
49.110413
30
-173.20508
11
-100.0
21
48.358154
31
-173.20508
0
LINE
8
0
10
-100.0
20
-51.641846
30
-173.20508
11
-98.0
21
-52.02484
31
-173.20508
0
LINE
8
0
10
-100.0
20
48.358154
30
-173.20508
11
-98.0
21
47.97516
31
-173.20508
0
LINE
8
0
10
-98.0
20
-52.02484
30
-173.20508
11
-96.0
21
-52.082825
31
-173.20508
0
LINE
8
0
10
-98.0
20
47.97516
30
-173.20508
11
-96.0
21
47.917175
31
-173.20508
0
LINE
8
0
10
-96.0
20
-52.082825
30
-173.20508
11
-94.0
21
-51.77765
31
-173.20508
0
LINE
8
0
10
-96.0
20
47.917175
30
-173.20508
11
-94.0
21
48.22235
31
-173.20508
0
LINE
8
0
10
-94.0
20
-51.77765
30
-173.20508
11
-92.0
21
-51.086426
31
-173.20508
0
LINE
8
0
10
-94.0
20
48.22235
30
-173.20508
11
-92.0
21
48.913574
31
-173.20508
0
LINE
8
0
10
-92.0
20
-51.086426
30
-173.20508
11
-90.0
21
-50.219727
31
-173.20508
0
LINE
8
0
10
-92.0
20
48.913574
30
-173.20508
11
-90.0
21
49.780273
31
-173.20508
0
LINE
8
0
10
-90.0
20
-50.219727
30
-173.20508
11
-88.0
21
-49.343872
31
-173.20508
0
LINE
8
0
10
-90.0
20
49.780273
30
-173.20508
11
-88.0
21
50.656128
31
-173.20508
0
LINE
8
0
10
-88.0
20
-49.343872
30
-173.20508
11
-86.0
21
-48.616028
31
-173.20508
0
LINE
8
0
10
-88.0
20
50.656128
30
-173.20508
11
-86.0
21
51.383972
31
-173.20508
0
LINE
8
0
10
-86.0
20
-48.616028
30
-173.20508
11
-84.0
21
-48.205566
31
-173.20508
0
LINE
8
0
10
-86.0
20
51.383972
30
-173.20508
11
-84.0
21
51.794434
31
-173.20508
0
LINE
8
0
10
-84.0
20
-48.205566
30
-173.20508
11
-82.0
21
-48.1308
31
-173.20508
0
LINE
8
0
10
-84.0
20
51.794434
30
-173.20508
11
-82.0
21
51.8692
31
-173.20508
0
LINE
8
0
10
-82.0
20
-48.1308
30
-173.20508
11
-80.0
21
-48.457336
31
-173.20508
0
LINE
8
0
10
-82.0
20
51.8692
30
-173.20508
11
-80.0
21
51.542664
31
-173.20508
0
LINE
8
0
10
-80.0
20
-48.457336
30
-173.20508
11
-78.0
21
-49.142456
31
-173.20508
0
LINE
8
0
10
-80.0
20
51.542664
30
-173.20508
11
-78.0
21
50.857544
31
-173.20508
0
LINE
8
0
10
-78.0
20
-49.142456
30
-173.20508
11
-76.0
21
-49.923706
31
-173.20508
0
LINE
8
0
10
-78.0
20
50.857544
30
-173.20508
11
-76.0
21
50.076294
31
-173.20508
0
LINE
8
0
10
-76.0
20
-49.923706
30
-173.20508
11
-74.0
21
-50.727844
31
-173.20508
0
LINE
8
0
10
-76.0
20
50.076294
30
-173.20508
11
-74.0
21
49.272156
31
-173.20508
0
LINE
8
0
10
-74.0
20
-50.727844
30
-173.20508
11
-72.0
21
-51.42212
31
-173.20508
0
LINE
8
0
10
-74.0
20
49.272156
30
-173.20508
11
-72.0
21
48.57788
31
-173.20508
0
LINE
8
0
10
-72.0
20
-51.42212
30
-173.20508
11
-70.0
21
-51.879883
31
-173.20508
0
LINE
8
0
10
-72.0
20
48.57788
30
-173.20508
11
-70.0
21
48.120117
31
-173.20508
0
LINE
8
0
10
-70.0
20
-51.879883
30
-173.20508
11
-68.0
21
-51.992798
31
-173.20508
0
LINE
8
0
10
-70.0
20
48.120117
30
-173.20508
11
-68.0
21
48.007202
31
-173.20508
0
LINE
8
0
10
-68.0
20
-51.992798
30
-173.20508
11
-66.0
21
-51.683044
31
-173.20508
0
LINE
8
0
10
-68.0
20
48.007202
30
-173.20508
11
-66.0
21
48.316956
31
-173.20508
0
LINE
8
0
10
-66.0
20
-51.683044
30
-173.20508
11
-64.0
21
-51.072693
31
-173.20508
0
LINE
8
0
10
-66.0
20
48.316956
30
-173.20508
11
-64.0
21
48.927307
31
-173.20508
0
LINE
8
0
10
-64.0
20
-51.072693
30
-173.20508
11
-62.0
21
-50.27771
31
-173.20508
0
LINE
8
0
10
-64.0
20
48.927307
30
-173.20508
11
-62.0
21
49.72229
31
-173.20508
0
LINE
8
0
10
-62.0
20
-50.27771
30
-173.20508
11
-60.0
21
-49.440002
31
-173.20508
0
LINE
8
0
10
-62.0
20
49.72229
30
-173.20508
11
-60.0
21
50.559998
31
-173.20508
0
LINE
8
0
10
-60.0
20
-49.440002
30
-173.20508
11
-58.0
21
-48.680115
31
-173.20508
0
LINE
8
0
10
-60.0
20
50.559998
30
-173.20508
11
-58.0
21
51.319885
31
-173.20508
0
LINE
8
0
10
-58.0
20
-48.680115
30
-173.20508
11
-56.0
21
-48.171997
31
-173.20508
0
LINE
8
0
10
-58.0
20
51.319885
30
-173.20508
11
-56.0
21
51.828003
31
-173.20508
0
LINE
8
0
10
-56.0
20
-48.171997
30
-173.20508
11
-54.0
21
-48.04535
31
-173.20508
0
LINE
8
0
10
-56.0
20
51.828003
30
-173.20508
11
-54.0
21
51.95465
31
-173.20508
0
LINE
8
0
10
-54.0
20
-48.04535
30
-173.20508
11
-52.0
21
-48.268127
31
-173.20508
0
LINE
8
0
10
-54.0
20
51.95465
30
-173.20508
11
-52.0
21
51.731873
31
-173.20508
0
LINE
8
0
10
-52.0
20
-48.268127
30
-173.20508
11
-50.0
21
-48.828125
31
-173.20508
0
LINE
8
0
10
-52.0
20
51.731873
30
-173.20508
11
-50.0
21
51.171875
31
-173.20508
0
LINE
8
0
10
-50.0
20
-48.828125
30
-173.20508
11
-48.0
21
-49.639893
31
-173.20508
0
LINE
8
0
10
-50.0
20
51.171875
30
-173.20508
11
-48.0
21
50.360107
31
-173.20508
0
LINE
8
0
10
-48.0
20
-49.639893
30
-173.20508
11
-46.0
21
-50.50354
31
-173.20508
0
LINE
8
0
10
-48.0
20
50.360107
30
-173.20508
11
-46.0
21
49.49646
31
-173.20508
0
LINE
8
0
10
-46.0
20
-50.50354
30
-173.20508
11
-44.0
21
-51.316833
31
-173.20508
0
LINE
8
0
10
-46.0
20
49.49646
30
-173.20508
11
-44.0
21
48.683167
31
-173.20508
0
LINE
8
0
10
-44.0
20
-51.316833
30
-173.20508
11
-42.0
21
-51.815796
31
-173.20508
0
LINE
8
0
10
-44.0
20
48.683167
30
-173.20508
11
-42.0
21
48.184204
31
-173.20508
0
LINE
8
0
10
-42.0
20
-51.815796
30
-173.20508
11
-40.0
21
-52.02942
31
-173.20508
0
LINE
8
0
10
-42.0
20
48.184204
30
-173.20508
11
-40.0
21
47.97058
31
-173.20508
0
LINE
8
0
10
-40.0
20
-52.02942
30
-173.20508
11
-38.0
21
-51.88141
31
-173.20508
0
LINE
8
0
10
-40.0
20
47.97058
30
-173.20508
11
-38.0
21
48.11859
31
-173.20508
0
LINE
8
0
10
-38.0
20
-51.88141
30
-173.20508
11
-36.0
21
-51.364136
31
-173.20508
0
LINE
8
0
10
-38.0
20
48.11859
30
-173.20508
11
-36.0
21
48.635864
31
-173.20508
0
LINE
8
0
10
-36.0
20
-51.364136
30
-173.20508
11
-34.0
21
-50.587463
31
-173.20508
0
LINE
8
0
10
-36.0
20
48.635864
30
-173.20508
11
-34.0
21
49.412537
31
-173.20508
0
LINE
8
0
10
-34.0
20
-50.587463
30
-173.20508
11
-32.0
21
-49.673462
31
-173.20508
0
LINE
8
0
10
-34.0
20
49.412537
30
-173.20508
11
-32.0
21
50.326538
31
-173.20508
0
LINE
8
0
10
-32.0
20
-49.673462
30
-173.20508
11
-30.0
21
-48.77777
31
-173.20508
0
LINE
8
0
10
-32.0
20
50.326538
30
-173.20508
11
-30.0
21
51.22223
31
-173.20508
0
LINE
8
0
10
-30.0
20
-48.77777
30
-173.20508
11
-28.0
21
-48.07434
31
-173.20508
0
LINE
8
0
10
-30.0
20
51.22223
30
-173.20508
11
-28.0
21
51.92566
31
-173.20508
0
LINE
8
0
10
-28.0
20
-48.07434
30
-173.20508
11
-26.0
21
-47.76764
31
-173.20508
0
LINE
8
0
10
-28.0
20
51.92566
30
-173.20508
11
-26.0
21
52.23236
31
-173.20508
0
LINE
8
0
10
-26.0
20
-47.76764
30
-173.20508
11
-24.0
21
-47.891235
31
-173.20508
0
LINE
8
0
10
-26.0
20
52.23236
30
-173.20508
11
-24.0
21
52.108765
31
-173.20508
0
LINE
8
0
10
-24.0
20
-47.891235
30
-173.20508
11
-22.0
21
-48.43445
31
-173.20508
0
LINE
8
0
10
-24.0
20
52.108765
30
-173.20508
11
-22.0
21
51.56555
31
-173.20508
0
LINE
8
0
10
-22.0
20
-48.43445
30
-173.20508
11
-20.0
21
-49.24164
31
-173.20508
0
LINE
8
0
10
-22.0
20
51.56555
30
-173.20508
11
-20.0
21
50.75836
31
-173.20508
0
LINE
8
0
10
-20.0
20
-49.24164
30
-173.20508
11
-18.0
21
-50.11444
31
-173.20508
0
LINE
8
0
10
-20.0
20
50.75836
30
-173.20508
11
-18.0
21
49.88556
31
-173.20508
0
LINE
8
0
10
-18.0
20
-50.11444
30
-173.20508
11
-16.0
21
-50.98114
31
-173.20508
0
LINE
8
0
10
-18.0
20
49.88556
30
-173.20508
11
-16.0
21
49.01886
31
-173.20508
0
LINE
8
0
10
-16.0
20
-50.98114
30
-173.20508
11
-14.0
21
-51.690674
31
-173.20508
0
LINE
8
0
10
-16.0
20
49.01886
30
-173.20508
11
-14.0
21
48.309326
31
-173.20508
0
LINE
8
0
10
-14.0
20
-51.690674
30
-173.20508
11
-12.0
21
-52.052307
31
-173.20508
0
LINE
8
0
10
-14.0
20
48.309326
30
-173.20508
11
-12.0
21
47.947693
31
-173.20508
0
LINE
8
0
10
-12.0
20
-52.052307
30
-173.20508
11
-10.0
21
-52.053833
31
-173.20508
0
LINE
8
0
10
-12.0
20
47.947693
30
-173.20508
11
-10.0
21
47.946167
31
-173.20508
0
LINE
8
0
10
-10.0
20
-52.053833
30
-173.20508
11
-8.0
21
-51.683044
31
-173.20508
0
LINE
8
0
10
-10.0
20
47.946167
30
-173.20508
11
-8.0
21
48.316956
31
-173.20508
0
LINE
8
0
10
-8.0
20
-51.683044
30
-173.20508
11
-6.0
21
-50.979614
31
-173.20508
0
LINE
8
0
10
-8.0
20
48.316956
30
-173.20508
11
-6.0
21
49.020386
31
-173.20508
0
LINE
8
0
10
-6.0
20
-50.979614
30
-173.20508
11
-4.0
21
-50.102234
31
-173.20508
0
LINE
8
0
10
-6.0
20
49.020386
30
-173.20508
11
-4.0
21
49.897766
31
-173.20508
0
LINE
8
0
10
-4.0
20
-50.102234
30
-173.20508
11
-2.0
21
-49.194336
31
-173.20508
0
LINE
8
0
10
-4.0
20
49.897766
30
-173.20508
11
-2.0
21
50.805664
31
-173.20508
0
LINE
8
0
10
-2.0
20
-49.194336
30
-173.20508
11
0.0
21
-48.44513
31
-173.20508
0
LINE
8
0
10
-2.0
20
50.805664
30
-173.20508
11
0.0
21
51.55487
31
-173.20508
0
LINE
8
0
10
0.0
20
-48.44513
30
-173.20508
11
2.0
21
-48.0484
31
-173.20508
0
LINE
8
0
10
0.0
20
51.55487
30
-173.20508
11
2.0
21
51.9516
31
-173.20508
0
LINE
8
0
10
2.0
20
-48.0484
30
-173.20508
11
4.0
21
-47.998047
31
-173.20508
0
LINE
8
0
10
2.0
20
51.9516
30
-173.20508
11
4.0
21
52.001953
31
-173.20508
0
LINE
8
0
10
4.0
20
-47.998047
30
-173.20508
11
6.0
21
-48.30017
31
-173.20508
0
LINE
8
0
10
4.0
20
52.001953
30
-173.20508
11
6.0
21
51.69983
31
-173.20508
0
LINE
8
0
10
6.0
20
-48.30017
30
-173.20508
11
8.0
21
-48.96393
31
-173.20508
0
LINE
8
0
10
6.0
20
51.69983
30
-173.20508
11
8.0
21
51.03607
31
-173.20508
0
LINE
8
0
10
8.0
20
-48.96393
30
-173.20508
11
10.0
21
-49.769592
31
-173.20508
0
LINE
8
0
10
8.0
20
51.03607
30
-173.20508
11
10.0
21
50.230408
31
-173.20508
0
LINE
8
0
10
10.0
20
-49.769592
30
-173.20508
11
12.0
21
-50.57831
31
-173.20508
0
LINE
8
0
10
10.0
20
50.230408
30
-173.20508
11
12.0
21
49.42169
31
-173.20508
0
LINE
8
0
10
12.0
20
-50.57831
30
-173.20508
11
14.0
21
-51.254272
31
-173.20508
0
LINE
8
0
10
12.0
20
49.42169
30
-173.20508
11
14.0
21
48.745728
31
-173.20508
0
LINE
8
0
10
14.0
20
-51.254272
30
-173.20508
11
16.0
21
-51.66931
31
-173.20508
0
LINE
8
0
10
14.0
20
48.745728
30
-173.20508
11
16.0
21
48.33069
31
-173.20508
0
LINE
8
0
10
16.0
20
-51.66931
30
-173.20508
11
18.0
21
-51.83716
31
-173.20508
0
LINE
8
0
10
16.0
20
48.33069
30
-173.20508
11
18.0
21
48.16284
31
-173.20508
0
LINE
8
0
10
18.0
20
-51.83716
30
-173.20508
11
20.0
21
-51.634216
31
-173.20508
0
LINE
8
0
10
18.0
20
48.16284
30
-173.20508
11
20.0
21
48.365784
31
-173.20508
0
LINE
8
0
10
20.0
20
-51.634216
30
-173.20508
11
22.0
21
-51.101685
31
-173.20508
0
LINE
8
0
10
20.0
20
48.365784
30
-173.20508
11
22.0
21
48.898315
31
-173.20508
0
LINE
8
0
10
22.0
20
-51.101685
30
-173.20508
11
24.0
21
-50.398254
31
-173.20508
0
LINE
8
0
10
22.0
20
48.898315
30
-173.20508
11
24.0
21
49.601746
31
-173.20508
0
LINE
8
0
10
24.0
20
-50.398254
30
-173.20508
11
26.0
21
-49.620056
31
-173.20508
0
LINE
8
0
10
24.0
20
49.601746
30
-173.20508
11
26.0
21
50.379944
31
-173.20508
0
LINE
8
0
10
26.0
20
-49.620056
30
-173.20508
11
28.0
21
-49.006653
31
-173.20508
0
LINE
8
0
10
26.0
20
50.379944
30
-173.20508
11
28.0
21
50.993347
31
-173.20508
0
LINE
8
0
10
28.0
20
-49.006653
30
-173.20508
11
30.0
21
-48.580933
31
-173.20508
0
LINE
8
0
10
28.0
20
50.993347
30
-173.20508
11
30.0
21
51.419067
31
-173.20508
0
LINE
8
0
10
30.0
20
-48.580933
30
-173.20508
11
32.0
21
-48.457336
31
-173.20508
0
LINE
8
0
10
30.0
20
51.419067
30
-173.20508
11
32.0
21
51.542664
31
-173.20508
0
LINE
8
0
10
32.0
20
-48.457336
30
-173.20508
11
34.0
21
-48.677063
31
-173.20508
0
LINE
8
0
10
32.0
20
51.542664
30
-173.20508
11
34.0
21
51.322937
31
-173.20508
0
LINE
8
0
10
34.0
20
-48.677063
30
-173.20508
11
36.0
21
-49.12262
31
-173.20508
0
LINE
8
0
10
34.0
20
51.322937
30
-173.20508
11
36.0
21
50.87738
31
-173.20508
0
LINE
8
0
10
36.0
20
-49.12262
30
-173.20508
11
38.0
21
-49.68872
31
-173.20508
0
LINE
8
0
10
36.0
20
50.87738
30
-173.20508
11
38.0
21
50.31128
31
-173.20508
0
LINE
8
0
10
38.0
20
-49.68872
30
-173.20508
11
40.0
21
-50.279236
31
-173.20508
0
LINE
8
0
10
38.0
20
50.31128
30
-173.20508
11
40.0
21
49.720764
31
-173.20508
0
LINE
8
0
10
40.0
20
-50.279236
30
-173.20508
11
42.0
21
-50.837708
31
-173.20508
0
LINE
8
0
10
40.0
20
49.720764
30
-173.20508
11
42.0
21
49.162292
31
-173.20508
0
LINE
8
0
10
42.0
20
-50.837708
30
-173.20508
11
44.0
21
-51.174927
31
-173.20508
0
LINE
8
0
10
42.0
20
49.162292
30
-173.20508
11
44.0
21
48.825073
31
-173.20508
0
LINE
8
0
10
44.0
20
-51.174927
30
-173.20508
11
46.0
21
-51.315308
31
-173.20508
0
LINE
8
0
10
44.0
20
48.825073
30
-173.20508
11
46.0
21
48.684692
31
-173.20508
0
LINE
8
0
10
46.0
20
-51.315308
30
-173.20508
11
48.0
21
-51.158142
31
-173.20508
0
LINE
8
0
10
46.0
20
48.684692
30
-173.20508
11
48.0
21
48.841858
31
-173.20508
0
LINE
8
0
10
48.0
20
-51.158142
30
-173.20508
11
50.0
21
-50.776672
31
-173.20508
0
LINE
8
0
10
48.0
20
48.841858
30
-173.20508
11
50.0
21
49.223328
31
-173.20508
0
LINE
8
0
10
50.0
20
-50.776672
30
-173.20508
11
52.0
21
-50.283813
31
-173.20508
0
LINE
8
0
10
50.0
20
49.223328
30
-173.20508
11
52.0
21
49.716187
31
-173.20508
0
LINE
8
0
10
52.0
20
-50.283813
30
-173.20508
11
54.0
21
-49.710083
31
-173.20508
0
LINE
8
0
10
52.0
20
49.716187
30
-173.20508
11
54.0
21
50.289917
31
-173.20508
0
LINE
8
0
10
54.0
20
-49.710083
30
-173.20508
11
56.0
21
-49.302673
31
-173.20508
0
LINE
8
0
10
54.0
20
50.289917
30
-173.20508
11
56.0
21
50.697327
31
-173.20508
0
LINE
8
0
10
56.0
20
-49.302673
30
-173.20508
11
58.0
21
-49.05243
31
-173.20508
0
LINE
8
0
10
56.0
20
50.697327
30
-173.20508
11
58.0
21
50.94757
31
-173.20508
0
LINE
8
0
10
58.0
20
-49.05243
30
-173.20508
11
60.0
21
-49.028015
31
-173.20508
0
LINE
8
0
10
58.0
20
50.94757
30
-173.20508
11
60.0
21
50.971985
31
-173.20508
0
LINE
8
0
10
60.0
20
-49.028015
30
-173.20508
11
62.0
21
-49.171448
31
-173.20508
0
LINE
8
0
10
60.0
20
50.971985
30
-173.20508
11
62.0
21
50.828552
31
-173.20508
0
LINE
8
0
10
62.0
20
-49.171448
30
-173.20508
11
64.0
21
-49.461365
31
-173.20508
0
LINE
8
0
10
62.0
20
50.828552
30
-173.20508
11
64.0
21
50.538635
31
-173.20508
0
LINE
8
0
10
64.0
20
-49.461365
30
-173.20508
11
66.0
21
-49.88861
31
-173.20508
0
LINE
8
0
10
64.0
20
50.538635
30
-173.20508
11
66.0
21
50.11139
31
-173.20508
0
LINE
8
0
10
66.0
20
-49.88861
30
-173.20508
11
68.0
21
-50.361633
31
-173.20508
0
LINE
8
0
10
66.0
20
50.11139
30
-173.20508
11
68.0
21
49.638367
31
-173.20508
0
LINE
8
0
10
68.0
20
-50.361633
30
-173.20508
11
70.0
21
-50.78125
31
-173.20508
0
LINE
8
0
10
68.0
20
49.638367
30
-173.20508
11
70.0
21
49.21875
31
-173.20508
0
LINE
8
0
10
70.0
20
-50.78125
30
-173.20508
11
72.0
21
-50.98114
31
-173.20508
0
LINE
8
0
10
70.0
20
49.21875
30
-173.20508
11
72.0
21
49.01886
31
-173.20508
0
LINE
8
0
10
72.0
20
-50.98114
30
-173.20508
11
74.0
21
-50.968933
31
-173.20508
0
LINE
8
0
10
72.0
20
49.01886
30
-173.20508
11
74.0
21
49.031067
31
-173.20508
0
LINE
8
0
10
74.0
20
-50.968933
30
-173.20508
11
76.0
21
-50.808716
31
-173.20508
0
LINE
8
0
10
74.0
20
49.031067
30
-173.20508
11
76.0
21
49.191284
31
-173.20508
0
LINE
8
0
10
76.0
20
-50.808716
30
-173.20508
11
78.0
21
-50.46692
31
-173.20508
0
LINE
8
0
10
76.0
20
49.191284
30
-173.20508
11
78.0
21
49.53308
31
-173.20508
0
LINE
8
0
10
78.0
20
-50.46692
30
-173.20508
11
80.0
21
-50.0412
31
-173.20508
0
LINE
8
0
10
78.0
20
49.53308
30
-173.20508
11
80.0
21
49.9588
31
-173.20508
0
LINE
8
0
10
80.0
20
-50.0412
30
-173.20508
11
82.0
21
-49.59259
31
-173.20508
0
LINE
8
0
10
80.0
20
49.9588
30
-173.20508
11
82.0
21
50.40741
31
-173.20508
0
LINE
8
0
10
82.0
20
-49.59259
30
-173.20508
11
84.0
21
-49.20807
31
-173.20508
0
LINE
8
0
10
82.0
20
50.40741
30
-173.20508
11
84.0
21
50.79193
31
-173.20508
0
LINE
8
0
10
84.0
20
-49.20807
30
-173.20508
11
86.0
21
-49.002075
31
-173.20508
0
LINE
8
0
10
84.0
20
50.79193
30
-173.20508
11
86.0
21
50.997925
31
-173.20508
0
LINE
8
0
10
86.0
20
-49.002075
30
-173.20508
11
88.0
21
-48.986816
31
-173.20508
0
LINE
8
0
10
86.0
20
50.997925
30
-173.20508
11
88.0
21
51.013184
31
-173.20508
0
LINE
8
0
10
88.0
20
-48.986816
30
-173.20508
11
90.0
21
-49.2218
31
-173.20508
0
LINE
8
0
10
88.0
20
51.013184
30
-173.20508
11
90.0
21
50.7782
31
-173.20508
0
LINE
8
0
10
90.0
20
-49.2218
30
-173.20508
11
92.0
21
-49.6109
31
-173.20508
0
LINE
8
0
10
90.0
20
50.7782
30
-173.20508
11
92.0
21
50.3891
31
-173.20508
0
LINE
8
0
10
92.0
20
-49.6109
30
-173.20508
11
94.0
21
-50.039673
31
-173.20508
0
LINE
8
0
10
92.0
20
50.3891
30
-173.20508
11
94.0
21
49.960327
31
-173.20508
0
LINE
8
0
10
94.0
20
-50.039673
30
-173.20508
11
96.0
21
-50.44861
31
-173.20508
0
LINE
8
0
10
94.0
20
49.960327
30
-173.20508
11
96.0
21
49.55139
31
-173.20508
0
LINE
8
0
10
96.0
20
-50.44861
30
-173.20508
11
98.0
21
-50.811768
31
-173.20508
0
LINE
8
0
10
96.0
20
49.55139
30
-173.20508
11
98.0
21
49.188232
31
-173.20508
0
LINE
8
0
10
98.0
20
-50.811768
30
-173.20508
11
100.0
21
-50.993347
31
-173.20508
0
LINE
8
0
10
98.0
20
49.188232
30
-173.20508
11
100.0
21
49.006653
31
-173.20508
0
LINE
8
0
10
100.0
20
-50.993347
30
-173.20508
11
102.0
21
-50.985718
31
-173.20508
0
LINE
8
0
10
100.0
20
49.006653
30
-173.20508
11
102.0
21
49.014282
31
-173.20508
0
LINE
8
0
10
102.0
20
-50.985718
30
-173.20508
11
104.0
21
-50.828552
31
-173.20508
0
LINE
8
0
10
102.0
20
49.014282
30
-173.20508
11
104.0
21
49.171448
31
-173.20508
0
LINE
8
0
10
104.0
20
-50.828552
30
-173.20508
11
106.0
21
-50.463867
31
-173.20508
0
LINE
8
0
10
104.0
20
49.171448
30
-173.20508
11
106.0
21
49.536133
31
-173.20508
0
LINE
8
0
10
106.0
20
-50.463867
30
-173.20508
11
108.0
21
-50.001526
31
-173.20508
0
LINE
8
0
10
106.0
20
49.536133
30
-173.20508
11
108.0
21
49.998474
31
-173.20508
0
LINE
8
0
10
108.0
20
-50.001526
30
-173.20508
11
110.0
21
-49.54071
31
-173.20508
0
LINE
8
0
10
108.0
20
49.998474
30
-173.20508
11
110.0
21
50.45929
31
-173.20508
0
LINE
8
0
10
110.0
20
-49.54071
30
-173.20508
11
112.0
21
-49.147034
31
-173.20508
0
LINE
8
0
10
110.0
20
50.45929
30
-173.20508
11
112.0
21
50.852966
31
-173.20508
0
LINE
8
0
10
112.0
20
-49.147034
30
-173.20508
11
114.0
21
-48.939514
31
-173.20508
0
LINE
8
0
10
112.0
20
50.852966
30
-173.20508
11
114.0
21
51.060486
31
-173.20508
0
LINE
8
0
10
114.0
20
-48.939514
30
-173.20508
11
116.0
21
-48.887634
31
-173.20508
0
LINE
8
0
10
114.0
20
51.060486
30
-173.20508
11
116.0
21
51.112366
31
-173.20508
0
LINE
8
0
10
116.0
20
-48.887634
30
-173.20508
11
118.0
21
-49.038696
31
-173.20508
0
LINE
8
0
10
116.0
20
51.112366
30
-173.20508
11
118.0
21
50.961304
31
-173.20508
0
LINE
8
0
10
118.0
20
-49.038696
30
-173.20508
11
120.0
21
-49.317932
31
-173.20508
0
LINE
8
0
10
118.0
20
50.961304
30
-173.20508
11
120.0
21
50.682068
31
-173.20508
0
LINE
8
0
10
120.0
20
-49.317932
30
-173.20508
11
122.0
21
-49.72534
31
-173.20508
0
LINE
8
0
10
120.0
20
50.682068
30
-173.20508
11
122.0
21
50.27466
31
-173.20508
0
LINE
8
0
10
122.0
20
-49.72534
30
-173.20508
11
124.0
21
-50.17395
31
-173.20508
0
LINE
8
0
10
122.0
20
50.27466
30
-173.20508
11
124.0
21
49.82605
31
-173.20508
0
LINE
8
0
10
124.0
20
-50.17395
30
-173.20508
11
126.0
21
-50.58899
31
-173.20508
0
LINE
8
0
10
124.0
20
49.82605
30
-173.20508
11
126.0
21
49.41101
31
-173.20508
0
LINE
8
0
10
126.0
20
-50.58899
30
-173.20508
11
128.0
21
-50.898743
31
-173.20508
0
LINE
8
0
10
126.0
20
49.41101
30
-173.20508
11
128.0
21
49.101257
31
-173.20508
0
LINE
8
0
10
128.0
20
-50.898743
30
-173.20508
11
130.0
21
-51.02234
31
-173.20508
0
LINE
8
0
10
128.0
20
49.101257
30
-173.20508
11
130.0
21
48.97766
31
-173.20508
0
LINE
8
0
10
130.0
20
-51.02234
30
-173.20508
11
132.0
21
-50.907898
31
-173.20508
0
LINE
8
0
10
130.0
20
48.97766
30
-173.20508
11
132.0
21
49.092102
31
-173.20508
0
LINE
8
0
10
132.0
20
-50.907898
30
-173.20508
11
134.0
21
-50.604248
31
-173.20508
0
LINE
8
0
10
132.0
20
49.092102
30
-173.20508
11
134.0
21
49.395752
31
-173.20508
0
LINE
8
0
10
134.0
20
-50.604248
30
-173.20508
11
136.0
21
-50.22278
31
-173.20508
0
LINE
8
0
10
134.0
20
49.395752
30
-173.20508
11
136.0
21
49.77722
31
-173.20508
0
LINE
8
0
10
136.0
20
-50.22278
30
-173.20508
11
138.0
21
-49.822998
31
-173.20508
0
LINE
8
0
10
136.0
20
49.77722
30
-173.20508
11
138.0
21
50.177002
31
-173.20508
0
LINE
8
0
10
138.0
20
-49.822998
30
-173.20508
11
140.0
21
-49.46289
31
-173.20508
0
LINE
8
0
10
138.0
20
50.177002
30
-173.20508
11
140.0
21
50.53711
31
-173.20508
0
LINE
8
0
10
140.0
20
-49.46289
30
-173.20508
11
142.0
21
-49.176025
31
-173.20508
0
LINE
8
0
10
140.0
20
50.53711
30
-173.20508
11
142.0
21
50.823975
31
-173.20508
0
LINE
8
0
10
142.0
20
-49.176025
30
-173.20508
11
144.0
21
-49.07379
31
-173.20508
0
LINE
8
0
10
142.0
20
50.823975
30
-173.20508
11
144.0
21
50.92621
31
-173.20508
0
LINE
8
0
10
144.0
20
-49.07379
30
-173.20508
11
146.0
21
-49.212646
31
-173.20508
0
LINE
8
0
10
144.0
20
50.92621
30
-173.20508
11
146.0
21
50.787354
31
-173.20508
0
LINE
8
0
10
146.0
20
-49.212646
30
-173.20508
11
148.0
21
-49.4339
31
-173.20508
0
LINE
8
0
10
146.0
20
50.787354
30
-173.20508
11
148.0
21
50.5661
31
-173.20508
0
LINE
8
0
10
148.0
20
-49.4339
30
-173.20508
11
150.0
21
-49.73297
31
-173.20508
0
LINE
8
0
10
148.0
20
50.5661
30
-173.20508
11
150.0
21
50.26703
31
-173.20508
0
LINE
8
0
10
150.0
20
-49.73297
30
-173.20508
11
152.0
21
-50.056458
31
-173.20508
0
LINE
8
0
10
150.0
20
50.26703
30
-173.20508
11
152.0
21
49.943542
31
-173.20508
0
LINE
8
0
10
152.0
20
-50.056458
30
-173.20508
11
154.0
21
-50.352478
31
-173.20508
0
LINE
8
0
10
152.0
20
49.943542
30
-173.20508
11
154.0
21
49.647522
31
-173.20508
0
LINE
8
0
10
154.0
20
-50.352478
30
-173.20508
11
156.0
21
-50.54474
31
-173.20508
0
LINE
8
0
10
154.0
20
49.647522
30
-173.20508
11
156.0
21
49.45526
31
-173.20508
0
LINE
8
0
10
156.0
20
-50.54474
30
-173.20508
11
158.0
21
-50.6073
31
-173.20508
0
LINE
8
0
10
156.0
20
49.45526
30
-173.20508
11
158.0
21
49.3927
31
-173.20508
0
LINE
8
0
10
158.0
20
-50.6073
30
-173.20508
11
160.0
21
-50.564575
31
-173.20508
0
LINE
8
0
10
158.0
20
49.3927
30
-173.20508
11
160.0
21
49.435425
31
-173.20508
0
LINE
8
0
10
160.0
20
-50.564575
30
-173.20508
11
162.0
21
-50.445557
31
-173.20508
0
LINE
8
0
10
160.0
20
49.435425
30
-173.20508
11
162.0
21
49.554443
31
-173.20508
0
LINE
8
0
10
162.0
20
-50.445557
30
-173.20508
11
164.0
21
-50.25482
31
-173.20508
0
LINE
8
0
10
162.0
20
49.554443
30
-173.20508
11
164.0
21
49.74518
31
-173.20508
0
LINE
8
0
10
164.0
20
-50.25482
30
-173.20508
11
166.0
21
-50.01526
31
-173.20508
0
LINE
8
0
10
164.0
20
49.74518
30
-173.20508
11
166.0
21
49.98474
31
-173.20508
0
LINE
8
0
10
166.0
20
-50.01526
30
-173.20508
11
168.0
21
-49.79706
31
-173.20508
0
LINE
8
0
10
166.0
20
49.98474
30
-173.20508
11
168.0
21
50.20294
31
-173.20508
0
LINE
8
0
10
168.0
20
-49.79706
30
-173.20508
11
170.0
21
-49.658203
31
-173.20508
0
LINE
8
0
10
168.0
20
50.20294
30
-173.20508
11
170.0
21
50.341797
31
-173.20508
0
LINE
8
0
10
170.0
20
-49.658203
30
-173.20508
11
172.0
21
-49.65515
31
-173.20508
0
LINE
8
0
10
170.0
20
50.341797
30
-173.20508
11
172.0
21
50.34485
31
-173.20508
0
LINE
8
0
10
172.0
20
-49.65515
30
-173.20508
11
174.0
21
-49.713135
31
-173.20508
0
LINE
8
0
10
172.0
20
50.34485
30
-173.20508
11
174.0
21
50.286865
31
-173.20508
0
LINE
8
0
10
174.0
20
-49.713135
30
-173.20508
11
176.0
21
-49.82605
31
-173.20508
0
LINE
8
0
10
174.0
20
50.286865
30
-173.20508
11
176.0
21
50.17395
31
-173.20508
0
LINE
8
0
10
176.0
20
-49.82605
30
-173.20508
11
178.0
21
-49.97101
31
-173.20508
0
LINE
8
0
10
176.0
20
50.17395
30
-173.20508
11
178.0
21
50.02899
31
-173.20508
0
LINE
8
0
10
178.0
20
-49.97101
30
-173.20508
11
180.0
21
-50.109863
31
-173.20508
0
LINE
8
0
10
178.0
20
50.02899
30
-173.20508
11
180.0
21
49.890137
31
-173.20508
0
LINE
8
0
10
180.0
20
-50.109863
30
-173.20508
11
182.0
21
-50.193787
31
-173.20508
0
LINE
8
0
10
180.0
20
49.890137
30
-173.20508
11
182.0
21
49.806213
31
-173.20508
0
LINE
8
0
10
182.0
20
-50.193787
30
-173.20508
11
184.0
21
-50.221252
31
-173.20508
0
LINE
8
0
10
182.0
20
49.806213
30
-173.20508
11
184.0
21
49.778748
31
-173.20508
0
LINE
8
0
10
184.0
20
-50.221252
30
-173.20508
11
186.0
21
-50.187683
31
-173.20508
0
LINE
8
0
10
184.0
20
49.778748
30
-173.20508
11
186.0
21
49.812317
31
-173.20508
0
LINE
8
0
10
186.0
20
-50.187683
30
-173.20508
11
188.0
21
-50.091553
31
-173.20508
0
LINE
8
0
10
186.0
20
49.812317
30
-173.20508
11
188.0
21
49.908447
31
-173.20508
0
LINE
8
0
10
188.0
20
-50.091553
30
-173.20508
11
190.0
21
-49.967957
31
-173.20508
0
LINE
8
0
10
188.0
20
49.908447
30
-173.20508
11
190.0
21
50.032043
31
-173.20508
0
LINE
8
0
10
190.0
20
-49.967957
30
-173.20508
11
192.0
21
-49.876404
31
-173.20508
0
LINE
8
0
10
190.0
20
50.032043
30
-173.20508
11
192.0
21
50.123596
31
-173.20508
0
LINE
8
0
10
192.0
20
-49.876404
30
-173.20508
11
194.0
21
-49.88098
31
-173.20508
0
LINE
8
0
10
192.0
20
50.123596
30
-173.20508
11
194.0
21
50.11902
31
-173.20508
0
LINE
8
0
10
194.0
20
-49.88098
30
-173.20508
11
196.0
21
-49.926758
31
-173.20508
0
LINE
8
0
10
194.0
20
50.11902
30
-173.20508
11
196.0
21
50.073242
31
-173.20508
0
LINE
8
0
10
196.0
20
-49.926758
30
-173.20508
11
198.0
21
-50.0
31
-173.20508
0
LINE
8
0
10
196.0
20
50.073242
30
-173.20508
11
198.0
21
50.0
31
-173.20508
0
LINE
8
0
10
198.0
20
-50.0
30
-173.20508
11
200.0
21
-50.06256
31
-173.20508
0
LINE
8
0
10
198.0
20
50.0
30
-173.20508
11
200.0
21
49.93744
31
-173.20508
0
LINE
8
0
10
200.0
20
-50.06256
30
-173.20508
11
202.0
21
-50.141907
31
-173.20508
0
LINE
8
0
10
200.0
20
49.93744
30
-173.20508
11
202.0
21
49.858093
31
-173.20508
0
LINE
8
0
10
202.0
20
-50.141907
30
-173.20508
11
204.0
21
-50.18921
31
-173.20508
0
LINE
8
0
10
202.0
20
49.858093
30
-173.20508
11
204.0
21
49.81079
31
-173.20508
0
LINE
8
0
10
204.0
20
-50.18921
30
-173.20508
11
206.0
21
-50.213623
31
-173.20508
0
LINE
8
0
10
204.0
20
49.81079
30
-173.20508
11
206.0
21
49.786377
31
-173.20508
0
LINE
8
0
10
206.0
20
-50.213623
30
-173.20508
11
208.0
21
-50.19684
31
-173.20508
0
LINE
8
0
10
206.0
20
49.786377
30
-173.20508
11
208.0
21
49.80316
31
-173.20508
0
LINE
8
0
10
208.0
20
-50.19684
30
-173.20508
11
210.0
21
-50.11139
31
-173.20508
0
LINE
8
0
10
208.0
20
49.80316
30
-173.20508
11
210.0
21
49.88861
31
-173.20508
0
LINE
8
0
10
210.0
20
-50.11139
30
-173.20508
11
212.0
21
-49.987793
31
-173.20508
0
LINE
8
0
10
210.0
20
49.88861
30
-173.20508
11
212.0
21
50.012207
31
-173.20508
0
LINE
8
0
10
212.0
20
-49.987793
30
-173.20508
11
214.0
21
-49.86725
31
-173.20508
0
LINE
8
0
10
212.0
20
50.012207
30
-173.20508
11
214.0
21
50.13275
31
-173.20508
0
LINE
8
0
10
214.0
20
-49.86725
30
-173.20508
11
216.0
21
-49.795532
31
-173.20508
0
LINE
8
0
10
214.0
20
50.13275
30
-173.20508
11
216.0
21
50.204468
31
-173.20508
0
LINE
8
0
10
216.0
20
-49.795532
30
-173.20508
11
218.0
21
-49.73755
31
-173.20508
0
LINE
8
0
10
216.0
20
50.204468
30
-173.20508
11
218.0
21
50.26245
31
-173.20508
0
LINE
8
0
10
218.0
20
-49.73755
30
-173.20508
11
220.0
21
-49.749756
31
-173.20508
0
LINE
8
0
10
218.0
20
50.26245
30
-173.20508
11
220.0
21
50.250244
31
-173.20508
0
LINE
8
0
10
220.0
20
-49.749756
30
-173.20508
11
222.0
21
-49.813843
31
-173.20508
0
LINE
8
0
10
220.0
20
50.250244
30
-173.20508
11
222.0
21
50.186157
31
-173.20508
0
LINE
8
0
10
222.0
20
-49.813843
30
-173.20508
11
224.0
21
-49.949646
31
-173.20508
0
LINE
8
0
10
222.0
20
50.186157
30
-173.20508
11
224.0
21
50.050354
31
-173.20508
0
LINE
8
0
10
224.0
20
-49.949646
30
-173.20508
11
226.0
21
-50.073242
31
-173.20508
0
LINE
8
0
10
224.0
20
50.050354
30
-173.20508
11
226.0
21
49.926758
31
-173.20508
0
LINE
8
0
10
226.0
20
-50.073242
30
-173.20508
11
228.0
21
-50.1709
31
-173.20508
0
LINE
8
0
10
226.0
20
49.926758
30
-173.20508
11
228.0
21
49.8291
31
-173.20508
0
LINE
8
0
10
228.0
20
-50.1709
30
-173.20508
11
230.0
21
-50.239563
31
-173.20508
0
LINE
8
0
10
228.0
20
49.8291
30
-173.20508
11
230.0
21
49.760437
31
-173.20508
0
LINE
8
0
10
230.0
20
-50.239563
30
-173.20508
11
232.0
21
-50.247192
31
-173.20508
0
LINE
8
0
10
230.0
20
49.760437
30
-173.20508
11
232.0
21
49.752808
31
-173.20508
0
LINE
8
0
10
232.0
20
-50.247192
30
-173.20508
11
234.0
21
-50.21057
31
-173.20508
0
LINE
8
0
10
232.0
20
49.752808
30
-173.20508
11
234.0
21
49.78943
31
-173.20508
0
LINE
8
0
10
234.0
20
-50.21057
30
-173.20508
11
236.0
21
-50.1297
31
-173.20508
0
LINE
8
0
10
234.0
20
49.78943
30
-173.20508
11
236.0
21
49.8703
31
-173.20508
0
LINE
8
0
10
236.0
20
-50.1297
30
-173.20508
11
238.0
21
-50.021362
31
-173.20508
0
LINE
8
0
10
236.0
20
49.8703
30
-173.20508
11
238.0
21
49.978638
31
-173.20508
0
LINE
8
0
10
238.0
20
-50.021362
30
-173.20508
11
240.0
21
-49.88861
31
-173.20508
0
LINE
8
0
10
238.0
20
49.978638
30
-173.20508
11
240.0
21
50.11139
31
-173.20508
0
LINE
8
0
10
240.0
20
-49.88861
30
-173.20508
11
242.0
21
-49.78943
31
-173.20508
0
LINE
8
0
10
240.0
20
50.11139
30
-173.20508
11
242.0
21
50.21057
31
-173.20508
0
LINE
8
0
10
242.0
20
-49.78943
30
-173.20508
11
244.0
21
-49.700928
31
-173.20508
0
LINE
8
0
10
242.0
20
50.21057
30
-173.20508
11
244.0
21
50.299072
31
-173.20508
0
LINE
8
0
10
244.0
20
-49.700928
30
-173.20508
11
246.0
21
-49.682617
31
-173.20508
0
LINE
8
0
10
244.0
20
50.299072
30
-173.20508
11
246.0
21
50.317383
31
-173.20508
0
LINE
8
0
10
246.0
20
-49.682617
30
-173.20508
11
248.0
21
-49.6933
31
-173.20508
0
LINE
8
0
10
246.0
20
50.317383
30
-173.20508
11
248.0
21
50.3067
31
-173.20508
0
LINE
8
0
10
248.0
20
-49.6933
30
-173.20508
11
250.0
21
-49.787903
31
-173.20508
0
LINE
8
0
10
248.0
20
50.3067
30
-173.20508
11
250.0
21
50.212097
31
-173.20508
0
LINE
8
0
10
250.0
20
-49.787903
30
-173.20508
11
252.0
21
-49.93744
31
-173.20508
0
LINE
8
0
10
250.0
20
50.212097
30
-173.20508
11
252.0
21
50.06256
31
-173.20508
0
LINE
8
0
10
252.0
20
-49.93744
30
-173.20508
11
254.0
21
-50.100708
31
-173.20508
0
LINE
8
0
10
252.0
20
50.06256
30
-173.20508
11
254.0
21
49.899292
31
-173.20508
0
ENDSEC
0
EOF
