0
SECTION
2
ENTITIES
0
LINE
8
0
10
-320.0
20
-34.607986
30
-311.76917
11
-319.36
21
-20.141296
31
-311.76917
0
LINE
8
0
10
-319.36
20
-20.141296
30
-311.76917
11
-318.72
21
-4.8313904
31
-311.76917
0
LINE
8
0
10
-318.72
20
-4.8313904
30
-311.76917
11
-318.08
21
10.871292
31
-311.76917
0
LINE
8
0
10
-318.08
20
10.871292
30
-311.76917
11
-317.44
21
25.791199
31
-311.76917
0
LINE
8
0
10
-317.44
20
25.791199
30
-311.76917
11
-316.8
21
38.57692
31
-311.76917
0
LINE
8
0
10
-316.8
20
38.57692
30
-311.76917
11
-316.16
21
47.855164
31
-311.76917
0
LINE
8
0
10
-316.16
20
47.855164
30
-311.76917
11
-315.52
21
54.131287
31
-311.76917
0
LINE
8
0
10
-315.52
20
54.131287
30
-311.76917
11
-314.88
21
58.745697
31
-311.76917
0
LINE
8
0
10
-314.88
20
58.745697
30
-311.76917
11
-314.24
21
60.04213
31
-311.76917
0
LINE
8
0
10
-314.24
20
60.04213
30
-311.76917
11
-313.6
21
56.007263
31
-311.76917
0
LINE
8
0
10
-313.6
20
56.007263
30
-311.76917
11
-312.96
21
47.734314
31
-311.76917
0
LINE
8
0
10
-312.96
20
47.734314
30
-311.76917
11
-312.32
21
37.005844
31
-311.76917
0
LINE
8
0
10
-312.32
20
37.005844
30
-311.76917
11
-311.68
21
24.632095
31
-311.76917
0
LINE
8
0
10
-311.68
20
24.632095
30
-311.76917
11
-311.04
21
10.89328
31
-311.76917
0
LINE
8
0
10
-311.04
20
10.89328
30
-311.76917
11
-310.4
21
-2.8510437
31
-311.76917
0
LINE
8
0
10
-310.4
20
-2.8510437
30
-311.76917
11
-309.76
21
-17.084259
31
-311.76917
0
LINE
8
0
10
-309.76
20
-17.084259
30
-311.76917
11
-309.12
21
-31.938232
31
-311.76917
0
LINE
8
0
10
-309.12
20
-31.938232
30
-311.76917
11
-308.48
21
-47.333282
31
-311.76917
0
LINE
8
0
10
-308.48
20
-47.333282
30
-311.76917
11
-307.84
21
-59.520256
31
-311.76917
0
LINE
8
0
10
-307.84
20
-59.520256
30
-311.76917
11
-307.2
21
-64.71694
31
-311.76917
0
LINE
8
0
10
-307.2
20
-64.71694
30
-311.76917
11
-306.56
21
-66.93075
31
-311.76917
0
LINE
8
0
10
-306.56
20
-66.93075
30
-311.76917
11
-305.92
21
-66.8511
31
-311.76917
0
LINE
8
0
10
-305.92
20
-66.8511
30
-311.76917
11
-305.28
21
-65.4503
31
-311.76917
0
LINE
8
0
10
-305.28
20
-65.4503
30
-311.76917
11
-304.64
21
-63.741882
31
-311.76917
0
LINE
8
0
10
-304.64
20
-63.741882
30
-311.76917
11
-304.0
21
-57.22129
31
-311.76917
0
LINE
8
0
10
-304.0
20
-57.22129
30
-311.76917
11
-303.36
21
-44.289993
31
-311.76917
0
LINE
8
0
10
-303.36
20
-44.289993
30
-311.76917
11
-302.72
21
-28.238464
31
-311.76917
0
LINE
8
0
10
-302.72
20
-28.238464
30
-311.76917
11
-302.08
21
-12.239151
31
-311.76917
0
LINE
8
0
10
-302.08
20
-12.239151
30
-311.76917
11
-301.44
21
2.8318176
31
-311.76917
0
LINE
8
0
10
-301.44
20
2.8318176
30
-311.76917
11
-300.8
21
16.861786
31
-311.76917
0
LINE
8
0
10
-300.8
20
16.861786
30
-311.76917
11
-300.16
21
29.798569
31
-311.76917
0
LINE
8
0
10
-300.16
20
29.798569
30
-311.76917
11
-299.52
21
41.370285
31
-311.76917
0
LINE
8
0
10
-299.52
20
41.370285
30
-311.76917
11
-298.88
21
53.4254
31
-311.76917
0
LINE
8
0
10
-298.88
20
53.4254
30
-311.76917
11
-298.24
21
62.868454
31
-311.76917
0
LINE
8
0
10
-298.24
20
62.868454
30
-311.76917
11
-297.6
21
66.95822
31
-311.76917
0
LINE
8
0
10
-297.6
20
66.95822
30
-311.76917
11
-296.96
21
67.5103
31
-311.76917
0
LINE
8
0
10
-296.96
20
67.5103
30
-311.76917
11
-296.32
21
64.36537
31
-311.76917
0
LINE
8
0
10
-296.32
20
64.36537
30
-311.76917
11
-295.68
21
60.00641
31
-311.76917
0
LINE
8
0
10
-295.68
20
60.00641
30
-311.76917
11
-295.04
21
54.08734
31
-311.76917
0
LINE
8
0
10
-295.04
20
54.08734
30
-311.76917
11
-294.4
21
43.740646
31
-311.76917
0
LINE
8
0
10
-294.4
20
43.740646
30
-311.76917
11
-293.76
21
30.696747
31
-311.76917
0
LINE
8
0
10
-293.76
20
30.696747
30
-311.76917
11
-293.12
21
18.394424
31
-311.76917
0
LINE
8
0
10
-293.12
20
18.394424
30
-311.76917
11
-292.48
21
5.979477
31
-311.76917
0
LINE
8
0
10
-292.48
20
5.979477
30
-311.76917
11
-291.84
21
-7.1028748
31
-311.76917
0
LINE
8
0
10
-291.84
20
-7.1028748
30
-311.76917
11
-291.2
21
-20.567032
31
-311.76917
0
LINE
8
0
10
-291.2
20
-20.567032
30
-311.76917
11
-290.56
21
-32.484818
31
-311.76917
0
LINE
8
0
10
-290.56
20
-32.484818
30
-311.76917
11
-289.92
21
-41.296127
31
-311.76917
0
LINE
8
0
10
-289.92
20
-41.296127
30
-311.76917
11
-289.28
21
-45.935226
31
-311.76917
0
LINE
8
0
10
-289.28
20
-45.935226
30
-311.76917
11
-288.64
21
-47.973267
31
-311.76917
0
LINE
8
0
10
-288.64
20
-47.973267
30
-311.76917
11
-288.0
21
-47.478867
31
-311.76917
0
LINE
8
0
10
-288.0
20
-47.478867
30
-311.76917
11
-287.36
21
-42.54036
31
-311.76917
0
LINE
8
0
10
-287.36
20
-42.54036
30
-311.76917
11
-286.72
21
-35.973083
31
-311.76917
0
LINE
8
0
10
-286.72
20
-35.973083
30
-311.76917
11
-286.08002
21
-27.332077
31
-311.76917
0
LINE
8
0
10
-286.08002
20
-27.332077
30
-311.76917
11
-285.44
21
-17.617111
31
-311.76917
0
LINE
8
0
10
-285.44
20
-17.617111
30
-311.76917
11
-284.8
21
-4.7764587
31
-311.76917
0
LINE
8
0
10
-284.8
20
-4.7764587
30
-311.76917
11
-284.16
21
10.061035
31
-311.76917
0
LINE
8
0
10
-284.16
20
10.061035
30
-311.76917
11
-283.52
21
22.951141
31
-311.76917
0
LINE
8
0
10
-283.52
20
22.951141
30
-311.76917
11
-282.88
21
34.81949
31
-311.76917
0
LINE
8
0
10
-282.88
20
34.81949
30
-311.76917
11
-282.24
21
45.199127
31
-311.76917
0
LINE
8
0
10
-282.24
20
45.199127
30
-311.76917
11
-281.6
21
53.54625
31
-311.76917
0
LINE
8
0
10
-281.6
20
53.54625
30
-311.76917
11
-280.96
21
60.31404
31
-311.76917
0
LINE
8
0
10
-280.96
20
60.31404
30
-311.76917
11
-280.32
21
65.42833
31
-311.76917
0
LINE
8
0
10
-280.32
20
65.42833
30
-311.76917
11
-279.68
21
68.23816
31
-311.76917
0
LINE
8
0
10
-279.68
20
68.23816
30
-311.76917
11
-279.04
21
67.224655
31
-311.76917
0
LINE
8
0
10
-279.04
20
67.224655
30
-311.76917
11
-278.4
21
60.81392
31
-311.76917
0
LINE
8
0
10
-278.4
20
60.81392
30
-311.76917
11
-277.76
21
51.840576
31
-311.76917
0
LINE
8
0
10
-277.76
20
51.840576
30
-311.76917
11
-277.12
21
41.010468
31
-311.76917
0
LINE
8
0
10
-277.12
20
41.010468
30
-311.76917
11
-276.47998
21
29.75737
31
-311.76917
0
LINE
8
0
10
-276.47998
20
29.75737
30
-311.76917
11
-275.84
21
17.334213
31
-311.76917
0
LINE
8
0
10
-275.84
20
17.334213
30
-311.76917
11
-275.2
21
2.691742
31
-311.76917
0
LINE
8
0
10
-275.2
20
2.691742
30
-311.76917
11
-274.56
21
-11.475571
31
-311.76917
0
LINE
8
0
10
-274.56
20
-11.475571
30
-311.76917
11
-273.92
21
-24.730972
31
-311.76917
0
LINE
8
0
10
-273.92
20
-24.730972
30
-311.76917
11
-273.28
21
-36.530655
31
-311.76917
0
LINE
8
0
10
-273.28
20
-36.530655
30
-311.76917
11
-272.64
21
-45.501266
31
-311.76917
0
LINE
8
0
10
-272.64
20
-45.501266
30
-311.76917
11
-272.0
21
-51.686752
31
-311.76917
0
LINE
8
0
10
-272.0
20
-51.686752
30
-311.76917
11
-271.36
21
-54.977257
31
-311.76917
0
LINE
8
0
10
-271.36
20
-54.977257
30
-311.76917
11
-270.72
21
-55.31511
31
-311.76917
0
LINE
8
0
10
-270.72
20
-55.31511
30
-311.76917
11
-270.08
21
-53.213913
31
-311.76917
0
LINE
8
0
10
-270.08
20
-53.213913
30
-311.76917
11
-269.44
21
-48.50612
31
-311.76917
0
LINE
8
0
10
-269.44
20
-48.50612
30
-311.76917
11
-268.8
21
-40.153503
31
-311.76917
0
LINE
8
0
10
-268.8
20
-40.153503
30
-311.76917
11
-268.16
21
-29.554123
31
-311.76917
0
LINE
8
0
10
-268.16
20
-29.554123
30
-311.76917
11
-267.52
21
-17.647324
31
-311.76917
0
LINE
8
0
10
-267.52
20
-17.647324
30
-311.76917
11
-266.88
21
-4.2435913
31
-311.76917
0
LINE
8
0
10
-266.88
20
-4.2435913
30
-311.76917
11
-266.24
21
9.607849
31
-311.76917
0
LINE
8
0
10
-266.24
20
9.607849
30
-311.76917
11
-265.6
21
23.753174
31
-311.76917
0
LINE
8
0
10
-265.6
20
23.753174
30
-311.76917
11
-264.96
21
36.12964
31
-311.76917
0
LINE
8
0
10
-264.96
20
36.12964
30
-311.76917
11
-264.32
21
45.41336
31
-311.76917
0
LINE
8
0
10
-264.32
20
45.41336
30
-311.76917
11
-263.68
21
52.433838
31
-311.76917
0
LINE
8
0
10
-263.68
20
52.433838
30
-311.76917
11
-263.04
21
56.98233
31
-311.76917
0
LINE
8
0
10
-263.04
20
56.98233
30
-311.76917
11
-262.4
21
59.737244
31
-311.76917
0
LINE
8
0
10
-262.4
20
59.737244
30
-311.76917
11
-261.76
21
59.404877
31
-311.76917
0
LINE
8
0
10
-261.76
20
59.404877
30
-311.76917
11
-261.12
21
55.392014
31
-311.76917
0
LINE
8
0
10
-261.12
20
55.392014
30
-311.76917
11
-260.48
21
49.11862
31
-311.76917
0
LINE
8
0
10
-260.48
20
49.11862
30
-311.76917
11
-259.84
21
40.15625
31
-311.76917
0
LINE
8
0
10
-259.84
20
40.15625
30
-311.76917
11
-259.2
21
27.884155
31
-311.76917
0
LINE
8
0
10
-259.2
20
27.884155
30
-311.76917
11
-258.56
21
12.6017
31
-311.76917
0
LINE
8
0
10
-258.56
20
12.6017
30
-311.76917
11
-257.91998
21
-3.1806335
31
-311.76917
0
LINE
8
0
10
-257.91998
20
-3.1806335
30
-311.76917
11
-257.28
21
-16.56514
31
-311.76917
0
LINE
8
0
10
-257.28
20
-16.56514
30
-311.76917
11
-256.64
21
-27.271652
31
-311.76917
0
LINE
8
0
10
-256.64
20
-27.271652
30
-311.76917
11
-256.0
21
-36.52516
31
-311.76917
0
LINE
8
0
10
-256.0
20
-36.52516
30
-311.76917
11
-255.36
21
-46.006653
31
-311.76917
0
LINE
8
0
10
-255.36
20
-46.006653
30
-311.76917
11
-254.72
21
-54.52681
31
-311.76917
0
LINE
8
0
10
-254.72
20
-54.52681
30
-311.76917
11
-254.08
21
-60.33052
31
-311.76917
0
LINE
8
0
10
-254.08
20
-60.33052
30
-311.76917
11
-253.44
21
-62.67067
31
-311.76917
0
LINE
8
0
10
-253.44
20
-62.67067
30
-311.76917
11
-252.8
21
-60.184937
31
-311.76917
0
LINE
8
0
10
-252.8
20
-60.184937
30
-311.76917
11
-252.16
21
-52.551964
31
-311.76917
0
LINE
8
0
10
-252.16
20
-52.551964
30
-311.76917
11
-251.51999
21
-42.57332
31
-311.76917
0
LINE
8
0
10
-251.51999
20
-42.57332
30
-311.76917
11
-250.88
21
-32.388687
31
-311.76917
0
LINE
8
0
10
-250.88
20
-32.388687
30
-311.76917
11
-250.24
21
-22.651749
31
-311.76917
0
LINE
8
0
10
-250.24
20
-22.651749
30
-311.76917
11
-249.6
21
-12.074341
31
-311.76917
0
LINE
8
0
10
-249.6
20
-12.074341
30
-311.76917
11
-248.95999
21
1.5243988
31
-311.76917
0
LINE
8
0
10
-248.95999
20
1.5243988
30
-311.76917
11
-248.32
21
15.68895
31
-311.76917
0
LINE
8
0
10
-248.32
20
15.68895
30
-311.76917
11
-247.68
21
28.768585
31
-311.76917
0
LINE
8
0
10
-247.68
20
28.768585
30
-311.76917
11
-247.04001
21
39.50255
31
-311.76917
0
LINE
8
0
10
-247.04001
20
39.50255
30
-311.76917
11
-246.4
21
47.25363
31
-311.76917
0
LINE
8
0
10
-246.4
20
47.25363
30
-311.76917
11
-245.76001
21
52.32672
31
-311.76917
0
LINE
8
0
10
-245.76001
20
52.32672
30
-311.76917
11
-245.12
21
54.37024
31
-311.76917
0
LINE
8
0
10
-245.12
20
54.37024
30
-311.76917
11
-244.48
21
53.535263
31
-311.76917
0
LINE
8
0
10
-244.48
20
53.535263
30
-311.76917
11
-243.84
21
49.277924
31
-311.76917
0
LINE
8
0
10
-243.84
20
49.277924
30
-311.76917
11
-243.20001
21
42.499146
31
-311.76917
0
LINE
8
0
10
-243.20001
20
42.499146
30
-311.76917
11
-242.56
21
32.65236
31
-311.76917
0
LINE
8
0
10
-242.56
20
32.65236
30
-311.76917
11
-241.92
21
20.113846
31
-311.76917
0
LINE
8
0
10
-241.92
20
20.113846
30
-311.76917
11
-241.28
21
6.4079742
31
-311.76917
0
LINE
8
0
10
-241.28
20
6.4079742
30
-311.76917
11
-240.64
21
-8.382828
31
-311.76917
0
LINE
8
0
10
-240.64
20
-8.382828
30
-311.76917
11
-240.0
21
-23.588364
31
-311.76917
0
LINE
8
0
10
-240.0
20
-23.588364
30
-311.76917
11
-239.36
21
-39.107025
31
-311.76917
0
LINE
8
0
10
-239.36
20
-39.107025
30
-311.76917
11
-238.72
21
-52.52999
31
-311.76917
0
LINE
8
0
10
-238.72
20
-52.52999
30
-311.76917
11
-238.07999
21
-63.17057
31
-311.76917
0
LINE
8
0
10
-238.07999
20
-63.17057
30
-311.76917
11
-237.44
21
-71.635796
31
-311.76917
0
LINE
8
0
10
-237.44
20
-71.635796
30
-311.76917
11
-236.8
21
-76.77206
31
-311.76917
0
LINE
8
0
10
-236.8
20
-76.77206
30
-311.76917
11
-236.16
21
-78.7936
31
-311.76917
0
LINE
8
0
10
-236.16
20
-78.7936
30
-311.76917
11
-235.52
21
-77.043976
31
-311.76917
0
LINE
8
0
10
-235.52
20
-77.043976
30
-311.76917
11
-234.88
21
-71.93243
31
-311.76917
0
LINE
8
0
10
-234.88
20
-71.93243
30
-311.76917
11
-234.23999
21
-64.32142
31
-311.76917
0
LINE
8
0
10
-234.23999
20
-64.32142
30
-311.76917
11
-233.6
21
-53.19194
31
-311.76917
0
LINE
8
0
10
-233.6
20
-53.19194
30
-311.76917
11
-232.95999
21
-40.340286
31
-311.76917
0
LINE
8
0
10
-232.95999
20
-40.340286
30
-311.76917
11
-232.32
21
-27.389755
31
-311.76917
0
LINE
8
0
10
-232.32
20
-27.389755
30
-311.76917
11
-231.68
21
-13.595993
31
-311.76917
0
LINE
8
0
10
-231.68
20
-13.595993
30
-311.76917
11
-231.04001
21
0.28015137
31
-311.76917
0
LINE
8
0
10
-231.04001
20
0.28015137
30
-311.76917
11
-230.4
21
12.500076
31
-311.76917
0
LINE
8
0
10
-230.4
20
12.500076
30
-311.76917
11
-229.76
21
23.349396
31
-311.76917
0
LINE
8
0
10
-229.76
20
23.349396
30
-311.76917
11
-229.12
21
33.02591
31
-311.76917
0
LINE
8
0
10
-229.12
20
33.02591
30
-311.76917
11
-228.48
21
39.763474
31
-311.76917
0
LINE
8
0
10
-228.48
20
39.763474
30
-311.76917
11
-227.84
21
42.27118
31
-311.76917
0
LINE
8
0
10
-227.84
20
42.27118
30
-311.76917
11
-227.20001
21
40.988495
31
-311.76917
0
LINE
8
0
10
-227.20001
20
40.988495
30
-311.76917
11
-226.56
21
37.09648
31
-311.76917
0
LINE
8
0
10
-226.56
20
37.09648
30
-311.76917
11
-225.92
21
31.196625
31
-311.76917
0
LINE
8
0
10
-225.92
20
31.196625
30
-311.76917
11
-225.28
21
22.687454
31
-311.76917
0
LINE
8
0
10
-225.28
20
22.687454
30
-311.76917
11
-224.64
21
11.78595
31
-311.76917
0
LINE
8
0
10
-224.64
20
11.78595
30
-311.76917
11
-224.0
21
-2.274231
31
-311.76917
0
LINE
8
0
10
-224.0
20
-2.274231
30
-311.76917
11
-223.36
21
-17.303986
31
-311.76917
0
LINE
8
0
10
-223.36
20
-17.303986
30
-311.76917
11
-222.72
21
-31.355942
31
-311.76917
0
LINE
8
0
10
-222.72
20
-31.355942
30
-311.76917
11
-222.08
21
-45.580917
31
-311.76917
0
LINE
8
0
10
-222.08
20
-45.580917
30
-311.76917
11
-221.44
21
-57.28721
31
-311.76917
0
LINE
8
0
10
-221.44
20
-57.28721
30
-311.76917
11
-220.8
21
-66.452835
31
-311.76917
0
LINE
8
0
10
-220.8
20
-66.452835
30
-311.76917
11
-220.16
21
-74.02813
31
-311.76917
0
LINE
8
0
10
-220.16
20
-74.02813
30
-311.76917
11
-219.51999
21
-79.4995
31
-311.76917
0
LINE
8
0
10
-219.51999
20
-79.4995
30
-311.76917
11
-218.88
21
-83.86944
31
-311.76917
0
LINE
8
0
10
-218.88
20
-83.86944
30
-311.76917
11
-218.24
21
-82.27088
31
-311.76917
0
LINE
8
0
10
-218.24
20
-82.27088
30
-311.76917
11
-217.6
21
-75.09385
31
-311.76917
0
LINE
8
0
10
-217.6
20
-75.09385
30
-311.76917
11
-216.95999
21
-66.82638
31
-311.76917
0
LINE
8
0
10
-216.95999
20
-66.82638
30
-311.76917
11
-216.32
21
-56.42475
31
-311.76917
0
LINE
8
0
10
-216.32
20
-56.42475
30
-311.76917
11
-215.68
21
-46.204422
31
-311.76917
0
LINE
8
0
10
-215.68
20
-46.204422
30
-311.76917
11
-215.04
21
-33.64392
31
-311.76917
0
LINE
8
0
10
-215.04
20
-33.64392
30
-311.76917
11
-214.4
21
-18.169205
31
-311.76917
0
LINE
8
0
10
-214.4
20
-18.169205
30
-311.76917
11
-213.76001
21
-2.796112
31
-311.76917
0
LINE
8
0
10
-213.76001
20
-2.796112
30
-311.76917
11
-213.12
21
12.513809
31
-311.76917
0
LINE
8
0
10
-213.12
20
12.513809
30
-311.76917
11
-212.48001
21
23.810852
31
-311.76917
0
LINE
8
0
10
-212.48001
20
23.810852
30
-311.76917
11
-211.84
21
33.311554
31
-311.76917
0
LINE
8
0
10
-211.84
20
33.311554
30
-311.76917
11
-211.2
21
40.50235
31
-311.76917
0
LINE
8
0
10
-211.2
20
40.50235
30
-311.76917
11
-210.56
21
44.073013
31
-311.76917
0
LINE
8
0
10
-210.56
20
44.073013
30
-311.76917
11
-209.92
21
46.31154
31
-311.76917
0
LINE
8
0
10
-209.92
20
46.31154
30
-311.76917
11
-209.28
21
44.46852
31
-311.76917
0
LINE
8
0
10
-209.28
20
44.46852
30
-311.76917
11
-208.64
21
38.557693
31
-311.76917
0
LINE
8
0
10
-208.64
20
38.557693
30
-311.76917
11
-208.0
21
29.496445
31
-311.76917
0
LINE
8
0
10
-208.0
20
29.496445
30
-311.76917
11
-207.36
21
18.2928
31
-311.76917
0
LINE
8
0
10
-207.36
20
18.2928
30
-311.76917
11
-206.72
21
6.2157135
31
-311.76917
0
LINE
8
0
10
-206.72
20
6.2157135
30
-311.76917
11
-206.08
21
-6.841934
31
-311.76917
0
LINE
8
0
10
-206.08
20
-6.841934
30
-311.76917
11
-205.44
21
-21.025726
31
-311.76917
0
LINE
8
0
10
-205.44
20
-21.025726
30
-311.76917
11
-204.79999
21
-35.591293
31
-311.76917
0
LINE
8
0
10
-204.79999
20
-35.591293
30
-311.76917
11
-204.16
21
-48.69838
31
-311.76917
0
LINE
8
0
10
-204.16
20
-48.69838
30
-311.76917
11
-203.52
21
-58.89676
31
-311.76917
0
LINE
8
0
10
-203.52
20
-58.89676
30
-311.76917
11
-202.88
21
-66.35669
31
-311.76917
0
LINE
8
0
10
-202.88
20
-66.35669
30
-311.76917
11
-202.23999
21
-72.594376
31
-311.76917
0
LINE
8
0
10
-202.23999
20
-72.594376
30
-311.76917
11
-201.6
21
-76.13757
31
-311.76917
0
LINE
8
0
10
-201.6
20
-76.13757
30
-311.76917
11
-200.95999
21
-76.25019
31
-311.76917
0
LINE
8
0
10
-200.95999
20
-76.25019
30
-311.76917
11
-200.31999
21
-71.50671
31
-311.76917
0
LINE
8
0
10
-200.31999
20
-71.50671
30
-311.76917
11
-199.68001
21
-61.077614
31
-311.76917
0
LINE
8
0
10
-199.68001
20
-61.077614
30
-311.76917
11
-199.04001
21
-49.937134
31
-311.76917
0
LINE
8
0
10
-199.04001
20
-49.937134
30
-311.76917
11
-198.4
21
-39.0054
31
-311.76917
0
LINE
8
0
10
-198.4
20
-39.0054
30
-311.76917
11
-197.76001
21
-27.403488
31
-311.76917
0
LINE
8
0
10
-197.76001
20
-27.403488
30
-311.76917
11
-197.12
21
-13.244431
31
-311.76917
0
LINE
8
0
10
-197.12
20
-13.244431
30
-311.76917
11
-196.48
21
3.238327
31
-311.76917
0
LINE
8
0
10
-196.48
20
3.238327
30
-311.76917
11
-195.84
21
19.072845
31
-311.76917
0
LINE
8
0
10
-195.84
20
19.072845
30
-311.76917
11
-195.20001
21
34.091614
31
-311.76917
0
LINE
8
0
10
-195.20001
20
34.091614
30
-311.76917
11
-194.56
21
44.27626
31
-311.76917
0
LINE
8
0
10
-194.56
20
44.27626
30
-311.76917
11
-193.92
21
50.53041
31
-311.76917
0
LINE
8
0
10
-193.92
20
50.53041
30
-311.76917
11
-193.28
21
54.02417
31
-311.76917
0
LINE
8
0
10
-193.28
20
54.02417
30
-311.76917
11
-192.64
21
55.25467
31
-311.76917
0
LINE
8
0
10
-192.64
20
55.25467
30
-311.76917
11
-192.0
21
54.504852
31
-311.76917
0
LINE
8
0
10
-192.0
20
54.504852
30
-311.76917
11
-191.36
21
51.634583
31
-311.76917
0
LINE
8
0
10
-191.36
20
51.634583
30
-311.76917
11
-190.72
21
45.515
31
-311.76917
0
LINE
8
0
10
-190.72
20
45.515
30
-311.76917
11
-190.08
21
34.4377
31
-311.76917
0
LINE
8
0
10
-190.08
20
34.4377
30
-311.76917
11
-189.44
21
20.31984
31
-311.76917
0
LINE
8
0
10
-189.44
20
20.31984
30
-311.76917
11
-188.8
21
4.430359
31
-311.76917
0
LINE
8
0
10
-188.8
20
4.430359
30
-311.76917
11
-188.16
21
-9.750671
31
-311.76917
0
LINE
8
0
10
-188.16
20
-9.750671
30
-311.76917
11
-187.52
21
-22.918182
31
-311.76917
0
LINE
8
0
10
-187.52
20
-22.918182
30
-311.76917
11
-186.88
21
-35.56108
31
-311.76917
0
LINE
8
0
10
-186.88
20
-35.56108
30
-311.76917
11
-186.23999
21
-46.27034
31
-311.76917
0
LINE
8
0
10
-186.23999
20
-46.27034
30
-311.76917
11
-185.6
21
-55.935852
31
-311.76917
0
LINE
8
0
10
-185.6
20
-55.935852
30
-311.76917
11
-184.96
21
-63.838013
31
-311.76917
0
LINE
8
0
10
-184.96
20
-63.838013
30
-311.76917
11
-184.32
21
-68.33704
31
-311.76917
0
LINE
8
0
10
-184.32
20
-68.33704
30
-311.76917
11
-183.68
21
-68.5815
31
-311.76917
0
LINE
8
0
10
-183.68
20
-68.5815
30
-311.76917
11
-183.04
21
-64.82131
31
-311.76917
0
LINE
8
0
10
-183.04
20
-64.82131
30
-311.76917
11
-182.4
21
-56.91916
31
-311.76917
0
LINE
8
0
10
-182.4
20
-56.91916
30
-311.76917
11
-181.76
21
-46.753754
31
-311.76917
0
LINE
8
0
10
-181.76
20
-46.753754
30
-311.76917
11
-181.12001
21
-34.456924
31
-311.76917
0
LINE
8
0
10
-181.12001
20
-34.456924
30
-311.76917
11
-180.48001
21
-20.814224
31
-311.76917
0
LINE
8
0
10
-180.48001
20
-20.814224
30
-311.76917
11
-179.84
21
-7.5917816
31
-311.76917
0
LINE
8
0
10
-179.84
20
-7.5917816
30
-311.76917
11
-179.2
21
8.058701
31
-311.76917
0
LINE
8
0
10
-179.2
20
8.058701
30
-311.76917
11
-178.56
21
24.329971
31
-311.76917
0
LINE
8
0
10
-178.56
20
24.329971
30
-311.76917
11
-177.92
21
37.96167
31
-311.76917
0
LINE
8
0
10
-177.92
20
37.96167
30
-311.76917
11
-177.28
21
50.327164
31
-311.76917
0
LINE
8
0
10
-177.28
20
50.327164
30
-311.76917
11
-176.64
21
57.328415
31
-311.76917
0
LINE
8
0
10
-176.64
20
57.328415
30
-311.76917
11
-176.0
21
62.986557
31
-311.76917
0
LINE
8
0
10
-176.0
20
62.986557
30
-311.76917
11
-175.36
21
67.15874
31
-311.76917
0
LINE
8
0
10
-175.36
20
67.15874
30
-311.76917
11
-174.72
21
65.35417
31
-311.76917
0
LINE
8
0
10
-174.72
20
65.35417
30
-311.76917
11
-174.08
21
62.827225
31
-311.76917
0
LINE
8
0
10
-174.08
20
62.827225
30
-311.76917
11
-173.44
21
57.067474
31
-311.76917
0
LINE
8
0
10
-173.44
20
57.067474
30
-311.76917
11
-172.8
21
48.176514
31
-311.76917
0
LINE
8
0
10
-172.8
20
48.176514
30
-311.76917
11
-172.16
21
37.901245
31
-311.76917
0
LINE
8
0
10
-172.16
20
37.901245
30
-311.76917
11
-171.52
21
24.637589
31
-311.76917
0
LINE
8
0
10
-171.52
20
24.637589
30
-311.76917
11
-170.88
21
11.582672
31
-311.76917
0
LINE
8
0
10
-170.88
20
11.582672
30
-311.76917
11
-170.24
21
-1.2909393
31
-311.76917
0
LINE
8
0
10
-170.24
20
-1.2909393
30
-311.76917
11
-169.6
21
-12.211685
31
-311.76917
0
LINE
8
0
10
-169.6
20
-12.211685
30
-311.76917
11
-168.95999
21
-22.929169
31
-311.76917
0
LINE
8
0
10
-168.95999
20
-22.929169
30
-311.76917
11
-168.31999
21
-34.487137
31
-311.76917
0
LINE
8
0
10
-168.31999
20
-34.487137
30
-311.76917
11
-167.68
21
-42.106384
31
-311.76917
0
LINE
8
0
10
-167.68
20
-42.106384
30
-311.76917
11
-167.04001
21
-47.73706
31
-311.76917
0
LINE
8
0
10
-167.04001
20
-47.73706
30
-311.76917
11
-166.40001
21
-47.69037
31
-311.76917
0
LINE
8
0
10
-166.40001
20
-47.69037
30
-311.76917
11
-165.76001
21
-43.14737
31
-311.76917
0
LINE
8
0
10
-165.76001
20
-43.14737
30
-311.76917
11
-165.12
21
-36.43727
31
-311.76917
0
LINE
8
0
10
-165.12
20
-36.43727
30
-311.76917
11
-164.48
21
-30.353394
31
-311.76917
0
LINE
8
0
10
-164.48
20
-30.353394
30
-311.76917
11
-163.84
21
-24.846344
31
-311.76917
0
LINE
8
0
10
-163.84
20
-24.846344
30
-311.76917
11
-163.2
21
-12.412186
31
-311.76917
0
LINE
8
0
10
-163.2
20
-12.412186
30
-311.76917
11
-162.56
21
3.2081146
31
-311.76917
0
LINE
8
0
10
-162.56
20
3.2081146
30
-311.76917
11
-161.92
21
19.781479
31
-311.76917
0
LINE
8
0
10
-161.92
20
19.781479
30
-311.76917
11
-161.28
21
36.830032
31
-311.76917
0
LINE
8
0
10
-161.28
20
36.830032
30
-311.76917
11
-160.64
21
48.786285
31
-311.76917
0
LINE
8
0
10
-160.64
20
48.786285
30
-311.76917
11
-160.0
21
56.77359
31
-311.76917
0
LINE
8
0
10
-160.0
20
56.77359
30
-311.76917
11
-159.36002
21
65.95294
31
-311.76917
0
LINE
8
0
10
-159.36002
20
65.95294
30
-311.76917
11
-158.72
21
72.85806
31
-311.76917
0
LINE
8
0
10
-158.72
20
72.85806
30
-311.76917
11
-158.08
21
79.76044
31
-311.76917
0
LINE
8
0
10
-158.08
20
79.76044
30
-311.76917
11
-157.44
21
83.19101
31
-311.76917
0
LINE
8
0
10
-157.44
20
83.19101
30
-311.76917
11
-156.8
21
80.741
31
-311.76917
0
LINE
8
0
10
-156.8
20
80.741
30
-311.76917
11
-156.15999
21
75.13229
31
-311.76917
0
LINE
8
0
10
-156.15999
20
75.13229
30
-311.76917
11
-155.52
21
63.23375
31
-311.76917
0
LINE
8
0
10
-155.52
20
63.23375
30
-311.76917
11
-154.88
21
53.186447
31
-311.76917
0
LINE
8
0
10
-154.88
20
53.186447
30
-311.76917
11
-154.23999
21
40.988495
31
-311.76917
0
LINE
8
0
10
-154.23999
20
40.988495
30
-311.76917
11
-153.6
21
28.128601
31
-311.76917
0
LINE
8
0
10
-153.6
20
28.128601
30
-311.76917
11
-152.95999
21
16.631073
31
-311.76917
0
LINE
8
0
10
-152.95999
20
16.631073
30
-311.76917
11
-152.32
21
1.0080109
31
-311.76917
0
LINE
8
0
10
-152.32
20
1.0080109
30
-311.76917
11
-151.68
21
-11.983704
31
-311.76917
0
LINE
8
0
10
-151.68
20
-11.983704
30
-311.76917
11
-151.04001
21
-22.989594
31
-311.76917
0
LINE
8
0
10
-151.04001
20
-22.989594
30
-311.76917
11
-150.40001
21
-30.864288
31
-311.76917
0
LINE
8
0
10
-150.40001
20
-30.864288
30
-311.76917
11
-149.76
21
-35.794556
31
-311.76917
0
LINE
8
0
10
-149.76
20
-35.794556
30
-311.76917
11
-149.12001
21
-39.09604
31
-311.76917
0
LINE
8
0
10
-149.12001
20
-39.09604
30
-311.76917
11
-148.48
21
-37.159653
31
-311.76917
0
LINE
8
0
10
-148.48
20
-37.159653
30
-311.76917
11
-147.84
21
-32.924286
31
-311.76917
0
LINE
8
0
10
-147.84
20
-32.924286
30
-311.76917
11
-147.2
21
-26.120789
31
-311.76917
0
LINE
8
0
10
-147.2
20
-26.120789
30
-311.76917
11
-146.56
21
-14.664459
31
-311.76917
0
LINE
8
0
10
-146.56
20
-14.664459
30
-311.76917
11
-145.91998
21
-2.128662
31
-311.76917
0
LINE
8
0
10
-145.91998
20
-2.128662
30
-311.76917
11
-145.28
21
11.524994
31
-311.76917
0
LINE
8
0
10
-145.28
20
11.524994
30
-311.76917
11
-144.64001
21
26.227905
31
-311.76917
0
LINE
8
0
10
-144.64001
20
26.227905
30
-311.76917
11
-144.0
21
40.48587
31
-311.76917
0
LINE
8
0
10
-144.0
20
40.48587
30
-311.76917
11
-143.36
21
53.4666
31
-311.76917
0
LINE
8
0
10
-143.36
20
53.4666
30
-311.76917
11
-142.72
21
65.20036
31
-311.76917
0
LINE
8
0
10
-142.72
20
65.20036
30
-311.76917
11
-142.08
21
75.03342
31
-311.76917
0
LINE
8
0
10
-142.08
20
75.03342
30
-311.76917
11
-141.43999
21
80.97995
31
-311.76917
0
LINE
8
0
10
-141.43999
20
80.97995
30
-311.76917
11
-140.8
21
81.73529
31
-311.76917
0
LINE
8
0
10
-140.8
20
81.73529
30
-311.76917
11
-140.16
21
82.25989
31
-311.76917
0
LINE
8
0
10
-140.16
20
82.25989
30
-311.76917
11
-139.51999
21
80.56793
31
-311.76917
0
LINE
8
0
10
-139.51999
20
80.56793
30
-311.76917
11
-138.88
21
76.112854
31
-311.76917
0
LINE
8
0
10
-138.88
20
76.112854
30
-311.76917
11
-138.23999
21
68.97702
31
-311.76917
0
LINE
8
0
10
-138.23999
20
68.97702
30
-311.76917
11
-137.6
21
57.79808
31
-311.76917
0
LINE
8
0
10
-137.6
20
57.79808
30
-311.76917
11
-136.95999
21
44.111465
31
-311.76917
0
LINE
8
0
10
-136.95999
20
44.111465
30
-311.76917
11
-136.32
21
29.128387
31
-311.76917
0
LINE
8
0
10
-136.32
20
29.128387
30
-311.76917
11
-135.68001
21
16.856293
31
-311.76917
0
LINE
8
0
10
-135.68001
20
16.856293
30
-311.76917
11
-135.04
21
2.914215
31
-311.76917
0
LINE
8
0
10
-135.04
20
2.914215
30
-311.76917
11
-134.40001
21
-11.269562
31
-311.76917
0
LINE
8
0
10
-134.40001
20
-11.269562
30
-311.76917
11
-133.76
21
-21.542099
31
-311.76917
0
LINE
8
0
10
-133.76
20
-21.542099
30
-311.76917
11
-133.12
21
-29.243744
31
-311.76917
0
LINE
8
0
10
-133.12
20
-29.243744
30
-311.76917
11
-132.48
21
-35.234222
31
-311.76917
0
LINE
8
0
10
-132.48
20
-35.234222
30
-311.76917
11
-131.84
21
-37.0278
31
-311.76917
0
LINE
8
0
10
-131.84
20
-37.0278
30
-311.76917
11
-131.20001
21
-36.04724
31
-311.76917
0
LINE
8
0
10
-131.20001
20
-36.04724
30
-311.76917
11
-130.56
21
-33.05887
31
-311.76917
0
LINE
8
0
10
-130.56
20
-33.05887
30
-311.76917
11
-129.92001
21
-27.31285
31
-311.76917
0
LINE
8
0
10
-129.92001
20
-27.31285
30
-311.76917
11
-129.28
21
-17.611618
31
-311.76917
0
LINE
8
0
10
-129.28
20
-17.611618
30
-311.76917
11
-128.64
21
-3.6667938
31
-311.76917
0
LINE
8
0
10
-128.64
20
-3.6667938
30
-311.76917
11
-128.0
21
9.533691
31
-311.76917
0
LINE
8
0
10
-128.0
20
9.533691
30
-311.76917
11
-127.36
21
24.882034
31
-311.76917
0
LINE
8
0
10
-127.36
20
24.882034
30
-311.76917
11
-126.72
21
39.329514
31
-311.76917
0
LINE
8
0
10
-126.72
20
39.329514
30
-311.76917
11
-126.08
21
51.623596
31
-311.76917
0
LINE
8
0
10
-126.08
20
51.623596
30
-311.76917
11
-125.44
21
64.22803
31
-311.76917
0
LINE
8
0
10
-125.44
20
64.22803
30
-311.76917
11
-124.79999
21
75.445404
31
-311.76917
0
LINE
8
0
10
-124.79999
20
75.445404
30
-311.76917
11
-124.16
21
84.256714
31
-311.76917
0
LINE
8
0
10
-124.16
20
84.256714
30
-311.76917
11
-123.51999
21
86.47876
31
-311.76917
0
LINE
8
0
10
-123.51999
20
86.47876
30
-311.76917
11
-122.880005
21
84.84451
31
-311.76917
0
LINE
8
0
10
-122.880005
20
84.84451
30
-311.76917
11
-122.240005
21
80.64212
31
-311.76917
0
LINE
8
0
10
-122.240005
20
80.64212
30
-311.76917
11
-121.600006
21
73.61066
31
-311.76917
0
LINE
8
0
10
-121.600006
20
73.61066
30
-311.76917
11
-120.96001
21
65.60411
31
-311.76917
0
LINE
8
0
10
-120.96001
20
65.60411
30
-311.76917
11
-120.31999
21
55.512863
31
-311.76917
0
LINE
8
0
10
-120.31999
20
55.512863
30
-311.76917
11
-119.68001
21
42.765594
31
-311.76917
0
LINE
8
0
10
-119.68001
20
42.765594
30
-311.76917
11
-119.03999
21
28.455444
31
-311.76917
0
LINE
8
0
10
-119.03999
20
28.455444
30
-311.76917
11
-118.399994
21
13.936584
31
-311.76917
0
LINE
8
0
10
-118.399994
20
13.936584
30
-311.76917
11
-117.759995
21
-0.44496155
31
-311.76917
0
LINE
8
0
10
-117.759995
20
-0.44496155
30
-311.76917
11
-117.119995
21
-14.150818
31
-311.76917
0
LINE
8
0
10
-117.119995
20
-14.150818
30
-311.76917
11
-116.48001
21
-26.620682
31
-311.76917
0
LINE
8
0
10
-116.48001
20
-26.620682
30
-311.76917
11
-115.84
21
-34.775543
31
-311.76917
0
LINE
8
0
10
-115.84
20
-34.775543
30
-311.76917
11
-115.20001
21
-40.33754
31
-311.76917
0
LINE
8
0
10
-115.20001
20
-40.33754
30
-311.76917
11
-114.56
21
-44.723953
31
-311.76917
0
LINE
8
0
10
-114.56
20
-44.723953
30
-311.76917
11
-113.92
21
-45.663315
31
-311.76917
0
LINE
8
0
10
-113.92
20
-45.663315
30
-311.76917
11
-113.28
21
-43.644516
31
-311.76917
0
LINE
8
0
10
-113.28
20
-43.644516
30
-311.76917
11
-112.64
21
-36.376846
31
-311.76917
0
LINE
8
0
10
-112.64
20
-36.376846
30
-311.76917
11
-112.0
21
-26.068604
31
-311.76917
0
LINE
8
0
10
-112.0
20
-26.068604
30
-311.76917
11
-111.36
21
-14.389786
31
-311.76917
0
LINE
8
0
10
-111.36
20
-14.389786
30
-311.76917
11
-110.72
21
-1.939148
31
-311.76917
0
LINE
8
0
10
-110.72
20
-1.939148
30
-311.76917
11
-110.07999
21
10.140686
31
-311.76917
0
LINE
8
0
10
-110.07999
20
10.140686
30
-311.76917
11
-109.44
21
24.121216
31
-311.76917
0
LINE
8
0
10
-109.44
20
24.121216
30
-311.76917
11
-108.79999
21
38.027588
31
-311.76917
0
LINE
8
0
10
-108.79999
20
38.027588
30
-311.76917
11
-108.16
21
51.38188
31
-311.76917
0
LINE
8
0
10
-108.16
20
51.38188
30
-311.76917
11
-107.520004
21
63.796814
31
-311.76917
0
LINE
8
0
10
-107.520004
20
63.796814
30
-311.76917
11
-106.880005
21
71.638535
31
-311.76917
0
LINE
8
0
10
-106.880005
20
71.638535
30
-311.76917
11
-106.240005
21
75.26413
31
-311.76917
0
LINE
8
0
10
-106.240005
20
75.26413
30
-311.76917
11
-105.59999
21
74.76149
31
-311.76917
0
LINE
8
0
10
-105.59999
20
74.76149
30
-311.76917
11
-104.96001
21
71.39134
31
-311.76917
0
LINE
8
0
10
-104.96001
20
71.39134
30
-311.76917
11
-104.31999
21
66.04083
31
-311.76917
0
LINE
8
0
10
-104.31999
20
66.04083
30
-311.76917
11
-103.67999
21
57.64702
31
-311.76917
0
LINE
8
0
10
-103.67999
20
57.64702
30
-311.76917
11
-103.04001
21
47.289337
31
-311.76917
0
LINE
8
0
10
-103.04001
20
47.289337
30
-311.76917
11
-102.399994
21
33.152252
31
-311.76917
0
LINE
8
0
10
-102.399994
20
33.152252
30
-311.76917
11
-101.76001
21
17.298508
31
-311.76917
0
LINE
8
0
10
-101.76001
20
17.298508
30
-311.76917
11
-101.119995
21
1.4502411
31
-311.76917
0
LINE
8
0
10
-101.119995
20
1.4502411
30
-311.76917
11
-100.48001
21
-13.911865
31
-311.76917
0
LINE
8
0
10
-100.48001
20
-13.911865
30
-311.76917
11
-99.84
21
-26.326797
31
-311.76917
0
LINE
8
0
10
-99.84
20
-26.326797
30
-311.76917
11
-99.2
21
-36.368607
31
-311.76917
0
LINE
8
0
10
-99.2
20
-36.368607
30
-311.76917
11
-98.56001
21
-45.097504
31
-311.76917
0
LINE
8
0
10
-98.56001
20
-45.097504
30
-311.76917
11
-97.92
21
-52.065796
31
-311.76917
0
LINE
8
0
10
-97.92
20
-52.065796
30
-311.76917
11
-97.28
21
-54.348274
31
-311.76917
0
LINE
8
0
10
-97.28
20
-54.348274
30
-311.76917
11
-96.64
21
-53.397934
31
-311.76917
0
LINE
8
0
10
-96.64
20
-53.397934
30
-311.76917
11
-96.0
21
-48.87967
31
-311.76917
0
LINE
8
0
10
-96.0
20
-48.87967
30
-311.76917
11
-95.359985
21
-40.83194
31
-311.76917
0
LINE
8
0
10
-95.359985
20
-40.83194
30
-311.76917
11
-94.72
21
-31.712997
31
-311.76917
0
LINE
8
0
10
-94.72
20
-31.712997
30
-311.76917
11
-94.08002
21
-20.234695
31
-311.76917
0
LINE
8
0
10
-94.08002
20
-20.234695
30
-311.76917
11
-93.44
21
-7.0204773
31
-311.76917
0
LINE
8
0
10
-93.44
20
-7.0204773
30
-311.76917
11
-92.8
21
7.7428436
31
-311.76917
0
LINE
8
0
10
-92.8
20
7.7428436
30
-311.76917
11
-92.16
21
22.000793
31
-311.76917
0
LINE
8
0
10
-92.16
20
22.000793
30
-311.76917
11
-91.520004
21
34.816742
31
-311.76917
0
LINE
8
0
10
-91.520004
20
34.816742
30
-311.76917
11
-90.87999
21
46.234634
31
-311.76917
0
LINE
8
0
10
-90.87999
20
46.234634
30
-311.76917
11
-90.240005
21
55.235443
31
-311.76917
0
LINE
8
0
10
-90.240005
20
55.235443
30
-311.76917
11
-89.59999
21
61.56378
31
-311.76917
0
LINE
8
0
10
-89.59999
20
61.56378
30
-311.76917
11
-88.95999
21
66.01886
31
-311.76917
0
LINE
8
0
10
-88.95999
20
66.01886
30
-311.76917
11
-88.32001
21
66.13147
31
-311.76917
0
LINE
8
0
10
-88.32001
20
66.13147
30
-311.76917
11
-87.67999
21
62.29712
31
-311.76917
0
LINE
8
0
10
-87.67999
20
62.29712
30
-311.76917
11
-87.04001
21
57.18283
31
-311.76917
0
LINE
8
0
10
-87.04001
20
57.18283
30
-311.76917
11
-86.399994
21
48.65718
31
-311.76917
0
LINE
8
0
10
-86.399994
20
48.65718
30
-311.76917
11
-85.76001
21
38.36818
31
-311.76917
0
LINE
8
0
10
-85.76001
20
38.36818
30
-311.76917
11
-85.119995
21
25.659348
31
-311.76917
0
LINE
8
0
10
-85.119995
20
25.659348
30
-311.76917
11
-84.479996
21
10.964691
31
-311.76917
0
LINE
8
0
10
-84.479996
20
10.964691
30
-311.76917
11
-83.84001
21
-2.4637604
31
-311.76917
0
LINE
8
0
10
-83.84001
20
-2.4637604
30
-311.76917
11
-83.2
21
-15.271469
31
-311.76917
0
LINE
8
0
10
-83.2
20
-15.271469
30
-311.76917
11
-82.56
21
-27.862183
31
-311.76917
0
LINE
8
0
10
-82.56
20
-27.862183
30
-311.76917
11
-81.92
21
-39.26909
31
-311.76917
0
LINE
8
0
10
-81.92
20
-39.26909
30
-311.76917
11
-81.28
21
-49.59105
31
-311.76917
0
LINE
8
0
10
-81.28
20
-49.59105
30
-311.76917
11
-80.639984
21
-56.68843
31
-311.76917
0
LINE
8
0
10
-80.639984
20
-56.68843
30
-311.76917
11
-80.0
21
-60.237137
31
-311.76917
0
LINE
8
0
10
-80.0
20
-60.237137
30
-311.76917
11
-79.360016
21
-61.294594
31
-311.76917
0
LINE
8
0
10
-79.360016
20
-61.294594
30
-311.76917
11
-78.72
21
-59.124725
31
-311.76917
0
LINE
8
0
10
-78.72
20
-59.124725
30
-311.76917
11
-78.08
21
-53.804436
31
-311.76917
0
LINE
8
0
10
-78.08
20
-53.804436
30
-311.76917
11
-77.44
21
-46.256607
31
-311.76917
0
LINE
8
0
10
-77.44
20
-46.256607
30
-311.76917
11
-76.8
21
-37.722702
31
-311.76917
0
LINE
8
0
10
-76.8
20
-37.722702
30
-311.76917
11
-76.15999
21
-26.983246
31
-311.76917
0
LINE
8
0
10
-76.15999
20
-26.983246
30
-311.76917
11
-75.520004
21
-14.145325
31
-311.76917
0
LINE
8
0
10
-75.520004
20
-14.145325
30
-311.76917
11
-74.880005
21
-1.4337616
31
-311.76917
0
LINE
8
0
10
-74.880005
20
-1.4337616
30
-311.76917
11
-74.23999
21
11.67334
31
-311.76917
0
LINE
8
0
10
-74.23999
20
11.67334
30
-311.76917
11
-73.600006
21
23.110443
31
-311.76917
0
LINE
8
0
10
-73.600006
20
23.110443
30
-311.76917
11
-72.95999
21
32.125015
31
-311.76917
0
LINE
8
0
10
-72.95999
20
32.125015
30
-311.76917
11
-72.32001
21
39.530014
31
-311.76917
0
LINE
8
0
10
-72.32001
20
39.530014
30
-311.76917
11
-71.67999
21
45.704514
31
-311.76917
0
LINE
8
0
10
-71.67999
20
45.704514
30
-311.76917
11
-71.04001
21
48.709366
31
-311.76917
0
LINE
8
0
10
-71.04001
20
48.709366
30
-311.76917
11
-70.40001
21
45.93248
31
-311.76917
0
LINE
8
0
10
-70.40001
20
45.93248
30
-311.76917
11
-69.759995
21
40.859406
31
-311.76917
0
LINE
8
0
10
-69.759995
20
40.859406
30
-311.76917
11
-69.12001
21
34.44319
31
-311.76917
0
LINE
8
0
10
-69.12001
20
34.44319
30
-311.76917
11
-68.479996
21
25.197922
31
-311.76917
0
LINE
8
0
10
-68.479996
20
25.197922
30
-311.76917
11
-67.84
21
14.664459
31
-311.76917
0
LINE
8
0
10
-67.84
20
14.664459
30
-311.76917
11
-67.2
21
2.8537903
31
-311.76917
0
LINE
8
0
10
-67.2
20
2.8537903
30
-311.76917
11
-66.56
21
-11.316254
31
-311.76917
0
LINE
8
0
10
-66.56
20
-11.316254
30
-311.76917
11
-65.91998
21
-26.266373
31
-311.76917
0
LINE
8
0
10
-65.91998
20
-26.266373
30
-311.76917
11
-65.28
21
-38.3517
31
-311.76917
0
LINE
8
0
10
-65.28
20
-38.3517
30
-311.76917
11
-64.640015
21
-48.59401
31
-311.76917
0
LINE
8
0
10
-64.640015
20
-48.59401
30
-311.76917
11
-64.0
21
-58.116707
31
-311.76917
0
LINE
8
0
10
-64.0
20
-58.116707
30
-311.76917
11
-63.360016
21
-65.54918
31
-311.76917
0
LINE
8
0
10
-63.360016
20
-65.54918
30
-311.76917
11
-62.72
21
-71.12216
31
-311.76917
0
LINE
8
0
10
-62.72
20
-71.12216
30
-311.76917
11
-62.080017
21
-73.662834
31
-311.76917
0
LINE
8
0
10
-62.080017
20
-73.662834
30
-311.76917
11
-61.440002
21
-72.16316
31
-311.76917
0
LINE
8
0
10
-61.440002
20
-72.16316
30
-311.76917
11
-60.799988
21
-67.416916
31
-311.76917
0
LINE
8
0
10
-60.799988
20
-67.416916
30
-311.76917
11
-60.160004
21
-60.816673
31
-311.76917
0
LINE
8
0
10
-60.160004
20
-60.816673
30
-311.76917
11
-59.51999
21
-51.843323
31
-311.76917
0
LINE
8
0
10
-59.51999
20
-51.843323
30
-311.76917
11
-58.880005
21
-40.403458
31
-311.76917
0
LINE
8
0
10
-58.880005
20
-40.403458
30
-311.76917
11
-58.23999
21
-28.774078
31
-311.76917
0
LINE
8
0
10
-58.23999
20
-28.774078
30
-311.76917
11
-57.600006
21
-16.562393
31
-311.76917
0
LINE
8
0
10
-57.600006
20
-16.562393
30
-311.76917
11
-56.95999
21
-3.2520447
31
-311.76917
0
LINE
8
0
10
-56.95999
20
-3.2520447
30
-311.76917
11
-56.320007
21
9.404572
31
-311.76917
0
LINE
8
0
10
-56.320007
20
9.404572
30
-311.76917
11
-55.679993
21
20.462662
31
-311.76917
0
LINE
8
0
10
-55.679993
20
20.462662
30
-311.76917
11
-55.04001
21
28.960846
31
-311.76917
0
LINE
8
0
10
-55.04001
20
28.960846
30
-311.76917
11
-54.399994
21
35.25345
31
-311.76917
0
LINE
8
0
10
-54.399994
20
35.25345
30
-311.76917
11
-53.76001
21
38.76094
31
-311.76917
0
LINE
8
0
10
-53.76001
20
38.76094
30
-311.76917
11
-53.119995
21
39.50804
31
-311.76917
0
LINE
8
0
10
-53.119995
20
39.50804
30
-311.76917
11
-52.47998
21
37.82434
31
-311.76917
0
LINE
8
0
10
-52.47998
20
37.82434
30
-311.76917
11
-51.839996
21
31.284515
31
-311.76917
0
LINE
8
0
10
-51.839996
20
31.284515
30
-311.76917
11
-51.200012
21
21.341583
31
-311.76917
0
LINE
8
0
10
-51.200012
20
21.341583
30
-311.76917
11
-50.559998
21
10.11322
31
-311.76917
0
LINE
8
0
10
-50.559998
20
10.11322
30
-311.76917
11
-49.920013
21
-2.8675232
31
-311.76917
0
LINE
8
0
10
-49.920013
20
-2.8675232
30
-311.76917
11
-49.28
21
-16.686005
31
-311.76917
0
LINE
8
0
10
-49.28
20
-16.686005
30
-311.76917
11
-48.640015
21
-30.507217
31
-311.76917
0
LINE
8
0
10
-48.640015
20
-30.507217
30
-311.76917
11
-48.0
21
-44.09224
31
-311.76917
0
LINE
8
0
10
-48.0
20
-44.09224
30
-311.76917
11
-47.359985
21
-56.463203
31
-311.76917
0
LINE
8
0
10
-47.359985
20
-56.463203
30
-311.76917
11
-46.72
21
-66.68905
31
-311.76917
0
LINE
8
0
10
-46.72
20
-66.68905
30
-311.76917
11
-46.079987
21
-76.18976
31
-311.76917
0
LINE
8
0
10
-46.079987
20
-76.18976
30
-311.76917
11
-45.440002
21
-82.69386
31
-311.76917
0
LINE
8
0
10
-45.440002
20
-82.69386
30
-311.76917
11
-44.799988
21
-85.20706
31
-311.76917
0
LINE
8
0
10
-44.799988
20
-85.20706
30
-311.76917
11
-44.160004
21
-84.34737
31
-311.76917
0
LINE
8
0
10
-44.160004
20
-84.34737
30
-311.76917
11
-43.51999
21
-79.42259
31
-311.76917
0
LINE
8
0
10
-43.51999
20
-79.42259
30
-311.76917
11
-42.880005
21
-72.82784
31
-311.76917
0
LINE
8
0
10
-42.880005
20
-72.82784
30
-311.76917
11
-42.24002
21
-64.068726
31
-311.76917
0
LINE
8
0
10
-42.24002
20
-64.068726
30
-311.76917
11
-41.600006
21
-52.04657
31
-311.76917
0
LINE
8
0
10
-41.600006
20
-52.04657
30
-311.76917
11
-40.960022
21
-38.101746
31
-311.76917
0
LINE
8
0
10
-40.960022
20
-38.101746
30
-311.76917
11
-40.320007
21
-23.692749
31
-311.76917
0
LINE
8
0
10
-40.320007
20
-23.692749
30
-311.76917
11
-39.679993
21
-10.412613
31
-311.76917
0
LINE
8
0
10
-39.679993
20
-10.412613
30
-311.76917
11
-39.039978
21
2.908722
31
-311.76917
0
LINE
8
0
10
-39.039978
20
2.908722
30
-311.76917
11
-38.399994
21
15.323654
31
-311.76917
0
LINE
8
0
10
-38.399994
20
15.323654
30
-311.76917
11
-37.75998
21
24.203613
31
-311.76917
0
LINE
8
0
10
-37.75998
20
24.203613
30
-311.76917
11
-37.119995
21
30.850555
31
-311.76917
0
LINE
8
0
10
-37.119995
20
30.850555
30
-311.76917
11
-36.48001
21
35.14908
31
-311.76917
0
LINE
8
0
10
-36.48001
20
35.14908
30
-311.76917
11
-35.839996
21
34.61348
31
-311.76917
0
LINE
8
0
10
-35.839996
20
34.61348
30
-311.76917
11
-35.200012
21
30.224304
31
-311.76917
0
LINE
8
0
10
-35.200012
20
30.224304
30
-311.76917
11
-34.559998
21
24.159668
31
-311.76917
0
LINE
8
0
10
-34.559998
20
24.159668
30
-311.76917
11
-33.920013
21
15.686203
31
-311.76917
0
LINE
8
0
10
-33.920013
20
15.686203
30
-311.76917
11
-33.28
21
6.1031036
31
-311.76917
0
LINE
8
0
10
-33.28
20
6.1031036
30
-311.76917
11
-32.640015
21
-5.388962
31
-311.76917
0
LINE
8
0
10
-32.640015
20
-5.388962
30
-311.76917
11
-32.0
21
-19.413437
31
-311.76917
0
LINE
8
0
10
-32.0
20
-19.413437
30
-311.76917
11
-31.359985
21
-32.53975
31
-311.76917
0
LINE
8
0
10
-31.359985
20
-32.53975
30
-311.76917
11
-30.720001
21
-45.15793
31
-311.76917
0
LINE
8
0
10
-30.720001
20
-45.15793
30
-311.76917
11
-30.079987
21
-56.71042
31
-311.76917
0
LINE
8
0
10
-30.079987
20
-56.71042
30
-311.76917
11
-29.440002
21
-64.986115
31
-311.76917
0
LINE
8
0
10
-29.440002
20
-64.986115
30
-311.76917
11
-28.799988
21
-71.88299
31
-311.76917
0
LINE
8
0
10
-28.799988
20
-71.88299
30
-311.76917
11
-28.160004
21
-77.09342
31
-311.76917
0
LINE
8
0
10
-28.160004
20
-77.09342
30
-311.76917
11
-27.52002
21
-79.219345
31
-311.76917
0
LINE
8
0
10
-27.52002
20
-79.219345
30
-311.76917
11
-26.880005
21
-77.86798
31
-311.76917
0
LINE
8
0
10
-26.880005
20
-77.86798
30
-311.76917
11
-26.23999
21
-72.45979
31
-311.76917
0
LINE
8
0
10
-26.23999
20
-72.45979
30
-311.76917
11
-25.600006
21
-63.645744
31
-311.76917
0
LINE
8
0
10
-25.600006
20
-63.645744
30
-311.76917
11
-24.959991
21
-52.313004
31
-311.76917
0
LINE
8
0
10
-24.959991
20
-52.313004
30
-311.76917
11
-24.320007
21
-39.510788
31
-311.76917
0
LINE
8
0
10
-24.320007
20
-39.510788
30
-311.76917
11
-23.679993
21
-27.027191
31
-311.76917
0
LINE
8
0
10
-23.679993
20
-27.027191
30
-311.76917
11
-23.040009
21
-13.285629
31
-311.76917
0
LINE
8
0
10
-23.040009
20
-13.285629
30
-311.76917
11
-22.399994
21
-0.08239746
31
-311.76917
0
LINE
8
0
10
-22.399994
20
-0.08239746
30
-311.76917
11
-21.76001
21
11.189911
31
-311.76917
0
LINE
8
0
10
-21.76001
20
11.189911
30
-311.76917
11
-21.119995
21
22.412796
31
-311.76917
0
LINE
8
0
10
-21.119995
20
22.412796
30
-311.76917
11
-20.480011
21
32.24312
31
-311.76917
0
LINE
8
0
10
-20.480011
20
32.24312
30
-311.76917
11
-19.839996
21
39.145493
31
-311.76917
0
LINE
8
0
10
-19.839996
20
39.145493
30
-311.76917
11
-19.200012
21
41.889404
31
-311.76917
0
LINE
8
0
10
-19.200012
20
41.889404
30
-311.76917
11
-18.559998
21
42.147583
31
-311.76917
0
LINE
8
0
10
-18.559998
20
42.147583
30
-311.76917
11
-17.919983
21
40.334778
31
-311.76917
0
LINE
8
0
10
-17.919983
20
40.334778
30
-311.76917
11
-17.279999
21
35.434723
31
-311.76917
0
LINE
8
0
10
-17.279999
20
35.434723
30
-311.76917
11
-16.639984
21
28.054443
31
-311.76917
0
LINE
8
0
10
-16.639984
20
28.054443
30
-311.76917
11
-16.0
21
18.62239
31
-311.76917
0
LINE
8
0
10
-16.0
20
18.62239
30
-311.76917
11
-15.359985
21
6.11409
31
-311.76917
0
LINE
8
0
10
-15.359985
20
6.11409
30
-311.76917
11
-14.720001
21
-6.624954
31
-311.76917
0
LINE
8
0
10
-14.720001
20
-6.624954
30
-311.76917
11
-14.080017
21
-17.295746
31
-311.76917
0
LINE
8
0
10
-14.080017
20
-17.295746
30
-311.76917
11
-13.440002
21
-29.63652
31
-311.76917
0
LINE
8
0
10
-13.440002
20
-29.63652
30
-311.76917
11
-12.800018
21
-41.44719
31
-311.76917
0
LINE
8
0
10
-12.800018
20
-41.44719
30
-311.76917
11
-12.160004
21
-50.016785
31
-311.76917
0
LINE
8
0
10
-12.160004
20
-50.016785
30
-311.76917
11
-11.52002
21
-57.01529
31
-311.76917
0
LINE
8
0
10
-11.52002
20
-57.01529
30
-311.76917
11
-10.880005
21
-62.475662
31
-311.76917
0
LINE
8
0
10
-10.880005
20
-62.475662
30
-311.76917
11
-10.23999
21
-65.00534
31
-311.76917
0
LINE
8
0
10
-10.23999
20
-65.00534
30
-311.76917
11
-9.599976
21
-65.23607
31
-311.76917
0
LINE
8
0
10
-9.599976
20
-65.23607
30
-311.76917
11
-8.959991
21
-61.937317
31
-311.76917
0
LINE
8
0
10
-8.959991
20
-61.937317
30
-311.76917
11
-8.320007
21
-55.408493
31
-311.76917
0
LINE
8
0
10
-8.320007
20
-55.408493
30
-311.76917
11
-7.6799927
21
-47.209686
31
-311.76917
0
LINE
8
0
10
-7.6799927
20
-47.209686
30
-311.76917
11
-7.0400085
21
-35.22873
31
-311.76917
0
LINE
8
0
10
-7.0400085
20
-35.22873
30
-311.76917
11
-6.399994
21
-21.77008
31
-311.76917
0
LINE
8
0
10
-6.399994
20
-21.77008
30
-311.76917
11
-5.76001
21
-8.042236
31
-311.76917
0
LINE
8
0
10
-5.76001
20
-8.042236
30
-311.76917
11
-5.119995
21
5.603195
31
-311.76917
0
LINE
8
0
10
-5.119995
20
5.603195
30
-311.76917
11
-4.480011
21
18.323013
31
-311.76917
0
LINE
8
0
10
-4.480011
20
18.323013
30
-311.76917
11
-3.8399963
21
30.639069
31
-311.76917
0
LINE
8
0
10
-3.8399963
20
30.639069
30
-311.76917
11
-3.2000122
21
40.906097
31
-311.76917
0
LINE
8
0
10
-3.2000122
20
40.906097
30
-311.76917
11
-2.5599976
21
48.05841
31
-311.76917
0
LINE
8
0
10
-2.5599976
20
48.05841
30
-311.76917
11
-1.9199829
21
52.249817
31
-311.76917
0
LINE
8
0
10
-1.9199829
20
52.249817
30
-311.76917
11
-1.2799988
21
53.010666
31
-311.76917
0
LINE
8
0
10
-1.2799988
20
53.010666
30
-311.76917
11
-0.63998413
21
50.519424
31
-311.76917
0
LINE
8
0
10
-0.63998413
20
50.519424
30
-311.76917
11
0.0
21
45.314484
31
-311.76917
0
LINE
8
0
10
0.0
20
45.314484
30
-311.76917
11
0.63998413
21
37.060776
31
-311.76917
0
LINE
8
0
10
0.63998413
20
37.060776
30
-311.76917
11
1.2799683
21
26.760757
31
-311.76917
0
LINE
8
0
10
1.2799683
20
26.760757
30
-311.76917
11
1.9200134
21
14.661713
31
-311.76917
0
LINE
8
0
10
1.9200134
20
14.661713
30
-311.76917
11
2.5599976
21
0.8075104
31
-311.76917
0
LINE
8
0
10
2.5599976
20
0.8075104
30
-311.76917
11
3.2000122
21
-13.107086
31
-311.76917
0
LINE
8
0
10
3.2000122
20
-13.107086
30
-311.76917
11
3.8399963
21
-26.107056
31
-311.76917
0
LINE
8
0
10
3.8399963
20
-26.107056
30
-311.76917
11
4.480011
21
-37.90674
31
-311.76917
0
LINE
8
0
10
4.480011
20
-37.90674
30
-311.76917
11
5.119995
21
-47.618958
31
-311.76917
0
LINE
8
0
10
5.119995
20
-47.618958
30
-311.76917
11
5.76001
21
-54.44716
31
-311.76917
0
LINE
8
0
10
5.76001
20
-54.44716
30
-311.76917
11
6.399994
21
-58.594612
31
-311.76917
0
LINE
8
0
10
6.399994
20
-58.594612
30
-311.76917
11
7.039978
21
-59.569695
31
-311.76917
0
LINE
8
0
10
7.039978
20
-59.569695
30
-311.76917
11
7.680023
21
-57.471245
31
-311.76917
0
LINE
8
0
10
7.680023
20
-57.471245
30
-311.76917
11
8.320007
21
-53.37596
31
-311.76917
0
LINE
8
0
10
8.320007
20
-53.37596
30
-311.76917
11
8.959991
21
-45.781418
31
-311.76917
0
LINE
8
0
10
8.959991
20
-45.781418
30
-311.76917
11
9.599976
21
-35.36331
31
-311.76917
0
LINE
8
0
10
9.599976
20
-35.36331
30
-311.76917
11
10.23999
21
-23.604843
31
-311.76917
0
LINE
8
0
10
10.23999
20
-23.604843
30
-311.76917
11
10.880005
21
-9.780884
31
-311.76917
0
LINE
8
0
10
10.880005
20
-9.780884
30
-311.76917
11
11.52002
21
4.9357605
31
-311.76917
0
LINE
8
0
10
11.52002
20
4.9357605
30
-311.76917
11
12.160004
21
19.190948
31
-311.76917
0
LINE
8
0
10
12.160004
20
19.190948
30
-311.76917
11
12.799988
21
32.061844
31
-311.76917
0
LINE
8
0
10
12.799988
20
32.061844
30
-311.76917
11
13.440002
21
42.883698
31
-311.76917
0
LINE
8
0
10
13.440002
20
42.883698
30
-311.76917
11
14.080017
21
51.387375
31
-311.76917
0
LINE
8
0
10
14.080017
20
51.387375
30
-311.76917
11
14.720001
21
57.064728
31
-311.76917
0
LINE
8
0
10
14.720001
20
57.064728
30
-311.76917
11
15.359985
21
60.602432
31
-311.76917
0
LINE
8
0
10
15.359985
20
60.602432
30
-311.76917
11
16.0
21
61.22867
31
-311.76917
0
LINE
8
0
10
16.0
20
61.22867
30
-311.76917
11
16.640015
21
58.18538
31
-311.76917
0
LINE
8
0
10
16.640015
20
58.18538
30
-311.76917
11
17.279999
21
52.777176
31
-311.76917
0
LINE
8
0
10
17.279999
20
52.777176
30
-311.76917
11
17.919983
21
44.38887
31
-311.76917
0
LINE
8
0
10
17.919983
20
44.38887
30
-311.76917
11
18.559998
21
34.248184
31
-311.76917
0
LINE
8
0
10
18.559998
20
34.248184
30
-311.76917
11
19.199982
21
24.398636
31
-311.76917
0
LINE
8
0
10
19.199982
20
24.398636
30
-311.76917
11
19.840027
21
13.856934
31
-311.76917
0
LINE
8
0
10
19.840027
20
13.856934
30
-311.76917
11
20.480011
21
1.5353851
31
-311.76917
0
LINE
8
0
10
20.480011
20
1.5353851
30
-311.76917
11
21.119995
21
-9.995117
31
-311.76917
0
LINE
8
0
10
21.119995
20
-9.995117
30
-311.76917
11
21.75998
21
-20.284134
31
-311.76917
0
LINE
8
0
10
21.75998
20
-20.284134
30
-311.76917
11
22.400024
21
-29.342636
31
-311.76917
0
LINE
8
0
10
22.400024
20
-29.342636
30
-311.76917
11
23.040009
21
-35.876953
31
-311.76917
0
LINE
8
0
10
23.040009
20
-35.876953
30
-311.76917
11
23.679993
21
-40.230408
31
-311.76917
0
LINE
8
0
10
23.679993
20
-40.230408
30
-311.76917
11
24.320007
21
-41.650436
31
-311.76917
0
LINE
8
0
10
24.320007
20
-41.650436
30
-311.76917
11
24.959991
21
-40.889618
31
-311.76917
0
LINE
8
0
10
24.959991
20
-40.889618
30
-311.76917
11
25.600006
21
-38.266556
31
-311.76917
0
LINE
8
0
10
25.600006
20
-38.266556
30
-311.76917
11
26.23999
21
-32.71553
31
-311.76917
0
LINE
8
0
10
26.23999
20
-32.71553
30
-311.76917
11
26.880005
21
-24.750198
31
-311.76917
0
LINE
8
0
10
26.880005
20
-24.750198
30
-311.76917
11
27.519989
21
-13.785507
31
-311.76917
0
LINE
8
0
10
27.519989
20
-13.785507
30
-311.76917
11
28.160034
21
-1.9885864
31
-311.76917
0
LINE
8
0
10
28.160034
20
-1.9885864
30
-311.76917
11
28.800018
21
9.874268
31
-311.76917
0
LINE
8
0
10
28.800018
20
9.874268
30
-311.76917
11
29.440002
21
22.215042
31
-311.76917
0
LINE
8
0
10
29.440002
20
22.215042
30
-311.76917
11
30.079987
21
33.904846
31
-311.76917
0
LINE
8
0
10
30.079987
20
33.904846
30
-311.76917
11
30.71997
21
44.951935
31
-311.76917
0
LINE
8
0
10
30.71997
20
44.951935
30
-311.76917
11
31.360016
21
54.381226
31
-311.76917
0
LINE
8
0
10
31.360016
20
54.381226
30
-311.76917
11
32.0
21
61.82196
31
-311.76917
0
LINE
8
0
10
32.0
20
61.82196
30
-311.76917
11
32.640015
21
66.44733
31
-311.76917
0
LINE
8
0
10
32.640015
20
66.44733
30
-311.76917
11
33.28
21
68.032166
31
-311.76917
0
LINE
8
0
10
33.28
20
68.032166
30
-311.76917
11
33.919983
21
66.17267
31
-311.76917
0
LINE
8
0
10
33.919983
20
66.17267
30
-311.76917
11
34.559998
21
61.731323
31
-311.76917
0
LINE
8
0
10
34.559998
20
61.731323
30
-311.76917
11
35.200012
21
55.543076
31
-311.76917
0
LINE
8
0
10
35.200012
20
55.543076
30
-311.76917
11
35.839996
21
46.43788
31
-311.76917
0
LINE
8
0
10
35.839996
20
46.43788
30
-311.76917
11
36.47998
21
35.160065
31
-311.76917
0
LINE
8
0
10
36.47998
20
35.160065
30
-311.76917
11
37.120026
21
23.302704
31
-311.76917
0
LINE
8
0
10
37.120026
20
23.302704
30
-311.76917
11
37.76001
21
10.934479
31
-311.76917
0
LINE
8
0
10
37.76001
20
10.934479
30
-311.76917
11
38.399994
21
-1.8430176
31
-311.76917
0
LINE
8
0
10
38.399994
20
-1.8430176
30
-311.76917
11
39.039978
21
-12.9340515
31
-311.76917
0
LINE
8
0
10
39.039978
20
-12.9340515
30
-311.76917
11
39.679993
21
-21.701416
31
-311.76917
0
LINE
8
0
10
39.679993
20
-21.701416
30
-311.76917
11
40.320007
21
-29.499191
31
-311.76917
0
LINE
8
0
10
40.320007
20
-29.499191
30
-311.76917
11
40.960022
21
-36.06372
31
-311.76917
0
LINE
8
0
10
40.960022
20
-36.06372
30
-311.76917
11
41.600006
21
-39.10428
31
-311.76917
0
LINE
8
0
10
41.600006
20
-39.10428
30
-311.76917
11
42.23999
21
-39.49431
31
-311.76917
0
LINE
8
0
10
42.23999
20
-39.49431
30
-311.76917
11
42.879974
21
-37.3629
31
-311.76917
0
LINE
8
0
10
42.879974
20
-37.3629
30
-311.76917
11
43.52002
21
-31.748703
31
-311.76917
0
LINE
8
0
10
43.52002
20
-31.748703
30
-311.76917
11
44.160004
21
-24.008606
31
-311.76917
0
LINE
8
0
10
44.160004
20
-24.008606
30
-311.76917
11
44.799988
21
-14.230469
31
-311.76917
0
LINE
8
0
10
44.799988
20
-14.230469
30
-311.76917
11
45.440002
21
-3.2410583
31
-311.76917
0
LINE
8
0
10
45.440002
20
-3.2410583
30
-311.76917
11
46.080017
21
8.432266
31
-311.76917
0
LINE
8
0
10
46.080017
20
8.432266
30
-311.76917
11
46.72
21
20.5121
31
-311.76917
0
LINE
8
0
10
46.72
20
20.5121
30
-311.76917
11
47.359985
21
32.844635
31
-311.76917
0
LINE
8
0
10
47.359985
20
32.844635
30
-311.76917
11
48.0
21
45.248566
31
-311.76917
0
LINE
8
0
10
48.0
20
45.248566
30
-311.76917
11
48.639984
21
55.23819
31
-311.76917
0
LINE
8
0
10
48.639984
20
55.23819
30
-311.76917
11
49.28003
21
63.739136
31
-311.76917
0
LINE
8
0
10
49.28003
20
63.739136
30
-311.76917
11
49.920013
21
69.38078
31
-311.76917
0
LINE
8
0
10
49.920013
20
69.38078
30
-311.76917
11
50.559998
21
71.46001
31
-311.76917
0
LINE
8
0
10
50.559998
20
71.46001
30
-311.76917
11
51.19998
21
72.50099
31
-311.76917
0
LINE
8
0
10
51.19998
20
72.50099
30
-311.76917
11
51.839966
21
70.224014
31
-311.76917
0
LINE
8
0
10
51.839966
20
70.224014
30
-311.76917
11
52.48001
21
63.939636
31
-311.76917
0
LINE
8
0
10
52.48001
20
63.939636
30
-311.76917
11
53.119995
21
55.59526
31
-311.76917
0
LINE
8
0
10
53.119995
20
55.59526
30
-311.76917
11
53.76001
21
45.48204
31
-311.76917
0
LINE
8
0
10
53.76001
20
45.48204
30
-311.76917
11
54.399994
21
34.575027
31
-311.76917
0
LINE
8
0
10
54.399994
20
34.575027
30
-311.76917
11
55.04001
21
23.132416
31
-311.76917
0
LINE
8
0
10
55.04001
20
23.132416
30
-311.76917
11
55.679993
21
10.898773
31
-311.76917
0
LINE
8
0
10
55.679993
20
10.898773
30
-311.76917
11
56.320007
21
-0.9778137
31
-311.76917
0
LINE
8
0
10
56.320007
20
-0.9778137
30
-311.76917
11
56.95999
21
-13.585007
31
-311.76917
0
LINE
8
0
10
56.95999
20
-13.585007
30
-311.76917
11
57.599976
21
-23.541672
31
-311.76917
0
LINE
8
0
10
57.599976
20
-23.541672
30
-311.76917
11
58.24002
21
-30.13916
31
-311.76917
0
LINE
8
0
10
58.24002
20
-30.13916
30
-311.76917
11
58.880005
21
-35.118866
31
-311.76917
0
LINE
8
0
10
58.880005
20
-35.118866
30
-311.76917
11
59.51999
21
-37.08275
31
-311.76917
0
LINE
8
0
10
59.51999
20
-37.08275
30
-311.76917
11
60.159973
21
-36.81906
31
-311.76917
0
LINE
8
0
10
60.159973
20
-36.81906
30
-311.76917
11
60.80002
21
-33.014923
31
-311.76917
0
LINE
8
0
10
60.80002
20
-33.014923
30
-311.76917
11
61.440002
21
-26.409195
31
-311.76917
0
LINE
8
0
10
61.440002
20
-26.409195
30
-311.76917
11
62.080017
21
-17.397385
31
-311.76917
0
LINE
8
0
10
62.080017
20
-17.397385
30
-311.76917
11
62.72
21
-6.2074738
31
-311.76917
0
LINE
8
0
10
62.72
20
-6.2074738
30
-311.76917
11
63.359985
21
5.9492645
31
-311.76917
0
LINE
8
0
10
63.359985
20
5.9492645
30
-311.76917
11
64.0
21
19.388718
31
-311.76917
0
LINE
8
0
10
64.0
20
19.388718
30
-311.76917
11
64.640015
21
33.674133
31
-311.76917
0
LINE
8
0
10
64.640015
20
33.674133
30
-311.76917
11
65.28
21
47.605225
31
-311.76917
0
LINE
8
0
10
65.28
20
47.605225
30
-311.76917
11
65.91998
21
59.421356
31
-311.76917
0
LINE
8
0
10
65.91998
20
59.421356
30
-311.76917
11
66.56
21
67.64488
31
-311.76917
0
LINE
8
0
10
66.56
20
67.64488
30
-311.76917
11
67.20001
21
73.097015
31
-311.76917
0
LINE
8
0
10
67.20001
20
73.097015
30
-311.76917
11
67.84
21
76.5853
31
-311.76917
0
LINE
8
0
10
67.84
20
76.5853
30
-311.76917
11
68.47998
21
77.40927
31
-311.76917
0
LINE
8
0
10
68.47998
20
77.40927
30
-311.76917
11
69.119995
21
75.08835
31
-311.76917
0
LINE
8
0
10
69.119995
20
75.08835
30
-311.76917
11
69.76001
21
68.636444
31
-311.76917
0
LINE
8
0
10
69.76001
20
68.636444
30
-311.76917
11
70.400024
21
58.627594
31
-311.76917
0
LINE
8
0
10
70.400024
20
58.627594
30
-311.76917
11
71.04001
21
46.41591
31
-311.76917
0
LINE
8
0
10
71.04001
20
46.41591
30
-311.76917
11
71.67999
21
33.553284
31
-311.76917
0
LINE
8
0
10
71.67999
20
33.553284
30
-311.76917
11
72.31998
21
20.63295
31
-311.76917
0
LINE
8
0
10
72.31998
20
20.63295
30
-311.76917
11
72.96002
21
7.141327
31
-311.76917
0
LINE
8
0
10
72.96002
20
7.141327
30
-311.76917
11
73.600006
21
-5.6416473
31
-311.76917
0
LINE
8
0
10
73.600006
20
-5.6416473
30
-311.76917
11
74.23999
21
-16.900238
31
-311.76917
0
LINE
8
0
10
74.23999
20
-16.900238
30
-311.76917
11
74.880005
21
-26.983246
31
-311.76917
0
LINE
8
0
10
74.880005
20
-26.983246
30
-311.76917
11
75.51999
21
-35.063934
31
-311.76917
0
LINE
8
0
10
75.51999
20
-35.063934
30
-311.76917
11
76.16
21
-39.89807
31
-311.76917
0
LINE
8
0
10
76.16
20
-39.89807
30
-311.76917
11
76.79999
21
-41.125824
31
-311.76917
0
LINE
8
0
10
76.79999
20
-41.125824
30
-311.76917
11
77.44
21
-40.44191
31
-311.76917
0
LINE
8
0
10
77.44
20
-40.44191
30
-311.76917
11
78.07999
21
-36.21753
31
-311.76917
0
LINE
8
0
10
78.07999
20
-36.21753
30
-311.76917
11
78.72003
21
-28.312622
31
-311.76917
0
LINE
8
0
10
78.72003
20
-28.312622
30
-311.76917
11
79.360016
21
-19.138763
31
-311.76917
0
LINE
8
0
10
79.360016
20
-19.138763
30
-311.76917
11
80.0
21
-8.088928
31
-311.76917
0
LINE
8
0
10
80.0
20
-8.088928
30
-311.76917
11
80.639984
21
4.054077
31
-311.76917
0
LINE
8
0
10
80.639984
20
4.054077
30
-311.76917
11
81.27997
21
16.72171
31
-311.76917
0
LINE
8
0
10
81.27997
20
16.72171
30
-311.76917
11
81.92001
21
29.40306
31
-311.76917
0
LINE
8
0
10
81.92001
20
29.40306
30
-311.76917
11
82.56
21
41.12857
31
-311.76917
0
LINE
8
0
10
82.56
20
41.12857
30
-311.76917
11
83.20001
21
51.19786
31
-311.76917
0
LINE
8
0
10
83.20001
20
51.19786
30
-311.76917
11
83.84
21
59.704285
31
-311.76917
0
LINE
8
0
10
83.84
20
59.704285
30
-311.76917
11
84.48001
21
66.296265
31
-311.76917
0
LINE
8
0
10
84.48001
20
66.296265
30
-311.76917
11
85.119995
21
69.14731
31
-311.76917
0
LINE
8
0
10
85.119995
20
69.14731
30
-311.76917
11
85.76001
21
69.515366
31
-311.76917
0
LINE
8
0
10
85.76001
20
69.515366
30
-311.76917
11
86.399994
21
66.98294
31
-311.76917
0
LINE
8
0
10
86.399994
20
66.98294
30
-311.76917
11
87.03998
21
61.069366
31
-311.76917
0
LINE
8
0
10
87.03998
20
61.069366
30
-311.76917
11
87.68002
21
53.74675
31
-311.76917
0
LINE
8
0
10
87.68002
20
53.74675
30
-311.76917
11
88.32001
21
43.004547
31
-311.76917
0
LINE
8
0
10
88.32001
20
43.004547
30
-311.76917
11
88.95999
21
29.801315
31
-311.76917
0
LINE
8
0
10
88.95999
20
29.801315
30
-311.76917
11
89.599976
21
17.504501
31
-311.76917
0
LINE
8
0
10
89.599976
20
17.504501
30
-311.76917
11
90.23999
21
4.4056396
31
-311.76917
0
LINE
8
0
10
90.23999
20
4.4056396
30
-311.76917
11
90.880005
21
-8.591568
31
-311.76917
0
LINE
8
0
10
90.880005
20
-8.591568
30
-311.76917
11
91.52002
21
-20.446182
31
-311.76917
0
LINE
8
0
10
91.52002
20
-20.446182
30
-311.76917
11
92.16
21
-30.878021
31
-311.76917
0
LINE
8
0
10
92.16
20
-30.878021
30
-311.76917
11
92.79999
21
-38.167664
31
-311.76917
0
LINE
8
0
10
92.79999
20
-38.167664
30
-311.76917
11
93.44
21
-43.660995
31
-311.76917
0
LINE
8
0
10
93.44
20
-43.660995
30
-311.76917
11
94.08002
21
-46.517532
31
-311.76917
0
LINE
8
0
10
94.08002
20
-46.517532
30
-311.76917
11
94.72
21
-45.646835
31
-311.76917
0
LINE
8
0
10
94.72
20
-45.646835
30
-311.76917
11
95.359985
21
-42.2135
31
-311.76917
0
LINE
8
0
10
95.359985
20
-42.2135
30
-311.76917
11
96.0
21
-35.835754
31
-311.76917
0
LINE
8
0
10
96.0
20
-35.835754
30
-311.76917
11
96.640015
21
-27.980286
31
-311.76917
0
LINE
8
0
10
96.640015
20
-27.980286
30
-311.76917
11
97.28
21
-17.490768
31
-311.76917
0
LINE
8
0
10
97.28
20
-17.490768
30
-311.76917
11
97.91998
21
-3.4937592
31
-311.76917
0
LINE
8
0
10
97.91998
20
-3.4937592
30
-311.76917
11
98.56
21
10.580154
31
-311.76917
0
LINE
8
0
10
98.56
20
10.580154
30
-311.76917
11
99.19998
21
24.288757
31
-311.76917
0
LINE
8
0
10
99.19998
20
24.288757
30
-311.76917
11
99.84003
21
37.373886
31
-311.76917
0
LINE
8
0
10
99.84003
20
37.373886
30
-311.76917
11
100.48001
21
48.286392
31
-311.76917
0
LINE
8
0
10
100.48001
20
48.286392
30
-311.76917
11
101.119995
21
57.627792
31
-311.76917
0
LINE
8
0
10
101.119995
20
57.627792
30
-311.76917
11
101.75998
21
64.546646
31
-311.76917
0
LINE
8
0
10
101.75998
20
64.546646
30
-311.76917
11
102.400024
21
67.54875
31
-311.76917
0
LINE
8
0
10
102.400024
20
67.54875
30
-311.76917
11
103.04001
21
67.16972
31
-311.76917
0
LINE
8
0
10
103.04001
20
67.16972
30
-311.76917
11
103.67999
21
63.681442
31
-311.76917
0
LINE
8
0
10
103.67999
20
63.681442
30
-311.76917
11
104.32001
21
57.44377
31
-311.76917
0
LINE
8
0
10
104.32001
20
57.44377
30
-311.76917
11
104.95999
21
49.08841
31
-311.76917
0
LINE
8
0
10
104.95999
20
49.08841
30
-311.76917
11
105.600006
21
38.104492
31
-311.76917
0
LINE
8
0
10
105.600006
20
38.104492
30
-311.76917
11
106.23999
21
25.035873
31
-311.76917
0
LINE
8
0
10
106.23999
20
25.035873
30
-311.76917
11
106.880005
21
11.417877
31
-311.76917
0
LINE
8
0
10
106.880005
20
11.417877
30
-311.76917
11
107.51999
21
-1.582077
31
-311.76917
0
LINE
8
0
10
107.51999
20
-1.582077
30
-311.76917
11
108.160034
21
-14.348587
31
-311.76917
0
LINE
8
0
10
108.160034
20
-14.348587
30
-311.76917
11
108.80002
21
-26.43666
31
-311.76917
0
LINE
8
0
10
108.80002
20
-26.43666
30
-311.76917
11
109.44
21
-37.925964
31
-311.76917
0
LINE
8
0
10
109.44
20
-37.925964
30
-311.76917
11
110.07999
21
-46.85263
31
-311.76917
0
LINE
8
0
10
110.07999
20
-46.85263
30
-311.76917
11
110.71997
21
-51.148422
31
-311.76917
0
LINE
8
0
10
110.71997
20
-51.148422
30
-311.76917
11
111.360016
21
-52.497032
31
-311.76917
0
LINE
8
0
10
111.360016
20
-52.497032
30
-311.76917
11
112.0
21
-50.892975
31
-311.76917
0
LINE
8
0
10
112.0
20
-50.892975
30
-311.76917
11
112.640015
21
-46.410416
31
-311.76917
0
LINE
8
0
10
112.640015
20
-46.410416
30
-311.76917
11
113.28
21
-39.13449
31
-311.76917
0
LINE
8
0
10
113.28
20
-39.13449
30
-311.76917
11
113.91998
21
-29.144867
31
-311.76917
0
LINE
8
0
10
113.91998
20
-29.144867
30
-311.76917
11
114.56
21
-17.422104
31
-311.76917
0
LINE
8
0
10
114.56
20
-17.422104
30
-311.76917
11
115.20001
21
-4.5127716
31
-311.76917
0
LINE
8
0
10
115.20001
20
-4.5127716
30
-311.76917
11
115.84
21
8.371841
31
-311.76917
0
LINE
8
0
10
115.84
20
8.371841
30
-311.76917
11
116.47998
21
20.63295
31
-311.76917
0
LINE
8
0
10
116.47998
20
20.63295
30
-311.76917
11
117.120026
21
32.81717
31
-311.76917
0
LINE
8
0
10
117.120026
20
32.81717
30
-311.76917
11
117.76001
21
43.298447
31
-311.76917
0
LINE
8
0
10
117.76001
20
43.298447
30
-311.76917
11
118.399994
21
51.140182
31
-311.76917
0
LINE
8
0
10
118.399994
20
51.140182
30
-311.76917
11
119.03998
21
56.938385
31
-311.76917
0
LINE
8
0
10
119.03998
20
56.938385
30
-311.76917
11
119.67999
21
59.918518
31
-311.76917
0
LINE
8
0
10
119.67999
20
59.918518
30
-311.76917
11
120.32001
21
59.984436
31
-311.76917
0
LINE
8
0
10
120.32001
20
59.984436
30
-311.76917
11
120.96002
21
56.751617
31
-311.76917
0
LINE
8
0
10
120.96002
20
56.751617
30
-311.76917
11
121.600006
21
50.686966
31
-311.76917
0
LINE
8
0
10
121.600006
20
50.686966
30
-311.76917
11
122.23999
21
42.540344
31
-311.76917
0
LINE
8
0
10
122.23999
20
42.540344
30
-311.76917
11
122.879974
21
31.53447
31
-311.76917
0
LINE
8
0
10
122.879974
20
31.53447
30
-311.76917
11
123.52002
21
19.232147
31
-311.76917
0
LINE
8
0
10
123.52002
20
19.232147
30
-311.76917
11
124.16
21
5.691086
31
-311.76917
0
LINE
8
0
10
124.16
20
5.691086
30
-311.76917
11
124.79999
21
-8.077942
31
-311.76917
0
LINE
8
0
10
124.79999
20
-8.077942
30
-311.76917
11
125.44
21
-19.830917
31
-311.76917
0
LINE
8
0
10
125.44
20
-19.830917
30
-311.76917
11
126.08002
21
-30.825836
31
-311.76917
0
LINE
8
0
10
126.08002
20
-30.825836
30
-311.76917
11
126.72
21
-40.439163
31
-311.76917
0
LINE
8
0
10
126.72
20
-40.439163
30
-311.76917
11
127.359985
21
-47.610718
31
-311.76917
0
LINE
8
0
10
127.359985
20
-47.610718
30
-311.76917
11
128.0
21
-52.34047
31
-311.76917
0
LINE
8
0
10
128.0
20
-52.34047
30
-311.76917
11
128.63998
21
-53.73577
31
-311.76917
0
LINE
8
0
10
128.63998
20
-53.73577
30
-311.76917
11
129.28003
21
-52.16742
31
-311.76917
0
LINE
8
0
10
129.28003
20
-52.16742
30
-311.76917
11
129.92001
21
-47.896362
31
-311.76917
0
LINE
8
0
10
129.92001
20
-47.896362
30
-311.76917
11
130.56
21
-40.56552
31
-311.76917
0
LINE
8
0
10
130.56
20
-40.56552
30
-311.76917
11
131.19998
21
-31.314743
31
-311.76917
0
LINE
8
0
10
131.19998
20
-31.314743
30
-311.76917
11
131.83997
21
-20.610977
31
-311.76917
0
LINE
8
0
10
131.83997
20
-20.610977
30
-311.76917
11
132.48001
21
-8.4240265
31
-311.76917
0
LINE
8
0
10
132.48001
20
-8.4240265
30
-311.76917
11
133.12
21
4.0266113
31
-311.76917
0
LINE
8
0
10
133.12
20
4.0266113
30
-311.76917
11
133.76001
21
16.144897
31
-311.76917
0
LINE
8
0
10
133.76001
20
16.144897
30
-311.76917
11
134.4
21
27.925354
31
-311.76917
0
LINE
8
0
10
134.4
20
27.925354
30
-311.76917
11
135.04001
21
38.390152
31
-311.76917
0
LINE
8
0
10
135.04001
20
38.390152
30
-311.76917
11
135.68
21
46.814163
31
-311.76917
0
LINE
8
0
10
135.68
20
46.814163
30
-311.76917
11
136.32
21
52.307495
31
-311.76917
0
LINE
8
0
10
136.32
20
52.307495
30
-311.76917
11
136.95999
21
54.87564
31
-311.76917
0
LINE
8
0
10
136.95999
20
54.87564
30
-311.76917
11
137.59998
21
54.98825
31
-311.76917
0
LINE
8
0
10
137.59998
20
54.98825
30
-311.76917
11
138.24002
21
51.82959
31
-311.76917
0
LINE
8
0
10
138.24002
20
51.82959
30
-311.76917
11
138.88
21
45.361176
31
-311.76917
0
LINE
8
0
10
138.88
20
45.361176
30
-311.76917
11
139.51999
21
36.709183
31
-311.76917
0
LINE
8
0
10
139.51999
20
36.709183
30
-311.76917
11
140.15997
21
26.285583
31
-311.76917
0
LINE
8
0
10
140.15997
20
26.285583
30
-311.76917
11
140.80002
21
14.601288
31
-311.76917
0
LINE
8
0
10
140.80002
20
14.601288
30
-311.76917
11
141.44
21
2.0133057
31
-311.76917
0
LINE
8
0
10
141.44
20
2.0133057
30
-311.76917
11
142.08002
21
-10.681778
31
-311.76917
0
LINE
8
0
10
142.08002
20
-10.681778
30
-311.76917
11
142.72
21
-22.934662
31
-311.76917
0
LINE
8
0
10
142.72
20
-22.934662
30
-311.76917
11
143.35999
21
-34.53932
31
-311.76917
0
LINE
8
0
10
143.35999
20
-34.53932
30
-311.76917
11
144.0
21
-44.625076
31
-311.76917
0
LINE
8
0
10
144.0
20
-44.625076
30
-311.76917
11
144.64001
21
-51.848816
31
-311.76917
0
LINE
8
0
10
144.64001
20
-51.848816
30
-311.76917
11
145.28
21
-56.19404
31
-311.76917
0
LINE
8
0
10
145.28
20
-56.19404
30
-311.76917
11
145.91998
21
-58.22657
31
-311.76917
0
LINE
8
0
10
145.91998
20
-58.22657
30
-311.76917
11
146.56
21
-57.01529
31
-311.76917
0
LINE
8
0
10
146.56
20
-57.01529
30
-311.76917
11
147.20001
21
-52.65084
31
-311.76917
0
LINE
8
0
10
147.20001
20
-52.65084
30
-311.76917
11
147.84
21
-45.41887
31
-311.76917
0
LINE
8
0
10
147.84
20
-45.41887
30
-311.76917
11
148.47998
21
-35.360565
31
-311.76917
0
LINE
8
0
10
148.47998
20
-35.360565
30
-311.76917
11
149.12
21
-24.036072
31
-311.76917
0
LINE
8
0
10
149.12
20
-24.036072
30
-311.76917
11
149.76001
21
-11.829895
31
-311.76917
0
LINE
8
0
10
149.76001
20
-11.829895
30
-311.76917
11
150.40002
21
1.181076
31
-311.76917
0
LINE
8
0
10
150.40002
20
1.181076
30
-311.76917
11
151.04001
21
13.3762665
31
-311.76917
0
LINE
8
0
10
151.04001
20
13.3762665
30
-311.76917
11
151.68
21
23.950928
31
-311.76917
0
LINE
8
0
10
151.68
20
23.950928
30
-311.76917
11
152.31998
21
33.792236
31
-311.76917
0
LINE
8
0
10
152.31998
20
33.792236
30
-311.76917
11
152.96002
21
41.64769
31
-311.76917
0
LINE
8
0
10
152.96002
20
41.64769
30
-311.76917
11
153.6
21
47.226166
31
-311.76917
0
LINE
8
0
10
153.6
20
47.226166
30
-311.76917
11
154.23999
21
50.253006
31
-311.76917
0
LINE
8
0
10
154.23999
20
50.253006
30
-311.76917
11
154.88
21
49.093903
31
-311.76917
0
LINE
8
0
10
154.88
20
49.093903
30
-311.76917
11
155.51999
21
45.24582
31
-311.76917
0
LINE
8
0
10
155.51999
20
45.24582
30
-311.76917
11
156.16
21
39.10704
31
-311.76917
0
LINE
8
0
10
156.16
20
39.10704
30
-311.76917
11
156.79999
21
30.37262
31
-311.76917
0
LINE
8
0
10
156.79999
20
30.37262
30
-311.76917
11
157.44
21
20.177017
31
-311.76917
0
LINE
8
0
10
157.44
20
20.177017
30
-311.76917
11
158.07999
21
8.476212
31
-311.76917
0
LINE
8
0
10
158.07999
20
8.476212
30
-311.76917
11
158.72003
21
-3.845337
31
-311.76917
0
LINE
8
0
10
158.72003
20
-3.845337
30
-311.76917
11
159.36002
21
-16.35913
31
-311.76917
0
LINE
8
0
10
159.36002
20
-16.35913
30
-311.76917
11
160.0
21
-28.856476
31
-311.76917
0
LINE
8
0
10
160.0
20
-28.856476
30
-311.76917
11
160.63998
21
-38.887283
31
-311.76917
0
LINE
8
0
10
160.63998
20
-38.887283
30
-311.76917
11
161.27997
21
-47.209686
31
-311.76917
0
LINE
8
0
10
161.27997
20
-47.209686
30
-311.76917
11
161.92001
21
-54.746544
31
-311.76917
0
LINE
8
0
10
161.92001
20
-54.746544
30
-311.76917
11
162.56
21
-59.286774
31
-311.76917
0
LINE
8
0
10
162.56
20
-59.286774
30
-311.76917
11
163.20001
21
-60.86062
31
-311.76917
0
LINE
8
0
10
163.20001
20
-60.86062
30
-311.76917
11
163.84
21
-59.435104
31
-311.76917
0
LINE
8
0
10
163.84
20
-59.435104
30
-311.76917
11
164.48001
21
-56.16108
31
-311.76917
0
LINE
8
0
10
164.48001
20
-56.16108
30
-311.76917
11
165.12
21
-50.469986
31
-311.76917
0
LINE
8
0
10
165.12
20
-50.469986
30
-311.76917
11
165.76001
21
-41.905884
31
-311.76917
0
LINE
8
0
10
165.76001
20
-41.905884
30
-311.76917
11
166.4
21
-31.295517
31
-311.76917
0
LINE
8
0
10
166.4
20
-31.295517
30
-311.76917
11
167.03998
21
-18.674576
31
-311.76917
0
LINE
8
0
10
167.03998
20
-18.674576
30
-311.76917
11
167.68002
21
-5.902588
31
-311.76917
0
LINE
8
0
10
167.68002
20
-5.902588
30
-311.76917
11
168.32
21
6.8666687
31
-311.76917
0
LINE
8
0
10
168.32
20
6.8666687
30
-311.76917
11
168.95999
21
18.921783
31
-311.76917
0
LINE
8
0
10
168.95999
20
18.921783
30
-311.76917
11
169.59998
21
28.809784
31
-311.76917
0
LINE
8
0
10
169.59998
20
28.809784
30
-311.76917
11
170.23999
21
36.585587
31
-311.76917
0
LINE
8
0
10
170.23999
20
36.585587
30
-311.76917
11
170.88
21
42.433228
31
-311.76917
0
LINE
8
0
10
170.88
20
42.433228
30
-311.76917
11
171.52002
21
45.567184
31
-311.76917
0
LINE
8
0
10
171.52002
20
45.567184
30
-311.76917
11
172.16
21
45.432587
31
-311.76917
0
LINE
8
0
10
172.16
20
45.432587
30
-311.76917
11
172.79999
21
42.15857
31
-311.76917
0
LINE
8
0
10
172.79999
20
42.15857
30
-311.76917
11
173.44
21
36.755875
31
-311.76917
0
LINE
8
0
10
173.44
20
36.755875
30
-311.76917
11
174.08002
21
28.905914
31
-311.76917
0
LINE
8
0
10
174.08002
20
28.905914
30
-311.76917
11
174.72
21
18.21315
31
-311.76917
0
LINE
8
0
10
174.72
20
18.21315
30
-311.76917
11
175.35999
21
5.9108124
31
-311.76917
0
LINE
8
0
10
175.35999
20
5.9108124
30
-311.76917
11
176.0
21
-6.9270935
31
-311.76917
0
LINE
8
0
10
176.0
20
-6.9270935
30
-311.76917
11
176.64001
21
-19.51506
31
-311.76917
0
LINE
8
0
10
176.64001
20
-19.51506
30
-311.76917
11
177.28
21
-31.103241
31
-311.76917
0
LINE
8
0
10
177.28
20
-31.103241
30
-311.76917
11
177.91998
21
-41.197235
31
-311.76917
0
LINE
8
0
10
177.91998
20
-41.197235
30
-311.76917
11
178.56
21
-50.4178
31
-311.76917
0
LINE
8
0
10
178.56
20
-50.4178
30
-311.76917
11
179.19998
21
-57.80358
31
-311.76917
0
LINE
8
0
10
179.19998
20
-57.80358
30
-311.76917
11
179.84003
21
-62.335587
31
-311.76917
0
LINE
8
0
10
179.84003
20
-62.335587
30
-311.76917
11
180.48001
21
-63.549614
31
-311.76917
0
LINE
8
0
10
180.48001
20
-63.549614
30
-311.76917
11
181.12
21
-61.62146
31
-311.76917
0
LINE
8
0
10
181.12
20
-61.62146
30
-311.76917
11
181.75998
21
-56.669205
31
-311.76917
0
LINE
8
0
10
181.75998
20
-56.669205
30
-311.76917
11
182.40002
21
-49.269684
31
-311.76917
0
LINE
8
0
10
182.40002
20
-49.269684
30
-311.76917
11
183.04001
21
-40.430923
31
-311.76917
0
LINE
8
0
10
183.04001
20
-40.430923
30
-311.76917
11
183.68
21
-30.067749
31
-311.76917
0
LINE
8
0
10
183.68
20
-30.067749
30
-311.76917
11
184.32
21
-18.581192
31
-311.76917
0
LINE
8
0
10
184.32
20
-18.581192
30
-311.76917
11
184.95999
21
-6.6112213
31
-311.76917
0
LINE
8
0
10
184.95999
20
-6.6112213
30
-311.76917
11
185.6
21
5.0263977
31
-311.76917
0
LINE
8
0
10
185.6
20
5.0263977
30
-311.76917
11
186.23999
21
16.331665
31
-311.76917
0
LINE
8
0
10
186.23999
20
16.331665
30
-311.76917
11
186.88
21
26.107056
31
-311.76917
0
LINE
8
0
10
186.88
20
26.107056
30
-311.76917
11
187.51999
21
33.38849
31
-311.76917
0
LINE
8
0
10
187.51999
20
33.38849
30
-311.76917
11
188.16003
21
38.590652
31
-311.76917
0
LINE
8
0
10
188.16003
20
38.590652
30
-311.76917
11
188.80002
21
40.87039
31
-311.76917
0
LINE
8
0
10
188.80002
20
40.87039
30
-311.76917
11
189.44
21
40.274353
31
-311.76917
0
LINE
8
0
10
189.44
20
40.274353
30
-311.76917
11
190.07999
21
36.739395
31
-311.76917
0
LINE
8
0
10
190.07999
20
36.739395
30
-311.76917
11
190.71997
21
31.702011
31
-311.76917
0
LINE
8
0
10
190.71997
20
31.702011
30
-311.76917
11
191.36002
21
24.329971
31
-311.76917
0
LINE
8
0
10
191.36002
20
24.329971
30
-311.76917
11
192.0
21
14.516144
31
-311.76917
0
LINE
8
0
10
192.0
20
14.516144
30
-311.76917
11
192.64001
21
4.0842896
31
-311.76917
0
LINE
8
0
10
192.64001
20
4.0842896
30
-311.76917
11
193.27997
21
-7.9433594
31
-311.76917
0
LINE
8
0
10
193.27997
20
-7.9433594
30
-311.76917
11
193.91998
21
-19.534286
31
-311.76917
0
LINE
8
0
10
193.91998
20
-19.534286
30
-311.76917
11
194.56
21
-29.886475
31
-311.76917
0
LINE
8
0
10
194.56
20
-29.886475
30
-311.76917
11
195.20001
21
-39.810165
31
-311.76917
0
LINE
8
0
10
195.20001
20
-39.810165
30
-311.76917
11
195.83997
21
-48.13257
31
-311.76917
0
LINE
8
0
10
195.83997
20
-48.13257
30
-311.76917
11
196.47998
21
-55.04592
31
-311.76917
0
LINE
8
0
10
196.47998
20
-55.04592
30
-311.76917
11
197.12
21
-59.465317
31
-311.76917
0
LINE
8
0
10
197.12
20
-59.465317
30
-311.76917
11
197.76001
21
-60.629898
31
-311.76917
0
LINE
8
0
10
197.76001
20
-60.629898
30
-311.76917
11
198.40002
21
-59.253815
31
-311.76917
0
LINE
8
0
10
198.40002
20
-59.253815
30
-311.76917
11
199.03998
21
-54.721825
31
-311.76917
0
LINE
8
0
10
199.03998
20
-54.721825
30
-311.76917
11
199.68
21
-47.92108
31
-311.76917
0
LINE
8
0
10
199.68
20
-47.92108
30
-311.76917
11
200.32
21
-39.293808
31
-311.76917
0
LINE
8
0
10
200.32
20
-39.293808
30
-311.76917
11
200.96002
21
-28.524124
31
-311.76917
0
LINE
8
0
10
200.96002
20
-28.524124
30
-311.76917
11
201.59998
21
-16.751923
31
-311.76917
0
LINE
8
0
10
201.59998
20
-16.751923
30
-311.76917
11
202.23999
21
-4.6171417
31
-311.76917
0
LINE
8
0
10
202.23999
20
-4.6171417
30
-311.76917
11
202.88
21
7.410507
31
-311.76917
0
LINE
8
0
10
202.88
20
7.410507
30
-311.76917
11
203.52002
21
18.141739
31
-311.76917
0
LINE
8
0
10
203.52002
20
18.141739
30
-311.76917
11
204.16003
21
26.730545
31
-311.76917
0
LINE
8
0
10
204.16003
20
26.730545
30
-311.76917
11
204.79999
21
33.83618
31
-311.76917
0
LINE
8
0
10
204.79999
20
33.83618
30
-311.76917
11
205.44
21
38.49727
31
-311.76917
0
LINE
8
0
10
205.44
20
38.49727
30
-311.76917
11
206.08002
21
40.288086
31
-311.76917
0
LINE
8
0
10
206.08002
20
40.288086
30
-311.76917
11
206.72003
21
40.43643
31
-311.76917
0
LINE
8
0
10
206.72003
20
40.43643
30
-311.76917
11
207.35999
21
37.923218
31
-311.76917
0
LINE
8
0
10
207.35999
20
37.923218
30
-311.76917
11
208.0
21
32.1772
31
-311.76917
0
LINE
8
0
10
208.0
20
32.1772
30
-311.76917
11
208.64001
21
24.78041
31
-311.76917
0
LINE
8
0
10
208.64001
20
24.78041
30
-311.76917
11
209.28003
21
15.809799
31
-311.76917
0
LINE
8
0
10
209.28003
20
15.809799
30
-311.76917
11
209.91998
21
4.7792053
31
-311.76917
0
LINE
8
0
10
209.91998
20
4.7792053
30
-311.76917
11
210.56
21
-7.2374725
31
-311.76917
0
LINE
8
0
10
210.56
20
-7.2374725
30
-311.76917
11
211.20001
21
-19.28984
31
-311.76917
0
LINE
8
0
10
211.20001
20
-19.28984
30
-311.76917
11
211.83997
21
-30.707718
31
-311.76917
0
LINE
8
0
10
211.83997
20
-30.707718
30
-311.76917
11
212.47998
21
-41.63945
31
-311.76917
0
LINE
8
0
10
212.47998
20
-41.63945
30
-311.76917
11
213.12
21
-50.71443
31
-311.76917
0
LINE
8
0
10
213.12
20
-50.71443
30
-311.76917
11
213.76001
21
-56.699432
31
-311.76917
0
LINE
8
0
10
213.76001
20
-56.699432
30
-311.76917
11
214.39996
21
-60.62166
31
-311.76917
0
LINE
8
0
10
214.39996
20
-60.62166
30
-311.76917
11
215.04004
21
-61.907104
31
-311.76917
0
LINE
8
0
10
215.04004
20
-61.907104
30
-311.76917
11
215.68
21
-60.18219
31
-311.76917
0
LINE
8
0
10
215.68
20
-60.18219
30
-311.76917
11
216.32
21
-55.05416
31
-311.76917
0
LINE
8
0
10
216.32
20
-55.05416
30
-311.76917
11
216.95996
21
-47.14102
31
-311.76917
0
LINE
8
0
10
216.95996
20
-47.14102
30
-311.76917
11
217.59998
21
-37.65953
31
-311.76917
0
LINE
8
0
10
217.59998
20
-37.65953
30
-311.76917
11
218.23999
21
-26.46962
31
-311.76917
0
LINE
8
0
10
218.23999
20
-26.46962
30
-311.76917
11
218.88
21
-14.389786
31
-311.76917
0
LINE
8
0
10
218.88
20
-14.389786
30
-311.76917
11
219.52002
21
-2.4417877
31
-311.76917
0
LINE
8
0
10
219.52002
20
-2.4417877
30
-311.76917
11
220.15997
21
8.959625
31
-311.76917
0
LINE
8
0
10
220.15997
20
8.959625
30
-311.76917
11
220.80005
21
19.77324
31
-311.76917
0
LINE
8
0
10
220.80005
20
19.77324
30
-311.76917
11
221.44
21
28.947113
31
-311.76917
0
LINE
8
0
10
221.44
20
28.947113
30
-311.76917
11
222.08002
21
35.698425
31
-311.76917
0
LINE
8
0
10
222.08002
20
35.698425
30
-311.76917
11
222.71997
21
40.601227
31
-311.76917
0
LINE
8
0
10
222.71997
20
40.601227
30
-311.76917
11
223.35999
21
42.75461
31
-311.76917
0
LINE
8
0
10
223.35999
20
42.75461
30
-311.76917
11
224.0
21
41.58452
31
-311.76917
0
LINE
8
0
10
224.0
20
41.58452
30
-311.76917
11
224.64001
21
37.942444
31
-311.76917
0
LINE
8
0
10
224.64001
20
37.942444
30
-311.76917
11
225.28003
21
31.559189
31
-311.76917
0
LINE
8
0
10
225.28003
20
31.559189
30
-311.76917
11
225.91998
21
23.508698
31
-311.76917
0
LINE
8
0
10
225.91998
20
23.508698
30
-311.76917
11
226.56
21
13.354294
31
-311.76917
0
LINE
8
0
10
226.56
20
13.354294
30
-311.76917
11
227.20001
21
1.0217438
31
-311.76917
0
LINE
8
0
10
227.20001
20
1.0217438
30
-311.76917
11
227.84003
21
-10.89328
31
-311.76917
0
LINE
8
0
10
227.84003
20
-10.89328
30
-311.76917
11
228.47998
21
-22.541885
31
-311.76917
0
LINE
8
0
10
228.47998
20
-22.541885
30
-311.76917
11
229.12
21
-33.187958
31
-311.76917
0
LINE
8
0
10
229.12
20
-33.187958
30
-311.76917
11
229.76001
21
-42.284912
31
-311.76917
0
LINE
8
0
10
229.76001
20
-42.284912
30
-311.76917
11
230.40002
21
-49.799805
31
-311.76917
0
LINE
8
0
10
230.40002
20
-49.799805
30
-311.76917
11
231.03998
21
-55.501877
31
-311.76917
0
LINE
8
0
10
231.03998
20
-55.501877
30
-311.76917
11
231.68
21
-59.55871
31
-311.76917
0
LINE
8
0
10
231.68
20
-59.55871
30
-311.76917
11
232.32
21
-59.174164
31
-311.76917
0
LINE
8
0
10
232.32
20
-59.174164
30
-311.76917
11
232.96002
21
-55.081627
31
-311.76917
0
LINE
8
0
10
232.96002
20
-55.081627
30
-311.76917
11
233.59998
21
-49.398773
31
-311.76917
0
LINE
8
0
10
233.59998
20
-49.398773
30
-311.76917
11
234.23999
21
-41.46367
31
-311.76917
0
LINE
8
0
10
234.23999
20
-41.46367
30
-311.76917
11
234.88
21
-31.90802
31
-311.76917
0
LINE
8
0
10
234.88
20
-31.90802
30
-311.76917
11
235.51996
21
-21.220734
31
-311.76917
0
LINE
8
0
10
235.51996
20
-21.220734
30
-311.76917
11
236.16003
21
-9.728699
31
-311.76917
0
LINE
8
0
10
236.16003
20
-9.728699
30
-311.76917
11
236.79999
21
1.5216522
31
-311.76917
0
LINE
8
0
10
236.79999
20
1.5216522
30
-311.76917
11
237.44
21
12.755508
31
-311.76917
0
LINE
8
0
10
237.44
20
12.755508
30
-311.76917
11
238.07996
21
23.354889
31
-311.76917
0
LINE
8
0
10
238.07996
20
23.354889
30
-311.76917
11
238.72003
21
31.74321
31
-311.76917
0
LINE
8
0
10
238.72003
20
31.74321
30
-311.76917
11
239.35999
21
38.068787
31
-311.76917
0
LINE
8
0
10
239.35999
20
38.068787
30
-311.76917
11
240.0
21
41.905884
31
-311.76917
0
LINE
8
0
10
240.0
20
41.905884
30
-311.76917
11
240.64001
21
43.24901
31
-311.76917
0
LINE
8
0
10
240.64001
20
43.24901
30
-311.76917
11
241.27997
21
42.394775
31
-311.76917
0
LINE
8
0
10
241.27997
20
42.394775
30
-311.76917
11
241.92004
21
38.634598
31
-311.76917
0
LINE
8
0
10
241.92004
20
38.634598
30
-311.76917
11
242.56
21
31.902512
31
-311.76917
0
LINE
8
0
10
242.56
20
31.902512
30
-311.76917
11
243.20001
21
23.074738
31
-311.76917
0
LINE
8
0
10
243.20001
20
23.074738
30
-311.76917
11
243.83997
21
13.502609
31
-311.76917
0
LINE
8
0
10
243.83997
20
13.502609
30
-311.76917
11
244.48004
21
2.75766
31
-311.76917
0
LINE
8
0
10
244.48004
20
2.75766
30
-311.76917
11
245.12
21
-8.058716
31
-311.76917
0
LINE
8
0
10
245.12
20
-8.058716
30
-311.76917
11
245.76001
21
-18.347733
31
-311.76917
0
LINE
8
0
10
245.76001
20
-18.347733
30
-311.76917
11
246.40002
21
-29.309662
31
-311.76917
0
LINE
8
0
10
246.40002
20
-29.309662
30
-311.76917
11
247.03998
21
-38.659317
31
-311.76917
0
LINE
8
0
10
247.03998
20
-38.659317
30
-311.76917
11
247.68
21
-45.39415
31
-311.76917
0
LINE
8
0
10
247.68
20
-45.39415
30
-311.76917
11
248.32
21
-50.176086
31
-311.76917
0
LINE
8
0
10
248.32
20
-50.176086
30
-311.76917
11
248.96002
21
-52.790916
31
-311.76917
0
LINE
8
0
10
248.96002
20
-52.790916
30
-311.76917
11
249.59998
21
-53.730278
31
-311.76917
0
LINE
8
0
10
249.59998
20
-53.730278
30
-311.76917
11
250.23999
21
-52.4833
31
-311.76917
0
LINE
8
0
10
250.23999
20
-52.4833
30
-311.76917
11
250.88
21
-48.28914
31
-311.76917
0
LINE
8
0
10
250.88
20
-48.28914
30
-311.76917
11
251.52002
21
-40.96103
31
-311.76917
0
LINE
8
0
10
251.52002
20
-40.96103
30
-311.76917
11
252.15997
21
-31.059296
31
-311.76917
0
LINE
8
0
10
252.15997
20
-31.059296
30
-311.76917
11
252.79999
21
-20.292374
31
-311.76917
0
LINE
8
0
10
252.79999
20
-20.292374
30
-311.76917
11
253.44
21
-9.259003
31
-311.76917
0
LINE
8
0
10
253.44
20
-9.259003
30
-311.76917
11
254.08002
21
2.123169
31
-311.76917
0
LINE
8
0
10
254.08002
20
2.123169
30
-311.76917
11
254.71997
21
14.192017
31
-311.76917
0
LINE
8
0
10
254.71997
20
14.192017
30
-311.76917
11
255.35999
21
25.266586
31
-311.76917
0
LINE
8
0
10
255.35999
20
25.266586
30
-311.76917
11
256.0
21
33.278595
31
-311.76917
0
LINE
8
0
10
256.0
20
33.278595
30
-311.76917
11
256.64
21
39.14824
31
-311.76917
0
LINE
8
0
10
256.64
20
39.14824
30
-311.76917
11
257.28003
21
42.999054
31
-311.76917
0
LINE
8
0
10
257.28003
20
42.999054
30
-311.76917
11
257.91998
21
44.36415
31
-311.76917
0
LINE
8
0
10
257.91998
20
44.36415
30
-311.76917
11
258.56
21
42.999054
31
-311.76917
0
LINE
8
0
10
258.56
20
42.999054
30
-311.76917
11
259.19995
21
38.222595
31
-311.76917
0
LINE
8
0
10
259.19995
20
38.222595
30
-311.76917
11
259.84003
21
31.355942
31
-311.76917
0
LINE
8
0
10
259.84003
20
31.355942
30
-311.76917
11
260.47998
21
23.044525
31
-311.76917
0
LINE
8
0
10
260.47998
20
23.044525
30
-311.76917
11
261.12
21
12.881851
31
-311.76917
0
LINE
8
0
10
261.12
20
12.881851
30
-311.76917
11
261.76
21
2.7658997
31
-311.76917
0
LINE
8
0
10
261.76
20
2.7658997
30
-311.76917
11
262.40002
21
-7.748337
31
-311.76917
0
LINE
8
0
10
262.40002
20
-7.748337
30
-311.76917
11
263.04004
21
-19.292587
31
-311.76917
0
LINE
8
0
10
263.04004
20
-19.292587
30
-311.76917
11
263.68
21
-29.477219
31
-311.76917
0
LINE
8
0
10
263.68
20
-29.477219
30
-311.76917
11
264.32
21
-38.390152
31
-311.76917
0
LINE
8
0
10
264.32
20
-38.390152
30
-311.76917
11
264.95996
21
-45.61937
31
-311.76917
0
LINE
8
0
10
264.95996
20
-45.61937
30
-311.76917
11
265.60004
21
-50.263992
31
-311.76917
0
LINE
8
0
10
265.60004
20
-50.263992
30
-311.76917
11
266.24
21
-53.70556
31
-311.76917
0
LINE
8
0
10
266.24
20
-53.70556
30
-311.76917
11
266.88
21
-54.51857
31
-311.76917
0
LINE
8
0
10
266.88
20
-54.51857
30
-311.76917
11
267.52002
21
-52.249817
31
-311.76917
0
LINE
8
0
10
267.52002
20
-52.249817
30
-311.76917
11
268.16003
21
-47.76178
31
-311.76917
0
LINE
8
0
10
268.16003
20
-47.76178
30
-311.76917
11
268.8
21
-40.186462
31
-311.76917
0
LINE
8
0
10
268.8
20
-40.186462
30
-311.76917
11
269.44
21
-31.00711
31
-311.76917
0
LINE
8
0
10
269.44
20
-31.00711
30
-311.76917
11
270.08002
21
-21.322372
31
-311.76917
0
LINE
8
0
10
270.08002
20
-21.322372
30
-311.76917
11
270.71997
21
-11.253082
31
-311.76917
0
LINE
8
0
10
270.71997
20
-11.253082
30
-311.76917
11
271.36
21
-0.53559875
31
-311.76917
0
LINE
8
0
10
271.36
20
-0.53559875
30
-311.76917
11
272.0
21
10.970184
31
-311.76917
0
LINE
8
0
10
272.0
20
10.970184
30
-311.76917
11
272.64
21
21.382782
31
-311.76917
0
LINE
8
0
10
272.64
20
21.382782
30
-311.76917
11
273.27997
21
29.957886
31
-311.76917
0
LINE
8
0
10
273.27997
20
29.957886
30
-311.76917
11
273.91998
21
36.931656
31
-311.76917
0
LINE
8
0
10
273.91998
20
36.931656
30
-311.76917
11
274.56
21
40.900604
31
-311.76917
0
LINE
8
0
10
274.56
20
40.900604
30
-311.76917
11
275.2
21
42.164062
31
-311.76917
0
LINE
8
0
10
275.2
20
42.164062
30
-311.76917
11
275.83997
21
40.81546
31
-311.76917
0
LINE
8
0
10
275.83997
20
40.81546
30
-311.76917
11
276.47998
21
37.431564
31
-311.76917
0
LINE
8
0
10
276.47998
20
37.431564
30
-311.76917
11
277.12
21
32.6194
31
-311.76917
0
LINE
8
0
10
277.12
20
32.6194
30
-311.76917
11
277.76
21
24.662308
31
-311.76917
0
LINE
8
0
10
277.76
20
24.662308
30
-311.76917
11
278.40002
21
15.433517
31
-311.76917
0
LINE
8
0
10
278.40002
20
15.433517
30
-311.76917
11
279.03998
21
4.9110413
31
-311.76917
0
LINE
8
0
10
279.03998
20
4.9110413
30
-311.76917
11
279.68
21
-6.624954
31
-311.76917
0
LINE
8
0
10
279.68
20
-6.624954
30
-311.76917
11
280.32
21
-17.15567
31
-311.76917
0
LINE
8
0
10
280.32
20
-17.15567
30
-311.76917
11
280.96002
21
-27.985779
31
-311.76917
0
LINE
8
0
10
280.96002
20
-27.985779
30
-311.76917
11
281.59998
21
-37.610092
31
-311.76917
0
LINE
8
0
10
281.59998
20
-37.610092
30
-311.76917
11
282.24
21
-45.63585
31
-311.76917
0
LINE
8
0
10
282.24
20
-45.63585
30
-311.76917
11
282.88
21
-51.84607
31
-311.76917
0
LINE
8
0
10
282.88
20
-51.84607
30
-311.76917
11
283.52002
21
-54.985497
31
-311.76917
0
LINE
8
0
10
283.52002
20
-54.985497
30
-311.76917
11
284.16003
21
-55.702377
31
-311.76917
0
LINE
8
0
10
284.16003
20
-55.702377
30
-311.76917
11
284.8
21
-53.364975
31
-311.76917
0
LINE
8
0
10
284.8
20
-53.364975
30
-311.76917
11
285.44
21
-48.75331
31
-311.76917
0
LINE
8
0
10
285.44
20
-48.75331
30
-311.76917
11
286.08002
21
-42.878204
31
-311.76917
0
LINE
8
0
10
286.08002
20
-42.878204
30
-311.76917
11
286.72003
21
-34.94583
31
-311.76917
0
LINE
8
0
10
286.72003
20
-34.94583
30
-311.76917
11
287.36
21
-24.497513
31
-311.76917
0
LINE
8
0
10
287.36
20
-24.497513
30
-311.76917
11
288.0
21
-13.1922455
31
-311.76917
0
LINE
8
0
10
288.0
20
-13.1922455
30
-311.76917
11
288.64
21
-2.0984497
31
-311.76917
0
LINE
8
0
10
288.64
20
-2.0984497
30
-311.76917
11
289.28003
21
8.847015
31
-311.76917
0
LINE
8
0
10
289.28003
20
8.847015
30
-311.76917
11
289.91998
21
18.756989
31
-311.76917
0
LINE
8
0
10
289.91998
20
18.756989
30
-311.76917
11
290.56
21
27.922607
31
-311.76917
0
LINE
8
0
10
290.56
20
27.922607
30
-311.76917
11
291.2
21
35.418243
31
-311.76917
0
LINE
8
0
10
291.2
20
35.418243
30
-311.76917
11
291.83997
21
40.13153
31
-311.76917
0
LINE
8
0
10
291.83997
20
40.13153
30
-311.76917
11
292.47998
21
42.65573
31
-311.76917
0
LINE
8
0
10
292.47998
20
42.65573
30
-311.76917
11
293.12
21
42.33435
31
-311.76917
0
LINE
8
0
10
293.12
20
42.33435
30
-311.76917
11
293.76
21
39.16472
31
-311.76917
0
LINE
8
0
10
293.76
20
39.16472
30
-311.76917
11
294.39996
21
33.657654
31
-311.76917
0
LINE
8
0
10
294.39996
20
33.657654
30
-311.76917
11
295.04004
21
26.115295
31
-311.76917
0
LINE
8
0
10
295.04004
20
26.115295
30
-311.76917
11
295.68
21
17.380905
31
-311.76917
0
LINE
8
0
10
295.68
20
17.380905
30
-311.76917
11
296.32
21
7.3885193
31
-311.76917
0
LINE
8
0
10
296.32
20
7.3885193
30
-311.76917
11
296.95996
21
-3.2602844
31
-311.76917
0
LINE
8
0
10
296.95996
20
-3.2602844
30
-311.76917
11
297.59998
21
-14.653473
31
-311.76917
0
LINE
8
0
10
297.59998
20
-14.653473
30
-311.76917
11
298.24
21
-25.931274
31
-311.76917
0
LINE
8
0
10
298.24
20
-25.931274
30
-311.76917
11
298.88
21
-35.907166
31
-311.76917
0
LINE
8
0
10
298.88
20
-35.907166
30
-311.76917
11
299.52002
21
-44.644302
31
-311.76917
0
LINE
8
0
10
299.52002
20
-44.644302
30
-311.76917
11
300.15997
21
-50.585342
31
-311.76917
0
LINE
8
0
10
300.15997
20
-50.585342
30
-311.76917
11
300.80005
21
-52.70028
31
-311.76917
0
LINE
8
0
10
300.80005
20
-52.70028
30
-311.76917
11
301.44
21
-53.41716
31
-311.76917
0
LINE
8
0
10
301.44
20
-53.41716
30
-311.76917
11
302.08002
21
-53.51329
31
-311.76917
0
LINE
8
0
10
302.08002
20
-53.51329
30
-311.76917
11
302.71997
21
-50.29695
31
-311.76917
0
LINE
8
0
10
302.71997
20
-50.29695
30
-311.76917
11
303.36
21
-43.660995
31
-311.76917
0
LINE
8
0
10
303.36
20
-43.660995
30
-311.76917
11
304.0
21
-35.640747
31
-311.76917
0
LINE
8
0
10
304.0
20
-35.640747
30
-311.76917
11
304.64
21
-25.695053
31
-311.76917
0
LINE
8
0
10
304.64
20
-25.695053
30
-311.76917
11
305.28003
21
-14.768829
31
-311.76917
0
LINE
8
0
10
305.28003
20
-14.768829
30
-311.76917
11
305.91998
21
-3.0845032
31
-311.76917
0
LINE
8
0
10
305.91998
20
-3.0845032
30
-311.76917
11
306.56
21
8.814056
31
-311.76917
0
LINE
8
0
10
306.56
20
8.814056
30
-311.76917
11
307.2
21
19.226654
31
-311.76917
0
LINE
8
0
10
307.2
20
19.226654
30
-311.76917
11
307.84003
21
28.974579
31
-311.76917
0
LINE
8
0
10
307.84003
20
28.974579
30
-311.76917
11
308.47998
21
37.733704
31
-311.76917
0
LINE
8
0
10
308.47998
20
37.733704
30
-311.76917
11
309.12
21
43.910934
31
-311.76917
0
LINE
8
0
10
309.12
20
43.910934
30
-311.76917
11
309.76
21
47.396484
31
-311.76917
0
LINE
8
0
10
309.76
20
47.396484
30
-311.76917
11
310.40002
21
48.349564
31
-311.76917
0
LINE
8
0
10
310.40002
20
48.349564
30
-311.76917
11
311.03998
21
46.34999
31
-311.76917
0
LINE
8
0
10
311.03998
20
46.34999
30
-311.76917
11
311.68
21
41.452682
31
-311.76917
0
LINE
8
0
10
311.68
20
41.452682
30
-311.76917
11
312.32
21
34.91562
31
-311.76917
0
LINE
8
0
10
312.32
20
34.91562
30
-311.76917
11
312.96002
21
26.829422
31
-311.76917
0
LINE
8
0
10
312.96002
20
26.829422
30
-311.76917
11
313.59998
21
16.205322
31
-311.76917
0
LINE
8
0
10
313.59998
20
16.205322
30
-311.76917
11
314.24
21
4.2683105
31
-311.76917
0
LINE
8
0
10
314.24
20
4.2683105
30
-311.76917
11
314.88
21
-7.767563
31
-311.76917
0
LINE
8
0
10
314.88
20
-7.767563
30
-311.76917
11
315.51996
21
-19.259628
31
-311.76917
0
LINE
8
0
10
315.51996
20
-19.259628
30
-311.76917
11
316.16003
21
-30.04303
31
-311.76917
0
LINE
8
0
10
316.16003
20
-30.04303
30
-311.76917
11
316.8
21
-38.807632
31
-311.76917
0
LINE
8
0
10
316.8
20
-38.807632
30
-311.76917
11
317.44
21
-44.957428
31
-311.76917
0
LINE
8
0
10
317.44
20
-44.957428
30
-311.76917
11
318.07996
21
-48.915375
31
-311.76917
0
LINE
8
0
10
318.07996
20
-48.915375
30
-311.76917
11
318.72003
21
-50.719925
31
-311.76917
0
LINE
8
0
10
318.72003
20
-50.719925
30
-311.76917
11
319.36
21
-49.945374
31
-311.76917
0
ENDSEC
0
EOF
