0
SECTION
2
ENTITIES
0
LINE
8
0
10
-320.0
20
-9.898987
30
-311.76917
11
-317.86667
21
-9.811096
31
-311.76917
0
LINE
8
0
10
-317.86667
20
-9.811096
30
-311.76917
11
-315.73334
21
-9.215057
31
-311.76917
0
LINE
8
0
10
-315.73334
20
-9.215057
30
-311.76917
11
-313.6
21
-8.305923
31
-311.76917
0
LINE
8
0
10
-313.6
20
-8.305923
30
-311.76917
11
-311.46667
21
-7.6137543
31
-311.76917
0
LINE
8
0
10
-311.46667
20
-7.6137543
30
-311.76917
11
-309.33334
21
-7.1056213
31
-311.76917
0
LINE
8
0
10
-309.33334
20
-7.1056213
30
-311.76917
11
-307.2
21
-6.355789
31
-311.76917
0
LINE
8
0
10
-307.2
20
-6.355789
30
-311.76917
11
-305.06668
21
-5.5427704
31
-311.76917
0
LINE
8
0
10
-305.06668
20
-5.5427704
30
-311.76917
11
-302.93332
21
-4.7379913
31
-311.76917
0
LINE
8
0
10
-302.93332
20
-4.7379913
30
-311.76917
11
-300.8
21
-3.9716797
31
-311.76917
0
LINE
8
0
10
-300.8
20
-3.9716797
30
-311.76917
11
-298.66666
21
-3.3838959
31
-311.76917
0
LINE
8
0
10
-298.66666
20
-3.3838959
30
-311.76917
11
-296.53333
21
-2.7329407
31
-311.76917
0
LINE
8
0
10
-296.53333
20
-2.7329407
30
-311.76917
11
-294.4
21
-2.0929565
31
-311.76917
0
LINE
8
0
10
-294.4
20
-2.0929565
30
-311.76917
11
-292.26666
21
-1.3431244
31
-311.76917
0
LINE
8
0
10
-292.26666
20
-1.3431244
30
-311.76917
11
-290.13333
21
-0.20600891
31
-311.76917
0
LINE
8
0
10
-290.13333
20
-0.20600891
30
-311.76917
11
-288.0
21
0.6372223
31
-311.76917
0
LINE
8
0
10
-288.0
20
0.6372223
30
-311.76917
11
-285.86667
21
1.562851
31
-311.76917
0
LINE
8
0
10
-285.86667
20
1.562851
30
-311.76917
11
-283.73334
21
2.0490112
31
-311.76917
0
LINE
8
0
10
-283.73334
20
2.0490112
30
-311.76917
11
-281.6
21
2.3758545
31
-311.76917
0
LINE
8
0
10
-281.6
20
2.3758545
30
-311.76917
11
-279.46667
21
3.172409
31
-311.76917
0
LINE
8
0
10
-279.46667
20
3.172409
30
-311.76917
11
-277.33334
21
3.57341
31
-311.76917
0
LINE
8
0
10
-277.33334
20
3.57341
30
-311.76917
11
-275.2
21
3.9332275
31
-311.76917
0
LINE
8
0
10
-275.2
20
3.9332275
30
-311.76917
11
-273.06668
21
4.0980225
31
-311.76917
0
LINE
8
0
10
-273.06668
20
4.0980225
30
-311.76917
11
-270.93335
21
4.043091
31
-311.76917
0
LINE
8
0
10
-270.93335
20
4.043091
30
-311.76917
11
-268.8
21
4.5237427
31
-311.76917
0
LINE
8
0
10
-268.8
20
4.5237427
30
-311.76917
11
-266.66666
21
4.468811
31
-311.76917
0
LINE
8
0
10
-266.66666
20
4.468811
30
-311.76917
11
-264.53333
21
4.114502
31
-311.76917
0
LINE
8
0
10
-264.53333
20
4.114502
30
-311.76917
11
-262.4
21
4.081543
31
-311.76917
0
LINE
8
0
10
-262.4
20
4.081543
30
-311.76917
11
-260.26666
21
3.3866425
31
-311.76917
0
LINE
8
0
10
-260.26666
20
3.3866425
30
-311.76917
11
-258.13333
21
3.2877655
31
-311.76917
0
LINE
8
0
10
-258.13333
20
3.2877655
30
-311.76917
11
-256.0
21
3.131195
31
-311.76917
0
LINE
8
0
10
-256.0
20
3.131195
30
-311.76917
11
-253.86667
21
3.1833954
31
-311.76917
0
LINE
8
0
10
-253.86667
20
3.1833954
30
-311.76917
11
-251.73334
21
3.2328339
31
-311.76917
0
LINE
8
0
10
-251.73334
20
3.2328339
30
-311.76917
11
-249.6
21
2.573639
31
-311.76917
0
LINE
8
0
10
-249.6
20
2.573639
30
-311.76917
11
-247.46667
21
2.54068
31
-311.76917
0
LINE
8
0
10
-247.46667
20
2.54068
30
-311.76917
11
-245.33334
21
2.1588745
31
-311.76917
0
LINE
8
0
10
-245.33334
20
2.1588745
30
-311.76917
11
-243.20001
21
2.0462646
31
-311.76917
0
LINE
8
0
10
-243.20001
20
2.0462646
30
-311.76917
11
-241.06667
21
2.3346558
31
-311.76917
0
LINE
8
0
10
-241.06667
20
2.3346558
30
-311.76917
11
-238.93333
21
1.9336548
31
-311.76917
0
LINE
8
0
10
-238.93333
20
1.9336548
30
-311.76917
11
-236.8
21
1.8540039
31
-311.76917
0
LINE
8
0
10
-236.8
20
1.8540039
30
-311.76917
11
-234.66666
21
1.9556274
31
-311.76917
0
LINE
8
0
10
-234.66666
20
1.9556274
30
-311.76917
11
-232.53333
21
1.9803467
31
-311.76917
0
LINE
8
0
10
-232.53333
20
1.9803467
30
-311.76917
11
-230.4
21
2.5681458
31
-311.76917
0
LINE
8
0
10
-230.4
20
2.5681458
30
-311.76917
11
-228.26666
21
2.86203
31
-311.76917
0
LINE
8
0
10
-228.26666
20
2.86203
30
-311.76917
11
-226.13333
21
3.3426971
31
-311.76917
0
LINE
8
0
10
-226.13333
20
3.3426971
30
-311.76917
11
-224.0
21
4.331482
31
-311.76917
0
LINE
8
0
10
-224.0
20
4.331482
30
-311.76917
11
-221.86667
21
4.6391296
31
-311.76917
0
LINE
8
0
10
-221.86667
20
4.6391296
30
-311.76917
11
-219.73334
21
4.6528625
31
-311.76917
0
LINE
8
0
10
-219.73334
20
4.6528625
30
-311.76917
11
-217.6
21
4.441345
31
-311.76917
0
LINE
8
0
10
-217.6
20
4.441345
30
-311.76917
11
-215.46667
21
4.748993
31
-311.76917
0
LINE
8
0
10
-215.46667
20
4.748993
30
-311.76917
11
-213.33333
21
5.5482635
31
-311.76917
0
LINE
8
0
10
-213.33333
20
5.5482635
30
-311.76917
11
-211.2
21
6.075638
31
-311.76917
0
LINE
8
0
10
-211.2
20
6.075638
30
-311.76917
11
-209.06667
21
6.1964874
31
-311.76917
0
LINE
8
0
10
-209.06667
20
6.1964874
30
-311.76917
11
-206.93333
21
5.853134
31
-311.76917
0
LINE
8
0
10
-206.93333
20
5.853134
30
-311.76917
11
-204.79999
21
5.386215
31
-311.76917
0
LINE
8
0
10
-204.79999
20
5.386215
30
-311.76917
11
-202.66666
21
5.188446
31
-311.76917
0
LINE
8
0
10
-202.66666
20
5.188446
30
-311.76917
11
-200.53333
21
5.795456
31
-311.76917
0
LINE
8
0
10
-200.53333
20
5.795456
30
-311.76917
11
-198.4
21
5.710312
31
-311.76917
0
LINE
8
0
10
-198.4
20
5.710312
30
-311.76917
11
-196.26666
21
4.567688
31
-311.76917
0
LINE
8
0
10
-196.26666
20
4.567688
30
-311.76917
11
-194.13333
21
4.0183716
31
-311.76917
0
LINE
8
0
10
-194.13333
20
4.0183716
30
-311.76917
11
-192.0
21
4.29303
31
-311.76917
0
LINE
8
0
10
-192.0
20
4.29303
30
-311.76917
11
-189.86667
21
5.117035
31
-311.76917
0
LINE
8
0
10
-189.86667
20
5.117035
30
-311.76917
11
-187.73334
21
5.6334076
31
-311.76917
0
LINE
8
0
10
-187.73334
20
5.6334076
30
-311.76917
11
-185.6
21
4.792938
31
-311.76917
0
LINE
8
0
10
-185.6
20
4.792938
30
-311.76917
11
-183.46666
21
4.7984314
31
-311.76917
0
LINE
8
0
10
-183.46666
20
4.7984314
30
-311.76917
11
-181.33333
21
3.9661865
31
-311.76917
0
LINE
8
0
10
-181.33333
20
3.9661865
30
-311.76917
11
-179.2
21
1.9336548
31
-311.76917
0
LINE
8
0
10
-179.2
20
1.9336548
30
-311.76917
11
-177.06667
21
2.3346558
31
-311.76917
0
LINE
8
0
10
-177.06667
20
2.3346558
30
-311.76917
11
-174.93333
21
2.6477966
31
-311.76917
0
LINE
8
0
10
-174.93333
20
2.6477966
30
-311.76917
11
-172.8
21
3.350937
31
-311.76917
0
LINE
8
0
10
-172.8
20
3.350937
30
-311.76917
11
-170.66667
21
4.28479
31
-311.76917
0
LINE
8
0
10
-170.66667
20
4.28479
30
-311.76917
11
-168.53334
21
3.5514374
31
-311.76917
0
LINE
8
0
10
-168.53334
20
3.5514374
30
-311.76917
11
-166.40001
21
3.8810425
31
-311.76917
0
LINE
8
0
10
-166.40001
20
3.8810425
30
-311.76917
11
-164.26666
21
3.718979
31
-311.76917
0
LINE
8
0
10
-164.26666
20
3.718979
30
-311.76917
11
-162.13333
21
3.738205
31
-311.76917
0
LINE
8
0
10
-162.13333
20
3.738205
30
-311.76917
11
-160.0
21
5.691086
31
-311.76917
0
LINE
8
0
10
-160.0
20
5.691086
30
-311.76917
11
-157.86667
21
6.6112213
31
-311.76917
0
LINE
8
0
10
-157.86667
20
6.6112213
30
-311.76917
11
-155.73334
21
7.509384
31
-311.76917
0
LINE
8
0
10
-155.73334
20
7.509384
30
-311.76917
11
-153.6
21
8.448746
31
-311.76917
0
LINE
8
0
10
-153.6
20
8.448746
30
-311.76917
11
-151.46667
21
8.591568
31
-311.76917
0
LINE
8
0
10
-151.46667
20
8.591568
30
-311.76917
11
-149.33333
21
10.747696
31
-311.76917
0
LINE
8
0
10
-149.33333
20
10.747696
30
-311.76917
11
-147.2
21
13.829468
31
-311.76917
0
LINE
8
0
10
-147.2
20
13.829468
30
-311.76917
11
-145.06667
21
15.120407
31
-311.76917
0
LINE
8
0
10
-145.06667
20
15.120407
30
-311.76917
11
-142.93333
21
16.210815
31
-311.76917
0
LINE
8
0
10
-142.93333
20
16.210815
30
-311.76917
11
-140.8
21
16.919464
31
-311.76917
0
LINE
8
0
10
-140.8
20
16.919464
30
-311.76917
11
-138.66667
21
16.666779
31
-311.76917
0
LINE
8
0
10
-138.66667
20
16.666779
30
-311.76917
11
-136.53334
21
16.773895
31
-311.76917
0
LINE
8
0
10
-136.53334
20
16.773895
30
-311.76917
11
-134.40001
21
17.488022
31
-311.76917
0
LINE
8
0
10
-134.40001
20
17.488022
30
-311.76917
11
-132.26668
21
18.45485
31
-311.76917
0
LINE
8
0
10
-132.26668
20
18.45485
30
-311.76917
11
-130.13335
21
18.773468
31
-311.76917
0
LINE
8
0
10
-130.13335
20
18.773468
30
-311.76917
11
-128.0
21
18.72403
31
-311.76917
0
LINE
8
0
10
-128.0
20
18.72403
30
-311.76917
11
-125.86667
21
17.809372
31
-311.76917
0
LINE
8
0
10
-125.86667
20
17.809372
30
-311.76917
11
-123.73334
21
16.84256
31
-311.76917
0
LINE
8
0
10
-123.73334
20
16.84256
30
-311.76917
11
-121.600006
21
16.265747
31
-311.76917
0
LINE
8
0
10
-121.600006
20
16.265747
30
-311.76917
11
-119.466675
21
14.9253845
31
-311.76917
0
LINE
8
0
10
-119.466675
20
14.9253845
30
-311.76917
11
-117.33334
21
13.302109
31
-311.76917
0
LINE
8
0
10
-117.33334
20
13.302109
30
-311.76917
11
-115.20001
21
11.340973
31
-311.76917
0
LINE
8
0
10
-115.20001
20
11.340973
30
-311.76917
11
-113.06668
21
8.858002
31
-311.76917
0
LINE
8
0
10
-113.06668
20
8.858002
30
-311.76917
11
-110.93335
21
6.259659
31
-311.76917
0
LINE
8
0
10
-110.93335
20
6.259659
30
-311.76917
11
-108.79999
21
4.781952
31
-311.76917
0
LINE
8
0
10
-108.79999
20
4.781952
30
-311.76917
11
-106.66666
21
2.9718933
31
-311.76917
0
LINE
8
0
10
-106.66666
20
2.9718933
30
-311.76917
11
-104.533325
21
0.39552307
31
-311.76917
0
LINE
8
0
10
-104.533325
20
0.39552307
30
-311.76917
11
-102.399994
21
-1.9418945
31
-311.76917
0
LINE
8
0
10
-102.399994
20
-1.9418945
30
-311.76917
11
-100.26666
21
-4.6308746
31
-311.76917
0
LINE
8
0
10
-100.26666
20
-4.6308746
30
-311.76917
11
-98.13333
21
-7.1715393
31
-311.76917
0
LINE
8
0
10
-98.13333
20
-7.1715393
30
-311.76917
11
-96.0
21
-9.465012
31
-311.76917
0
LINE
8
0
10
-96.0
20
-9.465012
30
-311.76917
11
-93.86667
21
-11.113007
31
-311.76917
0
LINE
8
0
10
-93.86667
20
-11.113007
30
-311.76917
11
-91.73334
21
-13.063141
31
-311.76917
0
LINE
8
0
10
-91.73334
20
-13.063141
30
-311.76917
11
-89.59999
21
-15.046234
31
-311.76917
0
LINE
8
0
10
-89.59999
20
-15.046234
30
-311.76917
11
-87.46666
21
-16.490982
31
-311.76917
0
LINE
8
0
10
-87.46666
20
-16.490982
30
-311.76917
11
-85.33333
21
-17.921997
31
-311.76917
0
LINE
8
0
10
-85.33333
20
-17.921997
30
-311.76917
11
-83.2
21
-18.441116
31
-311.76917
0
LINE
8
0
10
-83.2
20
-18.441116
30
-311.76917
11
-81.066666
21
-18.897064
31
-311.76917
0
LINE
8
0
10
-81.066666
20
-18.897064
30
-311.76917
11
-78.933334
21
-19.221176
31
-311.76917
0
LINE
8
0
10
-78.933334
20
-19.221176
30
-311.76917
11
-76.8
21
-18.891571
31
-311.76917
0
LINE
8
0
10
-76.8
20
-18.891571
30
-311.76917
11
-74.66667
21
-18.259842
31
-311.76917
0
LINE
8
0
10
-74.66667
20
-18.259842
30
-311.76917
11
-72.53334
21
-16.587112
31
-311.76917
0
LINE
8
0
10
-72.53334
20
-16.587112
30
-311.76917
11
-70.40001
21
-14.793549
31
-311.76917
0
LINE
8
0
10
-70.40001
20
-14.793549
30
-311.76917
11
-68.26666
21
-13.788254
31
-311.76917
0
LINE
8
0
10
-68.26666
20
-13.788254
30
-311.76917
11
-66.13333
21
-12.357254
31
-311.76917
0
LINE
8
0
10
-66.13333
20
-12.357254
30
-311.76917
11
-64.0
21
-10.352173
31
-311.76917
0
LINE
8
0
10
-64.0
20
-10.352173
30
-311.76917
11
-61.86667
21
-8.385574
31
-311.76917
0
LINE
8
0
10
-61.86667
20
-8.385574
30
-311.76917
11
-59.733337
21
-6.1360474
31
-311.76917
0
LINE
8
0
10
-59.733337
20
-6.1360474
30
-311.76917
11
-57.600006
21
-3.639328
31
-311.76917
0
LINE
8
0
10
-57.600006
20
-3.639328
30
-311.76917
11
-55.466675
21
-1.2579803
31
-311.76917
0
LINE
8
0
10
-55.466675
20
-1.2579803
30
-311.76917
11
-53.333344
21
1.128891
31
-311.76917
0
LINE
8
0
10
-53.333344
20
1.128891
30
-311.76917
11
-51.200012
21
3.5459442
31
-311.76917
0
LINE
8
0
10
-51.200012
20
3.5459442
30
-311.76917
11
-49.06665
21
6.166275
31
-311.76917
0
LINE
8
0
10
-49.06665
20
6.166275
30
-311.76917
11
-46.93332
21
8.410294
31
-311.76917
0
LINE
8
0
10
-46.93332
20
8.410294
30
-311.76917
11
-44.799988
21
10.577408
31
-311.76917
0
LINE
8
0
10
-44.799988
20
10.577408
30
-311.76917
11
-42.666656
21
13.016434
31
-311.76917
0
LINE
8
0
10
-42.666656
20
13.016434
30
-311.76917
11
-40.533325
21
14.76059
31
-311.76917
0
LINE
8
0
10
-40.533325
20
14.76059
30
-311.76917
11
-38.399994
21
16.139404
31
-311.76917
0
LINE
8
0
10
-38.399994
20
16.139404
30
-311.76917
11
-36.266663
21
17.490768
31
-311.76917
0
LINE
8
0
10
-36.266663
20
17.490768
30
-311.76917
11
-34.13333
21
18.680084
31
-311.76917
0
LINE
8
0
10
-34.13333
20
18.680084
30
-311.76917
11
-32.0
21
19.825424
31
-311.76917
0
LINE
8
0
10
-32.0
20
19.825424
30
-311.76917
11
-29.866669
21
20.621964
31
-311.76917
0
LINE
8
0
10
-29.866669
20
20.621964
30
-311.76917
11
-27.733337
21
20.501114
31
-311.76917
0
LINE
8
0
10
-27.733337
20
20.501114
30
-311.76917
11
-25.600006
21
19.858383
31
-311.76917
0
LINE
8
0
10
-25.600006
20
19.858383
30
-311.76917
11
-23.466675
21
18.64711
31
-311.76917
0
LINE
8
0
10
-23.466675
20
18.64711
30
-311.76917
11
-21.333344
21
17.372665
31
-311.76917
0
LINE
8
0
10
-21.333344
20
17.372665
30
-311.76917
11
-19.200012
21
15.837265
31
-311.76917
0
LINE
8
0
10
-19.200012
20
15.837265
30
-311.76917
11
-17.06668
21
13.975037
31
-311.76917
0
LINE
8
0
10
-17.06668
20
13.975037
30
-311.76917
11
-14.93335
21
12.233643
31
-311.76917
0
LINE
8
0
10
-14.93335
20
12.233643
30
-311.76917
11
-12.800018
21
10.030823
31
-311.76917
0
LINE
8
0
10
-12.800018
20
10.030823
30
-311.76917
11
-10.666687
21
7.904892
31
-311.76917
0
LINE
8
0
10
-10.666687
20
7.904892
30
-311.76917
11
-8.533325
21
5.9575043
31
-311.76917
0
LINE
8
0
10
-8.533325
20
5.9575043
30
-311.76917
11
-6.399994
21
3.7821503
31
-311.76917
0
LINE
8
0
10
-6.399994
20
3.7821503
30
-311.76917
11
-4.2666626
21
1.8759766
31
-311.76917
0
LINE
8
0
10
-4.2666626
20
1.8759766
30
-311.76917
11
-2.1333313
21
0.024719238
31
-311.76917
0
LINE
8
0
10
-2.1333313
20
0.024719238
30
-311.76917
11
0.0
21
-2.570877
31
-311.76917
0
LINE
8
0
10
0.0
20
-2.570877
30
-311.76917
11
2.1333313
21
-4.8698425
31
-311.76917
0
LINE
8
0
10
2.1333313
20
-4.8698425
30
-311.76917
11
4.2666626
21
-6.8556824
31
-311.76917
0
LINE
8
0
10
4.2666626
20
-6.8556824
30
-311.76917
11
6.399994
21
-8.470718
31
-311.76917
0
LINE
8
0
10
6.399994
20
-8.470718
30
-311.76917
11
8.533325
21
-9.61058
31
-311.76917
0
LINE
8
0
10
8.533325
20
-9.61058
30
-311.76917
11
10.6666565
21
-10.871307
31
-311.76917
0
LINE
8
0
10
10.6666565
20
-10.871307
30
-311.76917
11
12.799988
21
-12.0633545
31
-311.76917
0
LINE
8
0
10
12.799988
20
-12.0633545
30
-311.76917
11
14.933319
21
-13.612473
31
-311.76917
0
LINE
8
0
10
14.933319
20
-13.612473
30
-311.76917
11
17.06665
21
-14.593048
31
-311.76917
0
LINE
8
0
10
17.06665
20
-14.593048
30
-311.76917
11
19.199982
21
-14.914398
31
-311.76917
0
LINE
8
0
10
19.199982
20
-14.914398
30
-311.76917
11
21.333344
21
-15.029755
31
-311.76917
0
LINE
8
0
10
21.333344
20
-15.029755
30
-311.76917
11
23.466675
21
-14.090393
31
-311.76917
0
LINE
8
0
10
23.466675
20
-14.090393
30
-311.76917
11
25.600006
21
-13.3433075
31
-311.76917
0
LINE
8
0
10
25.600006
20
-13.3433075
30
-311.76917
11
27.733337
21
-12.527542
31
-311.76917
0
LINE
8
0
10
27.733337
20
-12.527542
30
-311.76917
11
29.866669
21
-11.209137
31
-311.76917
0
LINE
8
0
10
29.866669
20
-11.209137
30
-311.76917
11
32.0
21
-10.014343
31
-311.76917
0
LINE
8
0
10
32.0
20
-10.014343
30
-311.76917
11
34.13333
21
-8.267471
31
-311.76917
0
LINE
8
0
10
34.13333
20
-8.267471
30
-311.76917
11
36.266663
21
-6.256912
31
-311.76917
0
LINE
8
0
10
36.266663
20
-6.256912
30
-311.76917
11
38.399994
21
-3.798645
31
-311.76917
0
LINE
8
0
10
38.399994
20
-3.798645
30
-311.76917
11
40.533325
21
-1.4694672
31
-311.76917
0
LINE
8
0
10
40.533325
20
-1.4694672
30
-311.76917
11
42.666656
21
-0.002746582
31
-311.76917
0
LINE
8
0
10
42.666656
20
-0.002746582
30
-311.76917
11
44.799988
21
1.5353851
31
-311.76917
0
LINE
8
0
10
44.799988
20
1.5353851
30
-311.76917
11
46.93332
21
3.1339417
31
-311.76917
0
LINE
8
0
10
46.93332
20
3.1339417
30
-311.76917
11
49.06665
21
4.8121643
31
-311.76917
0
LINE
8
0
10
49.06665
20
4.8121643
30
-311.76917
11
51.19998
21
6.7211
31
-311.76917
0
LINE
8
0
10
51.19998
20
6.7211
30
-311.76917
11
53.333313
21
8.135635
31
-311.76917
0
LINE
8
0
10
53.333313
20
8.135635
30
-311.76917
11
55.466644
21
9.000824
31
-311.76917
0
LINE
8
0
10
55.466644
20
9.000824
30
-311.76917
11
57.599976
21
9.421051
31
-311.76917
0
LINE
8
0
10
57.599976
20
9.421051
30
-311.76917
11
59.733307
21
9.456757
31
-311.76917
0
LINE
8
0
10
59.733307
20
9.456757
30
-311.76917
11
61.8667
21
9.868774
31
-311.76917
0
LINE
8
0
10
61.8667
20
9.868774
30
-311.76917
11
64.0
21
10.022583
31
-311.76917
0
LINE
8
0
10
64.0
20
10.022583
30
-311.76917
11
66.13336
21
10.0720215
31
-311.76917
0
LINE
8
0
10
66.13336
20
10.0720215
30
-311.76917
11
68.26666
21
10.063782
31
-311.76917
0
LINE
8
0
10
68.26666
20
10.063782
30
-311.76917
11
70.400024
21
9.003571
31
-311.76917
0
LINE
8
0
10
70.400024
20
9.003571
30
-311.76917
11
72.533325
21
7.891159
31
-311.76917
0
LINE
8
0
10
72.533325
20
7.891159
30
-311.76917
11
74.66669
21
6.509598
31
-311.76917
0
LINE
8
0
10
74.66669
20
6.509598
30
-311.76917
11
76.79999
21
5.2928314
31
-311.76917
0
LINE
8
0
10
76.79999
20
5.2928314
30
-311.76917
11
78.93335
21
4.5869446
31
-311.76917
0
LINE
8
0
10
78.93335
20
4.5869446
30
-311.76917
11
81.06665
21
3.4635468
31
-311.76917
0
LINE
8
0
10
81.06665
20
3.4635468
30
-311.76917
11
83.20001
21
2.5104675
31
-311.76917
0
LINE
8
0
10
83.20001
20
2.5104675
30
-311.76917
11
85.33331
21
1.1920624
31
-311.76917
0
LINE
8
0
10
85.33331
20
1.1920624
30
-311.76917
11
87.466675
21
-0.5767975
31
-311.76917
0
LINE
8
0
10
87.466675
20
-0.5767975
30
-311.76917
11
89.599976
21
-2.156128
31
-311.76917
0
LINE
8
0
10
89.599976
20
-2.156128
30
-311.76917
11
91.73334
21
-3.7958984
31
-311.76917
0
LINE
8
0
10
91.73334
20
-3.7958984
30
-311.76917
11
93.86664
21
-5.0263977
31
-311.76917
0
LINE
8
0
10
93.86664
20
-5.0263977
30
-311.76917
11
96.0
21
-5.869629
31
-311.76917
0
LINE
8
0
10
96.0
20
-5.869629
30
-311.76917
11
98.1333
21
-6.836441
31
-311.76917
0
LINE
8
0
10
98.1333
20
-6.836441
30
-311.76917
11
100.26669
21
-7.5478363
31
-311.76917
0
LINE
8
0
10
100.26669
20
-7.5478363
30
-311.76917
11
102.400024
21
-8.355362
31
-311.76917
0
LINE
8
0
10
102.400024
20
-8.355362
30
-311.76917
11
104.533356
21
-9.110687
31
-311.76917
0
LINE
8
0
10
104.533356
20
-9.110687
30
-311.76917
11
106.66669
21
-9.085968
31
-311.76917
0
LINE
8
0
10
106.66669
20
-9.085968
30
-311.76917
11
108.80002
21
-9.190338
31
-311.76917
0
LINE
8
0
10
108.80002
20
-9.190338
30
-311.76917
11
110.93335
21
-8.937653
31
-311.76917
0
LINE
8
0
10
110.93335
20
-8.937653
30
-311.76917
11
113.06668
21
-8.528397
31
-311.76917
0
LINE
8
0
10
113.06668
20
-8.528397
30
-311.76917
11
115.20001
21
-8.347122
31
-311.76917
0
LINE
8
0
10
115.20001
20
-8.347122
30
-311.76917
11
117.33334
21
-7.838974
31
-311.76917
0
LINE
8
0
10
117.33334
20
-7.838974
30
-311.76917
11
119.466675
21
-7.517624
31
-311.76917
0
LINE
8
0
10
119.466675
20
-7.517624
30
-311.76917
11
121.600006
21
-6.885895
31
-311.76917
0
LINE
8
0
10
121.600006
20
-6.885895
30
-311.76917
11
123.73334
21
-6.067383
31
-311.76917
0
LINE
8
0
10
123.73334
20
-6.067383
30
-311.76917
11
125.86667
21
-5.3697357
31
-311.76917
0
LINE
8
0
10
125.86667
20
-5.3697357
30
-311.76917
11
128.0
21
-4.5319977
31
-311.76917
0
LINE
8
0
10
128.0
20
-4.5319977
30
-311.76917
11
130.13333
21
-3.9002686
31
-311.76917
0
LINE
8
0
10
130.13333
20
-3.9002686
30
-311.76917
11
132.26666
21
-3.5294647
31
-311.76917
0
LINE
8
0
10
132.26666
20
-3.5294647
30
-311.76917
11
134.4
21
-2.6944885
31
-311.76917
0
LINE
8
0
10
134.4
20
-2.6944885
30
-311.76917
11
136.53333
21
-2.0792236
31
-311.76917
0
LINE
8
0
10
136.53333
20
-2.0792236
30
-311.76917
11
138.66666
21
-1.5546112
31
-311.76917
0
LINE
8
0
10
138.66666
20
-1.5546112
30
-311.76917
11
140.80002
21
-0.7086334
31
-311.76917
0
LINE
8
0
10
140.80002
20
-0.7086334
30
-311.76917
11
142.93335
21
-0.12908936
31
-311.76917
0
LINE
8
0
10
142.93335
20
-0.12908936
30
-311.76917
11
145.06668
21
0.72236633
31
-311.76917
0
LINE
8
0
10
145.06668
20
0.72236633
30
-311.76917
11
147.20001
21
1.6534882
31
-311.76917
0
LINE
8
0
10
147.20001
20
1.6534882
30
-311.76917
11
149.33334
21
2.0023193
31
-311.76917
0
LINE
8
0
10
149.33334
20
2.0023193
30
-311.76917
11
151.46667
21
2.2632446
31
-311.76917
0
LINE
8
0
10
151.46667
20
2.2632446
30
-311.76917
11
153.6
21
2.7329407
31
-311.76917
0
LINE
8
0
10
153.6
20
2.7329407
30
-311.76917
11
155.73334
21
3.172409
31
-311.76917
0
LINE
8
0
10
155.73334
20
3.172409
30
-311.76917
11
157.86667
21
3.587143
31
-311.76917
0
LINE
8
0
10
157.86667
20
3.587143
30
-311.76917
11
160.0
21
3.507492
31
-311.76917
0
LINE
8
0
10
160.0
20
3.507492
30
-311.76917
11
162.13333
21
3.5157318
31
-311.76917
0
LINE
8
0
10
162.13333
20
3.5157318
30
-311.76917
11
164.26666
21
3.7491913
31
-311.76917
0
LINE
8
0
10
164.26666
20
3.7491913
30
-311.76917
11
166.4
21
3.7079926
31
-311.76917
0
LINE
8
0
10
166.4
20
3.7079926
30
-311.76917
11
168.53333
21
3.7107391
31
-311.76917
0
LINE
8
0
10
168.53333
20
3.7107391
30
-311.76917
11
170.66666
21
3.290512
31
-311.76917
0
LINE
8
0
10
170.66666
20
3.290512
30
-311.76917
11
172.79999
21
2.86203
31
-311.76917
0
LINE
8
0
10
172.79999
20
2.86203
30
-311.76917
11
174.93332
21
2.790619
31
-311.76917
0
LINE
8
0
10
174.93332
20
2.790619
30
-311.76917
11
177.06665
21
2.8070984
31
-311.76917
0
LINE
8
0
10
177.06665
20
2.8070984
30
-311.76917
11
179.19998
21
2.9993591
31
-311.76917
0
LINE
8
0
10
179.19998
20
2.9993591
30
-311.76917
11
181.33334
21
2.7549133
31
-311.76917
0
LINE
8
0
10
181.33334
20
2.7549133
30
-311.76917
11
183.46667
21
2.3099365
31
-311.76917
0
LINE
8
0
10
183.46667
20
2.3099365
30
-311.76917
11
185.6
21
2.3209229
31
-311.76917
0
LINE
8
0
10
185.6
20
2.3209229
30
-311.76917
11
187.73334
21
2.2192993
31
-311.76917
0
LINE
8
0
10
187.73334
20
2.2192993
30
-311.76917
11
189.86667
21
2.0957031
31
-311.76917
0
LINE
8
0
10
189.86667
20
2.0957031
30
-311.76917
11
192.0
21
2.0517578
31
-311.76917
0
LINE
8
0
10
192.0
20
2.0517578
30
-311.76917
11
194.13336
21
1.8430176
31
-311.76917
0
LINE
8
0
10
194.13336
20
1.8430176
30
-311.76917
11
196.26666
21
1.8375244
31
-311.76917
0
LINE
8
0
10
196.26666
20
1.8375244
30
-311.76917
11
198.40002
21
2.0874634
31
-311.76917
0
LINE
8
0
10
198.40002
20
2.0874634
30
-311.76917
11
200.53333
21
2.109436
31
-311.76917
0
LINE
8
0
10
200.53333
20
2.109436
30
-311.76917
11
202.66669
21
2.293457
31
-311.76917
0
LINE
8
0
10
202.66669
20
2.293457
30
-311.76917
11
204.79999
21
2.6725159
31
-311.76917
0
LINE
8
0
10
204.79999
20
2.6725159
30
-311.76917
11
206.93335
21
2.8785095
31
-311.76917
0
LINE
8
0
10
206.93335
20
2.8785095
30
-311.76917
11
209.06665
21
3.2273407
31
-311.76917
0
LINE
8
0
10
209.06665
20
3.2273407
30
-311.76917
11
211.20001
21
3.2465668
31
-311.76917
0
LINE
8
0
10
211.20001
20
3.2465668
30
-311.76917
11
213.33331
21
3.441574
31
-311.76917
0
LINE
8
0
10
213.33331
20
3.441574
30
-311.76917
11
215.46667
21
3.4937592
31
-311.76917
0
LINE
8
0
10
215.46667
20
3.4937592
30
-311.76917
11
217.59998
21
3.5679169
31
-311.76917
0
LINE
8
0
10
217.59998
20
3.5679169
30
-311.76917
11
219.73334
21
3.6695404
31
-311.76917
0
LINE
8
0
10
219.73334
20
3.6695404
30
-311.76917
11
221.8667
21
3.2987518
31
-311.76917
0
LINE
8
0
10
221.8667
20
3.2987518
30
-311.76917
11
224.0
21
3.1504211
31
-311.76917
0
LINE
8
0
10
224.0
20
3.1504211
30
-311.76917
11
226.13336
21
2.7411804
31
-311.76917
0
LINE
8
0
10
226.13336
20
2.7411804
30
-311.76917
11
228.26666
21
2.3648682
31
-311.76917
0
LINE
8
0
10
228.26666
20
2.3648682
30
-311.76917
11
230.40002
21
2.208313
31
-311.76917
0
LINE
8
0
10
230.40002
20
2.208313
30
-311.76917
11
232.53333
21
1.9748535
31
-311.76917
0
LINE
8
0
10
232.53333
20
1.9748535
30
-311.76917
11
234.66669
21
1.2772064
31
-311.76917
0
LINE
8
0
10
234.66669
20
1.2772064
30
-311.76917
11
236.79999
21
0.6811676
31
-311.76917
0
LINE
8
0
10
236.79999
20
0.6811676
30
-311.76917
11
238.93335
21
0.2581787
31
-311.76917
0
LINE
8
0
10
238.93335
20
0.2581787
30
-311.76917
11
241.06665
21
-0.087890625
31
-311.76917
0
LINE
8
0
10
241.06665
20
-0.087890625
30
-311.76917
11
243.20001
21
0.08514404
31
-311.76917
0
LINE
8
0
10
243.20001
20
0.08514404
30
-311.76917
11
245.33331
21
0.22521973
31
-311.76917
0
LINE
8
0
10
245.33331
20
0.22521973
30
-311.76917
11
247.46667
21
-0.05218506
31
-311.76917
0
LINE
8
0
10
247.46667
20
-0.05218506
30
-311.76917
11
249.59998
21
-0.678421
31
-311.76917
0
LINE
8
0
10
249.59998
20
-0.678421
30
-311.76917
11
251.73334
21
-0.95858765
31
-311.76917
0
LINE
8
0
10
251.73334
20
-0.95858765
30
-311.76917
11
253.86664
21
-0.9805603
31
-311.76917
0
LINE
8
0
10
253.86664
20
-0.9805603
30
-311.76917
11
256.0
21
-0.7718048
31
-311.76917
0
LINE
8
0
10
256.0
20
-0.7718048
30
-311.76917
11
258.1333
21
-0.7086334
31
-311.76917
0
LINE
8
0
10
258.1333
20
-0.7086334
30
-311.76917
11
260.26666
21
-0.6015167
31
-311.76917
0
LINE
8
0
10
260.26666
20
-0.6015167
30
-311.76917
11
262.40002
21
-0.20326233
31
-311.76917
0
LINE
8
0
10
262.40002
20
-0.20326233
30
-311.76917
11
264.53333
21
0.28289795
31
-311.76917
0
LINE
8
0
10
264.53333
20
0.28289795
30
-311.76917
11
266.6667
21
1.3046722
31
-311.76917
0
LINE
8
0
10
266.6667
20
1.3046722
30
-311.76917
11
268.8
21
2.3291626
31
-311.76917
0
LINE
8
0
10
268.8
20
2.3291626
30
-311.76917
11
270.93335
21
3.3976288
31
-311.76917
0
LINE
8
0
10
270.93335
20
3.3976288
30
-311.76917
11
273.06665
21
4.4605713
31
-311.76917
0
LINE
8
0
10
273.06665
20
4.4605713
30
-311.76917
11
275.2
21
5.7377777
31
-311.76917
0
LINE
8
0
10
275.2
20
5.7377777
30
-311.76917
11
277.3333
21
7.4214935
31
-311.76917
0
LINE
8
0
10
277.3333
20
7.4214935
30
-311.76917
11
279.46667
21
9.2535095
31
-311.76917
0
LINE
8
0
10
279.46667
20
9.2535095
30
-311.76917
11
281.59998
21
10.665298
31
-311.76917
0
LINE
8
0
10
281.59998
20
10.665298
30
-311.76917
11
283.73334
21
11.750244
31
-311.76917
0
LINE
8
0
10
283.73334
20
11.750244
30
-311.76917
11
285.86664
21
12.950516
31
-311.76917
0
LINE
8
0
10
285.86664
20
12.950516
30
-311.76917
11
288.0
21
13.997009
31
-311.76917
0
LINE
8
0
10
288.0
20
13.997009
30
-311.76917
11
290.1333
21
14.837494
31
-311.76917
0
LINE
8
0
10
290.1333
20
14.837494
30
-311.76917
11
292.26666
21
15.645004
31
-311.76917
0
LINE
8
0
10
292.26666
20
15.645004
30
-311.76917
11
294.39996
21
16.067993
31
-311.76917
0
LINE
8
0
10
294.39996
20
16.067993
30
-311.76917
11
296.53333
21
16.040527
31
-311.76917
0
LINE
8
0
10
296.53333
20
16.040527
30
-311.76917
11
298.66663
21
16.403076
31
-311.76917
0
LINE
8
0
10
298.66663
20
16.403076
30
-311.76917
11
300.80005
21
16.136658
31
-311.76917
0
LINE
8
0
10
300.80005
20
16.136658
30
-311.76917
11
302.93335
21
15.419785
31
-311.76917
0
LINE
8
0
10
302.93335
20
15.419785
30
-311.76917
11
305.06665
21
14.755096
31
-311.76917
0
LINE
8
0
10
305.06665
20
14.755096
30
-311.76917
11
307.2
21
13.626205
31
-311.76917
0
LINE
8
0
10
307.2
20
13.626205
30
-311.76917
11
309.33337
21
12.318802
31
-311.76917
0
LINE
8
0
10
309.33337
20
12.318802
30
-311.76917
11
311.46667
21
10.89328
31
-311.76917
0
LINE
8
0
10
311.46667
20
10.89328
30
-311.76917
11
313.59998
21
9.3414
31
-311.76917
0
LINE
8
0
10
313.59998
20
9.3414
30
-311.76917
11
315.73334
21
7.4681854
31
-311.76917
0
LINE
8
0
10
315.73334
20
7.4681854
30
-311.76917
11
317.8667
21
5.089569
31
-311.76917
0
ENDSEC
0
EOF
