0
SECTION
2
ENTITIES
0
LINE
8
0
10
-320.0
20
-7.759323
30
-311.76917
11
-317.86667
21
-8.717926
31
-311.76917
0
LINE
8
0
10
-317.86667
20
-8.717926
30
-311.76917
11
-315.73334
21
-9.569382
31
-311.76917
0
LINE
8
0
10
-315.73334
20
-9.569382
30
-311.76917
11
-313.6
21
-10.21759
31
-311.76917
0
LINE
8
0
10
-313.6
20
-10.21759
30
-311.76917
11
-311.46667
21
-10.61586
31
-311.76917
0
LINE
8
0
10
-311.46667
20
-10.61586
30
-311.76917
11
-309.33334
21
-10.937225
31
-311.76917
0
LINE
8
0
10
-309.33334
20
-10.937225
30
-311.76917
11
-307.2
21
-11.176178
31
-311.76917
0
LINE
8
0
10
-307.2
20
-11.176178
30
-311.76917
11
-305.06668
21
-11.198151
31
-311.76917
0
LINE
8
0
10
-305.06668
20
-11.198151
30
-311.76917
11
-302.93332
21
-11.003143
31
-311.76917
0
LINE
8
0
10
-302.93332
20
-11.003143
30
-311.76917
11
-300.8
21
-10.679031
31
-311.76917
0
LINE
8
0
10
-300.8
20
-10.679031
30
-311.76917
11
-298.66666
21
-10.124207
31
-311.76917
0
LINE
8
0
10
-298.66666
20
-10.124207
30
-311.76917
11
-296.53333
21
-9.366135
31
-311.76917
0
LINE
8
0
10
-296.53333
20
-9.366135
30
-311.76917
11
-294.4
21
-8.6080475
31
-311.76917
0
LINE
8
0
10
-294.4
20
-8.6080475
30
-311.76917
11
-292.26666
21
-7.7373505
31
-311.76917
0
LINE
8
0
10
-292.26666
20
-7.7373505
30
-311.76917
11
-290.13333
21
-6.6881256
31
-311.76917
0
LINE
8
0
10
-290.13333
20
-6.6881256
30
-311.76917
11
-288.0
21
-5.4768524
31
-311.76917
0
LINE
8
0
10
-288.0
20
-5.4768524
30
-311.76917
11
-285.86667
21
-4.1776733
31
-311.76917
0
LINE
8
0
10
-285.86667
20
-4.1776733
30
-311.76917
11
-283.73334
21
-2.875763
31
-311.76917
0
LINE
8
0
10
-283.73334
20
-2.875763
30
-311.76917
11
-281.6
21
-1.5710907
31
-311.76917
0
LINE
8
0
10
-281.6
20
-1.5710907
30
-311.76917
11
-279.46667
21
-0.3131256
31
-311.76917
0
LINE
8
0
10
-279.46667
20
-0.3131256
30
-311.76917
11
-277.33334
21
0.9558258
31
-311.76917
0
LINE
8
0
10
-277.33334
20
0.9558258
30
-311.76917
11
-275.2
21
2.2330322
31
-311.76917
0
LINE
8
0
10
-275.2
20
2.2330322
30
-311.76917
11
-273.06668
21
3.4278412
31
-311.76917
0
LINE
8
0
10
-273.06668
20
3.4278412
30
-311.76917
11
-270.93335
21
4.5319824
31
-311.76917
0
LINE
8
0
10
-270.93335
20
4.5319824
30
-311.76917
11
-268.8
21
5.5619965
31
-311.76917
0
LINE
8
0
10
-268.8
20
5.5619965
30
-311.76917
11
-266.66666
21
6.4903717
31
-311.76917
0
LINE
8
0
10
-266.66666
20
6.4903717
30
-311.76917
11
-264.53333
21
7.317108
31
-311.76917
0
LINE
8
0
10
-264.53333
20
7.317108
30
-311.76917
11
-262.4
21
8.042221
31
-311.76917
0
LINE
8
0
10
-262.4
20
8.042221
30
-311.76917
11
-260.26666
21
8.62178
31
-311.76917
0
LINE
8
0
10
-260.26666
20
8.62178
30
-311.76917
11
-258.13333
21
9.063995
31
-311.76917
0
LINE
8
0
10
-258.13333
20
9.063995
30
-311.76917
11
-256.0
21
9.363373
31
-311.76917
0
LINE
8
0
10
-256.0
20
9.363373
30
-311.76917
11
-253.86667
21
9.5529175
31
-311.76917
0
LINE
8
0
10
-253.86667
20
9.5529175
30
-311.76917
11
-251.73334
21
9.635315
31
-311.76917
0
LINE
8
0
10
-251.73334
20
9.635315
30
-311.76917
11
-249.6
21
9.58313
31
-311.76917
0
LINE
8
0
10
-249.6
20
9.58313
30
-311.76917
11
-247.46667
21
9.393585
31
-311.76917
0
LINE
8
0
10
-247.46667
20
9.393585
30
-311.76917
11
-245.33334
21
9.02005
31
-311.76917
0
LINE
8
0
10
-245.33334
20
9.02005
30
-311.76917
11
-243.20001
21
8.402054
31
-311.76917
0
LINE
8
0
10
-243.20001
20
8.402054
30
-311.76917
11
-241.06667
21
7.561569
31
-311.76917
0
LINE
8
0
10
-241.06667
20
7.561569
30
-311.76917
11
-238.93333
21
6.5919952
31
-311.76917
0
LINE
8
0
10
-238.93333
20
6.5919952
30
-311.76917
11
-236.8
21
5.4960785
31
-311.76917
0
LINE
8
0
10
-236.8
20
5.4960785
30
-311.76917
11
-234.66666
21
4.28479
31
-311.76917
0
LINE
8
0
10
-234.66666
20
4.28479
30
-311.76917
11
-232.53333
21
2.993866
31
-311.76917
0
LINE
8
0
10
-232.53333
20
2.993866
30
-311.76917
11
-230.4
21
1.6287689
31
-311.76917
0
LINE
8
0
10
-230.4
20
1.6287689
30
-311.76917
11
-228.26666
21
0.2911377
31
-311.76917
0
LINE
8
0
10
-228.26666
20
0.2911377
30
-311.76917
11
-226.13333
21
-1.0492249
31
-311.76917
0
LINE
8
0
10
-226.13333
20
-1.0492249
30
-311.76917
11
-224.0
21
-2.4308014
31
-311.76917
0
LINE
8
0
10
-224.0
20
-2.4308014
30
-311.76917
11
-221.86667
21
-3.8041382
31
-311.76917
0
LINE
8
0
10
-221.86667
20
-3.8041382
30
-311.76917
11
-219.73334
21
-5.2214203
31
-311.76917
0
LINE
8
0
10
-219.73334
20
-5.2214203
30
-311.76917
11
-217.6
21
-6.5700226
31
-311.76917
0
LINE
8
0
10
-217.6
20
-6.5700226
30
-311.76917
11
-215.46667
21
-7.7620697
31
-311.76917
0
LINE
8
0
10
-215.46667
20
-7.7620697
30
-311.76917
11
-213.33333
21
-8.863495
31
-311.76917
0
LINE
8
0
10
-213.33333
20
-8.863495
30
-311.76917
11
-211.2
21
-9.931946
31
-311.76917
0
LINE
8
0
10
-211.2
20
-9.931946
30
-311.76917
11
-209.06667
21
-10.983917
31
-311.76917
0
LINE
8
0
10
-209.06667
20
-10.983917
30
-311.76917
11
-206.93333
21
-11.958984
31
-311.76917
0
LINE
8
0
10
-206.93333
20
-11.958984
30
-311.76917
11
-204.79999
21
-12.829666
31
-311.76917
0
LINE
8
0
10
-204.79999
20
-12.829666
30
-311.76917
11
-202.66666
21
-13.593246
31
-311.76917
0
LINE
8
0
10
-202.66666
20
-13.593246
30
-311.76917
11
-200.53333
21
-14.2057495
31
-311.76917
0
LINE
8
0
10
-200.53333
20
-14.2057495
30
-311.76917
11
-198.4
21
-14.579315
31
-311.76917
0
LINE
8
0
10
-198.4
20
-14.579315
30
-311.76917
11
-196.26666
21
-14.782562
31
-311.76917
0
LINE
8
0
10
-196.26666
20
-14.782562
30
-311.76917
11
-194.13333
21
-14.859467
31
-311.76917
0
LINE
8
0
10
-194.13333
20
-14.859467
30
-311.76917
11
-192.0
21
-14.713898
31
-311.76917
0
LINE
8
0
10
-192.0
20
-14.713898
30
-311.76917
11
-189.86667
21
-14.36232
31
-311.76917
0
LINE
8
0
10
-189.86667
20
-14.36232
30
-311.76917
11
-187.73334
21
-13.848679
31
-311.76917
0
LINE
8
0
10
-187.73334
20
-13.848679
30
-311.76917
11
-185.6
21
-13.159271
31
-311.76917
0
LINE
8
0
10
-185.6
20
-13.159271
30
-311.76917
11
-183.46666
21
-12.351761
31
-311.76917
0
LINE
8
0
10
-183.46666
20
-12.351761
30
-311.76917
11
-181.33333
21
-11.486557
31
-311.76917
0
LINE
8
0
10
-181.33333
20
-11.486557
30
-311.76917
11
-179.2
21
-10.486771
31
-311.76917
0
LINE
8
0
10
-179.2
20
-10.486771
30
-311.76917
11
-177.06667
21
-9.269989
31
-311.76917
0
LINE
8
0
10
-177.06667
20
-9.269989
30
-311.76917
11
-174.93333
21
-7.833481
31
-311.76917
0
LINE
8
0
10
-174.93333
20
-7.833481
30
-311.76917
11
-172.8
21
-6.2733917
31
-311.76917
0
LINE
8
0
10
-172.8
20
-6.2733917
30
-311.76917
11
-170.66667
21
-4.603409
31
-311.76917
0
LINE
8
0
10
-170.66667
20
-4.603409
30
-311.76917
11
-168.53334
21
-2.941681
31
-311.76917
0
LINE
8
0
10
-168.53334
20
-2.941681
30
-311.76917
11
-166.40001
21
-1.3596039
31
-311.76917
0
LINE
8
0
10
-166.40001
20
-1.3596039
30
-311.76917
11
-164.26666
21
0.31585693
31
-311.76917
0
LINE
8
0
10
-164.26666
20
0.31585693
30
-311.76917
11
-162.13333
21
2.161621
31
-311.76917
0
LINE
8
0
10
-162.13333
20
2.161621
30
-311.76917
11
-160.0
21
3.864563
31
-311.76917
0
LINE
8
0
10
-160.0
20
3.864563
30
-311.76917
11
-157.86667
21
5.380722
31
-311.76917
0
LINE
8
0
10
-157.86667
20
5.380722
30
-311.76917
11
-155.73334
21
6.7677917
31
-311.76917
0
LINE
8
0
10
-155.73334
20
6.7677917
30
-311.76917
11
-153.6
21
8.2070465
31
-311.76917
0
LINE
8
0
10
-153.6
20
8.2070465
30
-311.76917
11
-151.46667
21
9.577637
31
-311.76917
0
LINE
8
0
10
-151.46667
20
9.577637
30
-311.76917
11
-149.33333
21
10.744949
31
-311.76917
0
LINE
8
0
10
-149.33333
20
10.744949
30
-311.76917
11
-147.2
21
11.862854
31
-311.76917
0
LINE
8
0
10
-147.2
20
11.862854
30
-311.76917
11
-145.06667
21
12.70607
31
-311.76917
0
LINE
8
0
10
-145.06667
20
12.70607
30
-311.76917
11
-142.93333
21
13.549301
31
-311.76917
0
LINE
8
0
10
-142.93333
20
13.549301
30
-311.76917
11
-140.8
21
14.4721985
31
-311.76917
0
LINE
8
0
10
-140.8
20
14.4721985
30
-311.76917
11
-138.66667
21
15.312668
31
-311.76917
0
LINE
8
0
10
-138.66667
20
15.312668
30
-311.76917
11
-136.53334
21
15.916931
31
-311.76917
0
LINE
8
0
10
-136.53334
20
15.916931
30
-311.76917
11
-134.40001
21
16.282227
31
-311.76917
0
LINE
8
0
10
-134.40001
20
16.282227
30
-311.76917
11
-132.26668
21
16.452515
31
-311.76917
0
LINE
8
0
10
-132.26668
20
16.452515
30
-311.76917
11
-130.13335
21
16.466248
31
-311.76917
0
LINE
8
0
10
-130.13335
20
16.466248
30
-311.76917
11
-128.0
21
16.331665
31
-311.76917
0
LINE
8
0
10
-128.0
20
16.331665
30
-311.76917
11
-125.86667
21
16.057007
31
-311.76917
0
LINE
8
0
10
-125.86667
20
16.057007
30
-311.76917
11
-123.73334
21
15.469223
31
-311.76917
0
LINE
8
0
10
-123.73334
20
15.469223
30
-311.76917
11
-121.600006
21
14.529877
31
-311.76917
0
LINE
8
0
10
-121.600006
20
14.529877
30
-311.76917
11
-119.466675
21
13.510849
31
-311.76917
0
LINE
8
0
10
-119.466675
20
13.510849
30
-311.76917
11
-117.33334
21
12.533035
31
-311.76917
0
LINE
8
0
10
-117.33334
20
12.533035
30
-311.76917
11
-115.20001
21
11.596405
31
-311.76917
0
LINE
8
0
10
-115.20001
20
11.596405
30
-311.76917
11
-113.06668
21
10.451065
31
-311.76917
0
LINE
8
0
10
-113.06668
20
10.451065
30
-311.76917
11
-110.93335
21
9.077728
31
-311.76917
0
LINE
8
0
10
-110.93335
20
9.077728
30
-311.76917
11
-108.79999
21
7.5341034
31
-311.76917
0
LINE
8
0
10
-108.79999
20
7.5341034
30
-311.76917
11
-106.66666
21
6.10585
31
-311.76917
0
LINE
8
0
10
-106.66666
20
6.10585
30
-311.76917
11
-104.533325
21
4.801178
31
-311.76917
0
LINE
8
0
10
-104.533325
20
4.801178
30
-311.76917
11
-102.399994
21
3.5239716
31
-311.76917
0
LINE
8
0
10
-102.399994
20
3.5239716
30
-311.76917
11
-100.26666
21
2.0957031
31
-311.76917
0
LINE
8
0
10
-100.26666
20
2.0957031
30
-311.76917
11
-98.13333
21
0.5740509
31
-311.76917
0
LINE
8
0
10
-98.13333
20
0.5740509
30
-311.76917
11
-96.0
21
-0.88168335
31
-311.76917
0
LINE
8
0
10
-96.0
20
-0.88168335
30
-311.76917
11
-93.86667
21
-2.123169
31
-311.76917
0
LINE
8
0
10
-93.86667
20
-2.123169
30
-311.76917
11
-91.73334
21
-3.2355652
31
-311.76917
0
LINE
8
0
10
-91.73334
20
-3.2355652
30
-311.76917
11
-89.59999
21
-4.411148
31
-311.76917
0
LINE
8
0
10
-89.59999
20
-4.411148
30
-311.76917
11
-87.46666
21
-5.531784
31
-311.76917
0
LINE
8
0
10
-87.46666
20
-5.531784
30
-311.76917
11
-85.33333
21
-6.520584
31
-311.76917
0
LINE
8
0
10
-85.33333
20
-6.520584
30
-311.76917
11
-83.2
21
-7.413254
31
-311.76917
0
LINE
8
0
10
-83.2
20
-7.413254
30
-311.76917
11
-81.066666
21
-8.108154
31
-311.76917
0
LINE
8
0
10
-81.066666
20
-8.108154
30
-311.76917
11
-78.933334
21
-8.646515
31
-311.76917
0
LINE
8
0
10
-78.933334
20
-8.646515
30
-311.76917
11
-76.8
21
-9.121674
31
-311.76917
0
LINE
8
0
10
-76.8
20
-9.121674
30
-311.76917
11
-74.66667
21
-9.374374
31
-311.76917
0
LINE
8
0
10
-74.66667
20
-9.374374
30
-311.76917
11
-72.53334
21
-9.605087
31
-311.76917
0
LINE
8
0
10
-72.53334
20
-9.605087
30
-311.76917
11
-70.40001
21
-9.660034
31
-311.76917
0
LINE
8
0
10
-70.40001
20
-9.660034
30
-311.76917
11
-68.26666
21
-9.388107
31
-311.76917
0
LINE
8
0
10
-68.26666
20
-9.388107
30
-311.76917
11
-66.13333
21
-8.940399
31
-311.76917
0
LINE
8
0
10
-66.13333
20
-8.940399
30
-311.76917
11
-64.0
21
-8.402054
31
-311.76917
0
LINE
8
0
10
-64.0
20
-8.402054
30
-311.76917
11
-61.86667
21
-7.734604
31
-311.76917
0
LINE
8
0
10
-61.86667
20
-7.734604
30
-311.76917
11
-59.733337
21
-6.92984
31
-311.76917
0
LINE
8
0
10
-59.733337
20
-6.92984
30
-311.76917
11
-57.600006
21
-6.0371704
31
-311.76917
0
LINE
8
0
10
-57.600006
20
-6.0371704
30
-311.76917
11
-55.466675
21
-4.9632263
31
-311.76917
0
LINE
8
0
10
-55.466675
20
-4.9632263
30
-311.76917
11
-53.333344
21
-3.845337
31
-311.76917
0
LINE
8
0
10
-53.333344
20
-3.845337
30
-311.76917
11
-51.200012
21
-2.7054749
31
-311.76917
0
LINE
8
0
10
-51.200012
20
-2.7054749
30
-311.76917
11
-49.06665
21
-1.5573578
31
-311.76917
0
LINE
8
0
10
-49.06665
20
-1.5573578
30
-311.76917
11
-46.93332
21
-0.4504547
31
-311.76917
0
LINE
8
0
10
-46.93332
20
-0.4504547
30
-311.76917
11
-44.799988
21
0.6839142
31
-311.76917
0
LINE
8
0
10
-44.799988
20
0.6839142
30
-311.76917
11
-42.666656
21
1.7770996
31
-311.76917
0
LINE
8
0
10
-42.666656
20
1.7770996
30
-311.76917
11
-40.533325
21
2.8565369
31
-311.76917
0
LINE
8
0
10
-40.533325
20
2.8565369
30
-311.76917
11
-38.399994
21
3.8398285
31
-311.76917
0
LINE
8
0
10
-38.399994
20
3.8398285
30
-311.76917
11
-36.266663
21
4.73526
31
-311.76917
0
LINE
8
0
10
-36.266663
20
4.73526
30
-311.76917
11
-34.13333
21
5.605942
31
-311.76917
0
LINE
8
0
10
-34.13333
20
5.605942
30
-311.76917
11
-32.0
21
6.3612823
31
-311.76917
0
LINE
8
0
10
-32.0
20
6.3612823
30
-311.76917
11
-29.866669
21
7.0726624
31
-311.76917
0
LINE
8
0
10
-29.866669
20
7.0726624
30
-311.76917
11
-27.733337
21
7.6659393
31
-311.76917
0
LINE
8
0
10
-27.733337
20
7.6659393
30
-311.76917
11
-25.600006
21
8.061447
31
-311.76917
0
LINE
8
0
10
-25.600006
20
8.061447
30
-311.76917
11
-23.466675
21
8.30867
31
-311.76917
0
LINE
8
0
10
-23.466675
20
8.30867
30
-311.76917
11
-21.333344
21
8.454239
31
-311.76917
0
LINE
8
0
10
-21.333344
20
8.454239
30
-311.76917
11
-19.200012
21
8.514664
31
-311.76917
0
LINE
8
0
10
-19.200012
20
8.514664
30
-311.76917
11
-17.06668
21
8.495438
31
-311.76917
0
LINE
8
0
10
-17.06668
20
8.495438
30
-311.76917
11
-14.93335
21
8.333389
31
-311.76917
0
LINE
8
0
10
-14.93335
20
8.333389
30
-311.76917
11
-12.800018
21
7.984543
31
-311.76917
0
LINE
8
0
10
-12.800018
20
7.984543
30
-311.76917
11
-10.666687
21
7.4819183
31
-311.76917
0
LINE
8
0
10
-10.666687
20
7.4819183
30
-311.76917
11
-8.533325
21
6.798004
31
-311.76917
0
LINE
8
0
10
-8.533325
20
6.798004
30
-311.76917
11
-6.399994
21
5.9575043
31
-311.76917
0
LINE
8
0
10
-6.399994
20
5.9575043
30
-311.76917
11
-4.2666626
21
4.9165344
31
-311.76917
0
LINE
8
0
10
-4.2666626
20
4.9165344
30
-311.76917
11
-2.1333313
21
3.7546844
31
-311.76917
0
LINE
8
0
10
-2.1333313
20
3.7546844
30
-311.76917
11
0.0
21
2.5818787
31
-311.76917
0
LINE
8
0
10
0.0
20
2.5818787
30
-311.76917
11
2.1333313
21
1.3376312
31
-311.76917
0
LINE
8
0
10
2.1333313
20
1.3376312
30
-311.76917
11
4.2666626
21
0.024719238
31
-311.76917
0
LINE
8
0
10
4.2666626
20
0.024719238
30
-311.76917
11
6.399994
21
-1.3403778
31
-311.76917
0
LINE
8
0
10
6.399994
20
-1.3403778
30
-311.76917
11
8.533325
21
-2.6560364
31
-311.76917
0
LINE
8
0
10
8.533325
20
-2.6560364
30
-311.76917
11
10.6666565
21
-3.9881592
31
-311.76917
0
LINE
8
0
10
10.6666565
20
-3.9881592
30
-311.76917
11
12.799988
21
-5.290085
31
-311.76917
0
LINE
8
0
10
12.799988
20
-5.290085
30
-311.76917
11
14.933319
21
-6.528824
31
-311.76917
0
LINE
8
0
10
14.933319
20
-6.528824
30
-311.76917
11
17.06665
21
-7.7043915
31
-311.76917
0
LINE
8
0
10
17.06665
20
-7.7043915
30
-311.76917
11
19.199982
21
-8.808563
31
-311.76917
0
LINE
8
0
10
19.199982
20
-8.808563
30
-311.76917
11
21.333344
21
-9.816589
31
-311.76917
0
LINE
8
0
10
21.333344
20
-9.816589
30
-311.76917
11
23.466675
21
-10.701004
31
-311.76917
0
LINE
8
0
10
23.466675
20
-10.701004
30
-311.76917
11
25.600006
21
-11.533249
31
-311.76917
0
LINE
8
0
10
25.600006
20
-11.533249
30
-311.76917
11
27.733337
21
-12.332535
31
-311.76917
0
LINE
8
0
10
27.733337
20
-12.332535
30
-311.76917
11
29.866669
21
-13.07962
31
-311.76917
0
LINE
8
0
10
29.866669
20
-13.07962
30
-311.76917
11
32.0
21
-13.758041
31
-311.76917
0
LINE
8
0
10
32.0
20
-13.758041
30
-311.76917
11
34.13333
21
-14.274429
31
-311.76917
0
LINE
8
0
10
34.13333
20
-14.274429
30
-311.76917
11
36.266663
21
-14.587555
31
-311.76917
0
LINE
8
0
10
36.266663
20
-14.587555
30
-311.76917
11
38.399994
21
-14.733124
31
-311.76917
0
LINE
8
0
10
38.399994
20
-14.733124
30
-311.76917
11
40.533325
21
-14.6232605
31
-311.76917
0
LINE
8
0
10
40.533325
20
-14.6232605
30
-311.76917
11
42.666656
21
-14.406265
31
-311.76917
0
LINE
8
0
10
42.666656
20
-14.406265
30
-311.76917
11
44.799988
21
-13.983276
31
-311.76917
0
LINE
8
0
10
44.799988
20
-13.983276
30
-311.76917
11
46.93332
21
-13.428452
31
-311.76917
0
LINE
8
0
10
46.93332
20
-13.428452
30
-311.76917
11
49.06665
21
-12.752762
31
-311.76917
0
LINE
8
0
10
49.06665
20
-12.752762
30
-311.76917
11
51.19998
21
-11.920532
31
-311.76917
0
LINE
8
0
10
51.19998
20
-11.920532
30
-311.76917
11
53.333313
21
-10.983917
31
-311.76917
0
LINE
8
0
10
53.333313
20
-10.983917
30
-311.76917
11
55.466644
21
-9.866028
31
-311.76917
0
LINE
8
0
10
55.466644
20
-9.866028
30
-311.76917
11
57.599976
21
-8.671234
31
-311.76917
0
LINE
8
0
10
57.599976
20
-8.671234
30
-311.76917
11
59.733307
21
-7.344589
31
-311.76917
0
LINE
8
0
10
59.733307
20
-7.344589
30
-311.76917
11
61.8667
21
-5.8531494
31
-311.76917
0
LINE
8
0
10
61.8667
20
-5.8531494
30
-311.76917
11
64.0
21
-4.227112
31
-311.76917
0
LINE
8
0
10
64.0
20
-4.227112
30
-311.76917
11
66.13336
21
-2.6120758
31
-311.76917
0
LINE
8
0
10
66.13336
20
-2.6120758
30
-311.76917
11
68.26666
21
-1.0464783
31
-311.76917
0
LINE
8
0
10
68.26666
20
-1.0464783
30
-311.76917
11
70.400024
21
0.47517395
31
-311.76917
0
LINE
8
0
10
70.400024
20
0.47517395
30
-311.76917
11
72.533325
21
1.9858398
31
-311.76917
0
LINE
8
0
10
72.533325
20
1.9858398
30
-311.76917
11
74.66669
21
3.5184784
31
-311.76917
0
LINE
8
0
10
74.66669
20
3.5184784
30
-311.76917
11
76.79999
21
4.985199
31
-311.76917
0
LINE
8
0
10
76.79999
20
4.985199
30
-311.76917
11
78.93335
21
6.355789
31
-311.76917
0
LINE
8
0
10
78.93335
20
6.355789
30
-311.76917
11
81.06665
21
7.64946
31
-311.76917
0
LINE
8
0
10
81.06665
20
7.64946
30
-311.76917
11
83.20001
21
8.827789
31
-311.76917
0
LINE
8
0
10
83.20001
20
8.827789
30
-311.76917
11
85.33331
21
9.940186
31
-311.76917
0
LINE
8
0
10
85.33331
20
9.940186
30
-311.76917
11
87.466675
21
10.953705
31
-311.76917
0
LINE
8
0
10
87.466675
20
10.953705
30
-311.76917
11
89.599976
21
11.742004
31
-311.76917
0
LINE
8
0
10
89.599976
20
11.742004
30
-311.76917
11
91.73334
21
12.464371
31
-311.76917
0
LINE
8
0
10
91.73334
20
12.464371
30
-311.76917
11
93.86664
21
13.291122
31
-311.76917
0
LINE
8
0
10
93.86664
20
13.291122
30
-311.76917
11
96.0
21
14.005249
31
-311.76917
0
LINE
8
0
10
96.0
20
14.005249
30
-311.76917
11
98.1333
21
14.549103
31
-311.76917
0
LINE
8
0
10
98.1333
20
14.549103
30
-311.76917
11
100.26669
21
14.779816
31
-311.76917
0
LINE
8
0
10
100.26669
20
14.779816
30
-311.76917
11
102.400024
21
14.917145
31
-311.76917
0
LINE
8
0
10
102.400024
20
14.917145
30
-311.76917
11
104.533356
21
15.131393
31
-311.76917
0
LINE
8
0
10
104.533356
20
15.131393
30
-311.76917
11
106.66669
21
14.708405
31
-311.76917
0
LINE
8
0
10
106.66669
20
14.708405
30
-311.76917
11
108.80002
21
14.381531
31
-311.76917
0
LINE
8
0
10
108.80002
20
14.381531
30
-311.76917
11
110.93335
21
13.675644
31
-311.76917
0
LINE
8
0
10
110.93335
20
13.675644
30
-311.76917
11
113.06668
21
12.675858
31
-311.76917
0
LINE
8
0
10
113.06668
20
12.675858
30
-311.76917
11
115.20001
21
12.024902
31
-311.76917
0
LINE
8
0
10
115.20001
20
12.024902
30
-311.76917
11
117.33334
21
11.077301
31
-311.76917
0
LINE
8
0
10
117.33334
20
11.077301
30
-311.76917
11
119.466675
21
10.253311
31
-311.76917
0
LINE
8
0
10
119.466675
20
10.253311
30
-311.76917
11
121.600006
21
9.044769
31
-311.76917
0
LINE
8
0
10
121.600006
20
9.044769
30
-311.76917
11
123.73334
21
7.8224945
31
-311.76917
0
LINE
8
0
10
123.73334
20
7.8224945
30
-311.76917
11
125.86667
21
6.468399
31
-311.76917
0
LINE
8
0
10
125.86667
20
6.468399
30
-311.76917
11
128.0
21
5.031891
31
-311.76917
0
LINE
8
0
10
128.0
20
5.031891
30
-311.76917
11
130.13333
21
3.9524536
31
-311.76917
0
LINE
8
0
10
130.13333
20
3.9524536
30
-311.76917
11
132.26666
21
2.8565369
31
-311.76917
0
LINE
8
0
10
132.26666
20
2.8565369
30
-311.76917
11
134.4
21
1.5848236
31
-311.76917
0
LINE
8
0
10
134.4
20
1.5848236
30
-311.76917
11
136.53333
21
0.19226074
31
-311.76917
0
LINE
8
0
10
136.53333
20
0.19226074
30
-311.76917
11
138.66666
21
-1.0272522
31
-311.76917
0
LINE
8
0
10
138.66666
20
-1.0272522
30
-311.76917
11
140.80002
21
-2.1726074
31
-311.76917
0
LINE
8
0
10
140.80002
20
-2.1726074
30
-311.76917
11
142.93335
21
-3.2218323
31
-311.76917
0
LINE
8
0
10
142.93335
20
-3.2218323
30
-311.76917
11
145.06668
21
-4.1886597
31
-311.76917
0
LINE
8
0
10
145.06668
20
-4.1886597
30
-311.76917
11
147.20001
21
-5.0154114
31
-311.76917
0
LINE
8
0
10
147.20001
20
-5.0154114
30
-311.76917
11
149.33334
21
-5.9712524
31
-311.76917
0
LINE
8
0
10
149.33334
20
-5.9712524
30
-311.76917
11
151.46667
21
-6.9847717
31
-311.76917
0
LINE
8
0
10
151.46667
20
-6.9847717
30
-311.76917
11
153.6
21
-7.8087616
31
-311.76917
0
LINE
8
0
10
153.6
20
-7.8087616
30
-311.76917
11
155.73334
21
-8.270218
31
-311.76917
0
LINE
8
0
10
155.73334
20
-8.270218
30
-311.76917
11
157.86667
21
-8.055969
31
-311.76917
0
LINE
8
0
10
157.86667
20
-8.055969
30
-311.76917
11
160.0
21
-8.0477295
31
-311.76917
0
LINE
8
0
10
160.0
20
-8.0477295
30
-311.76917
11
162.13333
21
-8.355362
31
-311.76917
0
LINE
8
0
10
162.13333
20
-8.355362
30
-311.76917
11
164.26666
21
-8.591568
31
-311.76917
0
LINE
8
0
10
164.26666
20
-8.591568
30
-311.76917
11
166.4
21
-8.792084
31
-311.76917
0
LINE
8
0
10
166.4
20
-8.792084
30
-311.76917
11
168.53333
21
-8.1658325
31
-311.76917
0
LINE
8
0
10
168.53333
20
-8.1658325
30
-311.76917
11
170.66666
21
-7.300644
31
-311.76917
0
LINE
8
0
10
170.66666
20
-7.300644
30
-311.76917
11
172.79999
21
-6.572769
31
-311.76917
0
LINE
8
0
10
172.79999
20
-6.572769
30
-311.76917
11
174.93332
21
-5.8668823
31
-311.76917
0
LINE
8
0
10
174.93332
20
-5.8668823
30
-311.76917
11
177.06665
21
-5.4438934
31
-311.76917
0
LINE
8
0
10
177.06665
20
-5.4438934
30
-311.76917
11
179.19998
21
-4.7105255
31
-311.76917
0
LINE
8
0
10
179.19998
20
-4.7105255
30
-311.76917
11
181.33334
21
-3.4965057
31
-311.76917
0
LINE
8
0
10
181.33334
20
-3.4965057
30
-311.76917
11
183.46667
21
-2.2357788
31
-311.76917
0
LINE
8
0
10
183.46667
20
-2.2357788
30
-311.76917
11
185.6
21
-1.0766907
31
-311.76917
0
LINE
8
0
10
185.6
20
-1.0766907
30
-311.76917
11
187.73334
21
-0.38179016
31
-311.76917
0
LINE
8
0
10
187.73334
20
-0.38179016
30
-311.76917
11
189.86667
21
0.032958984
31
-311.76917
0
LINE
8
0
10
189.86667
20
0.032958984
30
-311.76917
11
192.0
21
0.92836
31
-311.76917
0
LINE
8
0
10
192.0
20
0.92836
30
-311.76917
11
194.13336
21
2.3236694
31
-311.76917
0
LINE
8
0
10
194.13336
20
2.3236694
30
-311.76917
11
196.26666
21
3.5486908
31
-311.76917
0
LINE
8
0
10
196.26666
20
3.5486908
30
-311.76917
11
198.40002
21
4.364441
31
-311.76917
0
LINE
8
0
10
198.40002
20
4.364441
30
-311.76917
11
200.53333
21
4.6199036
31
-311.76917
0
LINE
8
0
10
200.53333
20
4.6199036
30
-311.76917
11
202.66669
21
4.710541
31
-311.76917
0
LINE
8
0
10
202.66669
20
4.710541
30
-311.76917
11
204.79999
21
5.2571106
31
-311.76917
0
LINE
8
0
10
204.79999
20
5.2571106
30
-311.76917
11
206.93335
21
5.8888397
31
-311.76917
0
LINE
8
0
10
206.93335
20
5.8888397
30
-311.76917
11
209.06665
21
6.7156067
31
-311.76917
0
LINE
8
0
10
209.06665
20
6.7156067
30
-311.76917
11
211.20001
21
7.04245
31
-311.76917
0
LINE
8
0
10
211.20001
20
7.04245
30
-311.76917
11
213.33331
21
6.6496735
31
-311.76917
0
LINE
8
0
10
213.33331
20
6.6496735
30
-311.76917
11
215.46667
21
6.388748
31
-311.76917
0
LINE
8
0
10
215.46667
20
6.388748
30
-311.76917
11
217.59998
21
6.317337
31
-311.76917
0
LINE
8
0
10
217.59998
20
6.317337
30
-311.76917
11
219.73334
21
6.2761383
31
-311.76917
0
LINE
8
0
10
219.73334
20
6.2761383
30
-311.76917
11
221.8667
21
6.2816315
31
-311.76917
0
LINE
8
0
10
221.8667
20
6.2816315
30
-311.76917
11
224.0
21
5.8448944
31
-311.76917
0
LINE
8
0
10
224.0
20
5.8448944
30
-311.76917
11
226.13336
21
5.0154114
31
-311.76917
0
LINE
8
0
10
226.13336
20
5.0154114
30
-311.76917
11
228.26666
21
4.1254883
31
-311.76917
0
LINE
8
0
10
228.26666
20
4.1254883
30
-311.76917
11
230.40002
21
3.0405579
31
-311.76917
0
LINE
8
0
10
230.40002
20
3.0405579
30
-311.76917
11
232.53333
21
2.0133057
31
-311.76917
0
LINE
8
0
10
232.53333
20
2.0133057
30
-311.76917
11
234.66669
21
1.0052643
31
-311.76917
0
LINE
8
0
10
234.66669
20
1.0052643
30
-311.76917
11
236.79999
21
-0.101623535
31
-311.76917
0
LINE
8
0
10
236.79999
20
-0.101623535
30
-311.76917
11
238.93335
21
-1.3541107
31
-311.76917
0
LINE
8
0
10
238.93335
20
-1.3541107
30
-311.76917
11
241.06665
21
-2.570877
31
-311.76917
0
LINE
8
0
10
241.06665
20
-2.570877
30
-311.76917
11
243.20001
21
-3.7162476
31
-311.76917
0
LINE
8
0
10
243.20001
20
-3.7162476
30
-311.76917
11
245.33331
21
-4.768219
31
-311.76917
0
LINE
8
0
10
245.33331
20
-4.768219
30
-311.76917
11
247.46667
21
-5.6938324
31
-311.76917
0
LINE
8
0
10
247.46667
20
-5.6938324
30
-311.76917
11
249.59998
21
-6.7485504
31
-311.76917
0
LINE
8
0
10
249.59998
20
-6.7485504
30
-311.76917
11
251.73334
21
-7.8609467
31
-311.76917
0
LINE
8
0
10
251.73334
20
-7.8609467
30
-311.76917
11
253.86664
21
-8.81955
31
-311.76917
0
LINE
8
0
10
253.86664
20
-8.81955
30
-311.76917
11
256.0
21
-9.717712
31
-311.76917
0
LINE
8
0
10
256.0
20
-9.717712
30
-311.76917
11
258.1333
21
-10.451065
31
-311.76917
0
LINE
8
0
10
258.1333
20
-10.451065
30
-311.76917
11
260.26666
21
-11.115753
31
-311.76917
0
LINE
8
0
10
260.26666
20
-11.115753
30
-311.76917
11
262.40002
21
-11.810669
31
-311.76917
0
LINE
8
0
10
262.40002
20
-11.810669
30
-311.76917
11
264.53333
21
-12.403946
31
-311.76917
0
LINE
8
0
10
264.53333
20
-12.403946
30
-311.76917
11
266.6667
21
-12.986237
31
-311.76917
0
LINE
8
0
10
266.6667
20
-12.986237
30
-311.76917
11
268.8
21
-13.491623
31
-311.76917
0
LINE
8
0
10
268.8
20
-13.491623
30
-311.76917
11
270.93335
21
-13.749802
31
-311.76917
0
LINE
8
0
10
270.93335
20
-13.749802
30
-311.76917
11
273.06665
21
-13.760788
31
-311.76917
0
LINE
8
0
10
273.06665
20
-13.760788
30
-311.76917
11
275.2
21
-13.6783905
31
-311.76917
0
LINE
8
0
10
275.2
20
-13.6783905
30
-311.76917
11
277.3333
21
-13.313095
31
-311.76917
0
LINE
8
0
10
277.3333
20
-13.313095
30
-311.76917
11
279.46667
21
-12.813187
31
-311.76917
0
LINE
8
0
10
279.46667
20
-12.813187
30
-311.76917
11
281.59998
21
-12.178726
31
-311.76917
0
LINE
8
0
10
281.59998
20
-12.178726
30
-311.76917
11
283.73334
21
-11.481064
31
-311.76917
0
LINE
8
0
10
283.73334
20
-11.481064
30
-311.76917
11
285.86664
21
-10.802643
31
-311.76917
0
LINE
8
0
10
285.86664
20
-10.802643
30
-311.76917
11
288.0
21
-9.874268
31
-311.76917
0
LINE
8
0
10
288.0
20
-9.874268
30
-311.76917
11
290.1333
21
-8.954132
31
-311.76917
0
LINE
8
0
10
290.1333
20
-8.954132
30
-311.76917
11
292.26666
21
-7.973572
31
-311.76917
0
LINE
8
0
10
292.26666
20
-7.973572
30
-311.76917
11
294.39996
21
-6.6771393
31
-311.76917
0
LINE
8
0
10
294.39996
20
-6.6771393
30
-311.76917
11
296.53333
21
-5.177475
31
-311.76917
0
LINE
8
0
10
296.53333
20
-5.177475
30
-311.76917
11
298.66663
21
-3.6832733
31
-311.76917
0
LINE
8
0
10
298.66663
20
-3.6832733
30
-311.76917
11
300.80005
21
-2.2632446
31
-311.76917
0
LINE
8
0
10
300.80005
20
-2.2632446
30
-311.76917
11
302.93335
21
-0.9393616
31
-311.76917
0
LINE
8
0
10
302.93335
20
-0.9393616
30
-311.76917
11
305.06665
21
0.38453674
31
-311.76917
0
LINE
8
0
10
305.06665
20
0.38453674
30
-311.76917
11
307.2
21
1.7688599
31
-311.76917
0
LINE
8
0
10
307.2
20
1.7688599
30
-311.76917
11
309.33337
21
3.2163544
31
-311.76917
0
LINE
8
0
10
309.33337
20
3.2163544
30
-311.76917
11
311.46667
21
4.63089
31
-311.76917
0
LINE
8
0
10
311.46667
20
4.63089
30
-311.76917
11
313.59998
21
5.9245453
31
-311.76917
0
LINE
8
0
10
313.59998
20
5.9245453
30
-311.76917
11
315.73334
21
7.0451965
31
-311.76917
0
LINE
8
0
10
315.73334
20
7.0451965
30
-311.76917
11
317.8667
21
8.044968
31
-311.76917
0
ENDSEC
0
EOF
