0
SECTION
2
ENTITIES
0
3DFACE
8
0
10
161.0
20
181.0
30
0.0
11
160.0
21
181.0
31
0.0
12
160.0
22
167.0
32
0.0
13
160.0001
23
167.0001
33
1.0E-4
0
3DFACE
8
0
10
160.0
20
167.0
30
0.0
11
161.0
21
181.0
31
0.0
12
161.0
22
167.0
32
0.0
13
161.0001
23
167.0001
33
1.0E-4
0
3DFACE
8
0
10
160.63004
20
166.71898
30
0.0
11
160.32101
21
167.67003
31
0.0
12
147.04427
22
163.35616
32
0.0
13
147.04437
23
163.35626
33
1.0E-4
0
3DFACE
8
0
10
147.04427
20
163.35616
30
0.0
11
160.63004
21
166.71898
31
0.0
12
147.35329
22
162.40509
32
0.0
13
147.3534
23
162.4052
33
1.0E-4
0
3DFACE
8
0
10
147.35329
20
163.66516
30
0.0
11
147.04427
21
162.71411
31
0.0
12
160.32101
22
158.40022
32
0.0
13
160.32112
23
158.40033
33
1.0E-4
0
3DFACE
8
0
10
160.32101
20
158.40022
30
0.0
11
147.35329
21
163.66516
31
0.0
12
160.63004
22
159.35129
32
0.0
13
160.63014
23
159.3514
33
1.0E-4
0
3DFACE
8
0
10
159.3016
20
158.91965
30
0.0
11
160.11061
21
158.33186
31
0.0
12
168.3161
22
169.62573
32
0.0
13
168.31621
23
169.62584
33
1.0E-4
0
3DFACE
8
0
10
168.3161
20
169.62573
30
0.0
11
159.3016
21
158.91965
31
0.0
12
167.50708
22
170.21352
32
0.0
13
167.50719
23
170.21362
33
1.0E-4
0
3DFACE
8
0
10
167.29668
20
170.14516
30
0.0
11
166.98766
21
169.1941
31
0.0
12
180.2644
22
164.88022
32
0.0
13
180.26451
23
164.88033
33
1.0E-4
0
3DFACE
8
0
10
180.2644
20
164.88022
30
0.0
11
167.29668
21
170.14516
31
0.0
12
180.57343
22
165.83128
32
0.0
13
180.57353
23
165.83139
33
1.0E-4
0
3DFACE
8
0
10
180.44339
20
166.01025
30
0.0
11
179.44339
21
166.01025
31
0.0
12
179.44339
22
152.05025
32
0.0
13
179.4435
23
152.05035
33
1.0E-4
0
3DFACE
8
0
10
179.44339
20
152.05025
30
0.0
11
180.44339
21
166.01025
31
0.0
12
180.44339
22
152.05025
32
0.0
13
180.4435
23
152.05035
33
1.0E-4
0
3DFACE
8
0
10
180.57343
20
152.22923
30
0.0
11
180.2644
21
153.18028
31
0.0
12
166.98766
22
148.86641
32
0.0
13
166.98776
23
148.86652
33
1.0E-4
0
3DFACE
8
0
10
166.98766
20
148.86641
30
0.0
11
180.57343
21
152.22923
31
0.0
12
167.29668
22
147.91534
32
0.0
13
167.29678
23
147.91545
33
1.0E-4
0
3DFACE
8
0
10
167.50708
20
147.84698
30
0.0
11
168.31609
21
148.43477
31
0.0
12
160.11061
22
159.72864
32
0.0
13
160.11072
23
159.72874
33
1.0E-4
0
3DFACE
8
0
10
160.11061
20
159.72864
30
0.0
11
167.50708
21
147.84698
31
0.0
12
159.30159
22
159.14085
32
0.0
13
159.3017
23
159.14096
33
1.0E-4
0
3DFACE
8
0
10
160.5
20
159.53024
30
0.0
11
159.5
21
159.53024
31
0.0
12
159.5
22
145.57024
32
0.0
13
159.5001
23
145.57034
33
1.0E-4
0
3DFACE
8
0
10
159.5
20
145.57024
30
0.0
11
160.5
21
159.53024
31
0.0
12
160.5
22
145.57024
32
0.0
13
160.5001
23
145.57034
33
1.0E-4
0
3DFACE
8
0
10
159.67899
20
146.70027
30
0.0
11
159.36996
21
145.74922
31
0.0
12
172.64671
22
141.43533
32
0.0
13
172.64682
23
141.43544
33
1.0E-4
0
3DFACE
8
0
10
172.64671
20
141.43533
30
0.0
11
159.67899
21
146.70027
31
0.0
12
172.95573
22
142.3864
32
0.0
13
172.95584
23
142.3865
33
1.0E-4
0
3DFACE
8
0
10
172.8257
20
142.56537
30
0.0
11
171.8257
21
142.56537
31
0.0
12
171.8257
22
128.60536
32
0.0
13
171.8258
23
128.60547
33
1.0E-4
0
3DFACE
8
0
10
171.8257
20
128.60536
30
0.0
11
172.8257
21
142.56537
31
0.0
12
172.8257
22
128.60536
32
0.0
13
172.8258
23
128.60547
33
1.0E-4
0
3DFACE
8
0
10
172.95573
20
128.78435
30
0.0
11
172.64671
21
129.7354
31
0.0
12
159.36996
22
125.421524
32
0.0
13
159.37007
23
125.42162
33
1.0E-4
0
3DFACE
8
0
10
159.36996
20
125.421524
30
0.0
11
172.95573
21
128.78435
31
0.0
12
159.67899
22
124.47047
32
0.0
13
159.6791
23
124.470566
33
1.0E-4
0
3DFACE
8
0
10
159.67899
20
125.73054
30
0.0
11
159.36996
21
124.77948
31
0.0
12
172.64671
22
120.46561
32
0.0
13
172.64682
23
120.465706
33
1.0E-4
0
3DFACE
8
0
10
172.64671
20
120.46561
30
0.0
11
159.67899
21
125.73054
31
0.0
12
172.95573
22
121.41666
32
0.0
13
172.95584
23
121.416756
33
1.0E-4
0
3DFACE
8
0
10
172.8257
20
121.59564
30
0.0
11
171.8257
21
121.59564
31
0.0
12
171.8257
22
107.635635
32
0.0
13
171.8258
23
107.635735
33
1.0E-4
0
3DFACE
8
0
10
171.8257
20
107.635635
30
0.0
11
172.8257
21
121.59564
31
0.0
12
172.8257
22
107.635635
32
0.0
13
172.8258
23
107.635735
33
1.0E-4
0
3DFACE
8
0
10
171.6273
20
108.02502
30
0.0
11
172.43631
21
107.43723
31
0.0
12
180.6418
22
118.73112
32
0.0
13
180.6419
23
118.73122
33
1.0E-4
0
3DFACE
8
0
10
180.6418
20
118.73112
30
0.0
11
171.6273
21
108.02502
31
0.0
12
179.83278
22
119.3189
32
0.0
13
179.83289
23
119.319
33
1.0E-4
0
3DFACE
8
0
10
179.8328
20
117.9221
30
0.0
11
180.6418
21
118.50988
31
0.0
12
172.43633
22
129.80377
32
0.0
13
172.43643
23
129.80388
33
1.0E-4
0
3DFACE
8
0
10
172.43633
20
129.80377
30
0.0
11
179.8328
21
117.9221
31
0.0
12
171.6273
22
129.21597
32
0.0
13
171.62741
23
129.21608
33
1.0E-4
0
3DFACE
8
0
10
171.6273
20
128.99475
30
0.0
11
172.43631
21
128.40697
31
0.0
12
180.6418
22
139.70084
32
0.0
13
180.6419
23
139.70094
33
1.0E-4
0
3DFACE
8
0
10
180.6418
20
139.70084
30
0.0
11
171.6273
21
128.99475
31
0.0
12
179.83278
22
140.28864
32
0.0
13
179.83289
23
140.28874
33
1.0E-4
0
3DFACE
8
0
10
179.62239
20
140.22026
30
0.0
11
179.31337
21
139.26921
31
0.0
12
192.59012
22
134.95532
32
0.0
13
192.59023
23
134.95543
33
1.0E-4
0
3DFACE
8
0
10
192.59012
20
134.95532
30
0.0
11
179.62239
21
140.22026
31
0.0
12
192.89914
22
135.90639
32
0.0
13
192.89925
23
135.9065
33
1.0E-4
0
3DFACE
8
0
10
191.57071
20
135.47475
30
0.0
11
192.37971
21
134.88696
31
0.0
12
200.5852
22
146.18085
32
0.0
13
200.58531
23
146.18095
33
1.0E-4
0
3DFACE
8
0
10
200.5852
20
146.18085
30
0.0
11
191.57071
21
135.47475
31
0.0
12
199.77618
22
146.76863
32
0.0
13
199.77629
23
146.76874
33
1.0E-4
0
3DFACE
8
0
10
199.5658
20
146.70026
30
0.0
11
199.25677
21
145.7492
31
0.0
12
212.53352
22
141.43532
32
0.0
13
212.53363
23
141.43542
33
1.0E-4
0
3DFACE
8
0
10
212.53352
20
141.43532
30
0.0
11
199.5658
21
146.70026
31
0.0
12
212.84254
22
142.38638
32
0.0
13
212.84265
23
142.38649
33
1.0E-4
0
3DFACE
8
0
10
212.1019
20
141.36696
30
0.0
11
212.9109
21
141.95474
31
0.0
12
204.70543
22
153.24863
32
0.0
13
204.70554
23
153.24873
33
1.0E-4
0
3DFACE
8
0
10
204.70543
20
153.24863
30
0.0
11
212.1019
21
141.36696
31
0.0
12
203.89641
22
152.66083
32
0.0
13
203.89651
23
152.66093
33
1.0E-4
0
3DFACE
8
0
10
205.22484
20
152.2292
30
0.0
11
204.91582
21
153.18025
31
0.0
12
191.63907
22
148.86638
32
0.0
13
191.63918
23
148.86649
33
1.0E-4
0
3DFACE
8
0
10
191.63907
20
148.86638
30
0.0
11
205.22484
21
152.2292
31
0.0
12
191.94809
22
147.91531
32
0.0
13
191.9482
23
147.91542
33
1.0E-4
0
3DFACE
8
0
10
192.1585
20
147.84695
30
0.0
11
192.9675
21
148.43474
31
0.0
12
184.76202
22
159.72862
32
0.0
13
184.76213
23
159.72873
33
1.0E-4
0
3DFACE
8
0
10
184.76202
20
159.72862
30
0.0
11
192.1585
21
147.84695
31
0.0
12
183.953
22
159.14084
32
0.0
13
183.95311
23
159.14095
33
1.0E-4
0
3DFACE
8
0
10
183.953
20
158.9196
30
0.0
11
184.76201
21
158.33182
31
0.0
12
192.9675
22
169.6257
32
0.0
13
192.9676
23
169.62581
33
1.0E-4
0
3DFACE
8
0
10
192.9675
20
169.6257
30
0.0
11
183.953
21
158.9196
31
0.0
12
192.15848
22
170.21349
32
0.0
13
192.15858
23
170.2136
33
1.0E-4
0
3DFACE
8
0
10
191.94809
20
170.14511
30
0.0
11
191.63907
21
169.19406
31
0.0
12
204.91583
22
164.88017
32
0.0
13
204.91594
23
164.88028
33
1.0E-4
0
3DFACE
8
0
10
204.91583
20
164.88017
30
0.0
11
191.94809
21
170.14511
31
0.0
12
205.22484
22
165.83124
32
0.0
13
205.22495
23
165.83134
33
1.0E-4
0
3DFACE
8
0
10
205.0948
20
166.01021
30
0.0
11
204.0948
21
166.01021
31
0.0
12
204.0948
22
152.0502
32
0.0
13
204.09491
23
152.05031
33
1.0E-4
0
3DFACE
8
0
10
204.0948
20
152.0502
30
0.0
11
205.0948
21
166.01021
31
0.0
12
205.0948
22
152.0502
32
0.0
13
205.09491
23
152.05031
33
1.0E-4
0
3DFACE
8
0
10
203.89641
20
152.43959
30
0.0
11
204.70541
21
151.8518
31
0.0
12
212.9109
22
163.14569
32
0.0
13
212.91101
23
163.1458
33
1.0E-4
0
3DFACE
8
0
10
212.9109
20
163.14569
30
0.0
11
203.89641
21
152.43959
31
0.0
12
212.10188
22
163.73347
32
0.0
13
212.10199
23
163.73358
33
1.0E-4
0
3DFACE
8
0
10
212.1019
20
162.33667
30
0.0
11
212.9109
21
162.92445
31
0.0
12
204.70541
22
174.21834
32
0.0
13
204.70552
23
174.21844
33
1.0E-4
0
3DFACE
8
0
10
204.70541
20
174.21834
30
0.0
11
212.1019
21
162.33667
31
0.0
12
203.89641
22
173.63055
32
0.0
13
203.89651
23
173.63066
33
1.0E-4
0
3DFACE
8
0
10
203.89641
20
173.40932
30
0.0
11
204.70541
21
172.82153
31
0.0
12
212.9109
22
184.11542
32
0.0
13
212.91101
23
184.11552
33
1.0E-4
0
3DFACE
8
0
10
212.9109
20
184.11542
30
0.0
11
203.89641
21
173.40932
31
0.0
12
212.10188
22
184.7032
32
0.0
13
212.10199
23
184.70331
33
1.0E-4
0
3DFACE
8
0
10
211.8915
20
184.63483
30
0.0
11
211.58247
21
183.68378
31
0.0
12
224.85924
22
179.36989
32
0.0
13
224.85934
23
179.37
33
1.0E-4
0
3DFACE
8
0
10
224.85924
20
179.36989
30
0.0
11
211.8915
21
184.63483
31
0.0
12
225.16824
22
180.32095
32
0.0
13
225.16835
23
180.32106
33
1.0E-4
0
3DFACE
8
0
10
225.03821
20
180.49992
30
0.0
11
224.03821
21
180.49992
31
0.0
12
224.03821
22
166.53992
32
0.0
13
224.03831
23
166.54002
33
1.0E-4
0
3DFACE
8
0
10
224.03821
20
166.53992
30
0.0
11
225.03821
21
180.49992
31
0.0
12
225.03821
22
166.53992
32
0.0
13
225.03831
23
166.54002
33
1.0E-4
0
3DFACE
8
0
10
225.16824
20
166.7189
30
0.0
11
224.85922
21
167.66995
31
0.0
12
211.58247
22
163.35608
32
0.0
13
211.58258
23
163.35619
33
1.0E-4
0
3DFACE
8
0
10
211.58247
20
163.35608
30
0.0
11
225.16824
21
166.7189
31
0.0
12
211.89148
22
162.40501
32
0.0
13
211.89159
23
162.40512
33
1.0E-4
0
3DFACE
8
0
10
211.8915
20
163.66508
30
0.0
11
211.58247
21
162.71404
31
0.0
12
224.85924
22
158.40015
32
0.0
13
224.85934
23
158.40025
33
1.0E-4
0
3DFACE
8
0
10
224.85924
20
158.40015
30
0.0
11
211.8915
21
163.66508
31
0.0
12
225.16824
22
159.35121
32
0.0
13
225.16835
23
159.35132
33
1.0E-4
0
3DFACE
8
0
10
223.83981
20
158.91957
30
0.0
11
224.64882
21
158.33179
31
0.0
12
232.85431
22
169.62567
32
0.0
13
232.85442
23
169.62578
33
1.0E-4
0
3DFACE
8
0
10
232.85431
20
169.62567
30
0.0
11
223.83981
21
158.91957
31
0.0
12
232.04529
22
170.21346
32
0.0
13
232.0454
23
170.21356
33
1.0E-4
0
3DFACE
8
0
10
231.8349
20
170.14508
30
0.0
11
231.52588
21
169.19403
31
0.0
12
244.80264
22
164.88014
32
0.0
13
244.80275
23
164.88025
33
1.0E-4
0
3DFACE
8
0
10
244.80264
20
164.88014
30
0.0
11
231.8349
21
170.14508
31
0.0
12
245.11165
22
165.8312
32
0.0
13
245.11176
23
165.83131
33
1.0E-4
0
3DFACE
8
0
10
244.98161
20
166.01018
30
0.0
11
243.98161
21
166.01018
31
0.0
12
243.98161
22
152.05017
32
0.0
13
243.98172
23
152.05028
33
1.0E-4
0
3DFACE
8
0
10
243.98161
20
152.05017
30
0.0
11
244.98161
21
166.01018
31
0.0
12
244.98161
22
152.05017
32
0.0
13
244.98172
23
152.05028
33
1.0E-4
0
3DFACE
8
0
10
245.11165
20
152.22916
30
0.0
11
244.80263
21
153.1802
31
0.0
12
231.52588
22
148.86633
32
0.0
13
231.52599
23
148.86644
33
1.0E-4
0
3DFACE
8
0
10
231.52588
20
148.86633
30
0.0
11
245.11165
21
152.22916
31
0.0
12
231.83488
22
147.91527
32
0.0
13
231.83499
23
147.91537
33
1.0E-4
0
3DFACE
8
0
10
232.0453
20
147.84691
30
0.0
11
232.85431
21
148.4347
31
0.0
12
224.64883
22
159.72858
32
0.0
13
224.64894
23
159.72868
33
1.0E-4
0
3DFACE
8
0
10
224.64883
20
159.72858
30
0.0
11
232.0453
21
147.84691
31
0.0
12
223.83981
22
159.1408
32
0.0
13
223.83992
23
159.1409
33
1.0E-4
0
3DFACE
8
0
10
225.03821
20
159.53017
30
0.0
11
224.03821
21
159.53017
31
0.0
12
224.03821
22
145.57016
32
0.0
13
224.03831
23
145.57027
33
1.0E-4
0
3DFACE
8
0
10
224.03821
20
145.57016
30
0.0
11
225.03821
21
159.53017
31
0.0
12
225.03821
22
145.57016
32
0.0
13
225.03831
23
145.57027
33
1.0E-4
0
3DFACE
8
0
10
224.2172
20
146.7002
30
0.0
11
223.90817
21
145.74915
31
0.0
12
237.18494
22
141.43526
32
0.0
13
237.18504
23
141.43536
33
1.0E-4
0
3DFACE
8
0
10
237.18494
20
141.43526
30
0.0
11
224.2172
21
146.7002
31
0.0
12
237.49394
22
142.38632
32
0.0
13
237.49405
23
142.38643
33
1.0E-4
0
3DFACE
8
0
10
237.3639
20
142.56529
30
0.0
11
236.3639
21
142.56529
31
0.0
12
236.3639
22
128.60529
32
0.0
13
236.36401
23
128.6054
33
1.0E-4
0
3DFACE
8
0
10
236.3639
20
128.60529
30
0.0
11
237.3639
21
142.56529
31
0.0
12
237.3639
22
128.60529
32
0.0
13
237.36401
23
128.6054
33
1.0E-4
0
3DFACE
8
0
10
237.49394
20
128.78427
30
0.0
11
237.18492
21
129.73532
31
0.0
12
223.90817
22
125.42144
32
0.0
13
223.90828
23
125.42154
33
1.0E-4
0
3DFACE
8
0
10
223.90817
20
125.42144
30
0.0
11
237.49394
21
128.78427
31
0.0
12
224.21718
22
124.47038
32
0.0
13
224.21729
23
124.47048
33
1.0E-4
0
3DFACE
8
0
10
224.4276
20
124.402016
30
0.0
11
225.2366
21
124.9898
31
0.0
12
217.03113
22
136.28369
32
0.0
13
217.03123
23
136.2838
33
1.0E-4
0
3DFACE
8
0
10
217.03113
20
136.28369
30
0.0
11
224.4276
21
124.402016
31
0.0
12
216.2221
22
135.6959
32
0.0
13
216.22221
23
135.69601
33
1.0E-4
0
3DFACE
8
0
10
216.2221
20
135.47467
30
0.0
11
217.03111
21
134.88689
31
0.0
12
225.2366
22
146.18077
32
0.0
13
225.23671
23
146.18088
33
1.0E-4
0
3DFACE
8
0
10
225.2366
20
146.18077
30
0.0
11
216.2221
21
135.47467
31
0.0
12
224.4276
22
146.76855
32
0.0
13
224.4277
23
146.76866
33
1.0E-4
0
3DFACE
8
0
10
225.16824
20
145.74913
30
0.0
11
224.85922
21
146.70018
31
0.0
12
211.58247
22
142.3863
32
0.0
13
211.58258
23
142.38641
33
1.0E-4
0
3DFACE
8
0
10
211.58247
20
142.3863
30
0.0
11
225.16824
21
145.74913
31
0.0
12
211.89148
22
141.43524
32
0.0
13
211.89159
23
141.43535
33
1.0E-4
0
3DFACE
8
0
10
212.71251
20
142.56528
30
0.0
11
211.71251
21
142.56528
31
0.0
12
211.71251
22
128.60527
32
0.0
13
211.71262
23
128.60538
33
1.0E-4
0
3DFACE
8
0
10
211.71251
20
128.60527
30
0.0
11
212.71251
21
142.56528
31
0.0
12
212.71251
22
128.60527
32
0.0
13
212.71262
23
128.60538
33
1.0E-4
0
3DFACE
8
0
10
212.84254
20
128.78426
30
0.0
11
212.53352
21
129.7353
31
0.0
12
199.25677
22
125.421425
32
0.0
13
199.25688
23
125.421524
33
1.0E-4
0
3DFACE
8
0
10
199.25677
20
125.421425
30
0.0
11
212.84254
21
128.78426
31
0.0
12
199.56578
22
124.47037
32
0.0
13
199.56589
23
124.47047
33
1.0E-4
0
3DFACE
8
0
10
199.7762
20
124.402
30
0.0
11
200.5852
21
124.989784
31
0.0
12
192.37973
22
136.28368
32
0.0
13
192.37984
23
136.28378
33
1.0E-4
0
3DFACE
8
0
10
192.37973
20
136.28368
30
0.0
11
199.7762
21
124.402
31
0.0
12
191.57071
22
135.69589
32
0.0
13
191.57082
23
135.696
33
1.0E-4
0
3DFACE
8
0
10
192.7691
20
136.08527
30
0.0
11
191.7691
21
136.08527
31
0.0
12
191.7691
22
122.12525
32
0.0
13
191.76921
23
122.12535
33
1.0E-4
0
3DFACE
8
0
10
191.7691
20
122.12525
30
0.0
11
192.7691
21
136.08527
31
0.0
12
192.7691
22
122.12525
32
0.0
13
192.76921
23
122.12535
33
1.0E-4
0
3DFACE
8
0
10
192.89914
20
122.30423
30
0.0
11
192.59012
21
123.25529
31
0.0
12
179.31337
22
118.94141
32
0.0
13
179.31348
23
118.941505
33
1.0E-4
0
3DFACE
8
0
10
179.31337
20
118.94141
30
0.0
11
192.89914
21
122.30423
31
0.0
12
179.62238
22
117.99035
32
0.0
13
179.62248
23
117.99045
33
1.0E-4
0
3DFACE
8
0
10
179.62239
20
119.25042
30
0.0
11
179.31337
21
118.29936
31
0.0
12
192.59013
22
113.98548
32
0.0
13
192.59024
23
113.98558
33
1.0E-4
0
3DFACE
8
0
10
192.59013
20
113.98548
30
0.0
11
179.62239
21
119.25042
31
0.0
12
192.89914
22
114.93654
32
0.0
13
192.89925
23
114.93664
33
1.0E-4
0
3DFACE
8
0
10
191.57071
20
114.504906
30
0.0
11
192.37971
21
113.91712
31
0.0
12
200.5852
22
125.21101
32
0.0
13
200.58531
23
125.21111
33
1.0E-4
0
3DFACE
8
0
10
200.5852
20
125.21101
30
0.0
11
191.57071
21
114.504906
31
0.0
12
199.77618
22
125.7988
32
0.0
13
199.77629
23
125.7989
33
1.0E-4
0
3DFACE
8
0
10
199.5658
20
125.73043
30
0.0
11
199.25677
21
124.77937
31
0.0
12
212.53354
22
120.46549
32
0.0
13
212.53365
23
120.46559
33
1.0E-4
0
3DFACE
8
0
10
212.53354
20
120.46549
30
0.0
11
199.5658
21
125.73043
31
0.0
12
212.84254
22
121.41655
32
0.0
13
212.84265
23
121.41665
33
1.0E-4
0
3DFACE
8
0
10
212.71251
20
121.59553
30
0.0
11
211.71251
21
121.59553
31
0.0
12
211.71251
22
107.63551
32
0.0
13
211.71262
23
107.63561
33
1.0E-4
0
3DFACE
8
0
10
211.71251
20
107.63551
30
0.0
11
212.71251
21
121.59553
31
0.0
12
212.71251
22
107.63551
32
0.0
13
212.71262
23
107.63561
33
1.0E-4
0
3DFACE
8
0
10
211.8915
20
108.76555
30
0.0
11
211.58247
21
107.81449
31
0.0
12
224.85924
22
103.50061
32
0.0
13
224.85934
23
103.50071
33
1.0E-4
0
3DFACE
8
0
10
224.85924
20
103.50061
30
0.0
11
211.8915
21
108.76555
31
0.0
12
225.16824
22
104.45167
32
0.0
13
225.16835
23
104.45177
33
1.0E-4
0
3DFACE
8
0
10
225.03821
20
104.630646
30
0.0
11
224.03821
21
104.630646
31
0.0
12
224.03821
22
90.67063
32
0.0
13
224.03831
23
90.67073
33
1.0E-4
0
3DFACE
8
0
10
224.03821
20
90.67063
30
0.0
11
225.03821
21
104.630646
31
0.0
12
225.03821
22
90.67063
32
0.0
13
225.03831
23
90.67073
33
1.0E-4
0
3DFACE
8
0
10
223.83981
20
91.06001
30
0.0
11
224.64882
21
90.47223
31
0.0
12
232.85431
22
101.76612
32
0.0
13
232.85442
23
101.76622
33
1.0E-4
0
3DFACE
8
0
10
232.85431
20
101.76612
30
0.0
11
223.83981
21
91.06001
31
0.0
12
232.04529
22
102.353905
32
0.0
13
232.0454
23
102.354004
33
1.0E-4
0
3DFACE
8
0
10
232.0453
20
100.9571
30
0.0
11
232.85431
21
101.54488
31
0.0
12
224.64882
22
112.838776
32
0.0
13
224.64893
23
112.838875
33
1.0E-4
0
3DFACE
8
0
10
224.64882
20
112.838776
30
0.0
11
232.0453
21
100.9571
31
0.0
12
223.83981
22
112.25099
32
0.0
13
223.83992
23
112.25109
33
1.0E-4
0
3DFACE
8
0
10
223.83981
20
112.029755
30
0.0
11
224.64882
21
111.44197
31
0.0
12
232.85431
22
122.73586
32
0.0
13
232.85442
23
122.73596
33
1.0E-4
0
3DFACE
8
0
10
232.85431
20
122.73586
30
0.0
11
223.83981
21
112.029755
31
0.0
12
232.04529
22
123.32365
32
0.0
13
232.0454
23
123.323746
33
1.0E-4
0
3DFACE
8
0
10
231.8349
20
123.25528
30
0.0
11
231.52588
21
122.30422
31
0.0
12
244.80264
22
117.99034
32
0.0
13
244.80275
23
117.99044
33
1.0E-4
0
3DFACE
8
0
10
244.80264
20
117.99034
30
0.0
11
231.8349
21
123.25528
31
0.0
12
245.11165
22
118.9414
32
0.0
13
245.11176
23
118.9415
33
1.0E-4
0
3DFACE
8
0
10
244.98161
20
119.12038
30
0.0
11
243.98161
21
119.12038
31
0.0
12
243.98161
22
105.16036
32
0.0
13
243.98172
23
105.16046
33
1.0E-4
0
3DFACE
8
0
10
243.98161
20
105.16036
30
0.0
11
244.98161
21
119.12038
31
0.0
12
244.98161
22
105.16036
32
0.0
13
244.98172
23
105.16046
33
1.0E-4
0
3DFACE
8
0
10
245.11165
20
105.33934
30
0.0
11
244.80263
21
106.2904
31
0.0
12
231.52588
22
101.97652
32
0.0
13
231.52599
23
101.976616
33
1.0E-4
0
3DFACE
8
0
10
231.52588
20
101.97652
30
0.0
11
245.11165
21
105.33934
31
0.0
12
231.83488
22
101.02546
32
0.0
13
231.83499
23
101.02556
33
1.0E-4
0
3DFACE
8
0
10
231.8349
20
102.28554
30
0.0
11
231.52588
21
101.33448
31
0.0
12
244.80264
22
97.0206
32
0.0
13
244.80275
23
97.0207
33
1.0E-4
0
3DFACE
8
0
10
244.80264
20
97.0206
30
0.0
11
231.8349
21
102.28554
31
0.0
12
245.11165
22
97.97166
32
0.0
13
245.11176
23
97.971756
33
1.0E-4
0
3DFACE
8
0
10
243.78322
20
97.540016
30
0.0
11
244.59222
21
96.95223
31
0.0
12
252.79771
22
108.246124
32
0.0
13
252.79782
23
108.24622
33
1.0E-4
0
3DFACE
8
0
10
252.79771
20
108.246124
30
0.0
11
243.78322
21
97.540016
31
0.0
12
251.9887
22
108.83391
32
0.0
13
251.9888
23
108.83401
33
1.0E-4
0
3DFACE
8
0
10
251.7783
20
108.76554
30
0.0
11
251.46928
21
107.81448
31
0.0
12
264.74603
22
103.5006
32
0.0
13
264.74612
23
103.5007
33
1.0E-4
0
3DFACE
8
0
10
264.74603
20
103.5006
30
0.0
11
251.7783
21
108.76554
31
0.0
12
265.05505
22
104.45166
32
0.0
13
265.05515
23
104.45176
33
1.0E-4
0
3DFACE
8
0
10
264.92502
20
104.63064
30
0.0
11
263.92502
21
104.63064
31
0.0
12
263.92502
22
90.67062
32
0.0
13
263.9251
23
90.67072
33
1.0E-4
0
3DFACE
8
0
10
263.92502
20
90.67062
30
0.0
11
264.92502
21
104.63064
31
0.0
12
264.92502
22
90.67062
32
0.0
13
264.9251
23
90.67072
33
1.0E-4
0
3DFACE
8
0
10
265.05505
20
90.8496
30
0.0
11
264.74603
21
91.80066
31
0.0
12
251.46928
22
87.48678
32
0.0
13
251.46939
23
87.48688
33
1.0E-4
0
3DFACE
8
0
10
251.46928
20
87.48678
30
0.0
11
265.05505
21
90.8496
31
0.0
12
251.77829
22
86.53572
32
0.0
13
251.7784
23
86.53582
33
1.0E-4
0
3DFACE
8
0
10
251.98871
20
86.46736
30
0.0
11
252.79771
21
87.055145
31
0.0
12
244.59224
22
98.34904
32
0.0
13
244.59235
23
98.34914
33
1.0E-4
0
3DFACE
8
0
10
244.59224
20
98.34904
30
0.0
11
251.98871
21
86.46736
31
0.0
12
243.78322
22
97.76125
32
0.0
13
243.78333
23
97.76135
33
1.0E-4
0
3DFACE
8
0
10
244.98161
20
98.150635
30
0.0
11
243.98161
21
98.150635
31
0.0
12
243.98161
22
84.19062
32
0.0
13
243.98172
23
84.19072
33
1.0E-4
0
3DFACE
8
0
10
243.98161
20
84.19062
30
0.0
11
244.98161
21
98.150635
31
0.0
12
244.98161
22
84.19062
32
0.0
13
244.98172
23
84.19072
33
1.0E-4
0
3DFACE
8
0
10
244.1606
20
85.320656
30
0.0
11
243.85158
21
84.3696
31
0.0
12
257.12833
22
80.05572
32
0.0
13
257.12842
23
80.05582
33
1.0E-4
0
3DFACE
8
0
10
257.12833
20
80.05572
30
0.0
11
244.1606
21
85.320656
31
0.0
12
257.43735
22
81.006775
32
0.0
13
257.43744
23
81.006874
33
1.0E-4
0
3DFACE
8
0
10
257.3073
20
81.18576
30
0.0
11
256.3073
21
81.18576
31
0.0
12
256.3073
22
67.225746
32
0.0
13
256.3074
23
67.225845
33
1.0E-4
0
3DFACE
8
0
10
256.3073
20
67.225746
30
0.0
11
257.3073
21
81.18576
31
0.0
12
257.3073
22
67.225746
32
0.0
13
257.3074
23
67.225845
33
1.0E-4
0
3DFACE
8
0
10
257.43735
20
67.404724
30
0.0
11
257.12833
21
68.35578
31
0.0
12
243.85158
22
64.0419
32
0.0
13
243.85168
23
64.042
33
1.0E-4
0
3DFACE
8
0
10
243.85158
20
64.0419
30
0.0
11
257.43735
21
67.404724
31
0.0
12
244.16058
22
63.090843
32
0.0
13
244.16069
23
63.090942
33
1.0E-4
0
3DFACE
8
0
10
244.1606
20
64.35092
30
0.0
11
243.85158
21
63.399864
31
0.0
12
257.12833
22
59.085983
32
0.0
13
257.12842
23
59.086082
33
1.0E-4
0
3DFACE
8
0
10
257.12833
20
59.085983
30
0.0
11
244.1606
21
64.35092
31
0.0
12
257.43735
22
60.03704
32
0.0
13
257.43744
23
60.03714
33
1.0E-4
0
3DFACE
8
0
10
257.3073
20
60.21602
30
0.0
11
256.3073
21
60.21602
31
0.0
12
256.3073
22
46.256004
32
0.0
13
256.3074
23
46.256104
33
1.0E-4
0
3DFACE
8
0
10
256.3073
20
46.256004
30
0.0
11
257.3073
21
60.21602
31
0.0
12
257.3073
22
46.256004
32
0.0
13
257.3074
23
46.256104
33
1.0E-4
0
3DFACE
8
0
10
256.10892
20
46.645393
30
0.0
11
256.91794
21
46.057606
31
0.0
12
265.1234
22
57.351494
32
0.0
13
265.1235
23
57.351593
33
1.0E-4
0
3DFACE
8
0
10
265.1234
20
57.351494
30
0.0
11
256.10892
21
46.645393
31
0.0
12
264.3144
22
57.93928
32
0.0
13
264.31448
23
57.93938
33
1.0E-4
0
3DFACE
8
0
10
264.3144
20
56.542477
30
0.0
11
265.1234
21
57.130264
31
0.0
12
256.91794
22
68.42415
32
0.0
13
256.91803
23
68.42425
33
1.0E-4
0
3DFACE
8
0
10
256.91794
20
68.42415
30
0.0
11
264.3144
21
56.542477
31
0.0
12
256.10892
22
67.836365
32
0.0
13
256.109
23
67.836464
33
1.0E-4
0
3DFACE
8
0
10
256.10892
20
67.61513
30
0.0
11
256.91794
21
67.02734
31
0.0
12
265.1234
22
78.321236
32
0.0
13
265.1235
23
78.321335
33
1.0E-4
0
3DFACE
8
0
10
265.1234
20
78.321236
30
0.0
11
256.10892
21
67.61513
31
0.0
12
264.3144
22
78.90902
32
0.0
13
264.31448
23
78.90912
33
1.0E-4
0
3DFACE
8
0
10
264.104
20
78.84065
30
0.0
11
263.79498
21
77.889595
31
0.0
12
277.07175
22
73.575714
32
0.0
13
277.07184
23
73.57581
33
1.0E-4
0
3DFACE
8
0
10
277.07175
20
73.575714
30
0.0
11
264.104
21
78.84065
31
0.0
12
277.38077
22
74.52677
32
0.0
13
277.38086
23
74.52687
33
1.0E-4
0
3DFACE
8
0
10
277.25073
20
74.70575
30
0.0
11
276.25073
21
74.70575
31
0.0
12
276.25073
22
60.745735
32
0.0
13
276.25082
23
60.745834
33
1.0E-4
0
3DFACE
8
0
10
276.25073
20
60.745735
30
0.0
11
277.25073
21
74.70575
31
0.0
12
277.25073
22
60.745735
32
0.0
13
277.25082
23
60.745834
33
1.0E-4
0
3DFACE
8
0
10
277.38077
20
60.92472
30
0.0
11
277.07175
21
61.875774
31
0.0
12
263.79498
22
57.561897
32
0.0
13
263.79507
23
57.561996
33
1.0E-4
0
3DFACE
8
0
10
263.79498
20
57.561897
30
0.0
11
277.38077
21
60.92472
31
0.0
12
264.104
22
56.61084
32
0.0
13
264.1041
23
56.61094
33
1.0E-4
0
3DFACE
8
0
10
264.104
20
57.87091
30
0.0
11
263.79498
21
56.919857
31
0.0
12
277.07175
22
52.605972
32
0.0
13
277.07184
23
52.60607
33
1.0E-4
0
3DFACE
8
0
10
277.07175
20
52.605972
30
0.0
11
264.104
21
57.87091
31
0.0
12
277.38077
22
53.55703
32
0.0
13
277.38086
23
53.55713
33
1.0E-4
0
3DFACE
8
0
10
276.05234
20
53.125397
30
0.0
11
276.86136
21
52.53761
31
0.0
12
285.06683
22
63.831497
32
0.0
13
285.06693
23
63.831596
33
1.0E-4
0
3DFACE
8
0
10
285.06683
20
63.831497
30
0.0
11
276.05234
21
53.125397
31
0.0
12
284.2578
22
64.41928
32
0.0
13
284.2579
23
64.41938
33
1.0E-4
0
3DFACE
8
0
10
284.04742
20
64.35092
30
0.0
11
283.7384
21
63.399864
31
0.0
12
297.01517
22
59.08598
32
0.0
13
297.01526
23
59.08608
33
1.0E-4
0
3DFACE
8
0
10
297.01517
20
59.08598
30
0.0
11
284.04742
21
64.35092
31
0.0
12
297.3242
22
60.037037
32
0.0
13
297.32428
23
60.037136
33
1.0E-4
0
3DFACE
8
0
10
297.19415
20
60.21602
30
0.0
11
296.19415
21
60.21602
31
0.0
12
296.19415
22
46.256004
32
0.0
13
296.19424
23
46.256104
33
1.0E-4
0
3DFACE
8
0
10
296.19415
20
46.256004
30
0.0
11
297.19415
21
60.21602
31
0.0
12
297.19415
22
46.256004
32
0.0
13
297.19424
23
46.256104
33
1.0E-4
0
3DFACE
8
0
10
295.99576
20
46.645393
30
0.0
11
296.80478
21
46.057606
31
0.0
12
305.01025
22
57.351494
32
0.0
13
305.01035
23
57.351593
33
1.0E-4
0
3DFACE
8
0
10
305.01025
20
57.351494
30
0.0
11
295.99576
21
46.645393
31
0.0
12
304.20123
22
57.93928
32
0.0
13
304.20132
23
57.93938
33
1.0E-4
0
3DFACE
8
0
10
303.99084
20
57.87092
30
0.0
11
303.68182
21
56.91986
31
0.0
12
316.9586
22
52.605976
32
0.0
13
316.95868
23
52.606075
33
1.0E-4
0
3DFACE
8
0
10
316.9586
20
52.605976
30
0.0
11
303.99084
21
57.87092
31
0.0
12
317.2676
22
53.557034
32
0.0
13
317.2677
23
53.557133
33
1.0E-4
0
3DFACE
8
0
10
316.52695
20
52.537613
30
0.0
11
317.33597
21
53.1254
31
0.0
12
309.1305
22
64.41929
32
0.0
13
309.13058
23
64.41939
33
1.0E-4
0
3DFACE
8
0
10
309.1305
20
64.41929
30
0.0
11
316.52695
21
52.537613
31
0.0
12
308.32147
22
63.8315
32
0.0
13
308.32156
23
63.8316
33
1.0E-4
0
3DFACE
8
0
10
309.6499
20
63.399868
30
0.0
11
309.34088
21
64.35092
31
0.0
12
296.06412
22
60.03704
32
0.0
13
296.0642
23
60.03714
33
1.0E-4
0
3DFACE
8
0
10
296.06412
20
60.03704
30
0.0
11
309.6499
21
63.399868
31
0.0
12
296.37314
22
59.085983
32
0.0
13
296.37323
23
59.086082
33
1.0E-4
0
3DFACE
8
0
10
296.58353
20
59.01762
30
0.0
11
297.39255
21
59.605408
31
0.0
12
289.18707
22
70.89929
32
0.0
13
289.18716
23
70.89939
33
1.0E-4
0
3DFACE
8
0
10
289.18707
20
70.89929
30
0.0
11
296.58353
21
59.01762
31
0.0
12
288.37805
22
70.31151
32
0.0
13
288.37814
23
70.31161
33
1.0E-4
0
3DFACE
8
0
10
288.37805
20
70.09027
30
0.0
11
289.18707
21
69.50249
31
0.0
12
297.39255
22
80.79638
32
0.0
13
297.39264
23
80.79648
33
1.0E-4
0
3DFACE
8
0
10
297.39255
20
80.79638
30
0.0
11
288.37805
21
70.09027
31
0.0
12
296.58353
22
81.38416
32
0.0
13
296.58362
23
81.38426
33
1.0E-4
0
3DFACE
8
0
10
296.58353
20
79.98736
30
0.0
11
297.39255
21
80.57514
31
0.0
12
289.18707
22
91.86903
32
0.0
13
289.18716
23
91.86913
33
1.0E-4
0
3DFACE
8
0
10
289.18707
20
91.86903
30
0.0
11
296.58353
21
79.98736
31
0.0
12
288.37805
22
91.28125
32
0.0
13
288.37814
23
91.28135
33
1.0E-4
0
3DFACE
8
0
10
288.37805
20
91.06001
30
0.0
11
289.18707
21
90.47223
31
0.0
12
297.39255
22
101.76612
32
0.0
13
297.39264
23
101.76622
33
1.0E-4
0
3DFACE
8
0
10
297.39255
20
101.76612
30
0.0
11
288.37805
21
91.06001
31
0.0
12
296.58353
22
102.353905
32
0.0
13
296.58362
23
102.354004
33
1.0E-4
0
3DFACE
8
0
10
297.3242
20
101.33448
30
0.0
11
297.01517
21
102.28554
31
0.0
12
283.7384
22
97.97166
32
0.0
13
283.7385
23
97.971756
33
1.0E-4
0
3DFACE
8
0
10
283.7384
20
97.97166
30
0.0
11
297.3242
21
101.33448
31
0.0
12
284.04742
22
97.0206
32
0.0
13
284.04752
23
97.0207
33
1.0E-4
0
3DFACE
8
0
10
284.86844
20
98.150635
30
0.0
11
283.86844
21
98.150635
31
0.0
12
283.86844
22
84.19062
32
0.0
13
283.86853
23
84.19072
33
1.0E-4
0
3DFACE
8
0
10
283.86844
20
84.19062
30
0.0
11
284.86844
21
98.150635
31
0.0
12
284.86844
22
84.19062
32
0.0
13
284.86853
23
84.19072
33
1.0E-4
0
3DFACE
8
0
10
284.99847
20
84.3696
30
0.0
11
284.68945
21
85.320656
31
0.0
12
271.4127
22
81.006775
32
0.0
13
271.41278
23
81.006874
33
1.0E-4
0
3DFACE
8
0
10
271.4127
20
81.006775
30
0.0
11
284.99847
21
84.3696
31
0.0
12
271.7217
22
80.05572
32
0.0
13
271.7218
23
80.05582
33
1.0E-4
0
3DFACE
8
0
10
271.9321
20
79.98735
30
0.0
11
272.74112
21
80.575134
31
0.0
12
264.53564
22
91.869026
32
0.0
13
264.53574
23
91.869125
33
1.0E-4
0
3DFACE
8
0
10
264.53564
20
91.869026
30
0.0
11
271.9321
21
79.98735
31
0.0
12
263.72662
22
91.28124
32
0.0
13
263.7267
23
91.28134
33
1.0E-4
0
3DFACE
8
0
10
263.72662
20
91.060005
30
0.0
11
264.53564
21
90.47222
31
0.0
12
272.74112
22
101.76611
32
0.0
13
272.7412
23
101.76621
33
1.0E-4
0
3DFACE
8
0
10
272.74112
20
101.76611
30
0.0
11
263.72662
21
91.060005
31
0.0
12
271.9321
22
102.3539
32
0.0
13
271.9322
23
102.354
33
1.0E-4
0
3DFACE
8
0
10
271.7217
20
102.28553
30
0.0
11
271.4127
21
101.33447
31
0.0
12
284.68945
22
97.02059
32
0.0
13
284.68954
23
97.02069
33
1.0E-4
0
3DFACE
8
0
10
284.68945
20
97.02059
30
0.0
11
271.7217
21
102.28553
31
0.0
12
284.99847
22
97.97165
32
0.0
13
284.99857
23
97.97175
33
1.0E-4
0
3DFACE
8
0
10
284.2578
20
96.952225
30
0.0
11
285.06683
21
97.54001
31
0.0
12
276.86136
22
108.8339
32
0.0
13
276.86145
23
108.834
33
1.0E-4
0
3DFACE
8
0
10
276.86136
20
108.8339
30
0.0
11
284.2578
21
96.952225
31
0.0
12
276.05234
22
108.24612
32
0.0
13
276.05243
23
108.246216
33
1.0E-4
0
3DFACE
8
0
10
277.38077
20
107.814476
30
0.0
11
277.07175
21
108.76553
31
0.0
12
263.79498
22
104.45165
32
0.0
13
263.79507
23
104.45175
33
1.0E-4
0
3DFACE
8
0
10
263.79498
20
104.45165
30
0.0
11
277.38077
21
107.814476
31
0.0
12
264.104
22
103.500595
32
0.0
13
264.1041
23
103.500694
33
1.0E-4
0
3DFACE
8
0
10
264.3144
20
103.43223
30
0.0
11
265.1234
21
104.02001
31
0.0
12
256.91794
22
115.3139
32
0.0
13
256.91803
23
115.314
33
1.0E-4
0
3DFACE
8
0
10
256.91794
20
115.3139
30
0.0
11
264.3144
21
103.43223
31
0.0
12
256.10892
22
114.72612
32
0.0
13
256.109
23
114.72622
33
1.0E-4
0
3DFACE
8
0
10
256.10892
20
114.50488
30
0.0
11
256.91794
21
113.9171
31
0.0
12
265.1234
22
125.21099
32
0.0
13
265.1235
23
125.21109
33
1.0E-4
0
3DFACE
8
0
10
265.1234
20
125.21099
30
0.0
11
256.10892
21
114.50488
31
0.0
12
264.3144
22
125.798775
32
0.0
13
264.31448
23
125.798874
33
1.0E-4
0
3DFACE
8
0
10
264.104
20
125.73041
30
0.0
11
263.79498
21
124.77935
31
0.0
12
277.07175
22
120.46547
32
0.0
13
277.07184
23
120.46557
33
1.0E-4
0
3DFACE
8
0
10
277.07175
20
120.46547
30
0.0
11
264.104
21
125.73041
31
0.0
12
277.38077
22
121.41653
32
0.0
13
277.38086
23
121.416626
33
1.0E-4
0
3DFACE
8
0
10
277.25073
20
121.595505
30
0.0
11
276.25073
21
121.595505
31
0.0
12
276.25073
22
107.63549
32
0.0
13
276.25082
23
107.63559
33
1.0E-4
0
3DFACE
8
0
10
276.25073
20
107.63549
30
0.0
11
277.25073
21
121.595505
31
0.0
12
277.25073
22
107.63549
32
0.0
13
277.25082
23
107.63559
33
1.0E-4
0
3DFACE
8
0
10
276.05234
20
108.02487
30
0.0
11
276.86136
21
107.43709
31
0.0
12
285.06683
22
118.73098
32
0.0
13
285.06693
23
118.73108
33
1.0E-4
0
3DFACE
8
0
10
285.06683
20
118.73098
30
0.0
11
276.05234
21
108.02487
31
0.0
12
284.2578
22
119.31876
32
0.0
13
284.2579
23
119.31886
33
1.0E-4
0
3DFACE
8
0
10
284.2578
20
117.92196
30
0.0
11
285.06683
21
118.50974
31
0.0
12
276.86136
22
129.80363
32
0.0
13
276.86145
23
129.80374
33
1.0E-4
0
3DFACE
8
0
10
276.86136
20
129.80363
30
0.0
11
284.2578
21
117.92196
31
0.0
12
276.05234
22
129.21585
32
0.0
13
276.05243
23
129.21596
33
1.0E-4
0
3DFACE
8
0
10
276.05234
20
128.99461
30
0.0
11
276.86136
21
128.40683
31
0.0
12
285.06683
22
139.70071
32
0.0
13
285.06693
23
139.70082
33
1.0E-4
0
3DFACE
8
0
10
285.06683
20
139.70071
30
0.0
11
276.05234
21
128.99461
31
0.0
12
284.2578
22
140.2885
32
0.0
13
284.2579
23
140.2886
33
1.0E-4
0
3DFACE
8
0
10
284.04742
20
140.22012
30
0.0
11
283.7384
21
139.26907
31
0.0
12
297.01517
22
134.95518
32
0.0
13
297.01526
23
134.95529
33
1.0E-4
0
3DFACE
8
0
10
297.01517
20
134.95518
30
0.0
11
284.04742
21
140.22012
31
0.0
12
297.3242
22
135.90625
32
0.0
13
297.32428
23
135.90636
33
1.0E-4
0
3DFACE
8
0
10
295.99576
20
135.47461
30
0.0
11
296.80478
21
134.88683
31
0.0
12
305.01025
22
146.18071
32
0.0
13
305.01035
23
146.18082
33
1.0E-4
0
3DFACE
8
0
10
305.01025
20
146.18071
30
0.0
11
295.99576
21
135.47461
31
0.0
12
304.20123
22
146.7685
32
0.0
13
304.20132
23
146.7686
33
1.0E-4
0
3DFACE
8
0
10
303.99084
20
146.70013
30
0.0
11
303.68182
21
145.74908
31
0.0
12
316.9586
22
141.4352
32
0.0
13
316.95868
23
141.4353
33
1.0E-4
0
3DFACE
8
0
10
316.9586
20
141.4352
30
0.0
11
303.99084
21
146.70013
31
0.0
12
317.2676
22
142.38626
32
0.0
13
317.2677
23
142.38637
33
1.0E-4
0
3DFACE
8
0
10
316.52695
20
141.36684
30
0.0
11
317.33597
21
141.95462
31
0.0
12
309.1305
22
153.2485
32
0.0
13
309.13058
23
153.24861
33
1.0E-4
0
3DFACE
8
0
10
309.1305
20
153.2485
30
0.0
11
316.52695
21
141.36684
31
0.0
12
308.32147
22
152.66072
32
0.0
13
308.32156
23
152.66083
33
1.0E-4
0
3DFACE
8
0
10
309.6499
20
152.2291
30
0.0
11
309.34088
21
153.18015
31
0.0
12
296.06412
22
148.86627
32
0.0
13
296.0642
23
148.86638
33
1.0E-4
0
3DFACE
8
0
10
296.06412
20
148.86627
30
0.0
11
309.6499
21
152.2291
31
0.0
12
296.37314
22
147.9152
32
0.0
13
296.37323
23
147.91531
33
1.0E-4
0
3DFACE
8
0
10
296.58353
20
147.84685
30
0.0
11
297.39255
21
148.43463
31
0.0
12
289.18707
22
159.72852
32
0.0
13
289.18716
23
159.72862
33
1.0E-4
0
3DFACE
8
0
10
289.18707
20
159.72852
30
0.0
11
296.58353
21
147.84685
31
0.0
12
288.37805
22
159.14073
32
0.0
13
288.37814
23
159.14084
33
1.0E-4
0
3DFACE
8
0
10
288.37805
20
158.91951
30
0.0
11
289.18707
21
158.33173
31
0.0
12
297.39255
22
169.62561
32
0.0
13
297.39264
23
169.62572
33
1.0E-4
0
3DFACE
8
0
10
297.39255
20
169.62561
30
0.0
11
288.37805
21
158.91951
31
0.0
12
296.58353
22
170.2134
32
0.0
13
296.58362
23
170.2135
33
1.0E-4
0
3DFACE
8
0
10
296.37314
20
170.14502
30
0.0
11
296.06412
21
169.19397
31
0.0
12
309.34088
22
164.88008
32
0.0
13
309.34097
23
164.88019
33
1.0E-4
0
3DFACE
8
0
10
309.34088
20
164.88008
30
0.0
11
296.37314
21
170.14502
31
0.0
12
309.6499
22
165.83115
32
0.0
13
309.65
23
165.83125
33
1.0E-4
0
3DFACE
8
0
10
309.51987
20
166.01012
30
0.0
11
308.51987
21
166.01012
31
0.0
12
308.51987
22
152.05011
32
0.0
13
308.51996
23
152.05022
33
1.0E-4
0
3DFACE
8
0
10
308.51987
20
152.05011
30
0.0
11
309.51987
21
166.01012
31
0.0
12
309.51987
22
152.05011
32
0.0
13
309.51996
23
152.05022
33
1.0E-4
0
3DFACE
8
0
10
308.32147
20
152.4395
30
0.0
11
309.1305
21
151.85172
31
0.0
12
317.33597
22
163.1456
32
0.0
13
317.33606
23
163.1457
33
1.0E-4
0
3DFACE
8
0
10
317.33597
20
163.1456
30
0.0
11
308.32147
21
152.4395
31
0.0
12
316.52695
22
163.73338
32
0.0
13
316.52704
23
163.73349
33
1.0E-4
0
3DFACE
8
0
10
316.52695
20
162.33658
30
0.0
11
317.33597
21
162.92436
31
0.0
12
309.1305
22
174.21825
32
0.0
13
309.13058
23
174.21835
33
1.0E-4
0
3DFACE
8
0
10
309.1305
20
174.21825
30
0.0
11
316.52695
21
162.33658
31
0.0
12
308.32147
22
173.63046
32
0.0
13
308.32156
23
173.63057
33
1.0E-4
0
3DFACE
8
0
10
308.32147
20
173.40923
30
0.0
11
309.1305
21
172.82144
31
0.0
12
317.33597
22
184.11533
32
0.0
13
317.33606
23
184.11543
33
1.0E-4
0
3DFACE
8
0
10
317.33597
20
184.11533
30
0.0
11
308.32147
21
173.40923
31
0.0
12
316.52695
22
184.70311
32
0.0
13
316.52704
23
184.70322
33
1.0E-4
0
3DFACE
8
0
10
316.31656
20
184.63474
30
0.0
11
316.00754
21
183.68369
31
0.0
12
329.2843
22
179.3698
32
0.0
13
329.2844
23
179.3699
33
1.0E-4
0
3DFACE
8
0
10
329.2843
20
179.3698
30
0.0
11
316.31656
21
184.63474
31
0.0
12
329.59332
22
180.32086
32
0.0
13
329.5934
23
180.32097
33
1.0E-4
0
3DFACE
8
0
10
328.85266
20
179.30144
30
0.0
11
329.66168
21
179.88922
31
0.0
12
321.4562
22
191.1831
32
0.0
13
321.4563
23
191.18321
33
1.0E-4
0
3DFACE
8
0
10
321.4562
20
191.1831
30
0.0
11
328.85266
21
179.30144
31
0.0
12
320.6472
22
190.59532
32
0.0
13
320.64728
23
190.59543
33
1.0E-4
0
3DFACE
8
0
10
320.6472
20
190.3741
30
0.0
11
321.4562
21
189.78632
31
0.0
12
329.66168
22
201.0802
32
0.0
13
329.66177
23
201.0803
33
1.0E-4
0
3DFACE
8
0
10
329.66168
20
201.0802
30
0.0
11
320.6472
21
190.3741
31
0.0
12
328.85266
22
201.66798
32
0.0
13
328.85275
23
201.66809
33
1.0E-4
0
3DFACE
8
0
10
329.59332
20
200.64856
30
0.0
11
329.2843
21
201.59961
31
0.0
12
316.00754
22
197.28574
32
0.0
13
316.00763
23
197.28584
33
1.0E-4
0
3DFACE
8
0
10
316.00754
20
197.28574
30
0.0
11
329.59332
21
200.64856
31
0.0
12
316.31656
22
196.33467
32
0.0
13
316.31665
23
196.33478
33
1.0E-4
0
3DFACE
8
0
10
317.13757
20
197.4647
30
0.0
11
316.13757
21
197.4647
31
0.0
12
316.13757
22
183.5047
32
0.0
13
316.13766
23
183.5048
33
1.0E-4
0
3DFACE
8
0
10
316.13757
20
183.5047
30
0.0
11
317.13757
21
197.4647
31
0.0
12
317.13757
22
183.5047
32
0.0
13
317.13766
23
183.5048
33
1.0E-4
0
3DFACE
8
0
10
317.2676
20
183.68369
30
0.0
11
316.9586
21
184.63474
31
0.0
12
303.68182
22
180.32086
32
0.0
13
303.68192
23
180.32097
33
1.0E-4
0
3DFACE
8
0
10
303.68182
20
180.32086
30
0.0
11
317.2676
21
183.68369
31
0.0
12
303.99084
22
179.3698
32
0.0
13
303.99094
23
179.3699
33
1.0E-4
0
3DFACE
8
0
10
304.20123
20
179.30144
30
0.0
11
305.01025
21
179.88922
31
0.0
12
296.80478
22
191.1831
32
0.0
13
296.80487
23
191.18321
33
1.0E-4
0
3DFACE
8
0
10
296.80478
20
191.1831
30
0.0
11
304.20123
21
179.30144
31
0.0
12
295.99576
22
190.59532
32
0.0
13
295.99585
23
190.59543
33
1.0E-4
0
3DFACE
8
0
10
297.3242
20
190.1637
30
0.0
11
297.01517
21
191.11475
31
0.0
12
283.7384
22
186.80087
32
0.0
13
283.7385
23
186.80098
33
1.0E-4
0
3DFACE
8
0
10
283.7384
20
186.80087
30
0.0
11
297.3242
21
190.1637
31
0.0
12
284.04742
22
185.84981
32
0.0
13
284.04752
23
185.84991
33
1.0E-4
0
3DFACE
8
0
10
284.2578
20
185.78145
30
0.0
11
285.06683
21
186.36923
31
0.0
12
276.86136
22
197.66312
32
0.0
13
276.86145
23
197.66322
33
1.0E-4
0
3DFACE
8
0
10
276.86136
20
197.66312
30
0.0
11
284.2578
21
185.78145
31
0.0
12
276.05234
22
197.07533
32
0.0
13
276.05243
23
197.07544
33
1.0E-4
0
3DFACE
8
0
10
277.25073
20
197.46472
30
0.0
11
276.25073
21
197.46472
31
0.0
12
276.25073
22
183.50471
32
0.0
13
276.25082
23
183.50482
33
1.0E-4
0
3DFACE
8
0
10
276.25073
20
183.50471
30
0.0
11
277.25073
21
197.46472
31
0.0
12
277.25073
22
183.50471
32
0.0
13
277.25082
23
183.50482
33
1.0E-4
0
3DFACE
8
0
10
276.42972
20
184.63475
30
0.0
11
276.1207
21
183.6837
31
0.0
12
289.39746
22
179.36981
32
0.0
13
289.39755
23
179.36992
33
1.0E-4
0
3DFACE
8
0
10
289.39746
20
179.36981
30
0.0
11
276.42972
21
184.63475
31
0.0
12
289.70648
22
180.32088
32
0.0
13
289.70657
23
180.32098
33
1.0E-4
0
3DFACE
8
0
10
289.57645
20
180.49985
30
0.0
11
288.57645
21
180.49985
31
0.0
12
288.57645
22
166.53984
32
0.0
13
288.57654
23
166.53995
33
1.0E-4
0
3DFACE
8
0
10
288.57645
20
166.53984
30
0.0
11
289.57645
21
180.49985
31
0.0
12
289.57645
22
166.53984
32
0.0
13
289.57654
23
166.53995
33
1.0E-4
0
3DFACE
8
0
10
289.70648
20
166.71883
30
0.0
11
289.39746
21
167.66988
31
0.0
12
276.1207
22
163.356
32
0.0
13
276.1208
23
163.35611
33
1.0E-4
0
3DFACE
8
0
10
276.1207
20
163.356
30
0.0
11
289.70648
21
166.71883
31
0.0
12
276.42972
22
162.40494
32
0.0
13
276.4298
23
162.40504
33
1.0E-4
0
3DFACE
8
0
10
276.6401
20
162.33658
30
0.0
11
277.44913
21
162.92436
31
0.0
12
269.24365
22
174.21825
32
0.0
13
269.24374
23
174.21835
33
1.0E-4
0
3DFACE
8
0
10
269.24365
20
174.21825
30
0.0
11
276.6401
21
162.33658
31
0.0
12
268.43463
22
173.63046
32
0.0
13
268.43472
23
173.63057
33
1.0E-4
0
3DFACE
8
0
10
268.43463
20
173.40923
30
0.0
11
269.24365
21
172.82144
31
0.0
12
277.44913
22
184.11533
32
0.0
13
277.44922
23
184.11543
33
1.0E-4
0
3DFACE
8
0
10
277.44913
20
184.11533
30
0.0
11
268.43463
21
173.40923
31
0.0
12
276.6401
22
184.70311
32
0.0
13
276.6402
23
184.70322
33
1.0E-4
0
3DFACE
8
0
10
277.38077
20
183.68369
30
0.0
11
277.07175
21
184.63474
31
0.0
12
263.79498
22
180.32086
32
0.0
13
263.79507
23
180.32097
33
1.0E-4
0
3DFACE
8
0
10
263.79498
20
180.32086
30
0.0
11
277.38077
21
183.68369
31
0.0
12
264.104
22
179.3698
32
0.0
13
264.1041
23
179.3699
33
1.0E-4
0
3DFACE
8
0
10
264.92502
20
180.49983
30
0.0
11
263.92502
21
180.49983
31
0.0
12
263.92502
22
166.53983
32
0.0
13
263.9251
23
166.53993
33
1.0E-4
0
3DFACE
8
0
10
263.92502
20
166.53983
30
0.0
11
264.92502
21
180.49983
31
0.0
12
264.92502
22
166.53983
32
0.0
13
264.9251
23
166.53993
33
1.0E-4
0
3DFACE
8
0
10
265.05505
20
166.71881
30
0.0
11
264.74603
21
167.66986
31
0.0
12
251.46927
22
163.35599
32
0.0
13
251.46938
23
163.3561
33
1.0E-4
0
3DFACE
8
0
10
251.46927
20
163.35599
30
0.0
11
265.05505
21
166.71881
31
0.0
12
251.77829
22
162.40492
32
0.0
13
251.7784
23
162.40503
33
1.0E-4
0
3DFACE
8
0
10
251.98871
20
162.33656
30
0.0
11
252.79771
21
162.92435
31
0.0
12
244.59222
22
174.21823
32
0.0
13
244.59233
23
174.21834
33
1.0E-4
0
3DFACE
8
0
10
244.59222
20
174.21823
30
0.0
11
251.98871
21
162.33656
31
0.0
12
243.78322
22
173.63045
32
0.0
13
243.78333
23
173.63055
33
1.0E-4
0
3DFACE
8
0
10
243.78322
20
173.40923
30
0.0
11
244.59222
21
172.82144
31
0.0
12
252.79771
22
184.11533
32
0.0
13
252.79782
23
184.11543
33
1.0E-4
0
3DFACE
8
0
10
252.79771
20
184.11533
30
0.0
11
243.78322
21
173.40923
31
0.0
12
251.98871
22
184.70311
32
0.0
13
251.98882
23
184.70322
33
1.0E-4
0
3DFACE
8
0
10
251.7783
20
184.63474
30
0.0
11
251.46928
21
183.68369
31
0.0
12
264.74603
22
179.3698
32
0.0
13
264.74612
23
179.3699
33
1.0E-4
0
3DFACE
8
0
10
264.74603
20
179.3698
30
0.0
11
251.7783
21
184.63474
31
0.0
12
265.05505
22
180.32086
32
0.0
13
265.05515
23
180.32097
33
1.0E-4
0
3DFACE
8
0
10
264.3144
20
179.30144
30
0.0
11
265.1234
21
179.88922
31
0.0
12
256.91794
22
191.1831
32
0.0
13
256.91803
23
191.18321
33
1.0E-4
0
3DFACE
8
0
10
256.91794
20
191.1831
30
0.0
11
264.3144
21
179.30144
31
0.0
12
256.10892
22
190.59532
32
0.0
13
256.109
23
190.59543
33
1.0E-4
0
3DFACE
8
0
10
257.43735
20
190.1637
30
0.0
11
257.12833
21
191.11475
31
0.0
12
243.85156
22
186.80087
32
0.0
13
243.85167
23
186.80098
33
1.0E-4
0
3DFACE
8
0
10
243.85156
20
186.80087
30
0.0
11
257.43735
21
190.1637
31
0.0
12
244.16058
22
185.84981
32
0.0
13
244.16069
23
185.84991
33
1.0E-4
0
3DFACE
8
0
10
244.371
20
185.78145
30
0.0
11
245.18001
21
186.36923
31
0.0
12
236.97452
22
197.66312
32
0.0
13
236.97462
23
197.66322
33
1.0E-4
0
3DFACE
8
0
10
236.97452
20
197.66312
30
0.0
11
244.371
21
185.78145
31
0.0
12
236.16551
22
197.07533
32
0.0
13
236.16562
23
197.07544
33
1.0E-4
0
3DFACE
8
0
10
236.16551
20
196.85411
30
0.0
11
236.97452
21
196.26633
31
0.0
12
245.18001
22
207.56021
32
0.0
13
245.18011
23
207.56032
33
1.0E-4
0
3DFACE
8
0
10
245.18001
20
207.56021
30
0.0
11
236.16551
21
196.85411
31
0.0
12
244.371
22
208.148
32
0.0
13
244.37111
23
208.1481
33
1.0E-4
0
3DFACE
8
0
10
244.1606
20
208.07962
30
0.0
11
243.85158
21
207.12857
31
0.0
12
257.12833
22
202.81468
32
0.0
13
257.12842
23
202.81479
33
1.0E-4
0
3DFACE
8
0
10
257.12833
20
202.81468
30
0.0
11
244.1606
21
208.07962
31
0.0
12
257.43735
22
203.76575
32
0.0
13
257.43744
23
203.76585
33
1.0E-4
0
3DFACE
8
0
10
257.3073
20
203.94472
30
0.0
11
256.3073
21
203.94472
31
0.0
12
256.3073
22
189.98471
32
0.0
13
256.3074
23
189.98482
33
1.0E-4
0
3DFACE
8
0
10
256.3073
20
189.98471
30
0.0
11
257.3073
21
203.94472
31
0.0
12
257.3073
22
189.98471
32
0.0
13
257.3074
23
189.98482
33
1.0E-4
0
3DFACE
8
0
10
256.10892
20
190.3741
30
0.0
11
256.91794
21
189.78632
31
0.0
12
265.1234
22
201.0802
32
0.0
13
265.1235
23
201.0803
33
1.0E-4
0
3DFACE
8
0
10
265.1234
20
201.0802
30
0.0
11
256.10892
21
190.3741
31
0.0
12
264.3144
22
201.66798
32
0.0
13
264.31448
23
201.66809
33
1.0E-4
0
3DFACE
8
0
10
264.3144
20
200.27118
30
0.0
11
265.1234
21
200.85896
31
0.0
12
256.91794
22
212.15285
32
0.0
13
256.91803
23
212.15295
33
1.0E-4
0
3DFACE
8
0
10
256.91794
20
212.15285
30
0.0
11
264.3144
21
200.27118
31
0.0
12
256.10892
22
211.56506
32
0.0
13
256.109
23
211.56517
33
1.0E-4
0
3DFACE
8
0
10
256.10892
20
211.34383
30
0.0
11
256.91794
21
210.75604
31
0.0
12
265.1234
22
222.04993
32
0.0
13
265.1235
23
222.05003
33
1.0E-4
0
3DFACE
8
0
10
265.1234
20
222.04993
30
0.0
11
256.10892
21
211.34383
31
0.0
12
264.3144
22
222.63771
32
0.0
13
264.31448
23
222.63782
33
1.0E-4
0
3DFACE
8
0
10
264.104
20
222.56934
30
0.0
11
263.79498
21
221.61829
31
0.0
12
277.07175
22
217.3044
32
0.0
13
277.07184
23
217.3045
33
1.0E-4
0
3DFACE
8
0
10
277.07175
20
217.3044
30
0.0
11
264.104
21
222.56934
31
0.0
12
277.38077
22
218.25546
32
0.0
13
277.38086
23
218.25557
33
1.0E-4
0
3DFACE
8
0
10
277.25073
20
218.43443
30
0.0
11
276.25073
21
218.43443
31
0.0
12
276.25073
22
204.47443
32
0.0
13
276.25082
23
204.47453
33
1.0E-4
0
3DFACE
8
0
10
276.25073
20
204.47443
30
0.0
11
277.25073
21
218.43443
31
0.0
12
277.25073
22
204.47443
32
0.0
13
277.25082
23
204.47453
33
1.0E-4
0
3DFACE
8
0
10
277.38077
20
204.65341
30
0.0
11
277.07175
21
205.60446
31
0.0
12
263.79498
22
201.29059
32
0.0
13
263.79507
23
201.2907
33
1.0E-4
0
3DFACE
8
0
10
263.79498
20
201.29059
30
0.0
11
277.38077
21
204.65341
31
0.0
12
264.104
22
200.33952
32
0.0
13
264.1041
23
200.33963
33
1.0E-4
0
3DFACE
8
0
10
264.104
20
201.5996
30
0.0
11
263.79498
21
200.64854
31
0.0
12
277.07175
22
196.33466
32
0.0
13
277.07184
23
196.33476
33
1.0E-4
0
3DFACE
8
0
10
277.07175
20
196.33466
30
0.0
11
264.104
21
201.5996
31
0.0
12
277.38077
22
197.28572
32
0.0
13
277.38086
23
197.28583
33
1.0E-4
0
3DFACE
8
0
10
276.05234
20
196.85408
30
0.0
11
276.86136
21
196.2663
31
0.0
12
285.06683
22
207.56018
32
0.0
13
285.06693
23
207.56029
33
1.0E-4
0
3DFACE
8
0
10
285.06683
20
207.56018
30
0.0
11
276.05234
21
196.85408
31
0.0
12
284.2578
22
208.14796
32
0.0
13
284.2579
23
208.14807
33
1.0E-4
0
3DFACE
8
0
10
284.04742
20
208.07959
30
0.0
11
283.7384
21
207.12854
31
0.0
12
297.01517
22
202.81465
32
0.0
13
297.01526
23
202.81476
33
1.0E-4
0
3DFACE
8
0
10
297.01517
20
202.81465
30
0.0
11
284.04742
21
208.07959
31
0.0
12
297.3242
22
203.76572
32
0.0
13
297.32428
23
203.76582
33
1.0E-4
0
3DFACE
8
0
10
297.19415
20
203.94469
30
0.0
11
296.19415
21
203.94469
31
0.0
12
296.19415
22
189.98468
32
0.0
13
296.19424
23
189.98479
33
1.0E-4
0
3DFACE
8
0
10
296.19415
20
189.98468
30
0.0
11
297.19415
21
203.94469
31
0.0
12
297.19415
22
189.98468
32
0.0
13
297.19424
23
189.98479
33
1.0E-4
0
3DFACE
8
0
10
295.99576
20
190.37407
30
0.0
11
296.80478
21
189.78629
31
0.0
12
305.01025
22
201.08017
32
0.0
13
305.01035
23
201.08028
33
1.0E-4
0
3DFACE
8
0
10
305.01025
20
201.08017
30
0.0
11
295.99576
21
190.37407
31
0.0
12
304.20123
22
201.66795
32
0.0
13
304.20132
23
201.66806
33
1.0E-4
0
3DFACE
8
0
10
303.99084
20
201.59958
30
0.0
11
303.68182
21
200.64853
31
0.0
12
316.9586
22
196.33464
32
0.0
13
316.95868
23
196.33475
33
1.0E-4
0
3DFACE
8
0
10
316.9586
20
196.33464
30
0.0
11
303.99084
21
201.59958
31
0.0
12
317.2676
22
197.2857
32
0.0
13
317.2677
23
197.28581
33
1.0E-4
0
3DFACE
8
0
10
316.52695
20
196.26628
30
0.0
11
317.33597
21
196.85406
31
0.0
12
309.1305
22
208.14795
32
0.0
13
309.13058
23
208.14806
33
1.0E-4
0
3DFACE
8
0
10
309.1305
20
208.14795
30
0.0
11
316.52695
21
196.26628
31
0.0
12
308.32147
22
207.56017
32
0.0
13
308.32156
23
207.56027
33
1.0E-4
0
3DFACE
8
0
10
309.6499
20
207.12854
30
0.0
11
309.34088
21
208.07959
31
0.0
12
296.06412
22
203.76572
32
0.0
13
296.0642
23
203.76582
33
1.0E-4
0
3DFACE
8
0
10
296.06412
20
203.76572
30
0.0
11
309.6499
21
207.12854
31
0.0
12
296.37314
22
202.81465
32
0.0
13
296.37323
23
202.81476
33
1.0E-4
0
3DFACE
8
0
10
296.58353
20
202.74629
30
0.0
11
297.39255
21
203.33408
31
0.0
12
289.18707
22
214.62796
32
0.0
13
289.18716
23
214.62807
33
1.0E-4
0
3DFACE
8
0
10
289.18707
20
214.62796
30
0.0
11
296.58353
21
202.74629
31
0.0
12
288.37805
22
214.04018
32
0.0
13
288.37814
23
214.04028
33
1.0E-4
0
3DFACE
8
0
10
288.37805
20
213.81895
30
0.0
11
289.18707
21
213.23117
31
0.0
12
297.39255
22
224.52505
32
0.0
13
297.39264
23
224.52516
33
1.0E-4
0
3DFACE
8
0
10
297.39255
20
224.52505
30
0.0
11
288.37805
21
213.81895
31
0.0
12
296.58353
22
225.11284
32
0.0
13
296.58362
23
225.11295
33
1.0E-4
0
3DFACE
8
0
10
296.58353
20
223.71603
30
0.0
11
297.39255
21
224.30382
31
0.0
12
289.18707
22
235.5977
32
0.0
13
289.18716
23
235.59781
33
1.0E-4
0
3DFACE
8
0
10
289.18707
20
235.5977
30
0.0
11
296.58353
21
223.71603
31
0.0
12
288.37805
22
235.00992
32
0.0
13
288.37814
23
235.01003
33
1.0E-4
0
3DFACE
8
0
10
288.37805
20
234.78868
30
0.0
11
289.18707
21
234.2009
31
0.0
12
297.39255
22
245.49478
32
0.0
13
297.39264
23
245.49489
33
1.0E-4
0
3DFACE
8
0
10
297.39255
20
245.49478
30
0.0
11
288.37805
21
234.78868
31
0.0
12
296.58353
22
246.08257
32
0.0
13
296.58362
23
246.08267
33
1.0E-4
0
3DFACE
8
0
10
297.3242
20
245.06314
30
0.0
11
297.01517
21
246.01419
31
0.0
12
283.7384
22
241.70032
32
0.0
13
283.7385
23
241.70042
33
1.0E-4
0
3DFACE
8
0
10
283.7384
20
241.70032
30
0.0
11
297.3242
21
245.06314
31
0.0
12
284.04742
22
240.74925
32
0.0
13
284.04752
23
240.74936
33
1.0E-4
0
3DFACE
8
0
10
284.86844
20
241.87929
30
0.0
11
283.86844
21
241.87929
31
0.0
12
283.86844
22
227.91928
32
0.0
13
283.86853
23
227.91939
33
1.0E-4
0
3DFACE
8
0
10
283.86844
20
227.91928
30
0.0
11
284.86844
21
241.87929
31
0.0
12
284.86844
22
227.91928
32
0.0
13
284.86853
23
227.91939
33
1.0E-4
0
3DFACE
8
0
10
284.99847
20
228.09827
30
0.0
11
284.68945
21
229.04932
31
0.0
12
271.4127
22
224.73544
32
0.0
13
271.41278
23
224.73555
33
1.0E-4
0
3DFACE
8
0
10
271.4127
20
224.73544
30
0.0
11
284.99847
21
228.09827
31
0.0
12
271.7217
22
223.78438
32
0.0
13
271.7218
23
223.78448
33
1.0E-4
0
3DFACE
8
0
10
271.9321
20
223.71602
30
0.0
11
272.74112
21
224.3038
31
0.0
12
264.53564
22
235.59769
32
0.0
13
264.53574
23
235.5978
33
1.0E-4
0
3DFACE
8
0
10
264.53564
20
235.59769
30
0.0
11
271.9321
21
223.71602
31
0.0
12
263.72662
22
235.0099
32
0.0
13
263.7267
23
235.01001
33
1.0E-4
0
3DFACE
8
0
10
263.72662
20
234.78868
30
0.0
11
264.53564
21
234.2009
31
0.0
12
272.74112
22
245.49478
32
0.0
13
272.7412
23
245.49489
33
1.0E-4
0
3DFACE
8
0
10
272.74112
20
245.49478
30
0.0
11
263.72662
21
234.78868
31
0.0
12
271.9321
22
246.08257
32
0.0
13
271.9322
23
246.08267
33
1.0E-4
0
3DFACE
8
0
10
271.7217
20
246.01419
30
0.0
11
271.4127
21
245.06314
31
0.0
12
284.68945
22
240.74925
32
0.0
13
284.68954
23
240.74936
33
1.0E-4
0
3DFACE
8
0
10
284.68945
20
240.74925
30
0.0
11
271.7217
21
246.01419
31
0.0
12
284.99847
22
241.70032
32
0.0
13
284.99857
23
241.70042
33
1.0E-4
0
3DFACE
8
0
10
284.2578
20
240.6809
30
0.0
11
285.06683
21
241.26868
31
0.0
12
276.86136
22
252.56256
32
0.0
13
276.86145
23
252.56267
33
1.0E-4
0
3DFACE
8
0
10
276.86136
20
252.56256
30
0.0
11
284.2578
21
240.6809
31
0.0
12
276.05234
22
251.97478
32
0.0
13
276.05243
23
251.97488
33
1.0E-4
0
3DFACE
8
0
10
277.38077
20
251.54315
30
0.0
11
277.07175
21
252.4942
31
0.0
12
263.79498
22
248.18033
32
0.0
13
263.79507
23
248.18044
33
1.0E-4
0
3DFACE
8
0
10
263.79498
20
248.18033
30
0.0
11
277.38077
21
251.54315
31
0.0
12
264.104
22
247.22926
32
0.0
13
264.1041
23
247.22937
33
1.0E-4
0
3DFACE
8
0
10
264.3144
20
247.1609
30
0.0
11
265.1234
21
247.74869
31
0.0
12
256.91794
22
259.04257
32
0.0
13
256.91803
23
259.04266
33
1.0E-4
0
3DFACE
8
0
10
256.91794
20
259.04257
30
0.0
11
264.3144
21
247.1609
31
0.0
12
256.10892
22
258.45477
32
0.0
13
256.109
23
258.45486
33
1.0E-4
0
3DFACE
8
0
10
256.10892
20
258.23355
30
0.0
11
256.91794
21
257.64578
31
0.0
12
265.1234
22
268.93967
32
0.0
13
265.1235
23
268.93976
33
1.0E-4
0
3DFACE
8
0
10
265.1234
20
268.93967
30
0.0
11
256.10892
21
258.23355
31
0.0
12
264.3144
22
269.52747
32
0.0
13
264.31448
23
269.52756
33
1.0E-4
0
3DFACE
8
0
10
264.104
20
269.45908
30
0.0
11
263.79498
21
268.50803
31
0.0
12
277.07175
22
264.19415
32
0.0
13
277.07184
23
264.19424
33
1.0E-4
0
3DFACE
8
0
10
277.07175
20
264.19415
30
0.0
11
264.104
21
269.45908
31
0.0
12
277.38077
22
265.1452
32
0.0
13
277.38086
23
265.1453
33
1.0E-4
0
3DFACE
8
0
10
277.25073
20
265.3242
30
0.0
11
276.25073
21
265.3242
31
0.0
12
276.25073
22
251.36418
32
0.0
13
276.25082
23
251.36429
33
1.0E-4
0
3DFACE
8
0
10
276.25073
20
251.36418
30
0.0
11
277.25073
21
265.3242
31
0.0
12
277.25073
22
251.36418
32
0.0
13
277.25082
23
251.36429
33
1.0E-4
0
3DFACE
8
0
10
276.05234
20
251.75357
30
0.0
11
276.86136
21
251.16579
31
0.0
12
285.06683
22
262.45966
32
0.0
13
285.06693
23
262.45975
33
1.0E-4
0
3DFACE
8
0
10
285.06683
20
262.45966
30
0.0
11
276.05234
21
251.75357
31
0.0
12
284.2578
22
263.04745
32
0.0
13
284.2579
23
263.04755
33
1.0E-4
0
3DFACE
8
0
10
284.2578
20
261.65067
30
0.0
11
285.06683
21
262.23843
31
0.0
12
276.86136
22
273.53235
32
0.0
13
276.86145
23
273.53244
33
1.0E-4
0
3DFACE
8
0
10
276.86136
20
273.53235
30
0.0
11
284.2578
21
261.65067
31
0.0
12
276.05234
22
272.94455
32
0.0
13
276.05243
23
272.94464
33
1.0E-4
0
3DFACE
8
0
10
276.05234
20
272.7233
30
0.0
11
276.86136
21
272.13553
31
0.0
12
285.06683
22
283.4294
32
0.0
13
285.06693
23
283.4295
33
1.0E-4
0
3DFACE
8
0
10
285.06683
20
283.4294
30
0.0
11
276.05234
21
272.7233
31
0.0
12
284.2578
22
284.0172
32
0.0
13
284.2579
23
284.0173
33
1.0E-4
0
3DFACE
8
0
10
284.04742
20
283.94882
30
0.0
11
283.7384
21
282.99777
31
0.0
12
297.01517
22
278.6839
32
0.0
13
297.01526
23
278.684
33
1.0E-4
0
3DFACE
8
0
10
297.01517
20
278.6839
30
0.0
11
284.04742
21
283.94882
31
0.0
12
297.3242
22
279.63495
32
0.0
13
297.32428
23
279.63504
33
1.0E-4
0
3DFACE
8
0
10
297.19415
20
279.81393
30
0.0
11
296.19415
21
279.81393
31
0.0
12
296.19415
22
265.8539
32
0.0
13
296.19424
23
265.854
33
1.0E-4
0
3DFACE
8
0
10
296.19415
20
265.8539
30
0.0
11
297.19415
21
279.81393
31
0.0
12
297.19415
22
265.8539
32
0.0
13
297.19424
23
265.854
33
1.0E-4
0
3DFACE
8
0
10
297.3242
20
266.0329
30
0.0
11
297.01517
21
266.98395
31
0.0
12
283.7384
22
262.67007
32
0.0
13
283.7385
23
262.67017
33
1.0E-4
0
3DFACE
8
0
10
283.7384
20
262.67007
30
0.0
11
297.3242
21
266.0329
31
0.0
12
284.04742
22
261.71902
32
0.0
13
284.04752
23
261.71912
33
1.0E-4
0
3DFACE
8
0
10
284.04742
20
262.9791
30
0.0
11
283.7384
21
262.02805
31
0.0
12
297.01517
22
257.71417
32
0.0
13
297.01526
23
257.71426
33
1.0E-4
0
3DFACE
8
0
10
297.01517
20
257.71417
30
0.0
11
284.04742
21
262.9791
31
0.0
12
297.3242
22
258.66522
32
0.0
13
297.32428
23
258.6653
33
1.0E-4
0
3DFACE
8
0
10
295.99576
20
258.23358
30
0.0
11
296.80478
21
257.6458
31
0.0
12
305.01025
22
268.9397
32
0.0
13
305.01035
23
268.9398
33
1.0E-4
0
3DFACE
8
0
10
305.01025
20
268.9397
30
0.0
11
295.99576
21
258.23358
31
0.0
12
304.20123
22
269.52747
32
0.0
13
304.20132
23
269.52756
33
1.0E-4
0
3DFACE
8
0
10
303.99084
20
269.4591
30
0.0
11
303.68182
21
268.50806
31
0.0
12
316.9586
22
264.19418
32
0.0
13
316.95868
23
264.19427
33
1.0E-4
0
3DFACE
8
0
10
316.9586
20
264.19418
30
0.0
11
303.99084
21
269.4591
31
0.0
12
317.2676
22
265.14523
32
0.0
13
317.2677
23
265.14532
33
1.0E-4
0
3DFACE
8
0
10
317.13757
20
265.32422
30
0.0
11
316.13757
21
265.32422
31
0.0
12
316.13757
22
251.36421
32
0.0
13
316.13766
23
251.36432
33
1.0E-4
0
3DFACE
8
0
10
316.13757
20
251.36421
30
0.0
11
317.13757
21
265.32422
31
0.0
12
317.13757
22
251.36421
32
0.0
13
317.13766
23
251.36432
33
1.0E-4
0
3DFACE
8
0
10
317.2676
20
251.5432
30
0.0
11
316.9586
21
252.49425
31
0.0
12
303.68182
22
248.18037
32
0.0
13
303.68192
23
248.18048
33
1.0E-4
0
3DFACE
8
0
10
303.68182
20
248.18037
30
0.0
11
317.2676
21
251.5432
31
0.0
12
303.99084
22
247.22931
32
0.0
13
303.99094
23
247.22942
33
1.0E-4
0
3DFACE
8
0
10
304.20123
20
247.16095
30
0.0
11
305.01025
21
247.74873
31
0.0
12
296.80478
22
259.0426
32
0.0
13
296.80487
23
259.0427
33
1.0E-4
0
3DFACE
8
0
10
296.80478
20
259.0426
30
0.0
11
304.20123
21
247.16095
31
0.0
12
295.99576
22
258.45483
32
0.0
13
295.99585
23
258.45493
33
1.0E-4
0
3DFACE
8
0
10
297.19415
20
258.8442
30
0.0
11
296.19415
21
258.8442
31
0.0
12
296.19415
22
244.8842
32
0.0
13
296.19424
23
244.88431
33
1.0E-4
0
3DFACE
8
0
10
296.19415
20
244.8842
30
0.0
11
297.19415
21
258.8442
31
0.0
12
297.19415
22
244.8842
32
0.0
13
297.19424
23
244.88431
33
1.0E-4
0
3DFACE
8
0
10
296.37314
20
246.01424
30
0.0
11
296.06412
21
245.06319
31
0.0
12
309.34088
22
240.7493
32
0.0
13
309.34097
23
240.7494
33
1.0E-4
0
3DFACE
8
0
10
309.34088
20
240.7493
30
0.0
11
296.37314
21
246.01424
31
0.0
12
309.6499
22
241.70036
32
0.0
13
309.65
23
241.70047
33
1.0E-4
0
3DFACE
8
0
10
309.51987
20
241.87933
30
0.0
11
308.51987
21
241.87933
31
0.0
12
308.51987
22
227.91933
32
0.0
13
308.51996
23
227.91943
33
1.0E-4
0
3DFACE
8
0
10
308.51987
20
227.91933
30
0.0
11
309.51987
21
241.87933
31
0.0
12
309.51987
22
227.91933
32
0.0
13
309.51996
23
227.91943
33
1.0E-4
0
3DFACE
8
0
10
309.6499
20
228.09831
30
0.0
11
309.34088
21
229.04936
31
0.0
12
296.06412
22
224.73549
32
0.0
13
296.0642
23
224.7356
33
1.0E-4
0
3DFACE
8
0
10
296.06412
20
224.73549
30
0.0
11
309.6499
21
228.09831
31
0.0
12
296.37314
22
223.78442
32
0.0
13
296.37323
23
223.78453
33
1.0E-4
0
3DFACE
8
0
10
296.37314
20
225.0445
30
0.0
11
296.06412
21
224.09344
31
0.0
12
309.34088
22
219.77956
32
0.0
13
309.34097
23
219.77966
33
1.0E-4
0
3DFACE
8
0
10
309.34088
20
219.77956
30
0.0
11
296.37314
21
225.0445
31
0.0
12
309.6499
22
220.73062
32
0.0
13
309.65
23
220.73073
33
1.0E-4
0
3DFACE
8
0
10
309.51987
20
220.90959
30
0.0
11
308.51987
21
220.90959
31
0.0
12
308.51987
22
206.94958
32
0.0
13
308.51996
23
206.94969
33
1.0E-4
0
3DFACE
8
0
10
308.51987
20
206.94958
30
0.0
11
309.51987
21
220.90959
31
0.0
12
309.51987
22
206.94958
32
0.0
13
309.51996
23
206.94969
33
1.0E-4
0
3DFACE
8
0
10
308.32147
20
207.33897
30
0.0
11
309.1305
21
206.75119
31
0.0
12
317.33597
22
218.04507
32
0.0
13
317.33606
23
218.04518
33
1.0E-4
0
3DFACE
8
0
10
317.33597
20
218.04507
30
0.0
11
308.32147
21
207.33897
31
0.0
12
316.52695
22
218.63286
32
0.0
13
316.52704
23
218.63297
33
1.0E-4
0
3DFACE
8
0
10
316.52695
20
217.23605
30
0.0
11
317.33597
21
217.82384
31
0.0
12
309.1305
22
229.11772
32
0.0
13
309.13058
23
229.11783
33
1.0E-4
0
3DFACE
8
0
10
309.1305
20
229.11772
30
0.0
11
316.52695
21
217.23605
31
0.0
12
308.32147
22
228.52994
32
0.0
13
308.32156
23
228.53004
33
1.0E-4
0
3DFACE
8
0
10
308.32147
20
228.3087
30
0.0
11
309.1305
21
227.72092
31
0.0
12
317.33597
22
239.0148
32
0.0
13
317.33606
23
239.01491
33
1.0E-4
0
3DFACE
8
0
10
317.33597
20
239.0148
30
0.0
11
308.32147
21
228.3087
31
0.0
12
316.52695
22
239.60258
32
0.0
13
316.52704
23
239.60269
33
1.0E-4
0
3DFACE
8
0
10
316.31656
20
239.53421
30
0.0
11
316.00754
21
238.58316
31
0.0
12
329.2843
22
234.26927
32
0.0
13
329.2844
23
234.26938
33
1.0E-4
0
3DFACE
8
0
10
329.2843
20
234.26927
30
0.0
11
316.31656
21
239.53421
31
0.0
12
329.59332
22
235.22034
32
0.0
13
329.5934
23
235.22044
33
1.0E-4
0
3DFACE
8
0
10
328.2649
20
234.7887
30
0.0
11
329.0739
21
234.20091
31
0.0
12
337.2794
22
245.4948
32
0.0
13
337.27948
23
245.4949
33
1.0E-4
0
3DFACE
8
0
10
337.2794
20
245.4948
30
0.0
11
328.2649
21
234.7887
31
0.0
12
336.47037
22
246.08258
32
0.0
13
336.47046
23
246.08269
33
1.0E-4
0
3DFACE
8
0
10
336.25998
20
246.01422
30
0.0
11
335.95096
21
245.06317
31
0.0
12
349.22772
22
240.74928
32
0.0
13
349.2278
23
240.74939
33
1.0E-4
0
3DFACE
8
0
10
349.22772
20
240.74928
30
0.0
11
336.25998
21
246.01422
31
0.0
12
349.53674
22
241.70035
32
0.0
13
349.53683
23
241.70045
33
1.0E-4
0
3DFACE
8
0
10
348.79608
20
240.68092
30
0.0
11
349.6051
21
241.2687
31
0.0
12
341.39963
22
252.56259
32
0.0
13
341.39972
23
252.5627
33
1.0E-4
0
3DFACE
8
0
10
341.39963
20
252.56259
30
0.0
11
348.79608
21
240.68092
31
0.0
12
340.5906
22
251.97481
32
0.0
13
340.5907
23
251.97491
33
1.0E-4
0
3DFACE
8
0
10
341.91904
20
251.54318
30
0.0
11
341.61002
21
252.49423
31
0.0
12
328.33325
22
248.18036
32
0.0
13
328.33334
23
248.18047
33
1.0E-4
0
3DFACE
8
0
10
328.33325
20
248.18036
30
0.0
11
341.91904
21
251.54318
31
0.0
12
328.64227
22
247.2293
32
0.0
13
328.64236
23
247.2294
33
1.0E-4
0
3DFACE
8
0
10
328.85266
20
247.16093
30
0.0
11
329.66168
21
247.74872
31
0.0
12
321.4562
22
259.0426
32
0.0
13
321.4563
23
259.0427
33
1.0E-4
0
3DFACE
8
0
10
321.4562
20
259.0426
30
0.0
11
328.85266
21
247.16093
31
0.0
12
320.6472
22
258.4548
32
0.0
13
320.64728
23
258.4549
33
1.0E-4
0
3DFACE
8
0
10
320.6472
20
258.23358
30
0.0
11
321.4562
21
257.6458
31
0.0
12
329.66168
22
268.9397
32
0.0
13
329.66177
23
268.9398
33
1.0E-4
0
3DFACE
8
0
10
329.66168
20
268.9397
30
0.0
11
320.6472
21
258.23358
31
0.0
12
328.85266
22
269.52747
32
0.0
13
328.85275
23
269.52756
33
1.0E-4
0
3DFACE
8
0
10
328.64227
20
269.4591
30
0.0
11
328.33325
21
268.50806
31
0.0
12
341.61002
22
264.19418
32
0.0
13
341.6101
23
264.19427
33
1.0E-4
0
3DFACE
8
0
10
341.61002
20
264.19418
30
0.0
11
328.64227
21
269.4591
31
0.0
12
341.91904
22
265.14523
32
0.0
13
341.91913
23
265.14532
33
1.0E-4
0
3DFACE
8
0
10
341.789
20
265.32422
30
0.0
11
340.789
21
265.32422
31
0.0
12
340.789
22
251.36421
32
0.0
13
340.7891
23
251.36432
33
1.0E-4
0
3DFACE
8
0
10
340.789
20
251.36421
30
0.0
11
341.789
21
265.32422
31
0.0
12
341.789
22
251.36421
32
0.0
13
341.7891
23
251.36432
33
1.0E-4
0
3DFACE
8
0
10
340.5906
20
251.7536
30
0.0
11
341.39963
21
251.16582
31
0.0
12
349.6051
22
262.4597
32
0.0
13
349.6052
23
262.45978
33
1.0E-4
0
3DFACE
8
0
10
349.6051
20
262.4597
30
0.0
11
340.5906
21
251.7536
31
0.0
12
348.79608
22
263.0475
32
0.0
13
348.79617
23
263.04758
33
1.0E-4
0
3DFACE
8
0
10
348.79608
20
261.6507
30
0.0
11
349.6051
21
262.23846
31
0.0
12
341.39963
22
273.53235
32
0.0
13
341.39972
23
273.53244
33
1.0E-4
0
3DFACE
8
0
10
341.39963
20
273.53235
30
0.0
11
348.79608
21
261.6507
31
0.0
12
340.5906
22
272.94458
32
0.0
13
340.5907
23
272.94467
33
1.0E-4
0
3DFACE
8
0
10
340.5906
20
272.72333
30
0.0
11
341.39963
21
272.13556
31
0.0
12
349.6051
22
283.42944
32
0.0
13
349.6052
23
283.42953
33
1.0E-4
0
3DFACE
8
0
10
349.6051
20
283.42944
30
0.0
11
340.5906
21
272.72333
31
0.0
12
348.79608
22
284.0172
32
0.0
13
348.79617
23
284.0173
33
1.0E-4
0
3DFACE
8
0
10
348.5857
20
283.94885
30
0.0
11
348.27667
21
282.9978
31
0.0
12
361.55344
22
278.68393
32
0.0
13
361.55353
23
278.68402
33
1.0E-4
0
3DFACE
8
0
10
361.55344
20
278.68393
30
0.0
11
348.5857
21
283.94885
31
0.0
12
361.86246
22
279.63498
32
0.0
13
361.86255
23
279.63507
33
1.0E-4
0
3DFACE
8
0
10
361.73242
20
279.81396
30
0.0
11
360.73242
21
279.81396
31
0.0
12
360.73242
22
265.85394
32
0.0
13
360.7325
23
265.85403
33
1.0E-4
0
3DFACE
8
0
10
360.73242
20
265.85394
30
0.0
11
361.73242
21
279.81396
31
0.0
12
361.73242
22
265.85394
32
0.0
13
361.7325
23
265.85403
33
1.0E-4
0
3DFACE
8
0
10
361.86246
20
266.03293
30
0.0
11
361.55344
21
266.98398
31
0.0
12
348.27667
22
262.6701
32
0.0
13
348.27676
23
262.6702
33
1.0E-4
0
3DFACE
8
0
10
348.27667
20
262.6701
30
0.0
11
361.86246
21
266.03293
31
0.0
12
348.5857
22
261.71906
32
0.0
13
348.5858
23
261.71915
33
1.0E-4
0
3DFACE
8
0
10
348.5857
20
262.97913
30
0.0
11
348.27667
21
262.02808
31
0.0
12
361.55344
22
257.7142
32
0.0
13
361.55353
23
257.7143
33
1.0E-4
0
3DFACE
8
0
10
361.55344
20
257.7142
30
0.0
11
348.5857
21
262.97913
31
0.0
12
361.86246
22
258.66525
32
0.0
13
361.86255
23
258.66534
33
1.0E-4
0
3DFACE
8
0
10
360.53403
20
258.2336
30
0.0
11
361.34305
21
257.64584
31
0.0
12
369.54852
22
268.93973
32
0.0
13
369.5486
23
268.93982
33
1.0E-4
0
3DFACE
8
0
10
369.54852
20
268.93973
30
0.0
11
360.53403
21
258.2336
31
0.0
12
368.7395
22
269.52753
32
0.0
13
368.7396
23
269.52762
33
1.0E-4
0
3DFACE
8
0
10
368.5291
20
269.45914
30
0.0
11
368.2201
21
268.5081
31
0.0
12
381.49686
22
264.1942
32
0.0
13
381.49695
23
264.1943
33
1.0E-4
0
3DFACE
8
0
10
381.49686
20
264.1942
30
0.0
11
368.5291
21
269.45914
31
0.0
12
381.80588
22
265.14526
32
0.0
13
381.80597
23
265.14536
33
1.0E-4
0
3DFACE
8
0
10
381.67584
20
265.32425
30
0.0
11
380.67584
21
265.32425
31
0.0
12
380.67584
22
251.36424
32
0.0
13
380.67593
23
251.36435
33
1.0E-4
0
3DFACE
8
0
10
380.67584
20
251.36424
30
0.0
11
381.67584
21
265.32425
31
0.0
12
381.67584
22
251.36424
32
0.0
13
381.67593
23
251.36435
33
1.0E-4
0
3DFACE
8
0
10
381.80588
20
251.54323
30
0.0
11
381.49686
21
252.49428
31
0.0
12
368.2201
22
248.1804
32
0.0
13
368.22018
23
248.18051
33
1.0E-4
0
3DFACE
8
0
10
368.2201
20
248.1804
30
0.0
11
381.80588
21
251.54323
31
0.0
12
368.5291
22
247.22934
32
0.0
13
368.5292
23
247.22945
33
1.0E-4
0
3DFACE
8
0
10
368.7395
20
247.16098
30
0.0
11
369.54852
21
247.74876
31
0.0
12
361.34305
22
259.04266
32
0.0
13
361.34314
23
259.04276
33
1.0E-4
0
3DFACE
8
0
10
361.34305
20
259.04266
30
0.0
11
368.7395
21
247.16098
31
0.0
12
360.53403
22
258.45486
32
0.0
13
360.53412
23
258.45496
33
1.0E-4
0
3DFACE
8
0
10
361.73242
20
258.84424
30
0.0
11
360.73242
21
258.84424
31
0.0
12
360.73242
22
244.88423
32
0.0
13
360.7325
23
244.88434
33
1.0E-4
0
3DFACE
8
0
10
360.73242
20
244.88423
30
0.0
11
361.73242
21
258.84424
31
0.0
12
361.73242
22
244.88423
32
0.0
13
361.7325
23
244.88434
33
1.0E-4
0
3DFACE
8
0
10
360.9114
20
246.01427
30
0.0
11
360.6024
21
245.06322
31
0.0
12
373.87915
22
240.74933
32
0.0
13
373.87924
23
240.74944
33
1.0E-4
0
3DFACE
8
0
10
373.87915
20
240.74933
30
0.0
11
360.9114
21
246.01427
31
0.0
12
374.18817
22
241.7004
32
0.0
13
374.18826
23
241.7005
33
1.0E-4
0
3DFACE
8
0
10
374.05814
20
241.87936
30
0.0
11
373.05814
21
241.87936
31
0.0
12
373.05814
22
227.91936
32
0.0
13
373.05823
23
227.91946
33
1.0E-4
0
3DFACE
8
0
10
373.05814
20
227.91936
30
0.0
11
374.05814
21
241.87936
31
0.0
12
374.05814
22
227.91936
32
0.0
13
374.05823
23
227.91946
33
1.0E-4
0
3DFACE
8
0
10
374.18817
20
228.09834
30
0.0
11
373.87915
21
229.0494
31
0.0
12
360.6024
22
224.73552
32
0.0
13
360.60248
23
224.73563
33
1.0E-4
0
3DFACE
8
0
10
360.6024
20
224.73552
30
0.0
11
374.18817
21
228.09834
31
0.0
12
360.9114
22
223.78445
32
0.0
13
360.9115
23
223.78456
33
1.0E-4
0
3DFACE
8
0
10
361.1218
20
223.7161
30
0.0
11
361.93082
21
224.30388
31
0.0
12
353.72534
22
235.59776
32
0.0
13
353.72543
23
235.59787
33
1.0E-4
0
3DFACE
8
0
10
353.72534
20
235.59776
30
0.0
11
361.1218
21
223.7161
31
0.0
12
352.91632
22
235.00998
32
0.0
13
352.9164
23
235.01009
33
1.0E-4
0
3DFACE
8
0
10
352.91632
20
234.78874
30
0.0
11
353.72534
21
234.20096
31
0.0
12
361.93082
22
245.49484
32
0.0
13
361.9309
23
245.49495
33
1.0E-4
0
3DFACE
8
0
10
361.93082
20
245.49484
30
0.0
11
352.91632
21
234.78874
31
0.0
12
361.1218
22
246.08263
32
0.0
13
361.1219
23
246.08273
33
1.0E-4
0
3DFACE
8
0
10
361.86246
20
245.0632
30
0.0
11
361.55344
21
246.01425
31
0.0
12
348.27667
22
241.70038
32
0.0
13
348.27676
23
241.70049
33
1.0E-4
0
3DFACE
8
0
10
348.27667
20
241.70038
30
0.0
11
361.86246
21
245.0632
31
0.0
12
348.5857
22
240.74931
32
0.0
13
348.5858
23
240.74942
33
1.0E-4
0
3DFACE
8
0
10
349.4067
20
241.87935
30
0.0
11
348.4067
21
241.87935
31
0.0
12
348.4067
22
227.91934
32
0.0
13
348.4068
23
227.91945
33
1.0E-4
0
3DFACE
8
0
10
348.4067
20
227.91934
30
0.0
11
349.4067
21
241.87935
31
0.0
12
349.4067
22
227.91934
32
0.0
13
349.4068
23
227.91945
33
1.0E-4
0
3DFACE
8
0
10
349.53674
20
228.09833
30
0.0
11
349.22772
21
229.04938
31
0.0
12
335.95096
22
224.7355
32
0.0
13
335.95105
23
224.73561
33
1.0E-4
0
3DFACE
8
0
10
335.95096
20
224.7355
30
0.0
11
349.53674
21
228.09833
31
0.0
12
336.25998
22
223.78444
32
0.0
13
336.26007
23
223.78455
33
1.0E-4
0
3DFACE
8
0
10
336.47037
20
223.71608
30
0.0
11
337.2794
21
224.30386
31
0.0
12
329.0739
22
235.59775
32
0.0
13
329.074
23
235.59785
33
1.0E-4
0
3DFACE
8
0
10
329.0739
20
235.59775
30
0.0
11
336.47037
21
223.71608
31
0.0
12
328.2649
22
235.00996
32
0.0
13
328.26498
23
235.01007
33
1.0E-4
0
3DFACE
8
0
10
329.4633
20
235.39935
30
0.0
11
328.4633
21
235.39935
31
0.0
12
328.4633
22
221.43935
32
0.0
13
328.46338
23
221.43945
33
1.0E-4
0
3DFACE
8
0
10
328.4633
20
221.43935
30
0.0
11
329.4633
21
235.39935
31
0.0
12
329.4633
22
221.43935
32
0.0
13
329.46338
23
221.43945
33
1.0E-4
0
3DFACE
8
0
10
329.59332
20
221.61833
30
0.0
11
329.2843
21
222.56938
31
0.0
12
316.00754
22
218.25551
32
0.0
13
316.00763
23
218.25562
33
1.0E-4
0
3DFACE
8
0
10
316.00754
20
218.25551
30
0.0
11
329.59332
21
221.61833
31
0.0
12
316.31656
22
217.30444
32
0.0
13
316.31665
23
217.30455
33
1.0E-4
0
3DFACE
8
0
10
316.31656
20
218.56451
30
0.0
11
316.00754
21
217.61346
31
0.0
12
329.2843
22
213.29958
32
0.0
13
329.2844
23
213.29968
33
1.0E-4
0
3DFACE
8
0
10
329.2843
20
213.29958
30
0.0
11
316.31656
21
218.56451
31
0.0
12
329.59332
22
214.25064
32
0.0
13
329.5934
23
214.25075
33
1.0E-4
0
3DFACE
8
0
10
328.2649
20
213.819
30
0.0
11
329.0739
21
213.23122
31
0.0
12
337.2794
22
224.5251
32
0.0
13
337.27948
23
224.5252
33
1.0E-4
0
3DFACE
8
0
10
337.2794
20
224.5251
30
0.0
11
328.2649
21
213.819
31
0.0
12
336.47037
22
225.11288
32
0.0
13
336.47046
23
225.11299
33
1.0E-4
0
3DFACE
8
0
10
336.25998
20
225.04453
30
0.0
11
335.95096
21
224.09348
31
0.0
12
349.22772
22
219.77959
32
0.0
13
349.2278
23
219.7797
33
1.0E-4
0
3DFACE
8
0
10
349.22772
20
219.77959
30
0.0
11
336.25998
21
225.04453
31
0.0
12
349.53674
22
220.73065
32
0.0
13
349.53683
23
220.73076
33
1.0E-4
0
3DFACE
8
0
10
349.4067
20
220.90962
30
0.0
11
348.4067
21
220.90962
31
0.0
12
348.4067
22
206.94962
32
0.0
13
348.4068
23
206.94972
33
1.0E-4
0
3DFACE
8
0
10
348.4067
20
206.94962
30
0.0
11
349.4067
21
220.90962
31
0.0
12
349.4067
22
206.94962
32
0.0
13
349.4068
23
206.94972
33
1.0E-4
0
3DFACE
8
0
10
348.5857
20
208.07965
30
0.0
11
348.27667
21
207.1286
31
0.0
12
361.55344
22
202.81471
32
0.0
13
361.55353
23
202.81482
33
1.0E-4
0
3DFACE
8
0
10
361.55344
20
202.81471
30
0.0
11
348.5857
21
208.07965
31
0.0
12
361.86246
22
203.76578
32
0.0
13
361.86255
23
203.76588
33
1.0E-4
0
3DFACE
8
0
10
361.73242
20
203.94475
30
0.0
11
360.73242
21
203.94475
31
0.0
12
360.73242
22
189.98474
32
0.0
13
360.7325
23
189.98485
33
1.0E-4
0
3DFACE
8
0
10
360.73242
20
189.98474
30
0.0
11
361.73242
21
203.94475
31
0.0
12
361.73242
22
189.98474
32
0.0
13
361.7325
23
189.98485
33
1.0E-4
0
3DFACE
8
0
10
360.53403
20
190.37413
30
0.0
11
361.34305
21
189.78635
31
0.0
12
369.54852
22
201.08023
32
0.0
13
369.5486
23
201.08034
33
1.0E-4
0
3DFACE
8
0
10
369.54852
20
201.08023
30
0.0
11
360.53403
21
190.37413
31
0.0
12
368.7395
22
201.66801
32
0.0
13
368.7396
23
201.66812
33
1.0E-4
0
3DFACE
8
0
10
368.7395
20
200.27121
30
0.0
11
369.54852
21
200.859
31
0.0
12
361.34305
22
212.15288
32
0.0
13
361.34314
23
212.15298
33
1.0E-4
0
3DFACE
8
0
10
361.34305
20
212.15288
30
0.0
11
368.7395
21
200.27121
31
0.0
12
360.53403
22
211.5651
32
0.0
13
360.53412
23
211.5652
33
1.0E-4
0
3DFACE
8
0
10
360.53403
20
211.34386
30
0.0
11
361.34305
21
210.75607
31
0.0
12
369.54852
22
222.04996
32
0.0
13
369.5486
23
222.05006
33
1.0E-4
0
3DFACE
8
0
10
369.54852
20
222.04996
30
0.0
11
360.53403
21
211.34386
31
0.0
12
368.7395
22
222.63774
32
0.0
13
368.7396
23
222.63785
33
1.0E-4
0
3DFACE
8
0
10
368.5291
20
222.56937
30
0.0
11
368.2201
21
221.61832
31
0.0
12
381.49686
22
217.30443
32
0.0
13
381.49695
23
217.30453
33
1.0E-4
0
3DFACE
8
0
10
381.49686
20
217.30443
30
0.0
11
368.5291
21
222.56937
31
0.0
12
381.80588
22
218.2555
32
0.0
13
381.80597
23
218.2556
33
1.0E-4
0
3DFACE
8
0
10
381.67584
20
218.43446
30
0.0
11
380.67584
21
218.43446
31
0.0
12
380.67584
22
204.47446
32
0.0
13
380.67593
23
204.47456
33
1.0E-4
0
3DFACE
8
0
10
380.67584
20
204.47446
30
0.0
11
381.67584
21
218.43446
31
0.0
12
381.67584
22
204.47446
32
0.0
13
381.67593
23
204.47456
33
1.0E-4
0
3DFACE
8
0
10
381.80588
20
204.65344
30
0.0
11
381.49686
21
205.60449
31
0.0
12
368.2201
22
201.29062
32
0.0
13
368.22018
23
201.29073
33
1.0E-4
0
3DFACE
8
0
10
368.2201
20
201.29062
30
0.0
11
381.80588
21
204.65344
31
0.0
12
368.5291
22
200.33955
32
0.0
13
368.5292
23
200.33966
33
1.0E-4
0
3DFACE
8
0
10
368.5291
20
201.59962
30
0.0
11
368.2201
21
200.64857
31
0.0
12
381.49686
22
196.33469
32
0.0
13
381.49695
23
196.3348
33
1.0E-4
0
3DFACE
8
0
10
381.49686
20
196.33469
30
0.0
11
368.5291
21
201.59962
31
0.0
12
381.80588
22
197.28575
32
0.0
13
381.80597
23
197.28586
33
1.0E-4
0
3DFACE
8
0
10
380.47745
20
196.85411
30
0.0
11
381.28647
21
196.26633
31
0.0
12
389.49194
22
207.56021
32
0.0
13
389.49203
23
207.56032
33
1.0E-4
0
3DFACE
8
0
10
389.49194
20
207.56021
30
0.0
11
380.47745
21
196.85411
31
0.0
12
388.68292
22
208.148
32
0.0
13
388.683
23
208.1481
33
1.0E-4
0
3DFACE
8
0
10
388.47253
20
208.07962
30
0.0
11
388.1635
21
207.12857
31
0.0
12
401.44028
22
202.81468
32
0.0
13
401.44037
23
202.81479
33
1.0E-4
0
3DFACE
8
0
10
401.44028
20
202.81468
30
0.0
11
388.47253
21
208.07962
31
0.0
12
401.7493
22
203.76575
32
0.0
13
401.7494
23
203.76585
33
1.0E-4
0
3DFACE
8
0
10
401.61926
20
203.94472
30
0.0
11
400.61926
21
203.94472
31
0.0
12
400.61926
22
189.98471
32
0.0
13
400.61935
23
189.98482
33
1.0E-4
0
3DFACE
8
0
10
400.61926
20
189.98471
30
0.0
11
401.61926
21
203.94472
31
0.0
12
401.61926
22
189.98471
32
0.0
13
401.61935
23
189.98482
33
1.0E-4
0
3DFACE
8
0
10
401.7493
20
190.1637
30
0.0
11
401.44028
21
191.11475
31
0.0
12
388.1635
22
186.80087
32
0.0
13
388.1636
23
186.80098
33
1.0E-4
0
3DFACE
8
0
10
388.1635
20
186.80087
30
0.0
11
401.7493
21
190.1637
31
0.0
12
388.47253
22
185.84981
32
0.0
13
388.47263
23
185.84991
33
1.0E-4
0
3DFACE
8
0
10
388.68292
20
185.78145
30
0.0
11
389.49194
21
186.36923
31
0.0
12
381.28647
22
197.66312
32
0.0
13
381.28656
23
197.66322
33
1.0E-4
0
3DFACE
8
0
10
381.28647
20
197.66312
30
0.0
11
388.68292
21
185.78145
31
0.0
12
380.47745
22
197.07533
32
0.0
13
380.47754
23
197.07544
33
1.0E-4
0
3DFACE
8
0
10
381.67584
20
197.46472
30
0.0
11
380.67584
21
197.46472
31
0.0
12
380.67584
22
183.50471
32
0.0
13
380.67593
23
183.50482
33
1.0E-4
0
3DFACE
8
0
10
380.67584
20
183.50471
30
0.0
11
381.67584
21
197.46472
31
0.0
12
381.67584
22
183.50471
32
0.0
13
381.67593
23
183.50482
33
1.0E-4
0
3DFACE
8
0
10
380.85483
20
184.63475
30
0.0
11
380.5458
21
183.6837
31
0.0
12
393.82257
22
179.36981
32
0.0
13
393.82266
23
179.36992
33
1.0E-4
0
3DFACE
8
0
10
393.82257
20
179.36981
30
0.0
11
380.85483
21
184.63475
31
0.0
12
394.1316
22
180.32088
32
0.0
13
394.13168
23
180.32098
33
1.0E-4
0
3DFACE
8
0
10
394.00156
20
180.49985
30
0.0
11
393.00156
21
180.49985
31
0.0
12
393.00156
22
166.53984
32
0.0
13
393.00165
23
166.53995
33
1.0E-4
0
3DFACE
8
0
10
393.00156
20
166.53984
30
0.0
11
394.00156
21
180.49985
31
0.0
12
394.00156
22
166.53984
32
0.0
13
394.00165
23
166.53995
33
1.0E-4
0
3DFACE
8
0
10
394.1316
20
166.71883
30
0.0
11
393.82257
21
167.66988
31
0.0
12
380.5458
22
163.356
32
0.0
13
380.5459
23
163.35611
33
1.0E-4
0
3DFACE
8
0
10
380.5458
20
163.356
30
0.0
11
394.1316
21
166.71883
31
0.0
12
380.85483
22
162.40494
32
0.0
13
380.85492
23
162.40504
33
1.0E-4
0
3DFACE
8
0
10
381.06522
20
162.33658
30
0.0
11
381.87424
21
162.92436
31
0.0
12
373.66876
22
174.21825
32
0.0
13
373.66885
23
174.21835
33
1.0E-4
0
3DFACE
8
0
10
373.66876
20
174.21825
30
0.0
11
381.06522
21
162.33658
31
0.0
12
372.85974
22
173.63046
32
0.0
13
372.85983
23
173.63057
33
1.0E-4
0
3DFACE
8
0
10
372.85974
20
173.40923
30
0.0
11
373.66876
21
172.82144
31
0.0
12
381.87424
22
184.11533
32
0.0
13
381.87433
23
184.11543
33
1.0E-4
0
3DFACE
8
0
10
381.87424
20
184.11533
30
0.0
11
372.85974
21
173.40923
31
0.0
12
381.06522
22
184.70311
32
0.0
13
381.0653
23
184.70322
33
1.0E-4
0
3DFACE
8
0
10
381.80588
20
183.68369
30
0.0
11
381.49686
21
184.63474
31
0.0
12
368.2201
22
180.32086
32
0.0
13
368.22018
23
180.32097
33
1.0E-4
0
3DFACE
8
0
10
368.2201
20
180.32086
30
0.0
11
381.80588
21
183.68369
31
0.0
12
368.5291
22
179.3698
32
0.0
13
368.5292
23
179.3699
33
1.0E-4
0
3DFACE
8
0
10
369.35013
20
180.49983
30
0.0
11
368.35013
21
180.49983
31
0.0
12
368.35013
22
166.53983
32
0.0
13
368.35022
23
166.53993
33
1.0E-4
0
3DFACE
8
0
10
368.35013
20
166.53983
30
0.0
11
369.35013
21
180.49983
31
0.0
12
369.35013
22
166.53983
32
0.0
13
369.35022
23
166.53993
33
1.0E-4
0
3DFACE
8
0
10
369.48016
20
166.71881
30
0.0
11
369.17114
21
167.66986
31
0.0
12
355.89438
22
163.35599
32
0.0
13
355.89447
23
163.3561
33
1.0E-4
0
3DFACE
8
0
10
355.89438
20
163.35599
30
0.0
11
369.48016
21
166.71881
31
0.0
12
356.2034
22
162.40492
32
0.0
13
356.2035
23
162.40503
33
1.0E-4
0
3DFACE
8
0
10
356.4138
20
162.33656
30
0.0
11
357.2228
21
162.92435
31
0.0
12
349.01733
22
174.21823
32
0.0
13
349.01743
23
174.21834
33
1.0E-4
0
3DFACE
8
0
10
349.01733
20
174.21823
30
0.0
11
356.4138
21
162.33656
31
0.0
12
348.2083
22
173.63045
32
0.0
13
348.2084
23
173.63055
33
1.0E-4
0
3DFACE
8
0
10
348.2083
20
173.40923
30
0.0
11
349.01733
21
172.82144
31
0.0
12
357.2228
22
184.11533
32
0.0
13
357.2229
23
184.11543
33
1.0E-4
0
3DFACE
8
0
10
357.2228
20
184.11533
30
0.0
11
348.2083
21
173.40923
31
0.0
12
356.4138
22
184.70311
32
0.0
13
356.41388
23
184.70322
33
1.0E-4
0
3DFACE
8
0
10
356.2034
20
184.63474
30
0.0
11
355.89438
21
183.68369
31
0.0
12
369.17114
22
179.3698
32
0.0
13
369.17123
23
179.3699
33
1.0E-4
0
3DFACE
8
0
10
369.17114
20
179.3698
30
0.0
11
356.2034
21
184.63474
31
0.0
12
369.48016
22
180.32086
32
0.0
13
369.48026
23
180.32097
33
1.0E-4
0
3DFACE
8
0
10
368.7395
20
179.30144
30
0.0
11
369.54852
21
179.88922
31
0.0
12
361.34305
22
191.1831
32
0.0
13
361.34314
23
191.18321
33
1.0E-4
0
3DFACE
8
0
10
361.34305
20
191.1831
30
0.0
11
368.7395
21
179.30144
31
0.0
12
360.53403
22
190.59532
32
0.0
13
360.53412
23
190.59543
33
1.0E-4
0
3DFACE
8
0
10
361.86246
20
190.1637
30
0.0
11
361.55344
21
191.11475
31
0.0
12
348.27667
22
186.80087
32
0.0
13
348.27676
23
186.80098
33
1.0E-4
0
3DFACE
8
0
10
348.27667
20
186.80087
30
0.0
11
361.86246
21
190.1637
31
0.0
12
348.5857
22
185.84981
32
0.0
13
348.5858
23
185.84991
33
1.0E-4
0
3DFACE
8
0
10
348.79608
20
185.78145
30
0.0
11
349.6051
21
186.36923
31
0.0
12
341.39963
22
197.66312
32
0.0
13
341.39972
23
197.66322
33
1.0E-4
0
3DFACE
8
0
10
341.39963
20
197.66312
30
0.0
11
348.79608
21
185.78145
31
0.0
12
340.5906
22
197.07533
32
0.0
13
340.5907
23
197.07544
33
1.0E-4
0
3DFACE
8
0
10
340.5906
20
196.85411
30
0.0
11
341.39963
21
196.26633
31
0.0
12
349.6051
22
207.56021
32
0.0
13
349.6052
23
207.56032
33
1.0E-4
0
3DFACE
8
0
10
349.6051
20
207.56021
30
0.0
11
340.5906
21
196.85411
31
0.0
12
348.79608
22
208.148
32
0.0
13
348.79617
23
208.1481
33
1.0E-4
0
3DFACE
8
0
10
349.53674
20
207.12857
30
0.0
11
349.22772
21
208.07962
31
0.0
12
335.95096
22
203.76575
32
0.0
13
335.95105
23
203.76585
33
1.0E-4
0
3DFACE
8
0
10
335.95096
20
203.76575
30
0.0
11
349.53674
21
207.12857
31
0.0
12
336.25998
22
202.81468
32
0.0
13
336.26007
23
202.81479
33
1.0E-4
0
3DFACE
8
0
10
336.47037
20
202.74632
30
0.0
11
337.2794
21
203.3341
31
0.0
12
329.0739
22
214.62799
32
0.0
13
329.074
23
214.6281
33
1.0E-4
0
3DFACE
8
0
10
329.0739
20
214.62799
30
0.0
11
336.47037
21
202.74632
31
0.0
12
328.2649
22
214.0402
32
0.0
13
328.26498
23
214.04031
33
1.0E-4
0
3DFACE
8
0
10
329.4633
20
214.4296
30
0.0
11
328.4633
21
214.4296
31
0.0
12
328.4633
22
200.46959
32
0.0
13
328.46338
23
200.4697
33
1.0E-4
0
3DFACE
8
0
10
328.4633
20
200.46959
30
0.0
11
329.4633
21
214.4296
31
0.0
12
329.4633
22
200.46959
32
0.0
13
329.46338
23
200.4697
33
1.0E-4
0
3DFACE
8
0
10
328.64227
20
201.59962
30
0.0
11
328.33325
21
200.64857
31
0.0
12
341.61002
22
196.33469
32
0.0
13
341.6101
23
196.3348
33
1.0E-4
0
3DFACE
8
0
10
341.61002
20
196.33469
30
0.0
11
328.64227
21
201.59962
31
0.0
12
341.91904
22
197.28575
32
0.0
13
341.91913
23
197.28586
33
1.0E-4
0
3DFACE
8
0
10
341.789
20
197.46472
30
0.0
11
340.789
21
197.46472
31
0.0
12
340.789
22
183.50471
32
0.0
13
340.7891
23
183.50482
33
1.0E-4
0
3DFACE
8
0
10
340.789
20
183.50471
30
0.0
11
341.789
21
197.46472
31
0.0
12
341.789
22
183.50471
32
0.0
13
341.7891
23
183.50482
33
1.0E-4
0
3DFACE
8
0
10
341.91904
20
183.6837
30
0.0
11
341.61002
21
184.63475
31
0.0
12
328.33325
22
180.32088
32
0.0
13
328.33334
23
180.32098
33
1.0E-4
0
3DFACE
8
0
10
328.33325
20
180.32088
30
0.0
11
341.91904
21
183.6837
31
0.0
12
328.64227
22
179.36981
32
0.0
13
328.64236
23
179.36992
33
1.0E-4
0
3DFACE
8
0
10
329.4633
20
180.49985
30
0.0
11
328.4633
21
180.49985
31
0.0
12
328.4633
22
166.53984
32
0.0
13
328.46338
23
166.53995
33
1.0E-4
0
3DFACE
8
0
10
328.4633
20
166.53984
30
0.0
11
329.4633
21
180.49985
31
0.0
12
329.4633
22
166.53984
32
0.0
13
329.46338
23
166.53995
33
1.0E-4
0
3DFACE
8
0
10
329.59332
20
166.71883
30
0.0
11
329.2843
21
167.66988
31
0.0
12
316.00754
22
163.356
32
0.0
13
316.00763
23
163.35611
33
1.0E-4
0
3DFACE
8
0
10
316.00754
20
163.356
30
0.0
11
329.59332
21
166.71883
31
0.0
12
316.31656
22
162.40494
32
0.0
13
316.31665
23
162.40504
33
1.0E-4
0
3DFACE
8
0
10
316.31656
20
163.66501
30
0.0
11
316.00754
21
162.71396
31
0.0
12
329.2843
22
158.40007
32
0.0
13
329.2844
23
158.40018
33
1.0E-4
0
3DFACE
8
0
10
329.2843
20
158.40007
30
0.0
11
316.31656
21
163.66501
31
0.0
12
329.59332
22
159.35114
32
0.0
13
329.5934
23
159.35124
33
1.0E-4
0
3DFACE
8
0
10
328.2649
20
158.9195
30
0.0
11
329.0739
21
158.33171
31
0.0
12
337.2794
22
169.6256
32
0.0
13
337.27948
23
169.6257
33
1.0E-4
0
3DFACE
8
0
10
337.2794
20
169.6256
30
0.0
11
328.2649
21
158.9195
31
0.0
12
336.47037
22
170.21338
32
0.0
13
336.47046
23
170.21349
33
1.0E-4
0
3DFACE
8
0
10
336.25998
20
170.14502
30
0.0
11
335.95096
21
169.19397
31
0.0
12
349.22772
22
164.88008
32
0.0
13
349.2278
23
164.88019
33
1.0E-4
0
3DFACE
8
0
10
349.22772
20
164.88008
30
0.0
11
336.25998
21
170.14502
31
0.0
12
349.53674
22
165.83115
32
0.0
13
349.53683
23
165.83125
33
1.0E-4
0
3DFACE
8
0
10
349.4067
20
166.01012
30
0.0
11
348.4067
21
166.01012
31
0.0
12
348.4067
22
152.05011
32
0.0
13
348.4068
23
152.05022
33
1.0E-4
0
3DFACE
8
0
10
348.4067
20
152.05011
30
0.0
11
349.4067
21
166.01012
31
0.0
12
349.4067
22
152.05011
32
0.0
13
349.4068
23
152.05022
33
1.0E-4
0
3DFACE
8
0
10
349.53674
20
152.2291
30
0.0
11
349.22772
21
153.18015
31
0.0
12
335.95096
22
148.86627
32
0.0
13
335.95105
23
148.86638
33
1.0E-4
0
3DFACE
8
0
10
335.95096
20
148.86627
30
0.0
11
349.53674
21
152.2291
31
0.0
12
336.25998
22
147.9152
32
0.0
13
336.26007
23
147.91531
33
1.0E-4
0
3DFACE
8
0
10
336.47037
20
147.84685
30
0.0
11
337.2794
21
148.43463
31
0.0
12
329.0739
22
159.72852
32
0.0
13
329.074
23
159.72862
33
1.0E-4
0
3DFACE
8
0
10
329.0739
20
159.72852
30
0.0
11
336.47037
21
147.84685
31
0.0
12
328.2649
22
159.14073
32
0.0
13
328.26498
23
159.14084
33
1.0E-4
0
3DFACE
8
0
10
329.4633
20
159.53012
30
0.0
11
328.4633
21
159.53012
31
0.0
12
328.4633
22
145.57011
32
0.0
13
328.46338
23
145.57022
33
1.0E-4
0
3DFACE
8
0
10
328.4633
20
145.57011
30
0.0
11
329.4633
21
159.53012
31
0.0
12
329.4633
22
145.57011
32
0.0
13
329.46338
23
145.57022
33
1.0E-4
0
3DFACE
8
0
10
328.64227
20
146.70015
30
0.0
11
328.33325
21
145.7491
31
0.0
12
341.61002
22
141.43521
32
0.0
13
341.6101
23
141.43532
33
1.0E-4
0
3DFACE
8
0
10
341.61002
20
141.43521
30
0.0
11
328.64227
21
146.70015
31
0.0
12
341.91904
22
142.38628
32
0.0
13
341.91913
23
142.38638
33
1.0E-4
0
3DFACE
8
0
10
341.789
20
142.56525
30
0.0
11
340.789
21
142.56525
31
0.0
12
340.789
22
128.60524
32
0.0
13
340.7891
23
128.60535
33
1.0E-4
0
3DFACE
8
0
10
340.789
20
128.60524
30
0.0
11
341.789
21
142.56525
31
0.0
12
341.789
22
128.60524
32
0.0
13
341.7891
23
128.60535
33
1.0E-4
0
3DFACE
8
0
10
341.91904
20
128.78423
30
0.0
11
341.61002
21
129.73528
31
0.0
12
328.33325
22
125.421394
32
0.0
13
328.33334
23
125.42149
33
1.0E-4
0
3DFACE
8
0
10
328.33325
20
125.421394
30
0.0
11
341.91904
21
128.78423
31
0.0
12
328.64227
22
124.47034
32
0.0
13
328.64236
23
124.470436
33
1.0E-4
0
3DFACE
8
0
10
328.85266
20
124.40197
30
0.0
11
329.66168
21
124.98975
31
0.0
12
321.4562
22
136.28365
32
0.0
13
321.4563
23
136.28375
33
1.0E-4
0
3DFACE
8
0
10
321.4562
20
136.28365
30
0.0
11
328.85266
21
124.40197
31
0.0
12
320.6472
22
135.69586
32
0.0
13
320.64728
23
135.69597
33
1.0E-4
0
3DFACE
8
0
10
320.6472
20
135.47462
30
0.0
11
321.4562
21
134.88684
31
0.0
12
329.66168
22
146.18073
32
0.0
13
329.66177
23
146.18083
33
1.0E-4
0
3DFACE
8
0
10
329.66168
20
146.18073
30
0.0
11
320.6472
21
135.47462
31
0.0
12
328.85266
22
146.76851
32
0.0
13
328.85275
23
146.76862
33
1.0E-4
0
3DFACE
8
0
10
329.59332
20
145.74908
30
0.0
11
329.2843
21
146.70013
31
0.0
12
316.00754
22
142.38626
32
0.0
13
316.00763
23
142.38637
33
1.0E-4
0
3DFACE
8
0
10
316.00754
20
142.38626
30
0.0
11
329.59332
21
145.74908
31
0.0
12
316.31656
22
141.4352
32
0.0
13
316.31665
23
141.4353
33
1.0E-4
0
3DFACE
8
0
10
317.13757
20
142.56523
30
0.0
11
316.13757
21
142.56523
31
0.0
12
316.13757
22
128.60522
32
0.0
13
316.13766
23
128.60533
33
1.0E-4
0
3DFACE
8
0
10
316.13757
20
128.60522
30
0.0
11
317.13757
21
142.56523
31
0.0
12
317.13757
22
128.60522
32
0.0
13
317.13766
23
128.60533
33
1.0E-4
0
3DFACE
8
0
10
317.2676
20
128.78421
30
0.0
11
316.9586
21
129.73526
31
0.0
12
303.68182
22
125.42138
32
0.0
13
303.68192
23
125.42148
33
1.0E-4
0
3DFACE
8
0
10
303.68182
20
125.42138
30
0.0
11
317.2676
21
128.78421
31
0.0
12
303.99084
22
124.47032
32
0.0
13
303.99094
23
124.47042
33
1.0E-4
0
3DFACE
8
0
10
304.20123
20
124.401955
30
0.0
11
305.01025
21
124.98974
31
0.0
12
296.80478
22
136.28363
32
0.0
13
296.80487
23
136.28374
33
1.0E-4
0
3DFACE
8
0
10
296.80478
20
136.28363
30
0.0
11
304.20123
21
124.401955
31
0.0
12
295.99576
22
135.69585
32
0.0
13
295.99585
23
135.69595
33
1.0E-4
0
3DFACE
8
0
10
297.19415
20
136.08524
30
0.0
11
296.19415
21
136.08524
31
0.0
12
296.19415
22
122.12522
32
0.0
13
296.19424
23
122.12532
33
1.0E-4
0
3DFACE
8
0
10
296.19415
20
122.12522
30
0.0
11
297.19415
21
136.08524
31
0.0
12
297.19415
22
122.12522
32
0.0
13
297.19424
23
122.12532
33
1.0E-4
0
3DFACE
8
0
10
297.3242
20
122.3042
30
0.0
11
297.01517
21
123.25526
31
0.0
12
283.7384
22
118.941376
32
0.0
13
283.7385
23
118.941475
33
1.0E-4
0
3DFACE
8
0
10
283.7384
20
118.941376
30
0.0
11
297.3242
21
122.3042
31
0.0
12
284.04742
22
117.99032
32
0.0
13
284.04752
23
117.99042
33
1.0E-4
0
3DFACE
8
0
10
284.04742
20
119.25039
30
0.0
11
283.7384
21
118.29933
31
0.0
12
297.01517
22
113.98545
32
0.0
13
297.01526
23
113.98555
33
1.0E-4
0
3DFACE
8
0
10
297.01517
20
113.98545
30
0.0
11
284.04742
21
119.25039
31
0.0
12
297.3242
22
114.93651
32
0.0
13
297.32428
23
114.93661
33
1.0E-4
0
3DFACE
8
0
10
295.99576
20
114.504875
30
0.0
11
296.80478
21
113.91709
31
0.0
12
305.01025
22
125.21098
32
0.0
13
305.01035
23
125.21108
33
1.0E-4
0
3DFACE
8
0
10
305.01025
20
125.21098
30
0.0
11
295.99576
21
114.504875
31
0.0
12
304.20123
22
125.79877
32
0.0
13
304.20132
23
125.79887
33
1.0E-4
0
3DFACE
8
0
10
303.99084
20
125.7304
30
0.0
11
303.68182
21
124.77934
31
0.0
12
316.9586
22
120.46546
32
0.0
13
316.95868
23
120.46556
33
1.0E-4
0
3DFACE
8
0
10
316.9586
20
120.46546
30
0.0
11
303.99084
21
125.7304
31
0.0
12
317.2676
22
121.41652
32
0.0
13
317.2677
23
121.41662
33
1.0E-4
0
3DFACE
8
0
10
317.13757
20
121.595505
30
0.0
11
316.13757
21
121.595505
31
0.0
12
316.13757
22
107.63549
32
0.0
13
316.13766
23
107.63559
33
1.0E-4
0
3DFACE
8
0
10
316.13757
20
107.63549
30
0.0
11
317.13757
21
121.595505
31
0.0
12
317.13757
22
107.63549
32
0.0
13
317.13766
23
107.63559
33
1.0E-4
0
3DFACE
8
0
10
317.2676
20
107.81447
30
0.0
11
316.9586
21
108.765526
31
0.0
12
303.68182
22
104.451645
32
0.0
13
303.68192
23
104.451744
33
1.0E-4
0
3DFACE
8
0
10
303.68182
20
104.451645
30
0.0
11
317.2676
21
107.81447
31
0.0
12
303.99084
22
103.50059
32
0.0
13
303.99094
23
103.50069
33
1.0E-4
0
3DFACE
8
0
10
304.20123
20
103.43222
30
0.0
11
305.01025
21
104.020004
31
0.0
12
296.80478
22
115.313896
32
0.0
13
296.80487
23
115.313995
33
1.0E-4
0
3DFACE
8
0
10
296.80478
20
115.313896
30
0.0
11
304.20123
21
103.43222
31
0.0
12
295.99576
22
114.72611
32
0.0
13
295.99585
23
114.72621
33
1.0E-4
0
3DFACE
8
0
10
297.19415
20
115.11549
30
0.0
11
296.19415
21
115.11549
31
0.0
12
296.19415
22
101.15548
32
0.0
13
296.19424
23
101.15558
33
1.0E-4
0
3DFACE
8
0
10
296.19415
20
101.15548
30
0.0
11
297.19415
21
115.11549
31
0.0
12
297.19415
22
101.15548
32
0.0
13
297.19424
23
101.15558
33
1.0E-4
0
3DFACE
8
0
10
296.37314
20
102.285515
30
0.0
11
296.06412
21
101.33446
31
0.0
12
309.34088
22
97.02058
32
0.0
13
309.34097
23
97.020676
33
1.0E-4
0
3DFACE
8
0
10
309.34088
20
97.02058
30
0.0
11
296.37314
21
102.285515
31
0.0
12
309.6499
22
97.971634
32
0.0
13
309.65
23
97.97173
33
1.0E-4
0
3DFACE
8
0
10
309.51987
20
98.15062
30
0.0
11
308.51987
21
98.15062
31
0.0
12
308.51987
22
84.190605
32
0.0
13
308.51996
23
84.190704
33
1.0E-4
0
3DFACE
8
0
10
308.51987
20
84.190605
30
0.0
11
309.51987
21
98.15062
31
0.0
12
309.51987
22
84.190605
32
0.0
13
309.51996
23
84.190704
33
1.0E-4
0
3DFACE
8
0
10
309.6499
20
84.36958
30
0.0
11
309.34088
21
85.32064
31
0.0
12
296.06412
22
81.00676
32
0.0
13
296.0642
23
81.00686
33
1.0E-4
0
3DFACE
8
0
10
296.06412
20
81.00676
30
0.0
11
309.6499
21
84.36958
31
0.0
12
296.37314
22
80.0557
32
0.0
13
296.37323
23
80.0558
33
1.0E-4
0
3DFACE
8
0
10
296.37314
20
81.31577
30
0.0
11
296.06412
21
80.364716
31
0.0
12
309.34088
22
76.050835
32
0.0
13
309.34097
23
76.050934
33
1.0E-4
0
3DFACE
8
0
10
309.34088
20
76.050835
30
0.0
11
296.37314
21
81.31577
31
0.0
12
309.6499
22
77.00189
32
0.0
13
309.65
23
77.00199
33
1.0E-4
0
3DFACE
8
0
10
309.51987
20
77.18088
30
0.0
11
308.51987
21
77.18088
31
0.0
12
308.51987
22
63.220863
32
0.0
13
308.51996
23
63.220963
33
1.0E-4
0
3DFACE
8
0
10
308.51987
20
63.220863
30
0.0
11
309.51987
21
77.18088
31
0.0
12
309.51987
22
63.220863
32
0.0
13
309.51996
23
63.220963
33
1.0E-4
0
3DFACE
8
0
10
308.32147
20
63.61025
30
0.0
11
309.1305
21
63.02246
31
0.0
12
317.33597
22
74.31635
32
0.0
13
317.33606
23
74.31645
33
1.0E-4
0
3DFACE
8
0
10
317.33597
20
74.31635
30
0.0
11
308.32147
21
63.61025
31
0.0
12
316.52695
22
74.90414
32
0.0
13
316.52704
23
74.904236
33
1.0E-4
0
3DFACE
8
0
10
316.52695
20
73.50733
30
0.0
11
317.33597
21
74.095116
31
0.0
12
309.1305
22
85.38901
32
0.0
13
309.13058
23
85.38911
33
1.0E-4
0
3DFACE
8
0
10
309.1305
20
85.38901
30
0.0
11
316.52695
21
73.50733
31
0.0
12
308.32147
22
84.80122
32
0.0
13
308.32156
23
84.80132
33
1.0E-4
0
3DFACE
8
0
10
308.32147
20
84.57999
30
0.0
11
309.1305
21
83.9922
31
0.0
12
317.33597
22
95.286095
32
0.0
13
317.33606
23
95.286194
33
1.0E-4
0
3DFACE
8
0
10
317.33597
20
95.286095
30
0.0
11
308.32147
21
84.57999
31
0.0
12
316.52695
22
95.87388
32
0.0
13
316.52704
23
95.87398
33
1.0E-4
0
3DFACE
8
0
10
316.31656
20
95.80551
30
0.0
11
316.00754
21
94.854454
31
0.0
12
329.2843
22
90.54057
32
0.0
13
329.2844
23
90.54067
33
1.0E-4
0
3DFACE
8
0
10
329.2843
20
90.54057
30
0.0
11
316.31656
21
95.80551
31
0.0
12
329.59332
22
91.49163
32
0.0
13
329.5934
23
91.49173
33
1.0E-4
0
3DFACE
8
0
10
328.2649
20
91.05999
30
0.0
11
329.0739
21
90.472206
31
0.0
12
337.2794
22
101.7661
32
0.0
13
337.27948
23
101.7662
33
1.0E-4
0
3DFACE
8
0
10
337.2794
20
101.7661
30
0.0
11
328.2649
21
91.05999
31
0.0
12
336.47037
22
102.35388
32
0.0
13
336.47046
23
102.35398
33
1.0E-4
0
3DFACE
8
0
10
336.25998
20
102.285515
30
0.0
11
335.95096
21
101.33446
31
0.0
12
349.22772
22
97.02058
32
0.0
13
349.2278
23
97.020676
33
1.0E-4
0
3DFACE
8
0
10
349.22772
20
97.02058
30
0.0
11
336.25998
21
102.285515
31
0.0
12
349.53674
22
97.971634
32
0.0
13
349.53683
23
97.97173
33
1.0E-4
0
3DFACE
8
0
10
348.79608
20
96.95221
30
0.0
11
349.6051
21
97.53999
31
0.0
12
341.39963
22
108.833885
32
0.0
13
341.39972
23
108.833984
33
1.0E-4
0
3DFACE
8
0
10
341.39963
20
108.833885
30
0.0
11
348.79608
21
96.95221
31
0.0
12
340.5906
22
108.2461
32
0.0
13
340.5907
23
108.2462
33
1.0E-4
0
3DFACE
8
0
10
341.91904
20
107.81446
30
0.0
11
341.61002
21
108.76552
31
0.0
12
328.33325
22
104.45164
32
0.0
13
328.33334
23
104.45174
33
1.0E-4
0
3DFACE
8
0
10
328.33325
20
104.45164
30
0.0
11
341.91904
21
107.81446
31
0.0
12
328.64227
22
103.50058
32
0.0
13
328.64236
23
103.50068
33
1.0E-4
0
3DFACE
8
0
10
328.85266
20
103.43221
30
0.0
11
329.66168
21
104.02
31
0.0
12
321.4562
22
115.31389
32
0.0
13
321.4563
23
115.31399
33
1.0E-4
0
3DFACE
8
0
10
321.4562
20
115.31389
30
0.0
11
328.85266
21
103.43221
31
0.0
12
320.6472
22
114.726105
32
0.0
13
320.64728
23
114.726204
33
1.0E-4
0
3DFACE
8
0
10
320.6472
20
114.50487
30
0.0
11
321.4562
21
113.91708
31
0.0
12
329.66168
22
125.210976
32
0.0
13
329.66177
23
125.211075
33
1.0E-4
0
3DFACE
8
0
10
329.66168
20
125.210976
30
0.0
11
320.6472
21
114.50487
31
0.0
12
328.85266
22
125.79876
32
0.0
13
328.85275
23
125.79886
33
1.0E-4
0
3DFACE
8
0
10
328.64227
20
125.73039
30
0.0
11
328.33325
21
124.779335
31
0.0
12
341.61002
22
120.465454
32
0.0
13
341.6101
23
120.46555
33
1.0E-4
0
3DFACE
8
0
10
341.61002
20
120.465454
30
0.0
11
328.64227
21
125.73039
31
0.0
12
341.91904
22
121.41651
32
0.0
13
341.91913
23
121.41661
33
1.0E-4
0
3DFACE
8
0
10
341.789
20
121.59549
30
0.0
11
340.789
21
121.59549
31
0.0
12
340.789
22
107.635475
32
0.0
13
340.7891
23
107.635574
33
1.0E-4
0
3DFACE
8
0
10
340.789
20
107.635475
30
0.0
11
341.789
21
121.59549
31
0.0
12
341.789
22
107.635475
32
0.0
13
341.7891
23
107.635574
33
1.0E-4
0
3DFACE
8
0
10
340.5906
20
108.02486
30
0.0
11
341.39963
21
107.43707
31
0.0
12
349.6051
22
118.730965
32
0.0
13
349.6052
23
118.731064
33
1.0E-4
0
3DFACE
8
0
10
349.6051
20
118.730965
30
0.0
11
340.5906
21
108.02486
31
0.0
12
348.79608
22
119.31875
32
0.0
13
348.79617
23
119.31885
33
1.0E-4
0
3DFACE
8
0
10
348.79608
20
117.92194
30
0.0
11
349.6051
21
118.50973
31
0.0
12
341.39963
22
129.80362
32
0.0
13
341.39972
23
129.80373
33
1.0E-4
0
3DFACE
8
0
10
341.39963
20
129.80362
30
0.0
11
348.79608
21
117.92194
31
0.0
12
340.5906
22
129.21584
32
0.0
13
340.5907
23
129.21594
33
1.0E-4
0
3DFACE
8
0
10
340.5906
20
128.99461
30
0.0
11
341.39963
21
128.40683
31
0.0
12
349.6051
22
139.70071
32
0.0
13
349.6052
23
139.70082
33
1.0E-4
0
3DFACE
8
0
10
349.6051
20
139.70071
30
0.0
11
340.5906
21
128.99461
31
0.0
12
348.79608
22
140.2885
32
0.0
13
348.79617
23
140.2886
33
1.0E-4
0
3DFACE
8
0
10
348.5857
20
140.22012
30
0.0
11
348.27667
21
139.26907
31
0.0
12
361.55344
22
134.95518
32
0.0
13
361.55353
23
134.95529
33
1.0E-4
0
3DFACE
8
0
10
361.55344
20
134.95518
30
0.0
11
348.5857
21
140.22012
31
0.0
12
361.86246
22
135.90625
32
0.0
13
361.86255
23
135.90636
33
1.0E-4
0
3DFACE
8
0
10
361.73242
20
136.08522
30
0.0
11
360.73242
21
136.08522
31
0.0
12
360.73242
22
122.125206
32
0.0
13
360.7325
23
122.125305
33
1.0E-4
0
3DFACE
8
0
10
360.73242
20
122.125206
30
0.0
11
361.73242
21
136.08522
31
0.0
12
361.73242
22
122.125206
32
0.0
13
361.7325
23
122.125305
33
1.0E-4
0
3DFACE
8
0
10
361.86246
20
122.304184
30
0.0
11
361.55344
21
123.25524
31
0.0
12
348.27667
22
118.94136
32
0.0
13
348.27676
23
118.94146
33
1.0E-4
0
3DFACE
8
0
10
348.27667
20
118.94136
30
0.0
11
361.86246
21
122.304184
31
0.0
12
348.5857
22
117.9903
32
0.0
13
348.5858
23
117.9904
33
1.0E-4
0
3DFACE
8
0
10
348.5857
20
119.25038
30
0.0
11
348.27667
21
118.299324
31
0.0
12
361.55344
22
113.98544
32
0.0
13
361.55353
23
113.98554
33
1.0E-4
0
3DFACE
8
0
10
361.55344
20
113.98544
30
0.0
11
348.5857
21
119.25038
31
0.0
12
361.86246
22
114.9365
32
0.0
13
361.86255
23
114.9366
33
1.0E-4
0
3DFACE
8
0
10
360.53403
20
114.50486
30
0.0
11
361.34305
21
113.917076
31
0.0
12
369.54852
22
125.21097
32
0.0
13
369.5486
23
125.21107
33
1.0E-4
0
3DFACE
8
0
10
369.54852
20
125.21097
30
0.0
11
360.53403
21
114.50486
31
0.0
12
368.7395
22
125.79875
32
0.0
13
368.7396
23
125.79885
33
1.0E-4
0
3DFACE
8
0
10
368.5291
20
125.730385
30
0.0
11
368.2201
21
124.77933
31
0.0
12
381.49686
22
120.46545
32
0.0
13
381.49695
23
120.465546
33
1.0E-4
0
3DFACE
8
0
10
381.49686
20
120.46545
30
0.0
11
368.5291
21
125.730385
31
0.0
12
381.80588
22
121.416504
32
0.0
13
381.80597
23
121.4166
33
1.0E-4
0
3DFACE
8
0
10
381.67584
20
121.59548
30
0.0
11
380.67584
21
121.59548
31
0.0
12
380.67584
22
107.63547
32
0.0
13
380.67593
23
107.63557
33
1.0E-4
0
3DFACE
8
0
10
380.67584
20
107.63547
30
0.0
11
381.67584
21
121.59548
31
0.0
12
381.67584
22
107.63547
32
0.0
13
381.67593
23
107.63557
33
1.0E-4
0
3DFACE
8
0
10
380.85483
20
108.7655
30
0.0
11
380.5458
21
107.814445
31
0.0
12
393.82257
22
103.500565
32
0.0
13
393.82266
23
103.50066
33
1.0E-4
0
3DFACE
8
0
10
393.82257
20
103.500565
30
0.0
11
380.85483
21
108.7655
31
0.0
12
394.1316
22
104.45162
32
0.0
13
394.13168
23
104.45172
33
1.0E-4
0
3DFACE
8
0
10
394.00156
20
104.6306
30
0.0
11
393.00156
21
104.6306
31
0.0
12
393.00156
22
90.670586
32
0.0
13
393.00165
23
90.670685
33
1.0E-4
0
3DFACE
8
0
10
393.00156
20
90.670586
30
0.0
11
394.00156
21
104.6306
31
0.0
12
394.00156
22
90.670586
32
0.0
13
394.00165
23
90.670685
33
1.0E-4
0
3DFACE
8
0
10
392.80316
20
91.05997
30
0.0
11
393.61218
21
90.47218
31
0.0
12
401.81766
22
101.766075
32
0.0
13
401.81775
23
101.766174
33
1.0E-4
0
3DFACE
8
0
10
401.81766
20
101.766075
30
0.0
11
392.80316
21
91.05997
31
0.0
12
401.00864
22
102.35386
32
0.0
13
401.00873
23
102.35396
33
1.0E-4
0
3DFACE
8
0
10
401.00864
20
100.957054
30
0.0
11
401.81766
21
101.54484
31
0.0
12
393.61218
22
112.83873
32
0.0
13
393.61227
23
112.83883
33
1.0E-4
0
3DFACE
8
0
10
393.61218
20
112.83873
30
0.0
11
401.00864
21
100.957054
31
0.0
12
392.80316
22
112.250946
32
0.0
13
392.80325
23
112.251045
33
1.0E-4
0
3DFACE
8
0
10
392.80316
20
112.02971
30
0.0
11
393.61218
21
111.441925
31
0.0
12
401.81766
22
122.73582
32
0.0
13
401.81775
23
122.735916
33
1.0E-4
0
3DFACE
8
0
10
401.81766
20
122.73582
30
0.0
11
392.80316
21
112.02971
31
0.0
12
401.00864
22
123.3236
32
0.0
13
401.00873
23
123.3237
33
1.0E-4
0
3DFACE
8
0
10
400.79825
20
123.25523
30
0.0
11
400.48923
21
122.30418
31
0.0
12
413.766
22
117.990295
32
0.0
13
413.76608
23
117.990395
33
1.0E-4
0
3DFACE
8
0
10
413.766
20
117.990295
30
0.0
11
400.79825
21
123.25523
31
0.0
12
414.075
22
118.94135
32
0.0
13
414.0751
23
118.94145
33
1.0E-4
0
3DFACE
8
0
10
413.94498
20
119.12033
30
0.0
11
412.94498
21
119.12033
31
0.0
12
412.94498
22
105.16032
32
0.0
13
412.94507
23
105.160416
33
1.0E-4
0
3DFACE
8
0
10
412.94498
20
105.16032
30
0.0
11
413.94498
21
119.12033
31
0.0
12
413.94498
22
105.16032
32
0.0
13
413.94507
23
105.160416
33
1.0E-4
0
3DFACE
8
0
10
414.075
20
105.339294
30
0.0
11
413.766
21
106.29035
31
0.0
12
400.48923
22
101.97647
32
0.0
13
400.48932
23
101.97657
33
1.0E-4
0
3DFACE
8
0
10
400.48923
20
101.97647
30
0.0
11
414.075
21
105.339294
31
0.0
12
400.79825
22
101.02541
32
0.0
13
400.79834
23
101.02551
33
1.0E-4
0
3DFACE
8
0
10
400.79825
20
102.28549
30
0.0
11
400.48923
21
101.334435
31
0.0
12
413.766
22
97.02055
32
0.0
13
413.76608
23
97.02065
33
1.0E-4
0
3DFACE
8
0
10
413.766
20
97.02055
30
0.0
11
400.79825
21
102.28549
31
0.0
12
414.075
22
97.97161
32
0.0
13
414.0751
23
97.97171
33
1.0E-4
0
3DFACE
8
0
10
412.74658
20
97.53997
30
0.0
11
413.5556
21
96.95219
31
0.0
12
421.76108
22
108.24608
32
0.0
13
421.76117
23
108.24618
33
1.0E-4
0
3DFACE
8
0
10
421.76108
20
108.24608
30
0.0
11
412.74658
21
97.53997
31
0.0
12
420.95206
22
108.83386
32
0.0
13
420.95215
23
108.83396
33
1.0E-4
0
3DFACE
8
0
10
420.74167
20
108.765495
30
0.0
11
420.43265
21
107.81444
31
0.0
12
433.7094
22
103.50056
32
0.0
13
433.7095
23
103.500656
33
1.0E-4
0
3DFACE
8
0
10
433.7094
20
103.50056
30
0.0
11
420.74167
21
108.765495
31
0.0
12
434.01843
22
104.451614
32
0.0
13
434.01852
23
104.45171
33
1.0E-4
0
3DFACE
8
0
10
433.8884
20
104.63059
30
0.0
11
432.8884
21
104.63059
31
0.0
12
432.8884
22
90.67058
32
0.0
13
432.8885
23
90.67068
33
1.0E-4
0
3DFACE
8
0
10
432.8884
20
90.67058
30
0.0
11
433.8884
21
104.63059
31
0.0
12
433.8884
22
90.67058
32
0.0
13
433.8885
23
90.67068
33
1.0E-4
0
3DFACE
8
0
10
432.69
20
91.05996
30
0.0
11
433.49902
21
90.472176
31
0.0
12
441.7045
22
101.76607
32
0.0
13
441.7046
23
101.76617
33
1.0E-4
0
3DFACE
8
0
10
441.7045
20
101.76607
30
0.0
11
432.69
21
91.05996
31
0.0
12
440.89548
22
102.35385
32
0.0
13
440.89557
23
102.35395
33
1.0E-4
0
3DFACE
8
0
10
440.6851
20
102.285484
30
0.0
11
440.37607
21
101.33443
31
0.0
12
453.65283
22
97.020546
32
0.0
13
453.65292
23
97.020645
33
1.0E-4
0
3DFACE
8
0
10
453.65283
20
97.020546
30
0.0
11
440.6851
21
102.285484
31
0.0
12
453.96185
22
97.9716
32
0.0
13
453.96194
23
97.9717
33
1.0E-4
0
3DFACE
8
0
10
453.2212
20
96.95218
30
0.0
11
454.0302
21
97.53996
31
0.0
12
445.82474
22
108.833855
32
0.0
13
445.82483
23
108.833954
33
1.0E-4
0
3DFACE
8
0
10
445.82474
20
108.833855
30
0.0
11
453.2212
21
96.95218
31
0.0
12
445.01572
22
108.24607
32
0.0
13
445.0158
23
108.24617
33
1.0E-4
0
3DFACE
8
0
10
446.34415
20
107.81443
30
0.0
11
446.03513
21
108.76549
31
0.0
12
432.75836
22
104.45161
32
0.0
13
432.75845
23
104.451706
33
1.0E-4
0
3DFACE
8
0
10
432.75836
20
104.45161
30
0.0
11
446.34415
21
107.81443
31
0.0
12
433.06738
22
103.50055
32
0.0
13
433.06747
23
103.50065
33
1.0E-4
0
3DFACE
8
0
10
433.27777
20
103.43218
30
0.0
11
434.0868
21
104.019966
31
0.0
12
425.88132
22
115.31386
32
0.0
13
425.8814
23
115.31396
33
1.0E-4
0
3DFACE
8
0
10
425.88132
20
115.31386
30
0.0
11
433.27777
21
103.43218
31
0.0
12
425.0723
22
114.726074
32
0.0
13
425.0724
23
114.72617
33
1.0E-4
0
3DFACE
8
0
10
425.0723
20
114.50484
30
0.0
11
425.88132
21
113.91705
31
0.0
12
434.0868
22
125.210945
32
0.0
13
434.08688
23
125.211044
33
1.0E-4
0
3DFACE
8
0
10
434.0868
20
125.210945
30
0.0
11
425.0723
21
114.50484
31
0.0
12
433.27777
22
125.79873
32
0.0
13
433.27786
23
125.79883
33
1.0E-4
0
3DFACE
8
0
10
433.27777
20
124.401924
30
0.0
11
434.0868
21
124.98971
31
0.0
12
425.88132
22
136.2836
32
0.0
13
425.8814
23
136.2837
33
1.0E-4
0
3DFACE
8
0
10
425.88132
20
136.2836
30
0.0
11
433.27777
21
124.401924
31
0.0
12
425.0723
22
135.69582
32
0.0
13
425.0724
23
135.69592
33
1.0E-4
0
3DFACE
8
0
10
425.0723
20
135.4746
30
0.0
11
425.88132
21
134.88681
31
0.0
12
434.0868
22
146.1807
32
0.0
13
434.08688
23
146.1808
33
1.0E-4
0
3DFACE
8
0
10
434.0868
20
146.1807
30
0.0
11
425.0723
21
135.4746
31
0.0
12
433.27777
22
146.76848
32
0.0
13
433.27786
23
146.76859
33
1.0E-4
0
3DFACE
8
0
10
434.01843
20
145.74905
30
0.0
11
433.7094
21
146.7001
31
0.0
12
420.43265
22
142.38623
32
0.0
13
420.43274
23
142.38634
33
1.0E-4
0
3DFACE
8
0
10
420.43265
20
142.38623
30
0.0
11
434.01843
21
145.74905
31
0.0
12
420.74167
22
141.43517
32
0.0
13
420.74176
23
141.43527
33
1.0E-4
0
3DFACE
8
0
10
421.56268
20
142.5652
30
0.0
11
420.56268
21
142.5652
31
0.0
12
420.56268
22
128.6052
32
0.0
13
420.56277
23
128.6053
33
1.0E-4
0
3DFACE
8
0
10
420.56268
20
128.6052
30
0.0
11
421.56268
21
142.5652
31
0.0
12
421.56268
22
128.6052
32
0.0
13
421.56277
23
128.6053
33
1.0E-4
0
3DFACE
8
0
10
421.69272
20
128.78418
30
0.0
11
421.3837
21
129.73523
31
0.0
12
408.10693
22
125.42135
32
0.0
13
408.10703
23
125.42145
33
1.0E-4
0
3DFACE
8
0
10
408.10693
20
125.42135
30
0.0
11
421.69272
21
128.78418
31
0.0
12
408.41595
22
124.47029
32
0.0
13
408.41605
23
124.47039
33
1.0E-4
0
3DFACE
8
0
10
408.62634
20
124.401924
30
0.0
11
409.43536
21
124.98971
31
0.0
12
401.2299
22
136.2836
32
0.0
13
401.22998
23
136.2837
33
1.0E-4
0
3DFACE
8
0
10
401.2299
20
136.2836
30
0.0
11
408.62634
21
124.401924
31
0.0
12
400.42087
22
135.69582
32
0.0
13
400.42096
23
135.69592
33
1.0E-4
0
3DFACE
8
0
10
400.42087
20
135.4746
30
0.0
11
401.2299
21
134.88681
31
0.0
12
409.43536
22
146.1807
32
0.0
13
409.43546
23
146.1808
33
1.0E-4
0
3DFACE
8
0
10
409.43536
20
146.1807
30
0.0
11
400.42087
21
135.4746
31
0.0
12
408.62634
22
146.76848
32
0.0
13
408.62643
23
146.76859
33
1.0E-4
0
3DFACE
8
0
10
408.41595
20
146.7001
30
0.0
11
408.10693
21
145.74905
31
0.0
12
421.3837
22
141.43517
32
0.0
13
421.3838
23
141.43527
33
1.0E-4
0
3DFACE
8
0
10
421.3837
20
141.43517
30
0.0
11
408.41595
21
146.7001
31
0.0
12
421.69272
22
142.38623
32
0.0
13
421.6928
23
142.38634
33
1.0E-4
0
3DFACE
8
0
10
420.95206
20
141.3668
30
0.0
11
421.76108
21
141.95459
31
0.0
12
413.5556
22
153.24847
32
0.0
13
413.5557
23
153.24858
33
1.0E-4
0
3DFACE
8
0
10
413.5556
20
153.24847
30
0.0
11
420.95206
21
141.3668
31
0.0
12
412.74658
22
152.66069
32
0.0
13
412.74667
23
152.6608
33
1.0E-4
0
3DFACE
8
0
10
414.075
20
152.22906
30
0.0
11
413.766
21
153.18011
31
0.0
12
400.48923
22
148.86624
32
0.0
13
400.48932
23
148.86635
33
1.0E-4
0
3DFACE
8
0
10
400.48923
20
148.86624
30
0.0
11
414.075
21
152.22906
31
0.0
12
400.79825
22
147.91518
32
0.0
13
400.79834
23
147.91528
33
1.0E-4
0
3DFACE
8
0
10
401.00864
20
147.84682
30
0.0
11
401.81766
21
148.4346
31
0.0
12
393.61218
22
159.72849
32
0.0
13
393.61227
23
159.72859
33
1.0E-4
0
3DFACE
8
0
10
393.61218
20
159.72849
30
0.0
11
401.00864
21
147.84682
31
0.0
12
392.80316
22
159.1407
32
0.0
13
392.80325
23
159.14081
33
1.0E-4
0
3DFACE
8
0
10
392.80316
20
158.91948
30
0.0
11
393.61218
21
158.3317
31
0.0
12
401.81766
22
169.62558
32
0.0
13
401.81775
23
169.62569
33
1.0E-4
0
3DFACE
8
0
10
401.81766
20
169.62558
30
0.0
11
392.80316
21
158.91948
31
0.0
12
401.00864
22
170.21336
32
0.0
13
401.00873
23
170.21347
33
1.0E-4
0
3DFACE
8
0
10
400.79825
20
170.14499
30
0.0
11
400.48923
21
169.19394
31
0.0
12
413.766
22
164.88005
32
0.0
13
413.76608
23
164.88016
33
1.0E-4
0
3DFACE
8
0
10
413.766
20
164.88005
30
0.0
11
400.79825
21
170.14499
31
0.0
12
414.075
22
165.83112
32
0.0
13
414.0751
23
165.83122
33
1.0E-4
0
3DFACE
8
0
10
413.94498
20
166.01009
30
0.0
11
412.94498
21
166.01009
31
0.0
12
412.94498
22
152.05008
32
0.0
13
412.94507
23
152.05019
33
1.0E-4
0
3DFACE
8
0
10
412.94498
20
152.05008
30
0.0
11
413.94498
21
166.01009
31
0.0
12
413.94498
22
152.05008
32
0.0
13
413.94507
23
152.05019
33
1.0E-4
0
3DFACE
8
0
10
412.74658
20
152.43947
30
0.0
11
413.5556
21
151.85168
31
0.0
12
421.76108
22
163.14557
32
0.0
13
421.76117
23
163.14568
33
1.0E-4
0
3DFACE
8
0
10
421.76108
20
163.14557
30
0.0
11
412.74658
21
152.43947
31
0.0
12
420.95206
22
163.73335
32
0.0
13
420.95215
23
163.73346
33
1.0E-4
0
3DFACE
8
0
10
420.95206
20
162.33655
30
0.0
11
421.76108
21
162.92433
31
0.0
12
413.5556
22
174.21822
32
0.0
13
413.5557
23
174.21832
33
1.0E-4
0
3DFACE
8
0
10
413.5556
20
174.21822
30
0.0
11
420.95206
21
162.33655
31
0.0
12
412.74658
22
173.63043
32
0.0
13
412.74667
23
173.63054
33
1.0E-4
0
3DFACE
8
0
10
412.74658
20
173.4092
30
0.0
11
413.5556
21
172.82141
31
0.0
12
421.76108
22
184.1153
32
0.0
13
421.76117
23
184.1154
33
1.0E-4
0
3DFACE
8
0
10
421.76108
20
184.1153
30
0.0
11
412.74658
21
173.4092
31
0.0
12
420.95206
22
184.70308
32
0.0
13
420.95215
23
184.70319
33
1.0E-4
0
3DFACE
8
0
10
420.74167
20
184.6347
30
0.0
11
420.43265
21
183.68365
31
0.0
12
433.7094
22
179.36977
32
0.0
13
433.7095
23
179.36987
33
1.0E-4
0
3DFACE
8
0
10
433.7094
20
179.36977
30
0.0
11
420.74167
21
184.6347
31
0.0
12
434.01843
22
180.32083
32
0.0
13
434.01852
23
180.32094
33
1.0E-4
0
3DFACE
8
0
10
433.8884
20
180.4998
30
0.0
11
432.8884
21
180.4998
31
0.0
12
432.8884
22
166.5398
32
0.0
13
432.8885
23
166.5399
33
1.0E-4
0
3DFACE
8
0
10
432.8884
20
166.5398
30
0.0
11
433.8884
21
180.4998
31
0.0
12
433.8884
22
166.5398
32
0.0
13
433.8885
23
166.5399
33
1.0E-4
0
3DFACE
8
0
10
434.01843
20
166.71878
30
0.0
11
433.7094
21
167.66983
31
0.0
12
420.43265
22
163.35596
32
0.0
13
420.43274
23
163.35606
33
1.0E-4
0
3DFACE
8
0
10
420.43265
20
163.35596
30
0.0
11
434.01843
21
166.71878
31
0.0
12
420.74167
22
162.40489
32
0.0
13
420.74176
23
162.405
33
1.0E-4
0
3DFACE
8
0
10
420.74167
20
163.66496
30
0.0
11
420.43265
21
162.71391
31
0.0
12
433.7094
22
158.40002
32
0.0
13
433.7095
23
158.40013
33
1.0E-4
0
3DFACE
8
0
10
433.7094
20
158.40002
30
0.0
11
420.74167
21
163.66496
31
0.0
12
434.01843
22
159.35109
32
0.0
13
434.01852
23
159.3512
33
1.0E-4
0
3DFACE
8
0
10
432.69
20
158.91945
30
0.0
11
433.49902
21
158.33167
31
0.0
12
441.7045
22
169.62555
32
0.0
13
441.7046
23
169.62566
33
1.0E-4
0
3DFACE
8
0
10
441.7045
20
169.62555
30
0.0
11
432.69
21
158.91945
31
0.0
12
440.89548
22
170.21333
32
0.0
13
440.89557
23
170.21344
33
1.0E-4
0
3DFACE
8
0
10
440.6851
20
170.14496
30
0.0
11
440.37607
21
169.19391
31
0.0
12
453.65283
22
164.88002
32
0.0
13
453.65292
23
164.88013
33
1.0E-4
0
3DFACE
8
0
10
453.65283
20
164.88002
30
0.0
11
440.6851
21
170.14496
31
0.0
12
453.96185
22
165.83109
32
0.0
13
453.96194
23
165.83119
33
1.0E-4
0
3DFACE
8
0
10
453.83182
20
166.01006
30
0.0
11
452.83182
21
166.01006
31
0.0
12
452.83182
22
152.05005
32
0.0
13
452.8319
23
152.05016
33
1.0E-4
0
3DFACE
8
0
10
452.83182
20
152.05005
30
0.0
11
453.83182
21
166.01006
31
0.0
12
453.83182
22
152.05005
32
0.0
13
453.8319
23
152.05016
33
1.0E-4
0
3DFACE
8
0
10
453.96185
20
152.22903
30
0.0
11
453.65283
21
153.18008
31
0.0
12
440.37607
22
148.86621
32
0.0
13
440.37616
23
148.86632
33
1.0E-4
0
3DFACE
8
0
10
440.37607
20
148.86621
30
0.0
11
453.96185
21
152.22903
31
0.0
12
440.6851
22
147.91515
32
0.0
13
440.68518
23
147.91525
33
1.0E-4
0
3DFACE
8
0
10
440.89548
20
147.84679
30
0.0
11
441.7045
21
148.43457
31
0.0
12
433.49902
22
159.72845
32
0.0
13
433.4991
23
159.72856
33
1.0E-4
0
3DFACE
8
0
10
433.49902
20
159.72845
30
0.0
11
440.89548
21
147.84679
31
0.0
12
432.69
22
159.14067
32
0.0
13
432.6901
23
159.14078
33
1.0E-4
0
3DFACE
8
0
10
433.8884
20
159.53006
30
0.0
11
432.8884
21
159.53006
31
0.0
12
432.8884
22
145.57005
32
0.0
13
432.8885
23
145.57016
33
1.0E-4
0
3DFACE
8
0
10
432.8884
20
145.57005
30
0.0
11
433.8884
21
159.53006
31
0.0
12
433.8884
22
145.57005
32
0.0
13
433.8885
23
145.57016
33
1.0E-4
0
3DFACE
8
0
10
433.06738
20
146.70009
30
0.0
11
432.75836
21
145.74904
31
0.0
12
446.03513
22
141.43515
32
0.0
13
446.03522
23
141.43526
33
1.0E-4
0
3DFACE
8
0
10
446.03513
20
141.43515
30
0.0
11
433.06738
21
146.70009
31
0.0
12
446.34415
22
142.38622
32
0.0
13
446.34424
23
142.38632
33
1.0E-4
0
3DFACE
8
0
10
446.2141
20
142.56519
30
0.0
11
445.2141
21
142.56519
31
0.0
12
445.2141
22
128.60518
32
0.0
13
445.2142
23
128.60529
33
1.0E-4
0
3DFACE
8
0
10
445.2141
20
128.60518
30
0.0
11
446.2141
21
142.56519
31
0.0
12
446.2141
22
128.60518
32
0.0
13
446.2142
23
128.60529
33
1.0E-4
0
3DFACE
8
0
10
446.34415
20
128.78416
30
0.0
11
446.03513
21
129.73521
31
0.0
12
432.75836
22
125.42133
32
0.0
13
432.75845
23
125.42143
33
1.0E-4
0
3DFACE
8
0
10
432.75836
20
125.42133
30
0.0
11
446.34415
21
128.78416
31
0.0
12
433.06738
22
124.470276
32
0.0
13
433.06747
23
124.470375
33
1.0E-4
0
3DFACE
8
0
10
433.06738
20
125.73035
30
0.0
11
432.75836
21
124.77929
31
0.0
12
446.03513
22
120.46541
32
0.0
13
446.03522
23
120.46551
33
1.0E-4
0
3DFACE
8
0
10
446.03513
20
120.46541
30
0.0
11
433.06738
21
125.73035
31
0.0
12
446.34415
22
121.416466
32
0.0
13
446.34424
23
121.416565
33
1.0E-4
0
3DFACE
8
0
10
446.2141
20
121.59544
30
0.0
11
445.2141
21
121.59544
31
0.0
12
445.2141
22
107.63543
32
0.0
13
445.2142
23
107.63553
33
1.0E-4
0
3DFACE
8
0
10
445.2141
20
107.63543
30
0.0
11
446.2141
21
121.59544
31
0.0
12
446.2141
22
107.63543
32
0.0
13
446.2142
23
107.63553
33
1.0E-4
0
3DFACE
8
0
10
445.01572
20
108.02481
30
0.0
11
445.82474
21
107.43703
31
0.0
12
454.0302
22
118.73092
32
0.0
13
454.0303
23
118.73102
33
1.0E-4
0
3DFACE
8
0
10
454.0302
20
118.73092
30
0.0
11
445.01572
21
108.02481
31
0.0
12
453.2212
22
119.3187
32
0.0
13
453.22128
23
119.3188
33
1.0E-4
0
3DFACE
8
0
10
453.2212
20
117.9219
30
0.0
11
454.0302
21
118.50968
31
0.0
12
445.82474
22
129.80357
32
0.0
13
445.82483
23
129.80368
33
1.0E-4
0
3DFACE
8
0
10
445.82474
20
129.80357
30
0.0
11
453.2212
21
117.9219
31
0.0
12
445.01572
22
129.21579
32
0.0
13
445.0158
23
129.2159
33
1.0E-4
0
3DFACE
8
0
10
445.01572
20
128.99455
30
0.0
11
445.82474
21
128.40677
31
0.0
12
454.0302
22
139.70065
32
0.0
13
454.0303
23
139.70076
33
1.0E-4
0
3DFACE
8
0
10
454.0302
20
139.70065
30
0.0
11
445.01572
21
128.99455
31
0.0
12
453.2212
22
140.28844
32
0.0
13
453.22128
23
140.28854
33
1.0E-4
0
3DFACE
8
0
10
453.0108
20
140.22006
30
0.0
11
452.70178
21
139.26901
31
0.0
12
465.97855
22
134.95512
32
0.0
13
465.97864
23
134.95523
33
1.0E-4
0
3DFACE
8
0
10
465.97855
20
134.95512
30
0.0
11
453.0108
21
140.22006
31
0.0
12
466.28757
22
135.90619
32
0.0
13
466.28766
23
135.9063
33
1.0E-4
0
3DFACE
8
0
10
464.95914
20
135.47455
30
0.0
11
465.76816
21
134.88676
31
0.0
12
473.97363
22
146.18065
32
0.0
13
473.97372
23
146.18076
33
1.0E-4
0
3DFACE
8
0
10
473.97363
20
146.18065
30
0.0
11
464.95914
21
135.47455
31
0.0
12
473.1646
22
146.76843
32
0.0
13
473.1647
23
146.76854
33
1.0E-4
0
3DFACE
8
0
10
472.95422
20
146.70007
30
0.0
11
472.6452
21
145.74902
31
0.0
12
485.92197
22
141.43513
32
0.0
13
485.92206
23
141.43524
33
1.0E-4
0
3DFACE
8
0
10
485.92197
20
141.43513
30
0.0
11
472.95422
21
146.70007
31
0.0
12
486.231
22
142.3862
32
0.0
13
486.23108
23
142.3863
33
1.0E-4
0
3DFACE
8
0
10
485.49033
20
141.36678
30
0.0
11
486.29935
21
141.95456
31
0.0
12
478.09387
22
153.24844
32
0.0
13
478.09396
23
153.24855
33
1.0E-4
0
3DFACE
8
0
10
478.09387
20
153.24844
30
0.0
11
485.49033
21
141.36678
31
0.0
12
477.28485
22
152.66066
32
0.0
13
477.28494
23
152.66077
33
1.0E-4
0
3DFACE
8
0
10
478.61328
20
152.22903
30
0.0
11
478.30426
21
153.18008
31
0.0
12
465.0275
22
148.86621
32
0.0
13
465.0276
23
148.86632
33
1.0E-4
0
3DFACE
8
0
10
465.0275
20
148.86621
30
0.0
11
478.61328
21
152.22903
31
0.0
12
465.33652
22
147.91515
32
0.0
13
465.3366
23
147.91525
33
1.0E-4
0
3DFACE
8
0
10
465.5469
20
147.84679
30
0.0
11
466.35593
21
148.43457
31
0.0
12
458.15045
22
159.72845
32
0.0
13
458.15054
23
159.72856
33
1.0E-4
0
3DFACE
8
0
10
458.15045
20
159.72845
30
0.0
11
465.5469
21
147.84679
31
0.0
12
457.34143
22
159.14067
32
0.0
13
457.34152
23
159.14078
33
1.0E-4
0
3DFACE
8
0
10
457.34143
20
158.91945
30
0.0
11
458.15045
21
158.33167
31
0.0
12
466.35593
22
169.62555
32
0.0
13
466.35602
23
169.62566
33
1.0E-4
0
3DFACE
8
0
10
466.35593
20
169.62555
30
0.0
11
457.34143
21
158.91945
31
0.0
12
465.5469
22
170.21333
32
0.0
13
465.547
23
170.21344
33
1.0E-4
0
3DFACE
8
0
10
465.33652
20
170.14496
30
0.0
11
465.0275
21
169.19391
31
0.0
12
478.30426
22
164.88002
32
0.0
13
478.30435
23
164.88013
33
1.0E-4
0
3DFACE
8
0
10
478.30426
20
164.88002
30
0.0
11
465.33652
21
170.14496
31
0.0
12
478.61328
22
165.83109
32
0.0
13
478.61337
23
165.83119
33
1.0E-4
0
3DFACE
8
0
10
478.48325
20
166.01006
30
0.0
11
477.48325
21
166.01006
31
0.0
12
477.48325
22
152.05005
32
0.0
13
477.48334
23
152.05016
33
1.0E-4
0
3DFACE
8
0
10
477.48325
20
152.05005
30
0.0
11
478.48325
21
166.01006
31
0.0
12
478.48325
22
152.05005
32
0.0
13
478.48334
23
152.05016
33
1.0E-4
0
3DFACE
8
0
10
477.28485
20
152.43944
30
0.0
11
478.09387
21
151.85165
31
0.0
12
486.29935
22
163.14554
32
0.0
13
486.29944
23
163.14565
33
1.0E-4
0
3DFACE
8
0
10
486.29935
20
163.14554
30
0.0
11
477.28485
21
152.43944
31
0.0
12
485.49033
22
163.73332
32
0.0
13
485.49042
23
163.73343
33
1.0E-4
0
3DFACE
8
0
10
485.49033
20
162.33652
30
0.0
11
486.29935
21
162.9243
31
0.0
12
478.09387
22
174.21819
32
0.0
13
478.09396
23
174.21829
33
1.0E-4
0
3DFACE
8
0
10
478.09387
20
174.21819
30
0.0
11
485.49033
21
162.33652
31
0.0
12
477.28485
22
173.6304
32
0.0
13
477.28494
23
173.63051
33
1.0E-4
0
3DFACE
8
0
10
477.28485
20
173.40916
30
0.0
11
478.09387
21
172.82138
31
0.0
12
486.29935
22
184.11526
32
0.0
13
486.29944
23
184.11537
33
1.0E-4
0
3DFACE
8
0
10
486.29935
20
184.11526
30
0.0
11
477.28485
21
173.40916
31
0.0
12
485.49033
22
184.70305
32
0.0
13
485.49042
23
184.70316
33
1.0E-4
0
3DFACE
8
0
10
485.27994
20
184.63467
30
0.0
11
484.97092
21
183.68362
31
0.0
12
498.24768
22
179.36974
32
0.0
13
498.24777
23
179.36984
33
1.0E-4
0
3DFACE
8
0
10
498.24768
20
179.36974
30
0.0
11
485.27994
21
184.63467
31
0.0
12
498.5567
22
180.3208
32
0.0
13
498.5568
23
180.3209
33
1.0E-4
0
3DFACE
8
0
10
498.42667
20
180.49977
30
0.0
11
497.42667
21
180.49977
31
0.0
12
497.42667
22
166.53976
32
0.0
13
497.42676
23
166.53987
33
1.0E-4
0
3DFACE
8
0
10
497.42667
20
166.53976
30
0.0
11
498.42667
21
180.49977
31
0.0
12
498.42667
22
166.53976
32
0.0
13
498.42676
23
166.53987
33
1.0E-4
0
3DFACE
8
0
10
498.5567
20
166.71875
30
0.0
11
498.24768
21
167.6698
31
0.0
12
484.97092
22
163.35593
32
0.0
13
484.971
23
163.35603
33
1.0E-4
0
3DFACE
8
0
10
484.97092
20
163.35593
30
0.0
11
498.5567
21
166.71875
31
0.0
12
485.27994
22
162.40486
32
0.0
13
485.28003
23
162.40497
33
1.0E-4
0
3DFACE
8
0
10
485.27994
20
163.66493
30
0.0
11
484.97092
21
162.71388
31
0.0
12
498.24768
22
158.4
32
0.0
13
498.24777
23
158.4001
33
1.0E-4
0
3DFACE
8
0
10
498.24768
20
158.4
30
0.0
11
485.27994
21
163.66493
31
0.0
12
498.5567
22
159.35106
32
0.0
13
498.5568
23
159.35117
33
1.0E-4
0
3DFACE
8
0
10
497.22827
20
158.91942
30
0.0
11
498.0373
21
158.33163
31
0.0
12
506.24277
22
169.62552
32
0.0
13
506.24286
23
169.62563
33
1.0E-4
0
3DFACE
8
0
10
506.24277
20
169.62552
30
0.0
11
497.22827
21
158.91942
31
0.0
12
505.43375
22
170.2133
32
0.0
13
505.43384
23
170.21341
33
1.0E-4
0
3DFACE
8
0
10
505.22336
20
170.14493
30
0.0
11
504.91434
21
169.19388
31
0.0
12
518.1911
22
164.87999
32
0.0
13
518.1912
23
164.8801
33
1.0E-4
0
3DFACE
8
0
10
518.1911
20
164.87999
30
0.0
11
505.22336
21
170.14493
31
0.0
12
518.5001
22
165.83105
32
0.0
13
518.50024
23
165.83116
33
1.0E-4
0
3DFACE
8
0
10
518.37006
20
166.01003
30
0.0
11
517.37006
21
166.01003
31
0.0
12
517.37006
22
152.05002
32
0.0
13
517.3702
23
152.05013
33
1.0E-4
0
3DFACE
8
0
10
517.37006
20
152.05002
30
0.0
11
518.37006
21
166.01003
31
0.0
12
518.37006
22
152.05002
32
0.0
13
518.3702
23
152.05013
33
1.0E-4
0
3DFACE
8
0
10
518.5001
20
152.229
30
0.0
11
518.1911
21
153.18005
31
0.0
12
504.9143
22
148.86618
32
0.0
13
504.9144
23
148.86629
33
1.0E-4
0
3DFACE
8
0
10
504.9143
20
148.86618
30
0.0
11
518.5001
21
152.229
31
0.0
12
505.22333
22
147.91512
32
0.0
13
505.22342
23
147.91522
33
1.0E-4
0
3DFACE
8
0
10
505.43372
20
147.84676
30
0.0
11
506.24274
21
148.43454
31
0.0
12
498.03726
22
159.72842
32
0.0
13
498.03735
23
159.72853
33
1.0E-4
0
3DFACE
8
0
10
498.03726
20
159.72842
30
0.0
11
505.43372
21
147.84676
31
0.0
12
497.22824
22
159.14064
32
0.0
13
497.22833
23
159.14075
33
1.0E-4
0
3DFACE
8
0
10
498.42664
20
159.53003
30
0.0
11
497.42664
21
159.53003
31
0.0
12
497.42664
22
145.57002
32
0.0
13
497.42673
23
145.57013
33
1.0E-4
0
3DFACE
8
0
10
497.42664
20
145.57002
30
0.0
11
498.42664
21
159.53003
31
0.0
12
498.42664
22
145.57002
32
0.0
13
498.42673
23
145.57013
33
1.0E-4
0
3DFACE
8
0
10
497.60562
20
146.70006
30
0.0
11
497.2966
21
145.74901
31
0.0
12
510.57336
22
141.43512
32
0.0
13
510.57346
23
141.43523
33
1.0E-4
0
3DFACE
8
0
10
510.57336
20
141.43512
30
0.0
11
497.60562
21
146.70006
31
0.0
12
510.8824
22
142.38618
32
0.0
13
510.88248
23
142.38629
33
1.0E-4
0
3DFACE
8
0
10
510.75235
20
142.56516
30
0.0
11
509.75235
21
142.56516
31
0.0
12
509.75235
22
128.60515
32
0.0
13
509.75244
23
128.60526
33
1.0E-4
0
3DFACE
8
0
10
509.75235
20
128.60515
30
0.0
11
510.75235
21
142.56516
31
0.0
12
510.75235
22
128.60515
32
0.0
13
510.75244
23
128.60526
33
1.0E-4
0
3DFACE
8
0
10
510.8824
20
128.78413
30
0.0
11
510.57336
21
129.73518
31
0.0
12
497.2966
22
125.4213
32
0.0
13
497.2967
23
125.4214
33
1.0E-4
0
3DFACE
8
0
10
497.2966
20
125.4213
30
0.0
11
510.8824
21
128.78413
31
0.0
12
497.60562
22
124.470245
32
0.0
13
497.6057
23
124.470345
33
1.0E-4
0
3DFACE
8
0
10
497.816
20
124.40188
30
0.0
11
498.62503
21
124.98966
31
0.0
12
490.41956
22
136.28355
32
0.0
13
490.41965
23
136.28366
33
1.0E-4
0
3DFACE
8
0
10
490.41956
20
136.28355
30
0.0
11
497.816
21
124.40188
31
0.0
12
489.61053
22
135.69577
32
0.0
13
489.61063
23
135.69588
33
1.0E-4
0
3DFACE
8
0
10
489.61053
20
135.47453
30
0.0
11
490.41956
21
134.88675
31
0.0
12
498.62503
22
146.18063
32
0.0
13
498.62512
23
146.18074
33
1.0E-4
0
3DFACE
8
0
10
498.62503
20
146.18063
30
0.0
11
489.61053
21
135.47453
31
0.0
12
497.816
22
146.76842
32
0.0
13
497.8161
23
146.76852
33
1.0E-4
0
3DFACE
8
0
10
498.55667
20
145.749
30
0.0
11
498.24765
21
146.70004
31
0.0
12
484.9709
22
142.38617
32
0.0
13
484.97098
23
142.38628
33
1.0E-4
0
3DFACE
8
0
10
484.9709
20
142.38617
30
0.0
11
498.55667
21
145.749
31
0.0
12
485.2799
22
141.4351
32
0.0
13
485.28
23
141.43521
33
1.0E-4
0
3DFACE
8
0
10
486.10092
20
142.56514
30
0.0
11
485.10092
21
142.56514
31
0.0
12
485.10092
22
128.60513
32
0.0
13
485.101
23
128.60524
33
1.0E-4
0
3DFACE
8
0
10
485.10092
20
128.60513
30
0.0
11
486.10092
21
142.56514
31
0.0
12
486.10092
22
128.60513
32
0.0
13
486.101
23
128.60524
33
1.0E-4
0
3DFACE
8
0
10
486.23096
20
128.78412
30
0.0
11
485.92194
21
129.73517
31
0.0
12
472.64517
22
125.42129
32
0.0
13
472.64526
23
125.42139
33
1.0E-4
0
3DFACE
8
0
10
472.64517
20
125.42129
30
0.0
11
486.23096
21
128.78412
31
0.0
12
472.9542
22
124.47023
32
0.0
13
472.95428
23
124.47033
33
1.0E-4
0
3DFACE
8
0
10
473.16458
20
124.40186
30
0.0
11
473.9736
21
124.98965
31
0.0
12
465.76813
22
136.28354
32
0.0
13
465.76822
23
136.28365
33
1.0E-4
0
3DFACE
8
0
10
465.76813
20
136.28354
30
0.0
11
473.16458
21
124.40186
31
0.0
12
464.9591
22
135.69576
32
0.0
13
464.9592
23
135.69586
33
1.0E-4
0
3DFACE
8
0
10
466.1575
20
136.08514
30
0.0
11
465.1575
21
136.08514
31
0.0
12
465.1575
22
122.12513
32
0.0
13
465.1576
23
122.12523
33
1.0E-4
0
3DFACE
8
0
10
465.1575
20
122.12513
30
0.0
11
466.1575
21
136.08514
31
0.0
12
466.1575
22
122.12513
32
0.0
13
466.1576
23
122.12523
33
1.0E-4
0
3DFACE
8
0
10
466.28754
20
122.30411
30
0.0
11
465.97852
21
123.255165
31
0.0
12
452.70175
22
118.941284
32
0.0
13
452.70184
23
118.94138
33
1.0E-4
0
3DFACE
8
0
10
452.70175
20
118.941284
30
0.0
11
466.28754
21
122.30411
31
0.0
12
453.01077
22
117.99023
32
0.0
13
453.01086
23
117.990326
33
1.0E-4
0
3DFACE
8
0
10
453.01077
20
119.2503
30
0.0
11
452.70175
21
118.29924
31
0.0
12
465.97852
22
113.98536
32
0.0
13
465.9786
23
113.98546
33
1.0E-4
0
3DFACE
8
0
10
465.97852
20
113.98536
30
0.0
11
453.01077
21
119.2503
31
0.0
12
466.28754
22
114.93642
32
0.0
13
466.28763
23
114.936516
33
1.0E-4
0
3DFACE
8
0
10
464.9591
20
114.50478
30
0.0
11
465.76813
21
113.917
31
0.0
12
473.9736
22
125.21089
32
0.0
13
473.9737
23
125.21099
33
1.0E-4
0
3DFACE
8
0
10
473.9736
20
125.21089
30
0.0
11
464.9591
21
114.50478
31
0.0
12
473.16458
22
125.798676
32
0.0
13
473.16467
23
125.798775
33
1.0E-4
0
3DFACE
8
0
10
472.9542
20
125.73031
30
0.0
11
472.64517
21
124.77925
31
0.0
12
485.92194
22
120.46537
32
0.0
13
485.92203
23
120.46547
33
1.0E-4
0
3DFACE
8
0
10
485.92194
20
120.46537
30
0.0
11
472.9542
21
125.73031
31
0.0
12
486.23096
22
121.41643
32
0.0
13
486.23105
23
121.41653
33
1.0E-4
0
3DFACE
8
0
10
486.10092
20
121.59541
30
0.0
11
485.10092
21
121.59541
31
0.0
12
485.10092
22
107.6354
32
0.0
13
485.101
23
107.6355
33
1.0E-4
0
3DFACE
8
0
10
485.10092
20
107.6354
30
0.0
11
486.10092
21
121.59541
31
0.0
12
486.10092
22
107.6354
32
0.0
13
486.101
23
107.6355
33
1.0E-4
0
3DFACE
8
0
10
485.2799
20
108.765434
30
0.0
11
484.9709
21
107.81438
31
0.0
12
498.24765
22
103.500496
32
0.0
13
498.24774
23
103.500595
33
1.0E-4
0
3DFACE
8
0
10
498.24765
20
103.500496
30
0.0
11
485.2799
21
108.765434
31
0.0
12
498.55667
22
104.45155
32
0.0
13
498.55676
23
104.45165
33
1.0E-4
0
3DFACE
8
0
10
498.42664
20
104.63054
30
0.0
11
497.42664
21
104.63054
31
0.0
12
497.42664
22
90.670525
32
0.0
13
497.42673
23
90.67062
33
1.0E-4
0
3DFACE
8
0
10
497.42664
20
90.670525
30
0.0
11
498.42664
21
104.63054
31
0.0
12
498.42664
22
90.670525
32
0.0
13
498.42673
23
90.67062
33
1.0E-4
0
3DFACE
8
0
10
497.22824
20
91.059906
30
0.0
11
498.03726
21
90.47212
31
0.0
12
506.24274
22
101.766014
32
0.0
13
506.24283
23
101.76611
33
1.0E-4
0
3DFACE
8
0
10
506.24274
20
101.766014
30
0.0
11
497.22824
21
91.059906
31
0.0
12
505.43372
22
102.3538
32
0.0
13
505.4338
23
102.3539
33
1.0E-4
0
3DFACE
8
0
10
505.43372
20
100.95699
30
0.0
11
506.24274
21
101.54478
31
0.0
12
498.03726
22
112.83867
32
0.0
13
498.03735
23
112.83877
33
1.0E-4
0
3DFACE
8
0
10
498.03726
20
112.83867
30
0.0
11
505.43372
21
100.95699
31
0.0
12
497.22824
22
112.250885
32
0.0
13
497.22833
23
112.250984
33
1.0E-4
0
3DFACE
8
0
10
497.22824
20
112.02965
30
0.0
11
498.03726
21
111.441864
31
0.0
12
506.24274
22
122.735756
32
0.0
13
506.24283
23
122.735855
33
1.0E-4
0
3DFACE
8
0
10
506.24274
20
122.735756
30
0.0
11
497.22824
21
112.02965
31
0.0
12
505.43372
22
123.32354
32
0.0
13
505.4338
23
123.32364
33
1.0E-4
0
3DFACE
8
0
10
505.22333
20
123.25517
30
0.0
11
504.9143
21
122.304115
31
0.0
12
518.19104
22
117.990234
32
0.0
13
518.19116
23
117.99033
33
1.0E-4
0
3DFACE
8
0
10
518.19104
20
117.990234
30
0.0
11
505.22333
21
123.25517
31
0.0
12
518.50006
22
118.94129
32
0.0
13
518.5002
23
118.94139
33
1.0E-4
0
3DFACE
8
0
10
518.37006
20
119.12027
30
0.0
11
517.37006
21
119.12027
31
0.0
12
517.37006
22
105.160255
32
0.0
13
517.3702
23
105.160355
33
1.0E-4
0
3DFACE
8
0
10
517.37006
20
105.160255
30
0.0
11
518.37006
21
119.12027
31
0.0
12
518.37006
22
105.160255
32
0.0
13
518.3702
23
105.160355
33
1.0E-4
0
3DFACE
8
0
10
518.5001
20
105.33923
30
0.0
11
518.1911
21
106.29029
31
0.0
12
504.9143
22
101.97641
32
0.0
13
504.9144
23
101.97651
33
1.0E-4
0
3DFACE
8
0
10
504.9143
20
101.97641
30
0.0
11
518.5001
21
105.33923
31
0.0
12
505.22333
22
101.02535
32
0.0
13
505.22342
23
101.02545
33
1.0E-4
0
3DFACE
8
0
10
505.22333
20
102.28543
30
0.0
11
504.9143
21
101.33437
31
0.0
12
518.19104
22
97.02049
32
0.0
13
518.19116
23
97.02059
33
1.0E-4
0
3DFACE
8
0
10
518.19104
20
97.02049
30
0.0
11
505.22333
21
102.28543
31
0.0
12
518.50006
22
97.97155
32
0.0
13
518.5002
23
97.97165
33
1.0E-4
0
3DFACE
8
0
10
517.17163
20
97.53991
30
0.0
11
517.98065
21
96.952126
31
0.0
12
526.18616
22
108.24602
32
0.0
13
526.1863
23
108.24612
33
1.0E-4
0
3DFACE
8
0
10
526.18616
20
108.24602
30
0.0
11
517.17163
21
97.53991
31
0.0
12
525.37714
22
108.8338
32
0.0
13
525.37726
23
108.8339
33
1.0E-4
0
3DFACE
8
0
10
525.1667
20
108.765434
30
0.0
11
524.85767
21
107.81438
31
0.0
12
538.13446
22
103.500496
32
0.0
13
538.1346
23
103.500595
33
1.0E-4
0
3DFACE
8
0
10
538.13446
20
103.500496
30
0.0
11
525.1667
21
108.765434
31
0.0
12
538.4435
22
104.45155
32
0.0
13
538.4436
23
104.45165
33
1.0E-4
0
3DFACE
8
0
10
538.3134
20
104.63053
30
0.0
11
537.3134
21
104.63053
31
0.0
12
537.3134
22
90.67052
32
0.0
13
537.31354
23
90.670616
33
1.0E-4
0
3DFACE
8
0
10
537.3134
20
90.67052
30
0.0
11
538.3134
21
104.63053
31
0.0
12
538.3134
22
90.67052
32
0.0
13
538.31354
23
90.670616
33
1.0E-4
0
3DFACE
8
0
10
538.4435
20
90.849495
30
0.0
11
538.13446
21
91.80055
31
0.0
12
524.85767
22
87.48667
32
0.0
13
524.8578
23
87.48677
33
1.0E-4
0
3DFACE
8
0
10
524.85767
20
87.48667
30
0.0
11
538.4435
21
90.849495
31
0.0
12
525.1667
22
86.535614
32
0.0
13
525.1668
23
86.53571
33
1.0E-4
0
3DFACE
8
0
10
525.37714
20
86.46725
30
0.0
11
526.18616
21
87.05503
31
0.0
12
517.98065
22
98.34892
32
0.0
13
517.9808
23
98.34902
33
1.0E-4
0
3DFACE
8
0
10
517.98065
20
98.34892
30
0.0
11
525.37714
21
86.46725
31
0.0
12
517.17163
22
97.76114
32
0.0
13
517.17175
23
97.76124
33
1.0E-4
0
3DFACE
8
0
10
518.37006
20
98.15052
30
0.0
11
517.37006
21
98.15052
31
0.0
12
517.37006
22
84.190506
32
0.0
13
517.3702
23
84.190605
33
1.0E-4
0
3DFACE
8
0
10
517.37006
20
84.190506
30
0.0
11
518.37006
21
98.15052
31
0.0
12
518.37006
22
84.190506
32
0.0
13
518.3702
23
84.190605
33
1.0E-4
0
3DFACE
8
0
10
517.549
20
85.32054
30
0.0
11
517.24
21
84.369484
31
0.0
12
530.5168
22
80.0556
32
0.0
13
530.5169
23
80.0557
33
1.0E-4
0
3DFACE
8
0
10
530.5168
20
80.0556
30
0.0
11
517.549
21
85.32054
31
0.0
12
530.8258
22
81.00666
32
0.0
13
530.8259
23
81.00676
33
1.0E-4
0
3DFACE
8
0
10
530.69574
20
81.18564
30
0.0
11
529.69574
21
81.18564
31
0.0
12
529.69574
22
67.225624
32
0.0
13
529.69586
23
67.22572
33
1.0E-4
0
3DFACE
8
0
10
529.69574
20
67.225624
30
0.0
11
530.69574
21
81.18564
31
0.0
12
530.69574
22
67.225624
32
0.0
13
530.69586
23
67.22572
33
1.0E-4
0
3DFACE
8
0
10
530.8258
20
67.4046
30
0.0
11
530.5168
21
68.35566
31
0.0
12
517.24
22
64.04178
32
0.0
13
517.2401
23
64.04188
33
1.0E-4
0
3DFACE
8
0
10
517.24
20
64.04178
30
0.0
11
530.8258
21
67.4046
31
0.0
12
517.549
22
63.09072
32
0.0
13
517.54913
23
63.09082
33
1.0E-4
0
3DFACE
8
0
10
517.75946
20
63.022358
30
0.0
11
518.5685
21
63.610146
31
0.0
12
510.36298
22
74.90404
32
0.0
13
510.36307
23
74.90414
33
1.0E-4
0
3DFACE
8
0
10
510.36298
20
74.90404
30
0.0
11
517.75946
21
63.022358
31
0.0
12
509.55396
22
74.316246
32
0.0
13
509.55405
23
74.316345
33
1.0E-4
0
3DFACE
8
0
10
509.55396
20
74.09501
30
0.0
11
510.36298
21
73.507225
31
0.0
12
518.5685
22
84.80112
32
0.0
13
518.5686
23
84.801216
33
1.0E-4
0
3DFACE
8
0
10
518.5685
20
84.80112
30
0.0
11
509.55396
21
74.09501
31
0.0
12
517.75946
22
85.3889
32
0.0
13
517.7596
23
85.389
33
1.0E-4
0
3DFACE
8
0
10
518.5001
20
84.36948
30
0.0
11
518.1911
21
85.32053
31
0.0
12
504.9143
22
81.00665
32
0.0
13
504.9144
23
81.00675
33
1.0E-4
0
3DFACE
8
0
10
504.9143
20
81.00665
30
0.0
11
518.5001
21
84.36948
31
0.0
12
505.22333
22
80.055595
32
0.0
13
505.22342
23
80.055695
33
1.0E-4
0
3DFACE
8
0
10
506.04434
20
81.18563
30
0.0
11
505.04434
21
81.18563
31
0.0
12
505.04434
22
67.22562
32
0.0
13
505.04443
23
67.225716
33
1.0E-4
0
3DFACE
8
0
10
505.04434
20
67.22562
30
0.0
11
506.04434
21
81.18563
31
0.0
12
506.04434
22
67.22562
32
0.0
13
506.04443
23
67.225716
33
1.0E-4
0
3DFACE
8
0
10
506.17438
20
67.404594
30
0.0
11
505.86536
21
68.35565
31
0.0
12
492.5886
22
64.04177
32
0.0
13
492.58868
23
64.04187
33
1.0E-4
0
3DFACE
8
0
10
492.5886
20
64.04177
30
0.0
11
506.17438
21
67.404594
31
0.0
12
492.8976
22
63.090714
32
0.0
13
492.8977
23
63.090813
33
1.0E-4
0
3DFACE
8
0
10
493.108
20
63.02235
30
0.0
11
493.91702
21
63.610138
31
0.0
12
485.71155
22
74.90402
32
0.0
13
485.71164
23
74.90412
33
1.0E-4
0
3DFACE
8
0
10
485.71155
20
74.90402
30
0.0
11
493.108
21
63.02235
31
0.0
12
484.90253
22
74.31624
32
0.0
13
484.90262
23
74.31634
33
1.0E-4
0
3DFACE
8
0
10
484.90253
20
74.09501
30
0.0
11
485.71155
21
73.507225
31
0.0
12
493.91702
22
84.80112
32
0.0
13
493.9171
23
84.801216
33
1.0E-4
0
3DFACE
8
0
10
493.91702
20
84.80112
30
0.0
11
484.90253
21
74.09501
31
0.0
12
493.108
22
85.3889
32
0.0
13
493.1081
23
85.389
33
1.0E-4
0
3DFACE
8
0
10
492.8976
20
85.32053
30
0.0
11
492.5886
21
84.36948
31
0.0
12
505.86536
22
80.055595
32
0.0
13
505.86545
23
80.055695
33
1.0E-4
0
3DFACE
8
0
10
505.86536
20
80.055595
30
0.0
11
492.8976
21
85.32053
31
0.0
12
506.17438
22
81.00665
32
0.0
13
506.17447
23
81.00675
33
1.0E-4
0
3DFACE
8
0
10
505.43372
20
79.98723
30
0.0
11
506.24274
21
80.57501
31
0.0
12
498.03726
22
91.868904
32
0.0
13
498.03735
23
91.869
33
1.0E-4
0
3DFACE
8
0
10
498.03726
20
91.868904
30
0.0
11
505.43372
21
79.98723
31
0.0
12
497.22824
22
91.28112
32
0.0
13
497.22833
23
91.28122
33
1.0E-4
0
3DFACE
8
0
10
498.55667
20
90.84948
30
0.0
11
498.24765
21
91.80054
31
0.0
12
484.9709
22
87.48666
32
0.0
13
484.97098
23
87.486755
33
1.0E-4
0
3DFACE
8
0
10
484.9709
20
87.48666
30
0.0
11
498.55667
21
90.84948
31
0.0
12
485.2799
22
86.5356
32
0.0
13
485.28
23
86.5357
33
1.0E-4
0
3DFACE
8
0
10
485.4903
20
86.46723
30
0.0
11
486.29932
21
87.055016
31
0.0
12
478.09384
22
98.34891
32
0.0
13
478.09393
23
98.34901
33
1.0E-4
0
3DFACE
8
0
10
478.09384
20
98.34891
30
0.0
11
485.4903
21
86.46723
31
0.0
12
477.28482
22
97.76112
32
0.0
13
477.2849
23
97.76122
33
1.0E-4
0
3DFACE
8
0
10
477.28482
20
97.53989
30
0.0
11
478.09384
21
96.9521
31
0.0
12
486.29932
22
108.245995
32
0.0
13
486.2994
23
108.24609
33
1.0E-4
0
3DFACE
8
0
10
486.29932
20
108.245995
30
0.0
11
477.28482
21
97.53989
31
0.0
12
485.4903
22
108.83378
32
0.0
13
485.4904
23
108.83388
33
1.0E-4
0
3DFACE
8
0
10
486.23096
20
107.814354
30
0.0
11
485.92194
21
108.76541
31
0.0
12
472.64517
22
104.45153
32
0.0
13
472.64526
23
104.45163
33
1.0E-4
0
3DFACE
8
0
10
472.64517
20
104.45153
30
0.0
11
486.23096
21
107.814354
31
0.0
12
472.9542
22
103.50047
32
0.0
13
472.95428
23
103.50057
33
1.0E-4
0
3DFACE
8
0
10
473.16458
20
103.432106
30
0.0
11
473.9736
21
104.01989
31
0.0
12
465.76813
22
115.31378
32
0.0
13
465.76822
23
115.31388
33
1.0E-4
0
3DFACE
8
0
10
465.76813
20
115.31378
30
0.0
11
473.16458
21
103.432106
31
0.0
12
464.9591
22
114.726
32
0.0
13
464.9592
23
114.7261
33
1.0E-4
0
3DFACE
8
0
10
466.1575
20
115.11538
30
0.0
11
465.1575
21
115.11538
31
0.0
12
465.1575
22
101.155365
32
0.0
13
465.1576
23
101.155464
33
1.0E-4
0
3DFACE
8
0
10
465.1575
20
101.155365
30
0.0
11
466.1575
21
115.11538
31
0.0
12
466.1575
22
101.155365
32
0.0
13
466.1576
23
101.155464
33
1.0E-4
0
3DFACE
8
0
10
465.3365
20
102.2854
30
0.0
11
465.02747
21
101.33434
31
0.0
12
478.30423
22
97.02046
32
0.0
13
478.30432
23
97.02056
33
1.0E-4
0
3DFACE
8
0
10
478.30423
20
97.02046
30
0.0
11
465.3365
21
102.2854
31
0.0
12
478.61325
22
97.97152
32
0.0
13
478.61334
23
97.97162
33
1.0E-4
0
3DFACE
8
0
10
478.48322
20
98.1505
30
0.0
11
477.48322
21
98.1505
31
0.0
12
477.48322
22
84.19048
32
0.0
13
477.4833
23
84.19058
33
1.0E-4
0
3DFACE
8
0
10
477.48322
20
84.19048
30
0.0
11
478.48322
21
98.1505
31
0.0
12
478.48322
22
84.19048
32
0.0
13
478.4833
23
84.19058
33
1.0E-4
0
3DFACE
8
0
10
478.61325
20
84.36946
30
0.0
11
478.30423
21
85.32052
31
0.0
12
465.02747
22
81.00664
32
0.0
13
465.02756
23
81.00674
33
1.0E-4
0
3DFACE
8
0
10
465.02747
20
81.00664
30
0.0
11
478.61325
21
84.36946
31
0.0
12
465.3365
22
80.05558
32
0.0
13
465.33658
23
80.05568
33
1.0E-4
0
3DFACE
8
0
10
466.1575
20
81.185616
30
0.0
11
465.1575
21
81.185616
31
0.0
12
465.1575
22
67.2256
32
0.0
13
465.1576
23
67.2257
33
1.0E-4
0
3DFACE
8
0
10
465.1575
20
67.2256
30
0.0
11
466.1575
21
81.185616
31
0.0
12
466.1575
22
67.2256
32
0.0
13
466.1576
23
67.2257
33
1.0E-4
0
3DFACE
8
0
10
466.28754
20
67.40458
30
0.0
11
465.97852
21
68.35564
31
0.0
12
452.70175
22
64.041756
32
0.0
13
452.70184
23
64.041855
33
1.0E-4
0
3DFACE
8
0
10
452.70175
20
64.041756
30
0.0
11
466.28754
21
67.40458
31
0.0
12
453.01077
22
63.0907
32
0.0
13
453.01086
23
63.090797
33
1.0E-4
0
3DFACE
8
0
10
453.01077
20
64.35078
30
0.0
11
452.70175
21
63.39972
31
0.0
12
465.97852
22
59.08584
32
0.0
13
465.9786
23
59.085938
33
1.0E-4
0
3DFACE
8
0
10
465.97852
20
59.08584
30
0.0
11
453.01077
21
64.35078
31
0.0
12
466.28754
22
60.036896
32
0.0
13
466.28763
23
60.036995
33
1.0E-4
0
3DFACE
8
0
10
464.9591
20
59.60526
30
0.0
11
465.76813
21
59.01747
31
0.0
12
473.9736
22
70.31136
32
0.0
13
473.9737
23
70.31146
33
1.0E-4
0
3DFACE
8
0
10
473.9736
20
70.31136
30
0.0
11
464.9591
21
59.60526
31
0.0
12
473.16458
22
70.89915
32
0.0
13
473.16467
23
70.89925
33
1.0E-4
0
3DFACE
8
0
10
472.9542
20
70.83078
30
0.0
11
472.64517
21
69.87972
31
0.0
12
485.92194
22
65.56584
32
0.0
13
485.92203
23
65.56594
33
1.0E-4
0
3DFACE
8
0
10
485.92194
20
65.56584
30
0.0
11
472.9542
21
70.83078
31
0.0
12
486.23096
22
66.5169
32
0.0
13
486.23105
23
66.517
33
1.0E-4
0
3DFACE
8
0
10
486.10092
20
66.69588
30
0.0
11
485.10092
21
66.69588
31
0.0
12
485.10092
22
52.735863
32
0.0
13
485.101
23
52.735962
33
1.0E-4
0
3DFACE
8
0
10
485.10092
20
52.735863
30
0.0
11
486.10092
21
66.69588
31
0.0
12
486.10092
22
52.735863
32
0.0
13
486.101
23
52.735962
33
1.0E-4
0
3DFACE
8
0
10
486.23096
20
52.914845
30
0.0
11
485.92194
21
53.865902
31
0.0
12
472.64517
22
49.552017
32
0.0
13
472.64526
23
49.552116
33
1.0E-4
0
3DFACE
8
0
10
472.64517
20
49.552017
30
0.0
11
486.23096
21
52.914845
31
0.0
12
472.9542
22
48.60096
32
0.0
13
472.95428
23
48.60106
33
1.0E-4
0
3DFACE
8
0
10
473.16458
20
48.532597
30
0.0
11
473.9736
21
49.120384
31
0.0
12
465.76813
22
60.414272
32
0.0
13
465.76822
23
60.41437
33
1.0E-4
0
3DFACE
8
0
10
465.76813
20
60.414272
30
0.0
11
473.16458
21
48.532597
31
0.0
12
464.9591
22
59.826485
32
0.0
13
464.9592
23
59.826584
33
1.0E-4
0
3DFACE
8
0
10
466.1575
20
60.21587
30
0.0
11
465.1575
21
60.21587
31
0.0
12
465.1575
22
46.255856
32
0.0
13
465.1576
23
46.255955
33
1.0E-4
0
3DFACE
8
0
10
465.1575
20
46.255856
30
0.0
11
466.1575
21
60.21587
31
0.0
12
466.1575
22
46.255856
32
0.0
13
466.1576
23
46.255955
33
1.0E-4
0
3DFACE
8
0
10
465.3365
20
47.385895
30
0.0
11
465.02747
21
46.434837
31
0.0
12
478.30423
22
42.120956
32
0.0
13
478.30432
23
42.121056
33
1.0E-4
0
3DFACE
8
0
10
478.30423
20
42.120956
30
0.0
11
465.3365
21
47.385895
31
0.0
12
478.61325
22
43.072014
32
0.0
13
478.61334
23
43.072113
33
1.0E-4
0
3DFACE
8
0
10
478.48322
20
43.25099
30
0.0
11
477.48322
21
43.25099
31
0.0
12
477.48322
22
29.290977
32
0.0
13
477.4833
23
29.291077
33
1.0E-4
0
3DFACE
8
0
10
477.48322
20
29.290977
30
0.0
11
478.48322
21
43.25099
31
0.0
12
478.48322
22
29.290977
32
0.0
13
478.4833
23
29.291077
33
1.0E-4
0
3DFACE
8
0
10
478.61325
20
29.469957
30
0.0
11
478.30423
21
30.421015
31
0.0
12
465.02747
22
26.107132
32
0.0
13
465.02756
23
26.107231
33
1.0E-4
0
3DFACE
8
0
10
465.02747
20
26.107132
30
0.0
11
478.61325
21
29.469957
31
0.0
12
465.3365
22
25.156075
32
0.0
13
465.33658
23
25.156174
33
1.0E-4
0
3DFACE
8
0
10
465.54688
20
25.087711
30
0.0
11
466.3559
21
25.675497
31
0.0
12
458.15042
22
36.969387
32
0.0
13
458.1505
23
36.969486
33
1.0E-4
0
3DFACE
8
0
10
458.15042
20
36.969387
30
0.0
11
465.54688
21
25.087711
31
0.0
12
457.3414
22
36.3816
32
0.0
13
457.3415
23
36.3817
33
1.0E-4
0
3DFACE
8
0
10
457.3414
20
36.16037
30
0.0
11
458.15042
21
35.572582
31
0.0
12
466.3559
22
46.86647
32
0.0
13
466.356
23
46.86657
33
1.0E-4
0
3DFACE
8
0
10
466.3559
20
46.86647
30
0.0
11
457.3414
21
36.16037
31
0.0
12
465.54688
22
47.454258
32
0.0
13
465.54697
23
47.454357
33
1.0E-4
0
3DFACE
8
0
10
466.28754
20
46.434837
30
0.0
11
465.97852
21
47.385895
31
0.0
12
452.70175
22
43.07201
32
0.0
13
452.70184
23
43.07211
33
1.0E-4
0
3DFACE
8
0
10
452.70175
20
43.07201
30
0.0
11
466.28754
21
46.434837
31
0.0
12
453.01077
22
42.120953
32
0.0
13
453.01086
23
42.12105
33
1.0E-4
0
3DFACE
8
0
10
453.8318
20
43.25099
30
0.0
11
452.8318
21
43.25099
31
0.0
12
452.8318
22
29.290977
32
0.0
13
452.83188
23
29.291077
33
1.0E-4
0
3DFACE
8
0
10
452.8318
20
29.290977
30
0.0
11
453.8318
21
43.25099
31
0.0
12
453.8318
22
29.290977
32
0.0
13
453.83188
23
29.291077
33
1.0E-4
0
3DFACE
8
0
10
453.96182
20
29.469957
30
0.0
11
453.6528
21
30.421015
31
0.0
12
440.37604
22
26.107132
32
0.0
13
440.37613
23
26.107231
33
1.0E-4
0
3DFACE
8
0
10
440.37604
20
26.107132
30
0.0
11
453.96182
21
29.469957
31
0.0
12
440.68506
22
25.156075
32
0.0
13
440.68515
23
25.156174
33
1.0E-4
0
3DFACE
8
0
10
440.89545
20
25.087711
30
0.0
11
441.70447
21
25.675497
31
0.0
12
433.499
22
36.969387
32
0.0
13
433.49908
23
36.969486
33
1.0E-4
0
3DFACE
8
0
10
433.499
20
36.969387
30
0.0
11
440.89545
21
25.087711
31
0.0
12
432.68997
22
36.3816
32
0.0
13
432.69006
23
36.3817
33
1.0E-4
0
3DFACE
8
0
10
432.68997
20
36.16037
30
0.0
11
433.499
21
35.572582
31
0.0
12
441.70447
22
46.86647
32
0.0
13
441.70456
23
46.86657
33
1.0E-4
0
3DFACE
8
0
10
441.70447
20
46.86647
30
0.0
11
432.68997
21
36.16037
31
0.0
12
440.89545
22
47.454258
32
0.0
13
440.89554
23
47.454357
33
1.0E-4
0
3DFACE
8
0
10
440.68506
20
47.385895
30
0.0
11
440.37604
21
46.434837
31
0.0
12
453.6528
22
42.120953
32
0.0
13
453.6529
23
42.12105
33
1.0E-4
0
3DFACE
8
0
10
453.6528
20
42.120953
30
0.0
11
440.68506
21
47.385895
31
0.0
12
453.96182
22
43.07201
32
0.0
13
453.9619
23
43.07211
33
1.0E-4
0
3DFACE
8
0
10
453.22116
20
42.05259
30
0.0
11
454.03018
21
42.640377
31
0.0
12
445.8247
22
53.934265
32
0.0
13
445.8248
23
53.934364
33
1.0E-4
0
3DFACE
8
0
10
445.8247
20
53.934265
30
0.0
11
453.22116
21
42.05259
31
0.0
12
445.0157
22
53.34648
32
0.0
13
445.01578
23
53.34658
33
1.0E-4
0
3DFACE
8
0
10
446.34412
20
52.914845
30
0.0
11
446.0351
21
53.865902
31
0.0
12
432.75833
22
49.552017
32
0.0
13
432.75842
23
49.552116
33
1.0E-4
0
3DFACE
8
0
10
432.75833
20
49.552017
30
0.0
11
446.34412
21
52.914845
31
0.0
12
433.06735
22
48.60096
32
0.0
13
433.06744
23
48.60106
33
1.0E-4
0
3DFACE
8
0
10
433.27774
20
48.532597
30
0.0
11
434.08676
21
49.120384
31
0.0
12
425.8813
22
60.414272
32
0.0
13
425.88138
23
60.41437
33
1.0E-4
0
3DFACE
8
0
10
425.8813
20
60.414272
30
0.0
11
433.27774
21
48.532597
31
0.0
12
425.07227
22
59.826485
32
0.0
13
425.07236
23
59.826584
33
1.0E-4
0
3DFACE
8
0
10
425.07227
20
59.605255
30
0.0
11
425.8813
21
59.017467
31
0.0
12
434.08676
22
70.311356
32
0.0
13
434.08685
23
70.311455
33
1.0E-4
0
3DFACE
8
0
10
434.08676
20
70.311356
30
0.0
11
425.07227
21
59.605255
31
0.0
12
433.27774
22
70.89914
32
0.0
13
433.27783
23
70.89924
33
1.0E-4
0
3DFACE
8
0
10
433.06735
20
70.83078
30
0.0
11
432.75833
21
69.87972
31
0.0
12
446.0351
22
65.56584
32
0.0
13
446.0352
23
65.56594
33
1.0E-4
0
3DFACE
8
0
10
446.0351
20
65.56584
30
0.0
11
433.06735
21
70.83078
31
0.0
12
446.34412
22
66.5169
32
0.0
13
446.3442
23
66.517
33
1.0E-4
0
3DFACE
8
0
10
446.21408
20
66.69588
30
0.0
11
445.21408
21
66.69588
31
0.0
12
445.21408
22
52.735863
32
0.0
13
445.21417
23
52.735962
33
1.0E-4
0
3DFACE
8
0
10
445.21408
20
52.735863
30
0.0
11
446.21408
21
66.69588
31
0.0
12
446.21408
22
52.735863
32
0.0
13
446.21417
23
52.735962
33
1.0E-4
0
3DFACE
8
0
10
445.0157
20
53.125248
30
0.0
11
445.8247
21
52.53746
31
0.0
12
454.03018
22
63.831352
32
0.0
13
454.03027
23
63.83145
33
1.0E-4
0
3DFACE
8
0
10
454.03018
20
63.831352
30
0.0
11
445.0157
21
53.125248
31
0.0
12
453.22116
22
64.419136
32
0.0
13
453.22125
23
64.419235
33
1.0E-4
0
3DFACE
8
0
10
453.22116
20
63.02233
30
0.0
11
454.03018
21
63.61012
31
0.0
12
445.8247
22
74.90401
32
0.0
13
445.8248
23
74.904106
33
1.0E-4
0
3DFACE
8
0
10
445.8247
20
74.90401
30
0.0
11
453.22116
21
63.02233
31
0.0
12
445.0157
22
74.31622
32
0.0
13
445.01578
23
74.31632
33
1.0E-4
0
3DFACE
8
0
10
445.0157
20
74.094986
30
0.0
11
445.8247
21
73.5072
31
0.0
12
454.03018
22
84.801094
32
0.0
13
454.03027
23
84.80119
33
1.0E-4
0
3DFACE
8
0
10
454.03018
20
84.801094
30
0.0
11
445.0157
21
74.094986
31
0.0
12
453.22116
22
85.38888
32
0.0
13
453.22125
23
85.38898
33
1.0E-4
0
3DFACE
8
0
10
453.01077
20
85.32051
30
0.0
11
452.70175
21
84.36945
31
0.0
12
465.97852
22
80.05557
32
0.0
13
465.9786
23
80.05567
33
1.0E-4
0
3DFACE
8
0
10
465.97852
20
80.05557
30
0.0
11
453.01077
21
85.32051
31
0.0
12
466.28754
22
81.00663
32
0.0
13
466.28763
23
81.00673
33
1.0E-4
0
3DFACE
8
0
10
465.54688
20
79.987206
30
0.0
11
466.3559
21
80.57499
31
0.0
12
458.15042
22
91.86888
32
0.0
13
458.1505
23
91.86898
33
1.0E-4
0
3DFACE
8
0
10
458.15042
20
91.86888
30
0.0
11
465.54688
21
79.987206
31
0.0
12
457.3414
22
91.2811
32
0.0
13
457.3415
23
91.2812
33
1.0E-4
0
3DFACE
8
0
10
457.3414
20
91.05986
30
0.0
11
458.15042
21
90.47208
31
0.0
12
466.3559
22
101.76597
32
0.0
13
466.356
23
101.76607
33
1.0E-4
0
3DFACE
8
0
10
466.3559
20
101.76597
30
0.0
11
457.3414
21
91.05986
31
0.0
12
465.54688
22
102.35375
32
0.0
13
465.54697
23
102.35385
33
1.0E-4
0
3DFACE
8
0
10
466.28754
20
101.33433
30
0.0
11
465.97852
21
102.285385
31
0.0
12
452.70175
22
97.971504
32
0.0
13
452.70184
23
97.9716
33
1.0E-4
0
3DFACE
8
0
10
452.70175
20
97.971504
30
0.0
11
466.28754
21
101.33433
31
0.0
12
453.01077
22
97.02045
32
0.0
13
453.01086
23
97.020546
33
1.0E-4
0
3DFACE
8
0
10
453.8318
20
98.15048
30
0.0
11
452.8318
21
98.15048
31
0.0
12
452.8318
22
84.19047
32
0.0
13
452.83188
23
84.19057
33
1.0E-4
0
3DFACE
8
0
10
452.8318
20
84.19047
30
0.0
11
453.8318
21
98.15048
31
0.0
12
453.8318
22
84.19047
32
0.0
13
453.83188
23
84.19057
33
1.0E-4
0
3DFACE
8
0
10
453.96182
20
84.369446
30
0.0
11
453.6528
21
85.3205
31
0.0
12
440.37604
22
81.00662
32
0.0
13
440.37613
23
81.00672
33
1.0E-4
0
3DFACE
8
0
10
440.37604
20
81.00662
30
0.0
11
453.96182
21
84.369446
31
0.0
12
440.68506
22
80.055565
32
0.0
13
440.68515
23
80.055664
33
1.0E-4
0
3DFACE
8
0
10
440.89545
20
79.9872
30
0.0
11
441.70447
21
80.57498
31
0.0
12
433.499
22
91.86887
32
0.0
13
433.49908
23
91.86897
33
1.0E-4
0
3DFACE
8
0
10
433.499
20
91.86887
30
0.0
11
440.89545
21
79.9872
31
0.0
12
432.68997
22
91.28109
32
0.0
13
432.69006
23
91.28119
33
1.0E-4
0
3DFACE
8
0
10
434.0184
20
90.84945
30
0.0
11
433.70938
21
91.80051
31
0.0
12
420.43262
22
87.486626
32
0.0
13
420.4327
23
87.486725
33
1.0E-4
0
3DFACE
8
0
10
420.43262
20
87.486626
30
0.0
11
434.0184
21
90.84945
31
0.0
12
420.74164
22
86.53557
32
0.0
13
420.74173
23
86.53567
33
1.0E-4
0
3DFACE
8
0
10
420.95203
20
86.4672
30
0.0
11
421.76105
21
87.054985
31
0.0
12
413.55557
22
98.34888
32
0.0
13
413.55566
23
98.348976
33
1.0E-4
0
3DFACE
8
0
10
413.55557
20
98.34888
30
0.0
11
420.95203
21
86.4672
31
0.0
12
412.74655
22
97.76109
32
0.0
13
412.74664
23
97.76119
33
1.0E-4
0
ENDSEC
0
EOF
